<?xml version="1.0" encoding="UTF-8" standalone="no"?>
<!DOCTYPE svg PUBLIC "-//W3C//DTD SVG 1.1//EN" "http://www.w3.org/Graphics/SVG/1.1/DTD/svg11.dtd">
<svg xmlns="http://www.w3.org/2000/svg" version="1.1" viewBox="0.00 0.00 400.00 195.00">
<g stroke-width="2.00" fill="none" stroke-linecap="butt">
<path stroke="#a0c1de" vector-effect="non-scaling-stroke" d="
  M 217.5384 41.1942
  A 7.44 6.61 -1.2 0 0 209.9616 34.7414
  A 7.44 6.61 -1.2 0 0 202.6616 41.5058
  A 7.44 6.61 -1.2 0 0 210.2384 47.9586
  A 7.44 6.61 -1.2 0 0 217.5384 41.1942"
/>
<path stroke="#a3d3a4" vector-effect="non-scaling-stroke" d="
  M 198.3159 49.5540
  A 7.42 6.70 -1.9 0 0 190.6779 43.1037
  A 7.42 6.70 -1.9 0 0 183.4841 50.0460
  A 7.42 6.70 -1.9 0 0 191.1221 56.4963
  A 7.42 6.70 -1.9 0 0 198.3159 49.5540"
/>
<path stroke="#96a9c7" vector-effect="non-scaling-stroke" d="
  M 237.1981 49.5903
  A 7.48 6.75 -1.3 0 0 229.5669 43.0117
  A 7.48 6.75 -1.3 0 0 222.2419 49.9297
  A 7.48 6.75 -1.3 0 0 229.8731 56.5083
  A 7.48 6.75 -1.3 0 0 237.1981 49.5903"
/>
<path stroke="#cde39f" vector-effect="non-scaling-stroke" d="
  M 180.7898 54.8672
  A 4.09 3.56 -0.6 0 0 176.6627 51.3502
  A 4.09 3.56 -0.6 0 0 172.6102 54.9528
  A 4.09 3.56 -0.6 0 0 176.7373 58.4698
  A 4.09 3.56 -0.6 0 0 180.7898 54.8672"
/>
<path stroke="#a0c1de" vector-effect="non-scaling-stroke" d="
  M 219.6594 54.9717
  A 4.11 3.50 1.0 0 0 215.6111 51.4005
  A 4.11 3.50 1.0 0 0 211.4406 54.8283
  A 4.11 3.50 1.0 0 0 215.4889 58.3995
  A 4.11 3.50 1.0 0 0 219.6594 54.9717"
/>
<path stroke="#a0c1de" vector-effect="non-scaling-stroke" d="
  M 208.9458 58.0011
  A 2.38 1.91 3.4 0 0 206.6833 55.9534
  A 2.38 1.91 3.4 0 0 204.1942 57.7189
  A 2.38 1.91 3.4 0 0 206.4567 59.7666
  A 2.38 1.91 3.4 0 0 208.9458 58.0011"
/>
<path stroke="#cde39f" vector-effect="non-scaling-stroke" d="
  M 169.2342 58.6557
  A 2.63 2.29 -3.8 0 0 166.4582 56.5450
  A 2.63 2.29 -3.8 0 0 163.9858 59.0043
  A 2.63 2.29 -3.8 0 0 166.7618 61.1150
  A 2.63 2.29 -3.8 0 0 169.2342 58.6557"
/>
<path stroke="#a3d3a4" vector-effect="non-scaling-stroke" d="
  M 189.4684 67.6448
  A 7.41 6.67 -1.2 0 0 181.9203 61.1315
  A 7.41 6.67 -1.2 0 0 174.6516 67.9552
  A 7.41 6.67 -1.2 0 0 182.1997 74.4685
  A 7.41 6.67 -1.2 0 0 189.4684 67.6448"
/>
<path stroke="#96a9c7" vector-effect="non-scaling-stroke" d="
  M 246.1199 67.8293
  A 7.51 6.70 0.3 0 0 238.6451 61.0901
  A 7.51 6.70 0.3 0 0 231.1001 67.7507
  A 7.51 6.70 0.3 0 0 238.5749 74.4899
  A 7.51 6.70 0.3 0 0 246.1199 67.8293"
/>
<path stroke="#cde39f" vector-effect="non-scaling-stroke" d="
  M 170.5900 67.7431
  A 3.94 3.64 -0.1 0 0 166.6436 64.1100
  A 3.94 3.64 -0.1 0 0 162.7100 67.7569
  A 3.94 3.64 -0.1 0 0 166.6564 71.3900
  A 3.94 3.64 -0.1 0 0 170.5900 67.7431"
/>
<path stroke="#a0c1de" vector-effect="non-scaling-stroke" d="
  M 227.1991 67.8538
  A 4.00 3.59 1.2 0 0 223.2752 64.1808
  A 4.00 3.59 1.2 0 0 219.2009 67.6862
  A 4.00 3.59 1.2 0 0 223.1248 71.3592
  A 4.00 3.59 1.2 0 0 227.1991 67.8538"
/>
<path stroke="#cde39f" vector-effect="non-scaling-stroke" d="
  M 158.8946 67.6680
  A 2.74 2.21 -3.6 0 0 156.0212 65.6344
  A 2.74 2.21 -3.6 0 0 153.4254 68.0120
  A 2.74 2.21 -3.6 0 0 156.2988 70.0456
  A 2.74 2.21 -3.6 0 0 158.8946 67.6680"
/>
<path stroke="#a0c1de" vector-effect="non-scaling-stroke" d="
  M 216.0380 67.6725
  A 2.35 2.05 -5.8 0 0 213.4928 65.8705
  A 2.35 2.05 -5.8 0 0 211.3620 68.1475
  A 2.35 2.05 -5.8 0 0 213.9072 69.9495
  A 2.35 2.05 -5.8 0 0 216.0380 67.6725"
/>
<path stroke="#cde39f" vector-effect="non-scaling-stroke" d="
  M 169.2148 76.6642
  A 2.64 2.26 -3.6 0 0 166.4381 74.5745
  A 2.64 2.26 -3.6 0 0 163.9452 76.9958
  A 2.64 2.26 -3.6 0 0 166.7219 79.0855
  A 2.64 2.26 -3.6 0 0 169.2148 76.6642"
/>
<path stroke="#a0c1de" vector-effect="non-scaling-stroke" d="
  M 208.8290 77.6556
  A 2.30 1.98 -5.6 0 0 206.3468 75.9094
  A 2.30 1.98 -5.6 0 0 204.2510 78.1044
  A 2.30 1.98 -5.6 0 0 206.7332 79.8506
  A 2.30 1.98 -5.6 0 0 208.8290 77.6556"
/>
<path stroke="#cde39f" vector-effect="non-scaling-stroke" d="
  M 180.7293 80.7168
  A 4.00 3.56 1.1 0 0 176.7983 77.0807
  A 4.00 3.56 1.1 0 0 172.7307 80.5632
  A 4.00 3.56 1.1 0 0 176.6617 84.1993
  A 4.00 3.56 1.1 0 0 180.7293 80.7168"
/>
<path stroke="#a0c1de" vector-effect="non-scaling-stroke" d="
  M 219.5690 80.7812
  A 4.02 3.57 1.3 0 0 215.6310 77.1209
  A 4.02 3.57 1.3 0 0 211.5310 80.5988
  A 4.02 3.57 1.3 0 0 215.4690 84.2591
  A 4.02 3.57 1.3 0 0 219.5690 80.7812"
/>
<path stroke="#a3d3a4" vector-effect="non-scaling-stroke" d="
  M 198.4400 85.8861
  A 7.49 6.74 0.2 0 0 190.9735 79.1200
  A 7.49 6.74 0.2 0 0 183.4600 85.8339
  A 7.49 6.74 0.2 0 0 190.9265 92.6000
  A 7.49 6.74 0.2 0 0 198.4400 85.8861"
/>
<path stroke="#96a9c7" vector-effect="non-scaling-stroke" d="
  M 237.1635 85.5080
  A 7.45 6.77 -2.4 0 0 229.4365 79.0559
  A 7.45 6.77 -2.4 0 0 222.2765 86.1320
  A 7.45 6.77 -2.4 0 0 230.0035 92.5841
  A 7.45 6.77 -2.4 0 0 237.1635 85.5080"
/>
<path stroke="#a0c1de" vector-effect="non-scaling-stroke" d="
  M 217.5399 94.2790
  A 7.44 6.64 0.3 0 0 210.1348 87.6001
  A 7.44 6.64 0.3 0 0 202.6601 94.2010
  A 7.44 6.64 0.3 0 0 210.0652 100.8799
  A 7.44 6.64 0.3 0 0 217.5399 94.2790"
/>
<path stroke="#96a9c7" vector-effect="non-scaling-stroke" d="
  M 141.54 139.68
  A 0.91 0.91 0.0 0 0 142.46 140.72
  L 149.64 140.56
  A 0.91 0.91 0.0 0 0 150.52 139.78
  L 155.98 102.05
  A 0.91 0.91 0.0 0 0 155.07 101.01
  L 147.95 101.06
  A 0.91 0.91 0.0 0 0 147.06 101.84
  L 141.54 139.68"
/>
<path stroke="#96a9c7" vector-effect="non-scaling-stroke" d="
  M 125.62 139.55
  A 1.02 1.02 0.0 0 0 126.65 140.72
  L 133.57 140.63
  A 1.02 1.02 0.0 0 0 134.57 139.76
  L 140.11 102.16
  A 1.02 1.02 0.0 0 0 139.08 100.99
  L 132.13 101.09
  A 1.02 1.02 0.0 0 0 131.13 101.96
  L 125.62 139.55"
/>
<path stroke="#96a9c7" vector-effect="non-scaling-stroke" d="
  M 109.97 132.30
  A 0.93 0.93 0.0 0 1 110.89 133.08
  L 112.02 139.83
  A 0.93 0.93 0.0 0 0 112.93 140.61
  L 120.61 140.71
  A 0.93 0.93 0.0 0 0 121.53 139.59
  L 113.65 102.95
  A 0.93 0.93 0.0 0 0 112.74 102.22
  L 103.37 102.18
  A 0.93 0.93 0.0 0 0 102.54 102.69
  L 83.95 139.33
  A 0.93 0.93 0.0 0 0 84.77 140.68
  L 91.44 140.73
  A 0.93 0.93 0.0 0 0 92.29 140.19
  L 95.73 132.82
  A 0.93 0.93 0.0 0 1 96.57 132.28
  L 109.97 132.30"
/>
<path stroke="#96a9c7" vector-effect="non-scaling-stroke" d="
  M 167.45 130.13
  C 172.75 129.77 178.57 128.99 182.96 125.83
  C 186.24 123.48 187.69 119.23 185.37 115.70
  Q 183.21 112.42 178.24 111.74
  Q 167.14 110.21 160.99 118.30
  C 156.53 124.16 156.28 134.43 163.01 138.80
  C 169.04 142.72 177.98 141.29 183.79 137.39
  A 1.28 1.28 0.0 0 0 184.15 135.63
  L 182.27 132.75
  Q 181.75 131.96 180.94 132.44
  C 177.00 134.79 168.51 137.17 166.70 131.23
  A 0.86 0.85 79.7 0 1 167.45 130.13"
/>
<path stroke="#96a9c7" vector-effect="non-scaling-stroke" d="
  M 201.37 114.39
  L 201.17 112.72
  Q 201.08 112.01 200.37 112.01
  L 193.76 112.02
  A 0.83 0.83 0.0 0 0 192.94 112.73
  L 189.14 139.34
  Q 188.95 140.70 190.33 140.68
  L 196.68 140.60
  Q 197.76 140.59 197.95 139.53
  Q 199.02 133.78 199.70 127.76
  Q 200.05 124.64 201.53 122.54
  C 202.93 120.54 205.90 118.56 208.49 119.11
  Q 209.47 119.31 210.40 119.28
  Q 211.04 119.26 211.22 118.64
  L 212.85 112.85
  Q 213.06 112.11 212.33 111.90
  C 209.88 111.20 206.80 111.35 204.68 113.00
  Q 203.47 113.94 202.14 114.76
  Q 201.46 115.17 201.37 114.39"
/>
<path stroke="#96a9c7" vector-effect="non-scaling-stroke" d="
  M 232.91 136.77
  C 232.47 139.70 231.65 143.07 228.54 143.89
  C 224.36 144.99 218.97 144.26 215.62 142.18
  Q 214.74 141.63 214.16 142.49
  L 211.76 146.04
  A 1.18 1.18 0.0 0 0 212.22 147.76
  C 220.91 152.01 233.02 152.68 239.12 144.53
  Q 241.31 141.60 242.30 135.04
  Q 243.99 123.86 245.55 112.84
  Q 245.67 111.99 244.81 111.99
  L 238.54 112.02
  A 1.47 1.46 -82.7 0 0 237.14 113.11
  Q 236.94 113.86 236.33 114.29
  Q 235.81 114.65 235.33 114.23
  C 229.11 108.60 219.48 112.07 215.42 118.30
  Q 212.74 122.43 212.62 127.62
  C 212.37 138.54 224.31 142.70 232.32 136.43
  Q 233.05 135.86 232.91 136.77"
/>
<path stroke="#96a9c7" vector-effect="non-scaling-stroke" d="
  M 269.59 137.88
  Q 269.96 138.32 269.72 139.40
  A 1.09 1.09 0.0 0 0 270.80 140.73
  L 276.41 140.64
  A 1.54 1.53 3.7 0 0 277.91 139.33
  L 281.87 112.87
  A 0.72 0.71 -85.4 0 0 281.18 112.05
  Q 278.26 112.01 275.21 112.02
  C 274.04 112.02 273.15 112.61 273.01 113.85
  A 0.83 0.83 0.0 0 1 271.63 114.37
  C 266.79 109.96 259.45 110.86 254.75 115.13
  Q 248.55 120.76 249.05 129.99
  C 249.64 140.97 260.29 144.13 268.43 137.76
  A 0.84 0.84 0.0 0 1 269.59 137.88"
/>
<path stroke="#96a9c7" vector-effect="non-scaling-stroke" d="
  M 297.28 114.19
  L 297.06 112.61
  Q 296.98 112.00 296.36 112.00
  L 289.62 112.03
  A 0.95 0.95 0.0 0 0 288.68 112.85
  L 284.99 139.24
  Q 284.79 140.67 286.24 140.67
  L 292.42 140.65
  A 1.49 1.48 4.0 0 0 293.89 139.38
  Q 294.88 132.37 296.00 124.84
  C 296.42 122.00 298.17 119.85 300.81 118.67
  C 303.90 117.29 307.53 119.08 307.01 122.77
  Q 305.86 130.97 304.54 139.35
  Q 304.31 140.80 305.78 140.76
  L 312.18 140.58
  A 1.63 1.63 0.0 0 0 313.76 139.05
  C 314.08 133.35 315.39 127.81 315.97 122.09
  C 316.51 116.67 315.36 112.38 309.01 111.59
  C 304.81 111.06 301.56 112.26 298.17 114.59
  Q 297.41 115.11 297.28 114.19"
/>
<path stroke="#96a9c7" vector-effect="non-scaling-stroke" d="
  M 99.46 125.45
  A 0.36 0.36 0.0 0 0 99.79 125.96
  L 108.93 125.96
  A 0.36 0.36 0.0 0 0 109.28 125.54
  L 106.73 111.53
  A 0.36 0.36 0.0 0 0 106.05 111.44
  L 99.46 125.45"
/>
<path stroke="#96a9c7" vector-effect="non-scaling-stroke" d="
  M 167.20 123.50
  Q 166.91 124.58 168.01 124.48
  C 171.34 124.20 176.58 123.63 178.04 120.17
  Q 178.23 119.72 177.99 119.30
  C 174.72 113.46 168.38 119.24 167.20 123.50"
/>
<path stroke="#96a9c7" vector-effect="non-scaling-stroke" d="
  M 225.0112 132.4034
  A 7.80 6.11 115.1 0 0 233.8530 127.9319
  A 7.80 6.11 115.1 0 0 231.6288 118.2766
  A 7.80 6.11 115.1 0 0 222.7870 122.7481
  A 7.80 6.11 115.1 0 0 225.0112 132.4034"
/>
<path stroke="#96a9c7" vector-effect="non-scaling-stroke" d="
  M 261.9212 134.2429
  A 8.55 6.10 108.4 0 0 270.4081 128.0555
  A 8.55 6.10 108.4 0 0 267.3188 118.0171
  A 8.55 6.10 108.4 0 0 258.8319 124.2045
  A 8.55 6.10 108.4 0 0 261.9212 134.2429"
/>
</g>
<path fill="#ffffff" d="
  M 0.00 0.00
  L 400.00 0.00
  L 400.00 195.00
  L 0.00 195.00
  L 0.00 0.00
  Z
  M 217.5384 41.1942
  A 7.44 6.61 -1.2 0 0 209.9616 34.7414
  A 7.44 6.61 -1.2 0 0 202.6616 41.5058
  A 7.44 6.61 -1.2 0 0 210.2384 47.9586
  A 7.44 6.61 -1.2 0 0 217.5384 41.1942
  Z
  M 198.3159 49.5540
  A 7.42 6.70 -1.9 0 0 190.6779 43.1037
  A 7.42 6.70 -1.9 0 0 183.4841 50.0460
  A 7.42 6.70 -1.9 0 0 191.1221 56.4963
  A 7.42 6.70 -1.9 0 0 198.3159 49.5540
  Z
  M 237.1981 49.5903
  A 7.48 6.75 -1.3 0 0 229.5669 43.0117
  A 7.48 6.75 -1.3 0 0 222.2419 49.9297
  A 7.48 6.75 -1.3 0 0 229.8731 56.5083
  A 7.48 6.75 -1.3 0 0 237.1981 49.5903
  Z
  M 180.7898 54.8672
  A 4.09 3.56 -0.6 0 0 176.6627 51.3502
  A 4.09 3.56 -0.6 0 0 172.6102 54.9528
  A 4.09 3.56 -0.6 0 0 176.7373 58.4698
  A 4.09 3.56 -0.6 0 0 180.7898 54.8672
  Z
  M 219.6594 54.9717
  A 4.11 3.50 1.0 0 0 215.6111 51.4005
  A 4.11 3.50 1.0 0 0 211.4406 54.8283
  A 4.11 3.50 1.0 0 0 215.4889 58.3995
  A 4.11 3.50 1.0 0 0 219.6594 54.9717
  Z
  M 208.9458 58.0011
  A 2.38 1.91 3.4 0 0 206.6833 55.9534
  A 2.38 1.91 3.4 0 0 204.1942 57.7189
  A 2.38 1.91 3.4 0 0 206.4567 59.7666
  A 2.38 1.91 3.4 0 0 208.9458 58.0011
  Z
  M 169.2342 58.6557
  A 2.63 2.29 -3.8 0 0 166.4582 56.5450
  A 2.63 2.29 -3.8 0 0 163.9858 59.0043
  A 2.63 2.29 -3.8 0 0 166.7618 61.1150
  A 2.63 2.29 -3.8 0 0 169.2342 58.6557
  Z
  M 189.4684 67.6448
  A 7.41 6.67 -1.2 0 0 181.9203 61.1315
  A 7.41 6.67 -1.2 0 0 174.6516 67.9552
  A 7.41 6.67 -1.2 0 0 182.1997 74.4685
  A 7.41 6.67 -1.2 0 0 189.4684 67.6448
  Z
  M 246.1199 67.8293
  A 7.51 6.70 0.3 0 0 238.6451 61.0901
  A 7.51 6.70 0.3 0 0 231.1001 67.7507
  A 7.51 6.70 0.3 0 0 238.5749 74.4899
  A 7.51 6.70 0.3 0 0 246.1199 67.8293
  Z
  M 170.5900 67.7431
  A 3.94 3.64 -0.1 0 0 166.6436 64.1100
  A 3.94 3.64 -0.1 0 0 162.7100 67.7569
  A 3.94 3.64 -0.1 0 0 166.6564 71.3900
  A 3.94 3.64 -0.1 0 0 170.5900 67.7431
  Z
  M 227.1991 67.8538
  A 4.00 3.59 1.2 0 0 223.2752 64.1808
  A 4.00 3.59 1.2 0 0 219.2009 67.6862
  A 4.00 3.59 1.2 0 0 223.1248 71.3592
  A 4.00 3.59 1.2 0 0 227.1991 67.8538
  Z
  M 158.8946 67.6680
  A 2.74 2.21 -3.6 0 0 156.0212 65.6344
  A 2.74 2.21 -3.6 0 0 153.4254 68.0120
  A 2.74 2.21 -3.6 0 0 156.2988 70.0456
  A 2.74 2.21 -3.6 0 0 158.8946 67.6680
  Z
  M 216.0380 67.6725
  A 2.35 2.05 -5.8 0 0 213.4928 65.8705
  A 2.35 2.05 -5.8 0 0 211.3620 68.1475
  A 2.35 2.05 -5.8 0 0 213.9072 69.9495
  A 2.35 2.05 -5.8 0 0 216.0380 67.6725
  Z
  M 169.2148 76.6642
  A 2.64 2.26 -3.6 0 0 166.4381 74.5745
  A 2.64 2.26 -3.6 0 0 163.9452 76.9958
  A 2.64 2.26 -3.6 0 0 166.7219 79.0855
  A 2.64 2.26 -3.6 0 0 169.2148 76.6642
  Z
  M 208.8290 77.6556
  A 2.30 1.98 -5.6 0 0 206.3468 75.9094
  A 2.30 1.98 -5.6 0 0 204.2510 78.1044
  A 2.30 1.98 -5.6 0 0 206.7332 79.8506
  A 2.30 1.98 -5.6 0 0 208.8290 77.6556
  Z
  M 180.7293 80.7168
  A 4.00 3.56 1.1 0 0 176.7983 77.0807
  A 4.00 3.56 1.1 0 0 172.7307 80.5632
  A 4.00 3.56 1.1 0 0 176.6617 84.1993
  A 4.00 3.56 1.1 0 0 180.7293 80.7168
  Z
  M 219.5690 80.7812
  A 4.02 3.57 1.3 0 0 215.6310 77.1209
  A 4.02 3.57 1.3 0 0 211.5310 80.5988
  A 4.02 3.57 1.3 0 0 215.4690 84.2591
  A 4.02 3.57 1.3 0 0 219.5690 80.7812
  Z
  M 198.4400 85.8861
  A 7.49 6.74 0.2 0 0 190.9735 79.1200
  A 7.49 6.74 0.2 0 0 183.4600 85.8339
  A 7.49 6.74 0.2 0 0 190.9265 92.6000
  A 7.49 6.74 0.2 0 0 198.4400 85.8861
  Z
  M 237.1635 85.5080
  A 7.45 6.77 -2.4 0 0 229.4365 79.0559
  A 7.45 6.77 -2.4 0 0 222.2765 86.1320
  A 7.45 6.77 -2.4 0 0 230.0035 92.5841
  A 7.45 6.77 -2.4 0 0 237.1635 85.5080
  Z
  M 217.5399 94.2790
  A 7.44 6.64 0.3 0 0 210.1348 87.6001
  A 7.44 6.64 0.3 0 0 202.6601 94.2010
  A 7.44 6.64 0.3 0 0 210.0652 100.8799
  A 7.44 6.64 0.3 0 0 217.5399 94.2790
  Z
  M 141.54 139.68
  A 0.91 0.91 0.0 0 0 142.46 140.72
  L 149.64 140.56
  A 0.91 0.91 0.0 0 0 150.52 139.78
  L 155.98 102.05
  A 0.91 0.91 0.0 0 0 155.07 101.01
  L 147.95 101.06
  A 0.91 0.91 0.0 0 0 147.06 101.84
  L 141.54 139.68
  Z
  M 125.62 139.55
  A 1.02 1.02 0.0 0 0 126.65 140.72
  L 133.57 140.63
  A 1.02 1.02 0.0 0 0 134.57 139.76
  L 140.11 102.16
  A 1.02 1.02 0.0 0 0 139.08 100.99
  L 132.13 101.09
  A 1.02 1.02 0.0 0 0 131.13 101.96
  L 125.62 139.55
  Z
  M 109.97 132.30
  A 0.93 0.93 0.0 0 1 110.89 133.08
  L 112.02 139.83
  A 0.93 0.93 0.0 0 0 112.93 140.61
  L 120.61 140.71
  A 0.93 0.93 0.0 0 0 121.53 139.59
  L 113.65 102.95
  A 0.93 0.93 0.0 0 0 112.74 102.22
  L 103.37 102.18
  A 0.93 0.93 0.0 0 0 102.54 102.69
  L 83.95 139.33
  A 0.93 0.93 0.0 0 0 84.77 140.68
  L 91.44 140.73
  A 0.93 0.93 0.0 0 0 92.29 140.19
  L 95.73 132.82
  A 0.93 0.93 0.0 0 1 96.57 132.28
  L 109.97 132.30
  Z
  M 167.45 130.13
  C 172.75 129.77 178.57 128.99 182.96 125.83
  C 186.24 123.48 187.69 119.23 185.37 115.70
  Q 183.21 112.42 178.24 111.74
  Q 167.14 110.21 160.99 118.30
  C 156.53 124.16 156.28 134.43 163.01 138.80
  C 169.04 142.72 177.98 141.29 183.79 137.39
  A 1.28 1.28 0.0 0 0 184.15 135.63
  L 182.27 132.75
  Q 181.75 131.96 180.94 132.44
  C 177.00 134.79 168.51 137.17 166.70 131.23
  A 0.86 0.85 79.7 0 1 167.45 130.13
  Z
  M 201.37 114.39
  L 201.17 112.72
  Q 201.08 112.01 200.37 112.01
  L 193.76 112.02
  A 0.83 0.83 0.0 0 0 192.94 112.73
  L 189.14 139.34
  Q 188.95 140.70 190.33 140.68
  L 196.68 140.60
  Q 197.76 140.59 197.95 139.53
  Q 199.02 133.78 199.70 127.76
  Q 200.05 124.64 201.53 122.54
  C 202.93 120.54 205.90 118.56 208.49 119.11
  Q 209.47 119.31 210.40 119.28
  Q 211.04 119.26 211.22 118.64
  L 212.85 112.85
  Q 213.06 112.11 212.33 111.90
  C 209.88 111.20 206.80 111.35 204.68 113.00
  Q 203.47 113.94 202.14 114.76
  Q 201.46 115.17 201.37 114.39
  Z
  M 232.91 136.77
  C 232.47 139.70 231.65 143.07 228.54 143.89
  C 224.36 144.99 218.97 144.26 215.62 142.18
  Q 214.74 141.63 214.16 142.49
  L 211.76 146.04
  A 1.18 1.18 0.0 0 0 212.22 147.76
  C 220.91 152.01 233.02 152.68 239.12 144.53
  Q 241.31 141.60 242.30 135.04
  Q 243.99 123.86 245.55 112.84
  Q 245.67 111.99 244.81 111.99
  L 238.54 112.02
  A 1.47 1.46 -82.7 0 0 237.14 113.11
  Q 236.94 113.86 236.33 114.29
  Q 235.81 114.65 235.33 114.23
  C 229.11 108.60 219.48 112.07 215.42 118.30
  Q 212.74 122.43 212.62 127.62
  C 212.37 138.54 224.31 142.70 232.32 136.43
  Q 233.05 135.86 232.91 136.77
  Z
  M 269.59 137.88
  Q 269.96 138.32 269.72 139.40
  A 1.09 1.09 0.0 0 0 270.80 140.73
  L 276.41 140.64
  A 1.54 1.53 3.7 0 0 277.91 139.33
  L 281.87 112.87
  A 0.72 0.71 -85.4 0 0 281.18 112.05
  Q 278.26 112.01 275.21 112.02
  C 274.04 112.02 273.15 112.61 273.01 113.85
  A 0.83 0.83 0.0 0 1 271.63 114.37
  C 266.79 109.96 259.45 110.86 254.75 115.13
  Q 248.55 120.76 249.05 129.99
  C 249.64 140.97 260.29 144.13 268.43 137.76
  A 0.84 0.84 0.0 0 1 269.59 137.88
  Z
  M 297.28 114.19
  L 297.06 112.61
  Q 296.98 112.00 296.36 112.00
  L 289.62 112.03
  A 0.95 0.95 0.0 0 0 288.68 112.85
  L 284.99 139.24
  Q 284.79 140.67 286.24 140.67
  L 292.42 140.65
  A 1.49 1.48 4.0 0 0 293.89 139.38
  Q 294.88 132.37 296.00 124.84
  C 296.42 122.00 298.17 119.85 300.81 118.67
  C 303.90 117.29 307.53 119.08 307.01 122.77
  Q 305.86 130.97 304.54 139.35
  Q 304.31 140.80 305.78 140.76
  L 312.18 140.58
  A 1.63 1.63 0.0 0 0 313.76 139.05
  C 314.08 133.35 315.39 127.81 315.97 122.09
  C 316.51 116.67 315.36 112.38 309.01 111.59
  C 304.81 111.06 301.56 112.26 298.17 114.59
  Q 297.41 115.11 297.28 114.19
  Z"
/>
<ellipse fill="#4083bc" cx="0.00" cy="0.00" transform="translate(210.10,41.35) rotate(-1.2)" rx="7.44" ry="6.61"/>
<ellipse fill="#46a749" cx="0.00" cy="0.00" transform="translate(190.90,49.80) rotate(-1.9)" rx="7.42" ry="6.70"/>
<ellipse fill="#2c538f" cx="0.00" cy="0.00" transform="translate(229.72,49.76) rotate(-1.3)" rx="7.48" ry="6.75"/>
<ellipse fill="#9bc63e" cx="0.00" cy="0.00" transform="translate(176.70,54.91) rotate(-0.6)" rx="4.09" ry="3.56"/>
<ellipse fill="#4083bc" cx="0.00" cy="0.00" transform="translate(215.55,54.90) rotate(1.0)" rx="4.11" ry="3.50"/>
<ellipse fill="#4083bc" cx="0.00" cy="0.00" transform="translate(206.57,57.86) rotate(3.4)" rx="2.38" ry="1.91"/>
<ellipse fill="#9bc63e" cx="0.00" cy="0.00" transform="translate(166.61,58.83) rotate(-3.8)" rx="2.63" ry="2.29"/>
<ellipse fill="#46a749" cx="0.00" cy="0.00" transform="translate(182.06,67.80) rotate(-1.2)" rx="7.41" ry="6.67"/>
<ellipse fill="#2c538f" cx="0.00" cy="0.00" transform="translate(238.61,67.79) rotate(0.3)" rx="7.51" ry="6.70"/>
<ellipse fill="#9bc63e" cx="0.00" cy="0.00" transform="translate(166.65,67.75) rotate(-0.1)" rx="3.94" ry="3.64"/>
<ellipse fill="#4083bc" cx="0.00" cy="0.00" transform="translate(223.20,67.77) rotate(1.2)" rx="4.00" ry="3.59"/>
<ellipse fill="#9bc63e" cx="0.00" cy="0.00" transform="translate(156.16,67.84) rotate(-3.6)" rx="2.74" ry="2.21"/>
<ellipse fill="#4083bc" cx="0.00" cy="0.00" transform="translate(213.70,67.91) rotate(-5.8)" rx="2.35" ry="2.05"/>
<ellipse fill="#9bc63e" cx="0.00" cy="0.00" transform="translate(166.58,76.83) rotate(-3.6)" rx="2.64" ry="2.26"/>
<ellipse fill="#4083bc" cx="0.00" cy="0.00" transform="translate(206.54,77.88) rotate(-5.6)" rx="2.30" ry="1.98"/>
<ellipse fill="#9bc63e" cx="0.00" cy="0.00" transform="translate(176.73,80.64) rotate(1.1)" rx="4.00" ry="3.56"/>
<ellipse fill="#4083bc" cx="0.00" cy="0.00" transform="translate(215.55,80.69) rotate(1.3)" rx="4.02" ry="3.57"/>
<ellipse fill="#46a749" cx="0.00" cy="0.00" transform="translate(190.95,85.86) rotate(0.2)" rx="7.49" ry="6.74"/>
<ellipse fill="#2c538f" cx="0.00" cy="0.00" transform="translate(229.72,85.82) rotate(-2.4)" rx="7.45" ry="6.77"/>
<ellipse fill="#4083bc" cx="0.00" cy="0.00" transform="translate(210.10,94.24) rotate(0.3)" rx="7.44" ry="6.64"/>
<path fill="#2c538f" d="
  M 141.54 139.68
  L 147.06 101.84
  A 0.91 0.91 0.0 0 1 147.95 101.06
  L 155.07 101.01
  A 0.91 0.91 0.0 0 1 155.98 102.05
  L 150.52 139.78
  A 0.91 0.91 0.0 0 1 149.64 140.56
  L 142.46 140.72
  A 0.91 0.91 0.0 0 1 141.54 139.68
  Z"
/>
<path fill="#2c538f" d="
  M 125.62 139.55
  L 131.13 101.96
  A 1.02 1.02 0.0 0 1 132.13 101.09
  L 139.08 100.99
  A 1.02 1.02 0.0 0 1 140.11 102.16
  L 134.57 139.76
  A 1.02 1.02 0.0 0 1 133.57 140.63
  L 126.65 140.72
  A 1.02 1.02 0.0 0 1 125.62 139.55
  Z"
/>
<path fill="#2c538f" d="
  M 109.97 132.30
  L 96.57 132.28
  A 0.93 0.93 0.0 0 0 95.73 132.82
  L 92.29 140.19
  A 0.93 0.93 0.0 0 1 91.44 140.73
  L 84.77 140.68
  A 0.93 0.93 0.0 0 1 83.95 139.33
  L 102.54 102.69
  A 0.93 0.93 0.0 0 1 103.37 102.18
  L 112.74 102.22
  A 0.93 0.93 0.0 0 1 113.65 102.95
  L 121.53 139.59
  A 0.93 0.93 0.0 0 1 120.61 140.71
  L 112.93 140.61
  A 0.93 0.93 0.0 0 1 112.02 139.83
  L 110.89 133.08
  A 0.93 0.93 0.0 0 0 109.97 132.30
  Z
  M 99.46 125.45
  A 0.36 0.36 0.0 0 0 99.79 125.96
  L 108.93 125.96
  A 0.36 0.36 0.0 0 0 109.28 125.54
  L 106.73 111.53
  A 0.36 0.36 0.0 0 0 106.05 111.44
  L 99.46 125.45
  Z"
/>
<path fill="#ffffff" d="
  M 99.46 125.45
  L 106.05 111.44
  A 0.36 0.36 0.0 0 1 106.73 111.53
  L 109.28 125.54
  A 0.36 0.36 0.0 0 1 108.93 125.96
  L 99.79 125.96
  A 0.36 0.36 0.0 0 1 99.46 125.45
  Z"
/>
<path fill="#2c538f" d="
  M 166.70 131.23
  C 168.51 137.17 177.00 134.79 180.94 132.44
  Q 181.75 131.96 182.27 132.75
  L 184.15 135.63
  A 1.28 1.28 0.0 0 1 183.79 137.39
  C 177.98 141.29 169.04 142.72 163.01 138.80
  C 156.28 134.43 156.53 124.16 160.99 118.30
  Q 167.14 110.21 178.24 111.74
  Q 183.21 112.42 185.37 115.70
  C 187.69 119.23 186.24 123.48 182.96 125.83
  C 178.57 128.99 172.75 129.77 167.45 130.13
  A 0.86 0.85 79.7 0 0 166.70 131.23
  Z
  M 167.20 123.50
  Q 166.91 124.58 168.01 124.48
  C 171.34 124.20 176.58 123.63 178.04 120.17
  Q 178.23 119.72 177.99 119.30
  C 174.72 113.46 168.38 119.24 167.20 123.50
  Z"
/>
<path fill="#2c538f" d="
  M 202.14 114.76
  Q 203.47 113.94 204.68 113.00
  C 206.80 111.35 209.88 111.20 212.33 111.90
  Q 213.06 112.11 212.85 112.85
  L 211.22 118.64
  Q 211.04 119.26 210.40 119.28
  Q 209.47 119.31 208.49 119.11
  C 205.90 118.56 202.93 120.54 201.53 122.54
  Q 200.05 124.64 199.70 127.76
  Q 199.02 133.78 197.95 139.53
  Q 197.76 140.59 196.68 140.60
  L 190.33 140.68
  Q 188.95 140.70 189.14 139.34
  L 192.94 112.73
  A 0.83 0.83 0.0 0 1 193.76 112.02
  L 200.37 112.01
  Q 201.08 112.01 201.17 112.72
  L 201.37 114.39
  Q 201.46 115.17 202.14 114.76
  Z"
/>
<path fill="#2c538f" d="
  M 232.32 136.43
  C 224.31 142.70 212.37 138.54 212.62 127.62
  Q 212.74 122.43 215.42 118.30
  C 219.48 112.07 229.11 108.60 235.33 114.23
  Q 235.81 114.65 236.33 114.29
  Q 236.94 113.86 237.14 113.11
  A 1.47 1.46 -82.7 0 1 238.54 112.02
  L 244.81 111.99
  Q 245.67 111.99 245.55 112.84
  Q 243.99 123.86 242.30 135.04
  Q 241.31 141.60 239.12 144.53
  C 233.02 152.68 220.91 152.01 212.22 147.76
  A 1.18 1.18 0.0 0 1 211.76 146.04
  L 214.16 142.49
  Q 214.74 141.63 215.62 142.18
  C 218.97 144.26 224.36 144.99 228.54 143.89
  C 231.65 143.07 232.47 139.70 232.91 136.77
  Q 233.05 135.86 232.32 136.43
  Z
  M 225.0112 132.4034
  A 7.80 6.11 115.1 0 0 233.8530 127.9319
  A 7.80 6.11 115.1 0 0 231.6288 118.2766
  A 7.80 6.11 115.1 0 0 222.7870 122.7481
  A 7.80 6.11 115.1 0 0 225.0112 132.4034
  Z"
/>
<path fill="#2c538f" d="
  M 269.59 137.88
  A 0.84 0.84 0.0 0 0 268.43 137.76
  C 260.29 144.13 249.64 140.97 249.05 129.99
  Q 248.55 120.76 254.75 115.13
  C 259.45 110.86 266.79 109.96 271.63 114.37
  A 0.83 0.83 0.0 0 0 273.01 113.85
  C 273.15 112.61 274.04 112.02 275.21 112.02
  Q 278.26 112.01 281.18 112.05
  A 0.72 0.71 -85.4 0 1 281.87 112.87
  L 277.91 139.33
  A 1.54 1.53 3.7 0 1 276.41 140.64
  L 270.80 140.73
  A 1.09 1.09 0.0 0 1 269.72 139.40
  Q 269.96 138.32 269.59 137.88
  Z
  M 261.9212 134.2429
  A 8.55 6.10 108.4 0 0 270.4081 128.0555
  A 8.55 6.10 108.4 0 0 267.3188 118.0171
  A 8.55 6.10 108.4 0 0 258.8319 124.2045
  A 8.55 6.10 108.4 0 0 261.9212 134.2429
  Z"
/>
<path fill="#2c538f" d="
  M 298.17 114.59
  C 301.56 112.26 304.81 111.06 309.01 111.59
  C 315.36 112.38 316.51 116.67 315.97 122.09
  C 315.39 127.81 314.08 133.35 313.76 139.05
  A 1.63 1.63 0.0 0 1 312.18 140.58
  L 305.78 140.76
  Q 304.31 140.80 304.54 139.35
  Q 305.86 130.97 307.01 122.77
  C 307.53 119.08 303.90 117.29 300.81 118.67
  C 298.17 119.85 296.42 122.00 296.00 124.84
  Q 294.88 132.37 293.89 139.38
  A 1.49 1.48 4.0 0 1 292.42 140.65
  L 286.24 140.67
  Q 284.79 140.67 284.99 139.24
  L 288.68 112.85
  A 0.95 0.95 0.0 0 1 289.62 112.03
  L 296.36 112.00
  Q 296.98 112.00 297.06 112.61
  L 297.28 114.19
  Q 297.41 115.11 298.17 114.59
  Z"
/>
<path fill="#ffffff" d="
  M 167.20 123.50
  C 168.38 119.24 174.72 113.46 177.99 119.30
  Q 178.23 119.72 178.04 120.17
  C 176.58 123.63 171.34 124.20 168.01 124.48
  Q 166.91 124.58 167.20 123.50
  Z"
/>
<ellipse fill="#ffffff" cx="0.00" cy="0.00" transform="translate(228.32,125.34) rotate(115.1)" rx="7.80" ry="6.11"/>
<ellipse fill="#ffffff" cx="0.00" cy="0.00" transform="translate(264.62,126.13) rotate(108.4)" rx="8.55" ry="6.10"/>
</svg>
