<?xml version="1.0" encoding="UTF-8" standalone="no"?>
<!DOCTYPE svg PUBLIC "-//W3C//DTD SVG 1.1//EN" "http://www.w3.org/Graphics/SVG/1.1/DTD/svg11.dtd">
<svg xmlns="http://www.w3.org/2000/svg" version="1.1" viewBox="0.00 0.00 400.00 195.00">
<g stroke-width="2.00" fill="none" stroke-linecap="butt">
<path stroke="#87bebe" vector-effect="non-scaling-stroke" d="
  M 85.87 73.03
  L 85.85 97.69
  A 0.48 0.48 0.0 0 0 86.37 98.17
  Q 90.78 97.88 95.20 98.05
  C 110.76 98.64 116.82 81.24 105.44 71.05
  A 1.00 1.00 0.0 0 1 105.29 69.74
  Q 110.37 62.48 104.05 55.96
  Q 102.17 54.02 99.44 54.00
  Q 93.28 53.95 87.00 53.90
  A 0.51 0.51 0.0 0 0 86.49 54.41
  L 86.47 65.67
  Q 86.46 67.06 85.08 67.18
  L 83.69 67.31
  Q 83.09 67.36 82.77 67.87
  L 80.42 71.62
  A 0.60 0.59 -74.3 0 0 80.93 72.54
  L 85.28 72.45
  Q 85.88 72.44 85.87 73.03"
/>
<path stroke="#87bebe" vector-effect="non-scaling-stroke" d="
  M 241.22 72.95
  C 238.90 72.15 237.19 70.67 234.63 70.45
  Q 224.65 69.58 219.89 78.00
  Q 216.94 83.22 218.99 89.48
  C 222.07 98.90 234.98 102.20 242.14 95.27
  A 0.95 0.94 -43.7 0 1 243.48 95.29
  L 246.44 98.40
  A 0.47 0.46 23.1 0 0 247.24 98.08
  L 247.27 54.62
  Q 247.27 54.28 246.94 54.27
  L 242.29 54.24
  Q 241.83 54.24 241.83 54.71
  L 241.86 72.49
  A 0.49 0.48 -80.3 0 1 241.22 72.95"
/>
<path stroke="#87bebe" vector-effect="non-scaling-stroke" d="
  M 319.3330 55.1255
  A 0.89 0.89 0.0 0 0 318.4415 54.2370
  L 314.9815 54.2431
  A 0.89 0.89 0.0 0 0 314.0930 55.1346
  L 314.1670 97.4945
  A 0.89 0.89 0.0 0 0 315.0585 98.3830
  L 318.5185 98.3769
  A 0.89 0.89 0.0 0 0 319.4070 97.4854
  L 319.3330 55.1255"
/>
<path stroke="#87bebe" vector-effect="non-scaling-stroke" d="
  M 198.83 71.19
  Q 186.26 78.64 191.96 91.87
  Q 192.15 92.33 192.10 92.82
  L 192.04 93.33"
/>
<path stroke="#d59895" vector-effect="non-scaling-stroke" d="
  M 192.04 93.33
  L 182.30 123.99
  A 0.42 0.42 0.0 0 1 181.59 124.14
  L 173.89 115.49
  A 2.28 2.26 69.1 0 0 172.19 114.72
  L 149.65 114.74
  A 1.81 1.80 69.4 0 1 148.29 114.12
  L 138.88 103.38
  A 0.97 0.97 0.0 0 0 137.40 103.40
  L 129.93 112.43
  A 1.39 1.37 -71.9 0 1 128.96 112.93
  C 127.83 113.00 126.65 112.77 125.49 112.76
  Q 106.93 112.69 86.61 112.89
  A 1.15 1.14 -82.6 0 0 85.52 113.73
  Q 85.45 114.00 85.49 114.27
  Q 85.67 115.44 86.86 115.45
  L 129.72 115.52
  A 2.01 2.00 19.8 0 0 131.26 114.80
  L 137.75 106.96
  A 0.54 0.54 0.0 0 1 138.58 106.95
  L 147.07 116.61
  A 2.14 2.14 0.0 0 0 148.68 117.34
  L 171.54 117.24
  Q 172.07 117.24 172.42 117.63
  L 182.46 128.83
  A 0.62 0.62 0.0 0 0 183.51 128.59
  L 193.98 94.54"
/>
<path stroke="#87bebe" vector-effect="non-scaling-stroke" d="
  M 193.98 94.54
  Q 202.90 102.66 213.26 96.14"
/>
<path stroke="#d59895" vector-effect="non-scaling-stroke" d="
  M 213.26 96.14
  L 225.81 139.16
  A 0.54 0.54 0.0 0 0 226.80 139.27
  Q 227.61 137.78 228.52 136.61
  Q 241.48 120.02 257.42 99.98
  A 0.61 0.61 0.0 0 1 258.42 100.06
  L 266.89 115.07
  A 1.57 1.56 -14.8 0 0 268.25 115.86
  L 318.52 115.81
  A 0.82 0.82 0.0 0 0 319.34 114.98
  L 319.32 114.03
  A 0.79 0.78 -0.4 0 0 318.53 113.26
  L 269.28 113.26
  A 0.71 0.70 75.8 0 1 268.66 112.89
  L 258.43 94.53
  A 0.51 0.51 0.0 0 0 257.56 94.49
  C 256.97 95.33 256.82 96.18 256.01 96.87
  Q 255.02 97.72 254.25 98.90
  Q 253.36 100.27 252.26 101.62
  Q 239.45 117.38 227.23 133.17
  A 0.32 0.32 0.0 0 1 226.67 133.06
  L 215.58 95.36"
/>
<path stroke="#87bebe" vector-effect="non-scaling-stroke" d="
  M 215.58 95.36
  Q 214.98 93.74 216.75 92.18
  A 1.16 1.16 0.0 0 0 216.35 90.21
  L 214.35 89.54
  A 1.29 1.28 -89.2 0 1 213.52 88.68
  L 211.94 83.29
  A 1.09 1.09 0.0 0 1 212.25 82.18
  L 216.44 78.30
  Q 217.20 77.60 216.56 76.78
  Q 212.97 72.23 208.32 70.89
  Q 208.03 70.81 207.98 70.52
  Q 207.95 70.35 207.94 70.22"
/>
<path stroke="#d59895" vector-effect="non-scaling-stroke" d="
  M 207.94 70.22
  L 204.54 56.90
  Q 203.68 53.55 202.77 56.88
  L 198.83 71.19"
/>
<path stroke="#5d5654" vector-effect="non-scaling-stroke" d="
  M 207.94 70.22
  Q 206.28 70.72 205.84 70.00"
/>
<path stroke="#d59895" vector-effect="non-scaling-stroke" d="
  M 205.84 70.00
  L 204.28 64.81
  Q 203.65 62.71 202.99 64.80
  L 201.19 70.55"
/>
<path stroke="#5d5654" vector-effect="non-scaling-stroke" d="
  M 201.19 70.55
  L 198.83 71.19"
/>
<path stroke="#5d5654" vector-effect="non-scaling-stroke" d="
  M 215.58 95.36
  L 213.26 96.14"
/>
<path stroke="#5d5654" vector-effect="non-scaling-stroke" d="
  M 193.98 94.54
  Q 193.33 93.66 192.04 93.33"
/>
<path stroke="#87bebe" vector-effect="non-scaling-stroke" d="
  M 205.84 70.00
  Q 203.88 71.09 201.19 70.55"
/>
<path stroke="#87bebe" vector-effect="non-scaling-stroke" d="
  M 254.8208 61.8424
  A 0.85 0.85 0.0 0 0 253.9903 60.9733
  L 250.2313 60.8880
  A 0.85 0.85 0.0 0 0 249.3622 61.7185
  L 249.2792 65.3776
  A 0.85 0.85 0.0 0 0 250.1097 66.2467
  L 253.8687 66.3320
  A 0.85 0.85 0.0 0 0 254.7378 65.5015
  L 254.8208 61.8424"
/>
<path stroke="#87bebe" vector-effect="non-scaling-stroke" d="
  M 118.3742 61.9203
  A 0.98 0.98 0.0 0 0 117.3907 60.9438
  L 113.8108 60.9563
  A 0.98 0.98 0.0 0 0 112.8342 61.9397
  L 112.8458 65.2797
  A 0.98 0.98 0.0 0 0 113.8293 66.2562
  L 117.4092 66.2437
  A 0.98 0.98 0.0 0 0 118.3858 65.2603
  L 118.3742 61.9203"
/>
<path stroke="#87bebe" vector-effect="non-scaling-stroke" d="
  M 274.87 93.48
  Q 268.44 95.63 264.18 91.49
  C 258.78 86.24 261.70 76.63 269.01 75.37
  Q 274.69 74.39 278.56 78.81
  Q 278.81 79.09 279.10 78.85
  L 282.22 76.21
  A 0.30 0.29 -41.6 0 0 282.25 75.79
  Q 277.22 70.07 270.42 70.37
  C 259.73 70.83 252.87 82.85 258.55 91.83
  C 263.79 100.11 273.86 101.35 281.20 94.73
  A 0.64 0.64 0.0 0 0 281.23 93.82
  L 278.66 91.12
  Q 278.24 90.68 277.89 91.18
  Q 276.70 92.86 274.87 93.48"
/>
<path stroke="#87bebe" vector-effect="non-scaling-stroke" d="
  M 148.37 84.68
  A 14.32 14.32 0.0 0 0 134.05 70.36
  A 14.32 14.32 0.0 0 0 119.73 84.68
  A 14.32 14.32 0.0 0 0 134.05 99.00
  A 14.32 14.32 0.0 0 0 148.37 84.68"
/>
<path stroke="#87bebe" vector-effect="non-scaling-stroke" d="
  M 169.86 73.80
  A 1.06 1.06 0.0 0 1 168.56 73.81
  Q 165.34 71.34 161.73 70.79
  C 159.16 70.41 156.60 71.71 154.25 72.68
  Q 153.68 72.92 153.09 72.72
  Q 151.82 72.29 150.58 71.28
  Q 149.84 70.68 149.88 71.63
  Q 150.38 83.76 149.90 97.03
  Q 149.86 97.96 150.79 97.98
  L 154.03 98.02
  Q 154.89 98.04 154.90 97.18
  Q 155.01 89.85 154.86 81.91
  Q 154.82 79.73 155.79 78.15
  C 158.05 74.43 164.48 74.49 166.17 78.58
  Q 166.85 80.22 166.76 82.51
  Q 166.46 90.12 166.68 96.78
  Q 166.73 98.29 168.22 98.40
  L 170.23 98.56
  Q 171.54 98.67 171.57 97.35
  Q 171.76 90.42 171.48 82.14
  C 171.21 74.34 183.70 73.52 183.73 79.46
  Q 183.76 88.08 183.73 97.21
  Q 183.72 98.13 184.64 98.11
  L 187.77 98.02
  A 0.82 0.82 0.0 0 0 188.57 97.21
  Q 188.63 88.68 188.65 80.48
  C 188.65 78.13 188.24 76.70 186.70 75.06
  Q 178.90 66.70 169.86 73.80"
/>
<path stroke="#87bebe" vector-effect="non-scaling-stroke" d="
  M 307.44 95.29
  Q 308.99 96.28 309.82 97.60
  Q 311.50 100.30 311.50 97.12
  L 311.47 72.54
  Q 311.47 71.04 310.52 72.21
  L 308.62 74.55
  A 1.05 1.04 -47.4 0 1 307.05 74.62
  Q 302.82 70.20 296.62 70.36
  C 283.22 70.72 277.47 88.51 288.73 96.27
  Q 297.61 102.38 306.54 95.34
  Q 306.97 95.00 307.44 95.29"
/>
<path stroke="#87bebe" vector-effect="non-scaling-stroke" d="
  M 118.28 71.78
  A 0.70 0.70 0.0 0 0 117.58 71.08
  L 113.60 71.08
  A 0.70 0.70 0.0 0 0 112.90 71.78
  L 112.90 97.72
  A 0.70 0.70 0.0 0 0 113.60 98.42
  L 117.58 98.42
  A 0.70 0.70 0.0 0 0 118.28 97.72
  L 118.28 71.78"
/>
<path stroke="#87bebe" vector-effect="non-scaling-stroke" d="
  M 249.42 97.72
  A 0.95 0.95 0.0 0 0 250.50 98.66
  L 253.89 98.18
  A 0.95 0.95 0.0 0 0 254.71 97.24
  L 254.74 72.04
  A 0.95 0.95 0.0 0 0 253.75 71.09
  L 250.25 71.22
  A 0.95 0.95 0.0 0 0 249.33 72.17
  L 249.42 97.72"
/>
<path stroke="#8dcbd0" vector-effect="non-scaling-stroke" d="
  M 253.15 132.43
  C 258.25 132.79 267.80 132.12 265.82 124.07
  C 264.91 120.35 261.07 119.00 257.56 119.05
  Q 252.80 119.11 247.95 119.05
  A 0.64 0.64 0.0 0 0 247.30 119.69
  L 247.26 139.79
  A 0.97 0.97 0.0 0 0 248.29 140.76
  L 251.36 140.59
  Q 252.25 140.54 252.26 139.65
  L 252.28 133.25
  A 0.82 0.81 -88.0 0 1 253.15 132.43"
/>
<path stroke="#8dcbd0" vector-effect="non-scaling-stroke" d="
  M 280.50 126.95
  L 279.73 125.46
  Q 279.31 124.65 278.45 124.97
  L 276.23 125.80
  Q 275.34 126.13 275.79 126.97
  C 276.30 127.95 276.68 128.97 276.70 130.09
  Q 276.80 134.69 276.71 139.52
  Q 276.70 140.53 277.70 140.58
  L 280.19 140.71
  Q 281.36 140.77 281.36 139.60
  Q 281.36 136.31 281.38 132.51
  C 281.41 127.15 287.25 127.76 290.62 129.09
  Q 291.56 129.47 292.17 128.67
  L 292.86 127.78
  A 1.03 1.03 0.0 0 0 292.52 126.24
  C 289.50 124.67 285.36 123.95 282.82 126.16
  Q 282.19 126.70 281.54 127.19
  Q 280.88 127.69 280.50 126.95"
/>
<path stroke="#8dcbd0" vector-effect="non-scaling-stroke" d="
  M 320.0798 132.9263
  A 9.50 8.21 0.4 0 0 310.6373 124.6502
  A 9.50 8.21 0.4 0 0 301.0802 132.7937
  A 9.50 8.21 0.4 0 0 310.5227 141.0698
  A 9.50 8.21 0.4 0 0 320.0798 132.9263"
/>
<path stroke="#87bebe" vector-effect="non-scaling-stroke" d="
  M 90.74 59.55
  L 90.72 66.49
  A 0.78 0.78 0.0 0 0 91.50 67.27
  L 97.93 67.29
  A 4.53 4.12 0.2 0 0 102.47 63.19
  L 102.47 62.93
  A 4.53 4.12 0.2 0 0 97.95 58.79
  L 91.52 58.77
  A 0.78 0.78 0.0 0 0 90.74 59.55"
/>
<path stroke="#87bebe" vector-effect="non-scaling-stroke" d="
  M 90.62 73.25
  L 90.76 92.67
  A 0.70 0.70 0.0 0 0 91.46 93.36
  L 96.73 93.32
  A 10.08 9.91 89.6 0 0 106.57 83.17
  L 106.57 82.51
  A 10.08 9.91 89.6 0 0 96.59 72.50
  L 91.32 72.54
  A 0.70 0.70 0.0 0 0 90.62 73.25"
/>
<path stroke="#87bebe" vector-effect="non-scaling-stroke" d="
  M 241.7772 83.9509
  A 8.44 8.44 0.0 0 0 233.4111 75.4376
  L 231.7512 75.4231
  A 8.44 8.44 0.0 0 0 223.2379 83.7891
  L 223.2228 85.5091
  A 8.44 8.44 0.0 0 0 231.5889 94.0224
  L 233.2488 94.0369
  A 8.44 8.44 0.0 0 0 241.7621 85.6709
  L 241.7772 83.9509"
/>
<path stroke="#87bebe" vector-effect="non-scaling-stroke" d="
  M 200.05 75.65
  A 0.61 0.61 0.0 0 0 199.51 76.08
  L 195.80 88.77
  A 0.61 0.61 0.0 0 0 196.78 89.40
  L 208.12 79.77
  A 0.61 0.61 0.0 0 0 208.31 79.14
  L 207.28 75.54
  A 0.61 0.61 0.0 0 0 206.64 75.10
  L 200.05 75.65"
/>
<path stroke="#87bebe" vector-effect="non-scaling-stroke" d="
  M 200.14 93.14
  A 0.33 0.33 0.0 0 0 200.33 93.71
  L 206.51 94.31
  A 0.33 0.33 0.0 0 0 206.70 94.27
  L 211.70 91.62
  A 0.33 0.33 0.0 0 0 211.86 91.23
  L 209.82 85.00
  A 0.33 0.33 0.0 0 0 209.28 84.86
  L 200.14 93.14"
/>
<path stroke="#87bebe" vector-effect="non-scaling-stroke" d="
  M 143.48 84.72
  A 9.48 9.48 0.0 0 0 134.00 75.24
  A 9.48 9.48 0.0 0 0 124.52 84.72
  A 9.48 9.48 0.0 0 0 134.00 94.20
  A 9.48 9.48 0.0 0 0 143.48 84.72"
/>
<path stroke="#87bebe" vector-effect="non-scaling-stroke" d="
  M 306.52 84.71
  A 9.47 9.47 0.0 0 0 297.05 75.24
  A 9.47 9.47 0.0 0 0 287.58 84.71
  A 9.47 9.47 0.0 0 0 297.05 94.18
  A 9.47 9.47 0.0 0 0 306.52 84.71"
/>
<path stroke="#8dcbd0" vector-effect="non-scaling-stroke" d="
  M 252.28 123.44
  L 252.18 127.80
  A 1.05 1.05 0.0 0 0 253.20 128.88
  L 256.80 128.97
  A 4.11 3.04 1.4 0 0 260.98 126.03
  L 260.99 125.65
  A 4.11 3.04 1.4 0 0 256.96 122.51
  L 253.36 122.42
  A 1.05 1.05 0.0 0 0 252.28 123.44"
/>
<path stroke="#8dcbd0" vector-effect="non-scaling-stroke" d="
  M 315.69 132.87
  A 5.07 5.07 0.0 0 0 310.62 127.80
  A 5.07 5.07 0.0 0 0 305.55 132.87
  A 5.07 5.07 0.0 0 0 310.62 137.94
  A 5.07 5.07 0.0 0 0 315.69 132.87"
/>
</g>
<path fill="#ffffff" d="
  M 0.00 0.00
  L 400.00 0.00
  L 400.00 195.00
  L 0.00 195.00
  L 0.00 0.00
  Z
  M 85.87 73.03
  L 85.85 97.69
  A 0.48 0.48 0.0 0 0 86.37 98.17
  Q 90.78 97.88 95.20 98.05
  C 110.76 98.64 116.82 81.24 105.44 71.05
  A 1.00 1.00 0.0 0 1 105.29 69.74
  Q 110.37 62.48 104.05 55.96
  Q 102.17 54.02 99.44 54.00
  Q 93.28 53.95 87.00 53.90
  A 0.51 0.51 0.0 0 0 86.49 54.41
  L 86.47 65.67
  Q 86.46 67.06 85.08 67.18
  L 83.69 67.31
  Q 83.09 67.36 82.77 67.87
  L 80.42 71.62
  A 0.60 0.59 -74.3 0 0 80.93 72.54
  L 85.28 72.45
  Q 85.88 72.44 85.87 73.03
  Z
  M 241.22 72.95
  C 238.90 72.15 237.19 70.67 234.63 70.45
  Q 224.65 69.58 219.89 78.00
  Q 216.94 83.22 218.99 89.48
  C 222.07 98.90 234.98 102.20 242.14 95.27
  A 0.95 0.94 -43.7 0 1 243.48 95.29
  L 246.44 98.40
  A 0.47 0.46 23.1 0 0 247.24 98.08
  L 247.27 54.62
  Q 247.27 54.28 246.94 54.27
  L 242.29 54.24
  Q 241.83 54.24 241.83 54.71
  L 241.86 72.49
  A 0.49 0.48 -80.3 0 1 241.22 72.95
  Z
  M 319.3330 55.1255
  A 0.89 0.89 0.0 0 0 318.4415 54.2370
  L 314.9815 54.2431
  A 0.89 0.89 0.0 0 0 314.0930 55.1346
  L 314.1670 97.4945
  A 0.89 0.89 0.0 0 0 315.0585 98.3830
  L 318.5185 98.3769
  A 0.89 0.89 0.0 0 0 319.4070 97.4854
  L 319.3330 55.1255
  Z
  M 198.83 71.19
  Q 186.26 78.64 191.96 91.87
  Q 192.15 92.33 192.10 92.82
  L 192.04 93.33
  L 182.30 123.99
  A 0.42 0.42 0.0 0 1 181.59 124.14
  L 173.89 115.49
  A 2.28 2.26 69.1 0 0 172.19 114.72
  L 149.65 114.74
  A 1.81 1.80 69.4 0 1 148.29 114.12
  L 138.88 103.38
  A 0.97 0.97 0.0 0 0 137.40 103.40
  L 129.93 112.43
  A 1.39 1.37 -71.9 0 1 128.96 112.93
  C 127.83 113.00 126.65 112.77 125.49 112.76
  Q 106.93 112.69 86.61 112.89
  A 1.15 1.14 -82.6 0 0 85.52 113.73
  Q 85.45 114.00 85.49 114.27
  Q 85.67 115.44 86.86 115.45
  L 129.72 115.52
  A 2.01 2.00 19.8 0 0 131.26 114.80
  L 137.75 106.96
  A 0.54 0.54 0.0 0 1 138.58 106.95
  L 147.07 116.61
  A 2.14 2.14 0.0 0 0 148.68 117.34
  L 171.54 117.24
  Q 172.07 117.24 172.42 117.63
  L 182.46 128.83
  A 0.62 0.62 0.0 0 0 183.51 128.59
  L 193.98 94.54
  Q 202.90 102.66 213.26 96.14
  L 225.81 139.16
  A 0.54 0.54 0.0 0 0 226.80 139.27
  Q 227.61 137.78 228.52 136.61
  Q 241.48 120.02 257.42 99.98
  A 0.61 0.61 0.0 0 1 258.42 100.06
  L 266.89 115.07
  A 1.57 1.56 -14.8 0 0 268.25 115.86
  L 318.52 115.81
  A 0.82 0.82 0.0 0 0 319.34 114.98
  L 319.32 114.03
  A 0.79 0.78 -0.4 0 0 318.53 113.26
  L 269.28 113.26
  A 0.71 0.70 75.8 0 1 268.66 112.89
  L 258.43 94.53
  A 0.51 0.51 0.0 0 0 257.56 94.49
  C 256.97 95.33 256.82 96.18 256.01 96.87
  Q 255.02 97.72 254.25 98.90
  Q 253.36 100.27 252.26 101.62
  Q 239.45 117.38 227.23 133.17
  A 0.32 0.32 0.0 0 1 226.67 133.06
  L 215.58 95.36
  Q 214.98 93.74 216.75 92.18
  A 1.16 1.16 0.0 0 0 216.35 90.21
  L 214.35 89.54
  A 1.29 1.28 -89.2 0 1 213.52 88.68
  L 211.94 83.29
  A 1.09 1.09 0.0 0 1 212.25 82.18
  L 216.44 78.30
  Q 217.20 77.60 216.56 76.78
  Q 212.97 72.23 208.32 70.89
  Q 208.03 70.81 207.98 70.52
  Q 207.95 70.35 207.94 70.22
  L 204.54 56.90
  Q 203.68 53.55 202.77 56.88
  L 198.83 71.19
  Z
  M 254.8208 61.8424
  A 0.85 0.85 0.0 0 0 253.9903 60.9733
  L 250.2313 60.8880
  A 0.85 0.85 0.0 0 0 249.3622 61.7185
  L 249.2792 65.3776
  A 0.85 0.85 0.0 0 0 250.1097 66.2467
  L 253.8687 66.3320
  A 0.85 0.85 0.0 0 0 254.7378 65.5015
  L 254.8208 61.8424
  Z
  M 118.3742 61.9203
  A 0.98 0.98 0.0 0 0 117.3907 60.9438
  L 113.8108 60.9563
  A 0.98 0.98 0.0 0 0 112.8342 61.9397
  L 112.8458 65.2797
  A 0.98 0.98 0.0 0 0 113.8293 66.2562
  L 117.4092 66.2437
  A 0.98 0.98 0.0 0 0 118.3858 65.2603
  L 118.3742 61.9203
  Z
  M 274.87 93.48
  Q 268.44 95.63 264.18 91.49
  C 258.78 86.24 261.70 76.63 269.01 75.37
  Q 274.69 74.39 278.56 78.81
  Q 278.81 79.09 279.10 78.85
  L 282.22 76.21
  A 0.30 0.29 -41.6 0 0 282.25 75.79
  Q 277.22 70.07 270.42 70.37
  C 259.73 70.83 252.87 82.85 258.55 91.83
  C 263.79 100.11 273.86 101.35 281.20 94.73
  A 0.64 0.64 0.0 0 0 281.23 93.82
  L 278.66 91.12
  Q 278.24 90.68 277.89 91.18
  Q 276.70 92.86 274.87 93.48
  Z
  M 148.37 84.68
  A 14.32 14.32 0.0 0 0 134.05 70.36
  A 14.32 14.32 0.0 0 0 119.73 84.68
  A 14.32 14.32 0.0 0 0 134.05 99.00
  A 14.32 14.32 0.0 0 0 148.37 84.68
  Z
  M 169.86 73.80
  A 1.06 1.06 0.0 0 1 168.56 73.81
  Q 165.34 71.34 161.73 70.79
  C 159.16 70.41 156.60 71.71 154.25 72.68
  Q 153.68 72.92 153.09 72.72
  Q 151.82 72.29 150.58 71.28
  Q 149.84 70.68 149.88 71.63
  Q 150.38 83.76 149.90 97.03
  Q 149.86 97.96 150.79 97.98
  L 154.03 98.02
  Q 154.89 98.04 154.90 97.18
  Q 155.01 89.85 154.86 81.91
  Q 154.82 79.73 155.79 78.15
  C 158.05 74.43 164.48 74.49 166.17 78.58
  Q 166.85 80.22 166.76 82.51
  Q 166.46 90.12 166.68 96.78
  Q 166.73 98.29 168.22 98.40
  L 170.23 98.56
  Q 171.54 98.67 171.57 97.35
  Q 171.76 90.42 171.48 82.14
  C 171.21 74.34 183.70 73.52 183.73 79.46
  Q 183.76 88.08 183.73 97.21
  Q 183.72 98.13 184.64 98.11
  L 187.77 98.02
  A 0.82 0.82 0.0 0 0 188.57 97.21
  Q 188.63 88.68 188.65 80.48
  C 188.65 78.13 188.24 76.70 186.70 75.06
  Q 178.90 66.70 169.86 73.80
  Z
  M 307.44 95.29
  Q 308.99 96.28 309.82 97.60
  Q 311.50 100.30 311.50 97.12
  L 311.47 72.54
  Q 311.47 71.04 310.52 72.21
  L 308.62 74.55
  A 1.05 1.04 -47.4 0 1 307.05 74.62
  Q 302.82 70.20 296.62 70.36
  C 283.22 70.72 277.47 88.51 288.73 96.27
  Q 297.61 102.38 306.54 95.34
  Q 306.97 95.00 307.44 95.29
  Z
  M 118.28 71.78
  A 0.70 0.70 0.0 0 0 117.58 71.08
  L 113.60 71.08
  A 0.70 0.70 0.0 0 0 112.90 71.78
  L 112.90 97.72
  A 0.70 0.70 0.0 0 0 113.60 98.42
  L 117.58 98.42
  A 0.70 0.70 0.0 0 0 118.28 97.72
  L 118.28 71.78
  Z
  M 249.42 97.72
  A 0.95 0.95 0.0 0 0 250.50 98.66
  L 253.89 98.18
  A 0.95 0.95 0.0 0 0 254.71 97.24
  L 254.74 72.04
  A 0.95 0.95 0.0 0 0 253.75 71.09
  L 250.25 71.22
  A 0.95 0.95 0.0 0 0 249.33 72.17
  L 249.42 97.72
  Z
  M 253.15 132.43
  C 258.25 132.79 267.80 132.12 265.82 124.07
  C 264.91 120.35 261.07 119.00 257.56 119.05
  Q 252.80 119.11 247.95 119.05
  A 0.64 0.64 0.0 0 0 247.30 119.69
  L 247.26 139.79
  A 0.97 0.97 0.0 0 0 248.29 140.76
  L 251.36 140.59
  Q 252.25 140.54 252.26 139.65
  L 252.28 133.25
  A 0.82 0.81 -88.0 0 1 253.15 132.43
  Z
  M 280.50 126.95
  L 279.73 125.46
  Q 279.31 124.65 278.45 124.97
  L 276.23 125.80
  Q 275.34 126.13 275.79 126.97
  C 276.30 127.95 276.68 128.97 276.70 130.09
  Q 276.80 134.69 276.71 139.52
  Q 276.70 140.53 277.70 140.58
  L 280.19 140.71
  Q 281.36 140.77 281.36 139.60
  Q 281.36 136.31 281.38 132.51
  C 281.41 127.15 287.25 127.76 290.62 129.09
  Q 291.56 129.47 292.17 128.67
  L 292.86 127.78
  A 1.03 1.03 0.0 0 0 292.52 126.24
  C 289.50 124.67 285.36 123.95 282.82 126.16
  Q 282.19 126.70 281.54 127.19
  Q 280.88 127.69 280.50 126.95
  Z
  M 320.0798 132.9263
  A 9.50 8.21 0.4 0 0 310.6373 124.6502
  A 9.50 8.21 0.4 0 0 301.0802 132.7937
  A 9.50 8.21 0.4 0 0 310.5227 141.0698
  A 9.50 8.21 0.4 0 0 320.0798 132.9263
  Z"
/>
<path fill="#0f7c7d" d="
  M 85.28 72.45
  L 80.93 72.54
  A 0.60 0.59 -74.3 0 1 80.42 71.62
  L 82.77 67.87
  Q 83.09 67.36 83.69 67.31
  L 85.08 67.18
  Q 86.46 67.06 86.47 65.67
  L 86.49 54.41
  A 0.51 0.51 0.0 0 1 87.00 53.90
  Q 93.28 53.95 99.44 54.00
  Q 102.17 54.02 104.05 55.96
  Q 110.37 62.48 105.29 69.74
  A 1.00 1.00 0.0 0 0 105.44 71.05
  C 116.82 81.24 110.76 98.64 95.20 98.05
  Q 90.78 97.88 86.37 98.17
  A 0.48 0.48 0.0 0 1 85.85 97.69
  L 85.87 73.03
  Q 85.88 72.44 85.28 72.45
  Z
  M 90.74 59.55
  L 90.72 66.49
  A 0.78 0.78 0.0 0 0 91.50 67.27
  L 97.93 67.29
  A 4.53 4.12 0.2 0 0 102.47 63.19
  L 102.47 62.93
  A 4.53 4.12 0.2 0 0 97.95 58.79
  L 91.52 58.77
  A 0.78 0.78 0.0 0 0 90.74 59.55
  Z
  M 90.62 73.25
  L 90.76 92.67
  A 0.70 0.70 0.0 0 0 91.46 93.36
  L 96.73 93.32
  A 10.08 9.91 89.6 0 0 106.57 83.17
  L 106.57 82.51
  A 10.08 9.91 89.6 0 0 96.59 72.50
  L 91.32 72.54
  A 0.70 0.70 0.0 0 0 90.62 73.25
  Z"
/>
<path fill="#0f7c7d" d="
  M 241.22 72.95
  A 0.49 0.48 -80.3 0 0 241.86 72.49
  L 241.83 54.71
  Q 241.83 54.24 242.29 54.24
  L 246.94 54.27
  Q 247.27 54.28 247.27 54.62
  L 247.24 98.08
  A 0.47 0.46 23.1 0 1 246.44 98.40
  L 243.48 95.29
  A 0.95 0.94 -43.7 0 0 242.14 95.27
  C 234.98 102.20 222.07 98.90 218.99 89.48
  Q 216.94 83.22 219.89 78.00
  Q 224.65 69.58 234.63 70.45
  C 237.19 70.67 238.90 72.15 241.22 72.95
  Z
  M 241.7772 83.9509
  A 8.44 8.44 0.0 0 0 233.4111 75.4376
  L 231.7512 75.4231
  A 8.44 8.44 0.0 0 0 223.2379 83.7891
  L 223.2228 85.5091
  A 8.44 8.44 0.0 0 0 231.5889 94.0224
  L 233.2488 94.0369
  A 8.44 8.44 0.0 0 0 241.7621 85.6709
  L 241.7772 83.9509
  Z"
/>
<rect fill="#0f7c7d" x="-2.62" y="-22.07" transform="translate(316.75,76.31) rotate(-0.1)" width="5.24" height="44.14" rx="0.89"/>
<path fill="#aa302a" d="
  M 207.94 70.22
  Q 206.28 70.72 205.84 70.00
  L 204.28 64.81
  Q 203.65 62.71 202.99 64.80
  L 201.19 70.55
  L 198.83 71.19
  L 202.77 56.88
  Q 203.68 53.55 204.54 56.90
  L 207.94 70.22
  Z"
/>
<path fill="#ffffff" d="
  M 90.74 59.55
  A 0.78 0.78 0.0 0 1 91.52 58.77
  L 97.95 58.79
  A 4.53 4.12 0.2 0 1 102.47 62.93
  L 102.47 63.19
  A 4.53 4.12 0.2 0 1 97.93 67.29
  L 91.50 67.27
  A 0.78 0.78 0.0 0 1 90.72 66.49
  L 90.74 59.55
  Z"
/>
<rect fill="#0f7c7d" x="-2.73" y="-2.68" transform="translate(252.05,63.61) rotate(1.3)" width="5.46" height="5.36" rx="0.85"/>
<rect fill="#0f7c7d" x="-2.77" y="-2.65" transform="translate(115.61,63.60) rotate(-0.2)" width="5.54" height="5.30" rx="0.98"/>
<path fill="#ffffff" d="
  M 205.84 70.00
  Q 203.88 71.09 201.19 70.55
  L 202.99 64.80
  Q 203.65 62.71 204.28 64.81
  L 205.84 70.00
  Z"
/>
<path fill="#0f7c7d" d="
  M 205.84 70.00
  Q 206.28 70.72 207.94 70.22
  Q 207.95 70.35 207.98 70.52
  Q 208.03 70.81 208.32 70.89
  Q 212.97 72.23 216.56 76.78
  Q 217.20 77.60 216.44 78.30
  L 212.25 82.18
  A 1.09 1.09 0.0 0 0 211.94 83.29
  L 213.52 88.68
  A 1.29 1.28 -89.2 0 0 214.35 89.54
  L 216.35 90.21
  A 1.16 1.16 0.0 0 1 216.75 92.18
  Q 214.98 93.74 215.58 95.36
  L 213.26 96.14
  Q 202.90 102.66 193.98 94.54
  Q 193.33 93.66 192.04 93.33
  L 192.10 92.82
  Q 192.15 92.33 191.96 91.87
  Q 186.26 78.64 198.83 71.19
  L 201.19 70.55
  Q 203.88 71.09 205.84 70.00
  Z
  M 200.05 75.65
  A 0.61 0.61 0.0 0 0 199.51 76.08
  L 195.80 88.77
  A 0.61 0.61 0.0 0 0 196.78 89.40
  L 208.12 79.77
  A 0.61 0.61 0.0 0 0 208.31 79.14
  L 207.28 75.54
  A 0.61 0.61 0.0 0 0 206.64 75.10
  L 200.05 75.65
  Z
  M 200.14 93.14
  A 0.33 0.33 0.0 0 0 200.33 93.71
  L 206.51 94.31
  A 0.33 0.33 0.0 0 0 206.70 94.27
  L 211.70 91.62
  A 0.33 0.33 0.0 0 0 211.86 91.23
  L 209.82 85.00
  A 0.33 0.33 0.0 0 0 209.28 84.86
  L 200.14 93.14
  Z"
/>
<path fill="#0f7c7d" d="
  M 274.87 93.48
  Q 276.70 92.86 277.89 91.18
  Q 278.24 90.68 278.66 91.12
  L 281.23 93.82
  A 0.64 0.64 0.0 0 1 281.20 94.73
  C 273.86 101.35 263.79 100.11 258.55 91.83
  C 252.87 82.85 259.73 70.83 270.42 70.37
  Q 277.22 70.07 282.25 75.79
  A 0.30 0.29 -41.6 0 1 282.22 76.21
  L 279.10 78.85
  Q 278.81 79.09 278.56 78.81
  Q 274.69 74.39 269.01 75.37
  C 261.70 76.63 258.78 86.24 264.18 91.49
  Q 268.44 95.63 274.87 93.48
  Z"
/>
<path fill="#0f7c7d" d="
  M 148.37 84.68
  A 14.32 14.32 0.0 0 1 134.05 99.00
  A 14.32 14.32 0.0 0 1 119.73 84.68
  A 14.32 14.32 0.0 0 1 134.05 70.36
  A 14.32 14.32 0.0 0 1 148.37 84.68
  Z
  M 143.48 84.72
  A 9.48 9.48 0.0 0 0 134.00 75.24
  A 9.48 9.48 0.0 0 0 124.52 84.72
  A 9.48 9.48 0.0 0 0 134.00 94.20
  A 9.48 9.48 0.0 0 0 143.48 84.72
  Z"
/>
<path fill="#0f7c7d" d="
  M 169.86 73.80
  Q 178.90 66.70 186.70 75.06
  C 188.24 76.70 188.65 78.13 188.65 80.48
  Q 188.63 88.68 188.57 97.21
  A 0.82 0.82 0.0 0 1 187.77 98.02
  L 184.64 98.11
  Q 183.72 98.13 183.73 97.21
  Q 183.76 88.08 183.73 79.46
  C 183.70 73.52 171.21 74.34 171.48 82.14
  Q 171.76 90.42 171.57 97.35
  Q 171.54 98.67 170.23 98.56
  L 168.22 98.40
  Q 166.73 98.29 166.68 96.78
  Q 166.46 90.12 166.76 82.51
  Q 166.85 80.22 166.17 78.58
  C 164.48 74.49 158.05 74.43 155.79 78.15
  Q 154.82 79.73 154.86 81.91
  Q 155.01 89.85 154.90 97.18
  Q 154.89 98.04 154.03 98.02
  L 150.79 97.98
  Q 149.86 97.96 149.90 97.03
  Q 150.38 83.76 149.88 71.63
  Q 149.84 70.68 150.58 71.28
  Q 151.82 72.29 153.09 72.72
  Q 153.68 72.92 154.25 72.68
  C 156.60 71.71 159.16 70.41 161.73 70.79
  Q 165.34 71.34 168.56 73.81
  A 1.06 1.06 0.0 0 0 169.86 73.80
  Z"
/>
<path fill="#0f7c7d" d="
  M 306.54 95.34
  Q 297.61 102.38 288.73 96.27
  C 277.47 88.51 283.22 70.72 296.62 70.36
  Q 302.82 70.20 307.05 74.62
  A 1.05 1.04 -47.4 0 0 308.62 74.55
  L 310.52 72.21
  Q 311.47 71.04 311.47 72.54
  L 311.50 97.12
  Q 311.50 100.30 309.82 97.60
  Q 308.99 96.28 307.44 95.29
  Q 306.97 95.00 306.54 95.34
  Z
  M 306.52 84.71
  A 9.47 9.47 0.0 0 0 297.05 75.24
  A 9.47 9.47 0.0 0 0 287.58 84.71
  A 9.47 9.47 0.0 0 0 297.05 94.18
  A 9.47 9.47 0.0 0 0 306.52 84.71
  Z"
/>
<rect fill="#0f7c7d" x="112.90" y="71.08" width="5.38" height="27.34" rx="0.70"/>
<path fill="#0f7c7d" d="
  M 249.42 97.72
  L 249.33 72.17
  A 0.95 0.95 0.0 0 1 250.25 71.22
  L 253.75 71.09
  A 0.95 0.95 0.0 0 1 254.74 72.04
  L 254.71 97.24
  A 0.95 0.95 0.0 0 1 253.89 98.18
  L 250.50 98.66
  A 0.95 0.95 0.0 0 1 249.42 97.72
  Z"
/>
<path fill="#ffffff" d="
  M 90.62 73.25
  A 0.70 0.70 0.0 0 1 91.32 72.54
  L 96.59 72.50
  A 10.08 9.91 89.6 0 1 106.57 82.51
  L 106.57 83.17
  A 10.08 9.91 89.6 0 1 96.73 93.32
  L 91.46 93.36
  A 0.70 0.70 0.0 0 1 90.76 92.67
  L 90.62 73.25
  Z"
/>
<circle fill="#ffffff" cx="134.00" cy="84.72" r="9.48"/>
<path fill="#ffffff" d="
  M 200.05 75.65
  L 206.64 75.10
  A 0.61 0.61 0.0 0 1 207.28 75.54
  L 208.31 79.14
  A 0.61 0.61 0.0 0 1 208.12 79.77
  L 196.78 89.40
  A 0.61 0.61 0.0 0 1 195.80 88.77
  L 199.51 76.08
  A 0.61 0.61 0.0 0 1 200.05 75.65
  Z"
/>
<circle fill="#ffffff" cx="297.05" cy="84.71" r="9.47"/>
<rect fill="#ffffff" x="-9.27" y="-9.30" transform="translate(232.50,84.73) rotate(0.5)" width="18.54" height="18.60" rx="8.44"/>
<path fill="#ffffff" d="
  M 200.14 93.14
  L 209.28 84.86
  A 0.33 0.33 0.0 0 1 209.82 85.00
  L 211.86 91.23
  A 0.33 0.33 0.0 0 1 211.70 91.62
  L 206.70 94.27
  A 0.33 0.33 0.0 0 1 206.51 94.31
  L 200.33 93.71
  A 0.33 0.33 0.0 0 1 200.14 93.14
  Z"
/>
<path fill="#aa302a" d="
  M 192.04 93.33
  Q 193.33 93.66 193.98 94.54
  L 183.51 128.59
  A 0.62 0.62 0.0 0 1 182.46 128.83
  L 172.42 117.63
  Q 172.07 117.24 171.54 117.24
  L 148.68 117.34
  A 2.14 2.14 0.0 0 1 147.07 116.61
  L 138.58 106.95
  A 0.54 0.54 0.0 0 0 137.75 106.96
  L 131.26 114.80
  A 2.01 2.00 19.8 0 1 129.72 115.52
  L 86.86 115.45
  Q 85.67 115.44 85.49 114.27
  Q 85.45 114.00 85.52 113.73
  A 1.15 1.14 -82.6 0 1 86.61 112.89
  Q 106.93 112.69 125.49 112.76
  C 126.65 112.77 127.83 113.00 128.96 112.93
  A 1.39 1.37 -71.9 0 0 129.93 112.43
  L 137.40 103.40
  A 0.97 0.97 0.0 0 1 138.88 103.38
  L 148.29 114.12
  A 1.81 1.80 69.4 0 0 149.65 114.74
  L 172.19 114.72
  A 2.28 2.26 69.1 0 1 173.89 115.49
  L 181.59 124.14
  A 0.42 0.42 0.0 0 0 182.30 123.99
  L 192.04 93.33
  Z"
/>
<path fill="#aa302a" d="
  M 213.26 96.14
  L 215.58 95.36
  L 226.67 133.06
  A 0.32 0.32 0.0 0 0 227.23 133.17
  Q 239.45 117.38 252.26 101.62
  Q 253.36 100.27 254.25 98.90
  Q 255.02 97.72 256.01 96.87
  C 256.82 96.18 256.97 95.33 257.56 94.49
  A 0.51 0.51 0.0 0 1 258.43 94.53
  L 268.66 112.89
  A 0.71 0.70 75.8 0 0 269.28 113.26
  L 318.53 113.26
  A 0.79 0.78 -0.4 0 1 319.32 114.03
  L 319.34 114.98
  A 0.82 0.82 0.0 0 1 318.52 115.81
  L 268.25 115.86
  A 1.57 1.56 -14.8 0 1 266.89 115.07
  L 258.42 100.06
  A 0.61 0.61 0.0 0 0 257.42 99.98
  Q 241.48 120.02 228.52 136.61
  Q 227.61 137.78 226.80 139.27
  A 0.54 0.54 0.0 0 1 225.81 139.16
  L 213.26 96.14
  Z"
/>
<path fill="#1a96a1" d="
  M 252.28 133.25
  L 252.26 139.65
  Q 252.25 140.54 251.36 140.59
  L 248.29 140.76
  A 0.97 0.97 0.0 0 1 247.26 139.79
  L 247.30 119.69
  A 0.64 0.64 0.0 0 1 247.95 119.05
  Q 252.80 119.11 257.56 119.05
  C 261.07 119.00 264.91 120.35 265.82 124.07
  C 267.80 132.12 258.25 132.79 253.15 132.43
  A 0.82 0.81 -88.0 0 0 252.28 133.25
  Z
  M 252.28 123.44
  L 252.18 127.80
  A 1.05 1.05 0.0 0 0 253.20 128.88
  L 256.80 128.97
  A 4.11 3.04 1.4 0 0 260.98 126.03
  L 260.99 125.65
  A 4.11 3.04 1.4 0 0 256.96 122.51
  L 253.36 122.42
  A 1.05 1.05 0.0 0 0 252.28 123.44
  Z"
/>
<path fill="#ffffff" d="
  M 252.28 123.44
  A 1.05 1.05 0.0 0 1 253.36 122.42
  L 256.96 122.51
  A 4.11 3.04 1.4 0 1 260.99 125.65
  L 260.98 126.03
  A 4.11 3.04 1.4 0 1 256.80 128.97
  L 253.20 128.88
  A 1.05 1.05 0.0 0 1 252.18 127.80
  L 252.28 123.44
  Z"
/>
<path fill="#1a96a1" d="
  M 281.54 127.19
  Q 282.19 126.70 282.82 126.16
  C 285.36 123.95 289.50 124.67 292.52 126.24
  A 1.03 1.03 0.0 0 1 292.86 127.78
  L 292.17 128.67
  Q 291.56 129.47 290.62 129.09
  C 287.25 127.76 281.41 127.15 281.38 132.51
  Q 281.36 136.31 281.36 139.60
  Q 281.36 140.77 280.19 140.71
  L 277.70 140.58
  Q 276.70 140.53 276.71 139.52
  Q 276.80 134.69 276.70 130.09
  C 276.68 128.97 276.30 127.95 275.79 126.97
  Q 275.34 126.13 276.23 125.80
  L 278.45 124.97
  Q 279.31 124.65 279.73 125.46
  L 280.50 126.95
  Q 280.88 127.69 281.54 127.19
  Z"
/>
<path fill="#1a96a1" d="
  M 320.0798 132.9263
  A 9.50 8.21 0.4 0 1 310.5227 141.0698
  A 9.50 8.21 0.4 0 1 301.0802 132.7937
  A 9.50 8.21 0.4 0 1 310.6373 124.6502
  A 9.50 8.21 0.4 0 1 320.0798 132.9263
  Z
  M 315.69 132.87
  A 5.07 5.07 0.0 0 0 310.62 127.80
  A 5.07 5.07 0.0 0 0 305.55 132.87
  A 5.07 5.07 0.0 0 0 310.62 137.94
  A 5.07 5.07 0.0 0 0 315.69 132.87
  Z"
/>
<circle fill="#ffffff" cx="310.62" cy="132.87" r="5.07"/>
</svg>
