<?xml version="1.0" encoding="UTF-8" standalone="no"?>
<!DOCTYPE svg PUBLIC "-//W3C//DTD SVG 1.1//EN" "http://www.w3.org/Graphics/SVG/1.1/DTD/svg11.dtd">
<svg xmlns="http://www.w3.org/2000/svg" version="1.1" viewBox="0.00 0.00 400.00 195.00">
<g stroke-width="2.00" fill="none" stroke-linecap="butt">
<path stroke="#8da2b9" vector-effect="non-scaling-stroke" d="
  M 95.26 70.01
  L 71.77 69.74
  A 0.94 0.94 0.0 0 0 70.82 70.68
  L 70.83 101.23
  Q 70.83 102.12 71.72 102.12
  L 86.95 102.09"
/>
<path stroke="#94d2cc" vector-effect="non-scaling-stroke" d="
  M 86.95 102.09
  Q 86.49 102.11 87.29 102.13"
/>
<path stroke="#bce4e1" vector-effect="non-scaling-stroke" d="
  M 87.29 102.13
  Q 87.79 102.55 87.47 102.49
  Q 86.56 109.60 87.19 117.06
  A 1.33 1.33 0.0 0 0 88.52 118.28
  L 118.46 118.17
  A 0.81 0.81 0.0 0 0 119.27 117.36
  L 119.25 93.18"
/>
<path stroke="#d7eeec" vector-effect="non-scaling-stroke" d="
  M 119.25 93.18
  L 126.73 92.81
  Q 127.25 92.78 127.25 92.26
  L 127.22 62.54
  A 1.46 1.46 0.0 0 0 126.10 61.12
  Q 124.87 60.82 123.00 60.84
  Q 109.58 60.95 96.90 61.01
  A 1.15 1.14 2.5 0 0 95.77 62.04
  Q 95.43 65.49 95.67 68.93
  Q 95.70 69.24 95.55 69.51
  Q 95.40 69.79 95.26 70.01"
/>
<path stroke="#94d3ce" vector-effect="non-scaling-stroke" d="
  M 119.25 93.18
  L 119.49 88.00
  A 1.81 1.80 2.2 0 0 117.73 86.11
  L 104.35 85.80
  Q 103.19 85.77 103.20 84.60
  L 103.41 71.20
  Q 103.43 69.47 101.71 69.53
  Q 99.35 69.61 97.00 69.64
  Q 96.41 69.64 95.11 70.50"
/>
<path stroke="#6590a6" vector-effect="non-scaling-stroke" d="
  M 95.11 70.50
  Q 95.45 70.62 95.26 70.01"
/>
<path stroke="#51b7ad" vector-effect="non-scaling-stroke" d="
  M 87.29 102.13
  L 102.55 102.08
  Q 103.40 102.08 103.39 101.23
  L 103.20 86.52
  A 0.84 0.83 88.0 0 0 102.32 85.69
  Q 99.25 85.83 96.25 85.90
  Q 94.90 85.93 95.17 84.95"
/>
<path stroke="#4a879b" vector-effect="non-scaling-stroke" d="
  M 95.17 84.95
  L 95.11 70.50"
/>
<path stroke="#227586" vector-effect="non-scaling-stroke" d="
  M 95.17 84.95
  L 95.06 85.41
  Q 94.93 85.93 94.39 85.91
  L 88.65 85.70
  A 1.87 1.87 0.0 0 0 86.71 87.60
  L 86.95 102.09"
/>
<path stroke="#8da2b9" vector-effect="non-scaling-stroke" d="
  M 250.22 91.69
  Q 256.81 91.67 263.24 91.70
  C 265.70 91.71 268.87 91.56 268.97 88.25
  Q 269.07 85.03 269.01 81.67
  A 3.76 3.75 -0.5 0 0 265.26 77.99
  L 244.96 77.95
  A 0.34 0.34 0.0 0 0 244.62 78.29
  L 244.55 99.95
  Q 244.55 100.60 245.20 100.61
  L 248.78 100.69
  Q 249.51 100.71 249.51 99.97
  L 249.48 92.43
  Q 249.48 91.69 250.22 91.69"
/>
<path stroke="#8da2b9" vector-effect="non-scaling-stroke" d="
  M 163.89 82.45
  L 163.88 85.65
  Q 163.88 86.32 164.53 86.17
  L 168.27 85.35
  Q 168.99 85.19 169.00 84.45
  C 169.06 81.43 168.69 78.09 164.97 78.04
  Q 156.42 77.92 148.14 78.04
  Q 144.34 78.09 144.28 81.89
  Q 144.16 88.78 144.28 97.05
  C 144.33 100.71 147.72 100.62 150.29 100.62
  Q 158.00 100.60 165.90 100.43
  A 2.58 2.58 0.0 0 0 168.20 98.89
  Q 169.23 96.56 168.97 93.39
  Q 168.92 92.78 168.32 92.64
  L 164.46 91.71
  A 0.58 0.58 0.0 0 0 163.74 92.30
  L 163.91 95.80
  A 0.84 0.83 -1.3 0 1 163.07 96.67
  L 149.93 96.62
  A 0.69 0.68 90.0 0 1 149.25 95.93
  L 149.21 82.27
  A 0.52 0.52 0.0 0 1 149.73 81.75
  L 163.20 81.75
  Q 163.89 81.75 163.89 82.45"
/>
<path stroke="#8da2b9" vector-effect="non-scaling-stroke" d="
  M 203.0833 81.6843
  A 3.65 3.65 0.0 0 0 199.4397 78.0279
  L 178.9397 77.9921
  A 3.65 3.65 0.0 0 0 175.2833 81.6358
  L 175.2567 96.8757
  A 3.65 3.65 0.0 0 0 178.9003 100.5321
  L 199.4003 100.5679
  A 3.65 3.65 0.0 0 0 203.0567 96.9242
  L 203.0833 81.6843"
/>
<path stroke="#8da2b9" vector-effect="non-scaling-stroke" d="
  M 237.4667 81.6358
  A 3.66 3.66 0.0 0 0 233.8003 77.9822
  L 213.3803 78.0178
  A 3.66 3.66 0.0 0 0 209.7267 81.6842
  L 209.7533 96.9242
  A 3.66 3.66 0.0 0 0 213.4197 100.5778
  L 233.8397 100.5422
  A 3.66 3.66 0.0 0 0 237.4933 96.8758
  L 237.4667 81.6358"
/>
<path stroke="#8da2b9" vector-effect="non-scaling-stroke" d="
  M 278.06 91.21
  Q 278.07 90.49 278.79 90.50
  L 287.86 90.59
  Q 288.70 90.60 288.65 89.76
  L 288.52 87.49
  A 0.53 0.53 0.0 0 0 287.99 86.98
  L 278.76 87.00
  Q 278.02 87.01 278.02 86.26
  L 278.02 82.25
  Q 278.02 81.52 278.75 81.52
  L 295.30 81.51
  Q 296.09 81.51 296.16 80.73
  Q 296.28 79.48 296.04 78.48
  Q 295.93 78.01 295.45 78.01
  L 273.25 77.99
  Q 273.00 77.99 273.00 78.25
  L 273.00 99.95
  Q 273.00 100.53 273.58 100.53
  L 295.84 100.54
  Q 296.23 100.54 296.23 100.15
  L 296.28 96.96
  Q 296.28 96.63 295.96 96.63
  L 278.70 96.66
  Q 278.00 96.66 278.00 95.95
  L 278.06 91.21"
/>
<path stroke="#8da2b9" vector-effect="non-scaling-stroke" d="
  M 319.28 92.01
  C 322.10 92.02 326.17 92.39 326.31 88.42
  Q 326.43 85.16 326.30 81.38
  A 3.50 3.50 0.0 0 0 322.80 78.00
  L 302.49 77.99
  A 0.52 0.51 90.0 0 0 301.98 78.51
  L 301.99 100.19
  Q 301.99 100.64 302.44 100.63
  L 306.47 100.57
  A 0.55 0.54 -0.5 0 0 307.01 100.03
  L 307.00 92.74
  Q 307.00 91.99 307.76 91.99
  L 311.58 92.00
  Q 312.27 92.00 312.77 92.49
  L 319.66 99.25
  Q 321.02 100.59 322.93 100.65
  L 327.05 100.80
  Q 329.15 100.87 327.51 99.55
  L 319.02 92.74
  Q 318.11 92.00 319.28 92.01"
/>
<path stroke="#94d2cc" vector-effect="non-scaling-stroke" d="
  M 246.04 113.58
  A 0.33 0.33 0.0 0 1 246.37 113.25
  L 253.95 113.26
  A 0.33 0.33 0.0 0 0 254.28 112.93
  L 254.27 108.17
  A 0.33 0.33 0.0 0 0 253.94 107.84
  L 244.63 107.83
  A 0.33 0.33 0.0 0 0 244.30 108.17
  L 244.44 116.90
  A 0.33 0.33 0.0 0 0 244.77 117.22
  L 245.71 117.24
  A 0.33 0.33 0.0 0 0 246.04 116.91
  L 246.04 113.58"
/>
<path stroke="#94d2cc" vector-effect="non-scaling-stroke" d="
  M 259.49 110.87
  L 259.58 108.43
  Q 259.60 107.76 258.93 107.75
  L 258.52 107.75
  A 0.73 0.73 0.0 0 0 257.78 108.48
  L 257.77 116.44
  Q 257.77 117.19 258.52 117.21
  L 258.84 117.23
  Q 259.57 117.25 259.56 116.52
  L 259.50 113.79
  Q 259.49 113.06 260.21 113.08
  L 266.36 113.18
  A 0.66 0.65 -88.7 0 1 267.00 113.86
  L 266.91 116.49
  Q 266.89 117.05 267.43 117.20
  Q 267.74 117.29 268.05 117.25
  Q 268.95 117.13 268.95 116.23
  L 269.01 108.74
  A 0.97 0.97 0.0 0 0 267.99 107.77
  L 267.55 107.80
  Q 266.94 107.83 266.92 108.45
  L 266.87 111.10
  Q 266.86 111.56 266.40 111.56
  L 260.13 111.53
  A 0.64 0.64 0.0 0 1 259.49 110.87"
/>
<path stroke="#94d2cc" vector-effect="non-scaling-stroke" d="
  M 275.52 115.01
  L 280.83 115.11
  A 0.94 0.93 -13.9 0 1 281.63 115.59
  L 282.28 116.75
  A 1.07 1.05 66.7 0 0 283.50 117.25
  L 283.84 117.14
  A 0.50 0.49 -23.2 0 0 284.13 116.42
  L 279.61 108.49
  A 1.61 1.61 0.0 0 0 276.81 108.50
  L 272.29 116.54
  Q 272.00 117.06 272.59 117.16
  L 272.96 117.22
  Q 273.47 117.31 273.81 116.91
  Q 274.30 116.34 274.59 115.63
  Q 274.84 115.00 275.52 115.01"
/>
<path stroke="#94d2cc" vector-effect="non-scaling-stroke" d="
  M 295.32 113.28
  Q 295.92 113.12 296.42 113.22
  A 1.03 1.03 0.0 0 0 297.66 112.21
  L 297.66 109.25
  Q 297.65 107.85 296.25 107.85
  L 288.60 107.82
  A 0.83 0.83 0.0 0 0 287.76 108.65
  L 287.72 116.33
  A 0.84 0.84 0.0 0 0 288.59 117.17
  L 288.92 117.16
  A 0.62 0.62 0.0 0 0 289.51 116.52
  L 289.42 114.00
  A 0.74 0.73 -87.6 0 1 290.23 113.25
  C 293.51 113.58 294.15 117.62 297.57 117.20
  A 0.55 0.55 0.0 0 0 297.71 116.15
  Q 296.35 115.61 295.05 114.47
  A 0.69 0.69 0.0 0 1 295.32 113.28"
/>
<path stroke="#94d2cc" vector-effect="non-scaling-stroke" d="
  M 304.16 110.80
  L 307.68 115.62
  A 0.60 0.60 0.0 0 0 308.65 115.62
  L 311.60 111.46
  Q 312.78 109.79 312.76 111.83
  L 312.70 116.68
  Q 312.69 117.20 313.21 117.19
  L 313.59 117.19
  A 0.73 0.72 89.6 0 0 314.30 116.46
  L 314.28 109.94
  Q 314.27 105.98 311.80 109.08
  L 308.48 113.23
  Q 308.05 113.77 307.71 113.16
  Q 306.04 110.19 303.61 107.92
  A 0.93 0.93 0.0 0 0 302.04 108.59
  L 301.96 116.49
  Q 301.95 117.28 302.74 117.24
  L 303.25 117.22
  Q 303.71 117.20 303.69 116.75
  L 303.46 111.04
  Q 303.40 109.76 304.16 110.80"
/>
<path stroke="#94d2cc" vector-effect="non-scaling-stroke" d="
  M 326.56 115.24
  L 327.13 116.13
  Q 327.65 116.92 328.57 117.15
  Q 328.85 117.22 329.11 117.14
  A 0.54 0.54 0.0 0 0 329.42 116.35
  L 325.07 108.76
  A 1.80 1.80 0.0 0 0 321.95 108.75
  L 317.39 116.66
  A 0.29 0.29 0.0 0 0 317.57 117.08
  L 317.87 117.15
  Q 318.71 117.34 319.24 116.68
  L 320.31 115.33
  A 1.02 1.00 23.0 0 1 321.26 114.96
  Q 323.51 115.32 325.72 114.89
  Q 326.26 114.78 326.56 115.24"
/>
<path stroke="#8da2b9" vector-effect="non-scaling-stroke" d="
  M 249.67 82.03
  L 249.69 87.67
  A 0.24 0.24 0.0 0 0 249.94 87.91
  L 262.04 87.84
  A 2.04 1.80 -0.3 0 0 264.07 86.03
  L 264.05 83.51
  A 2.04 1.80 -0.3 0 0 262.00 81.72
  L 249.90 81.79
  A 0.24 0.24 0.0 0 0 249.67 82.03"
/>
<path stroke="#8da2b9" vector-effect="non-scaling-stroke" d="
  M 197.90 82.36
  A 0.50 0.50 0.0 0 0 197.40 81.86
  L 180.92 81.86
  A 0.50 0.50 0.0 0 0 180.42 82.36
  L 180.42 95.94
  A 0.50 0.50 0.0 0 0 180.92 96.44
  L 197.40 96.44
  A 0.50 0.50 0.0 0 0 197.90 95.94
  L 197.90 82.36"
/>
<path stroke="#8da2b9" vector-effect="non-scaling-stroke" d="
  M 232.3018 82.4053
  A 0.54 0.54 0.0 0 0 231.7627 81.8643
  L 215.3427 81.8357
  A 0.54 0.54 0.0 0 0 214.8018 82.3747
  L 214.7782 95.8747
  A 0.54 0.54 0.0 0 0 215.3173 96.4157
  L 231.7373 96.4443
  A 0.54 0.54 0.0 0 0 232.2782 95.9053
  L 232.3018 82.4053"
/>
<path stroke="#8da2b9" vector-effect="non-scaling-stroke" d="
  M 321.3460 82.6775
  A 0.92 0.92 0.0 0 0 320.4244 81.7591
  L 307.9444 81.7809
  A 0.92 0.92 0.0 0 0 307.0260 82.7025
  L 307.0340 87.3025
  A 0.92 0.92 0.0 0 0 307.9556 88.2209
  L 320.4356 88.1991
  A 0.92 0.92 0.0 0 0 321.3540 87.2775
  L 321.3460 82.6775"
/>
<path stroke="#94d2cc" vector-effect="non-scaling-stroke" d="
  M 252.5207 110.4069
  A 1.09 1.09 0.0 0 0 251.4364 109.3112
  L 247.1765 109.2889
  A 1.09 1.09 0.0 0 0 246.0808 110.3731
  L 246.0793 110.6531
  A 1.09 1.09 0.0 0 0 247.1636 111.7488
  L 251.4235 111.7711
  A 1.09 1.09 0.0 0 0 252.5192 110.6869
  L 252.5207 110.4069"
/>
<path stroke="#94d2cc" vector-effect="non-scaling-stroke" d="
  M 280.07 112.91
  L 278.47 109.97
  Q 278.04 109.19 277.65 109.99
  L 276.30 112.73
  Q 275.87 113.60 276.82 113.43
  Q 278.25 113.18 279.64 113.48
  Q 280.49 113.67 280.07 112.91"
/>
<path stroke="#94d2cc" vector-effect="non-scaling-stroke" d="
  M 295.8330 110.3916
  A 0.96 0.96 0.0 0 0 294.9106 109.3955
  L 290.5138 109.2265
  A 0.96 0.96 0.0 0 0 289.5177 110.1490
  L 289.4870 110.9484
  A 0.96 0.96 0.0 0 0 290.4094 111.9445
  L 294.8062 112.1135
  A 0.96 0.96 0.0 0 0 295.8023 111.1910
  L 295.8330 110.3916"
/>
<path stroke="#94d2cc" vector-effect="non-scaling-stroke" d="
  M 323.81 110.05
  A 0.37 0.37 0.0 0 0 323.16 110.04
  L 321.49 112.92
  A 0.37 0.37 0.0 0 0 321.82 113.48
  L 325.00 113.41
  A 0.37 0.37 0.0 0 0 325.32 112.86
  L 323.81 110.05"
/>
</g>
<path fill="#ffffff" d="
  M 0.00 0.00
  L 400.00 0.00
  L 400.00 195.00
  L 0.00 195.00
  L 0.00 0.00
  Z
  M 95.26 70.01
  L 71.77 69.74
  A 0.94 0.94 0.0 0 0 70.82 70.68
  L 70.83 101.23
  Q 70.83 102.12 71.72 102.12
  L 86.95 102.09
  Q 86.49 102.11 87.29 102.13
  Q 87.79 102.55 87.47 102.49
  Q 86.56 109.60 87.19 117.06
  A 1.33 1.33 0.0 0 0 88.52 118.28
  L 118.46 118.17
  A 0.81 0.81 0.0 0 0 119.27 117.36
  L 119.25 93.18
  L 126.73 92.81
  Q 127.25 92.78 127.25 92.26
  L 127.22 62.54
  A 1.46 1.46 0.0 0 0 126.10 61.12
  Q 124.87 60.82 123.00 60.84
  Q 109.58 60.95 96.90 61.01
  A 1.15 1.14 2.5 0 0 95.77 62.04
  Q 95.43 65.49 95.67 68.93
  Q 95.70 69.24 95.55 69.51
  Q 95.40 69.79 95.26 70.01
  Z
  M 250.22 91.69
  Q 256.81 91.67 263.24 91.70
  C 265.70 91.71 268.87 91.56 268.97 88.25
  Q 269.07 85.03 269.01 81.67
  A 3.76 3.75 -0.5 0 0 265.26 77.99
  L 244.96 77.95
  A 0.34 0.34 0.0 0 0 244.62 78.29
  L 244.55 99.95
  Q 244.55 100.60 245.20 100.61
  L 248.78 100.69
  Q 249.51 100.71 249.51 99.97
  L 249.48 92.43
  Q 249.48 91.69 250.22 91.69
  Z
  M 163.89 82.45
  L 163.88 85.65
  Q 163.88 86.32 164.53 86.17
  L 168.27 85.35
  Q 168.99 85.19 169.00 84.45
  C 169.06 81.43 168.69 78.09 164.97 78.04
  Q 156.42 77.92 148.14 78.04
  Q 144.34 78.09 144.28 81.89
  Q 144.16 88.78 144.28 97.05
  C 144.33 100.71 147.72 100.62 150.29 100.62
  Q 158.00 100.60 165.90 100.43
  A 2.58 2.58 0.0 0 0 168.20 98.89
  Q 169.23 96.56 168.97 93.39
  Q 168.92 92.78 168.32 92.64
  L 164.46 91.71
  A 0.58 0.58 0.0 0 0 163.74 92.30
  L 163.91 95.80
  A 0.84 0.83 -1.3 0 1 163.07 96.67
  L 149.93 96.62
  A 0.69 0.68 90.0 0 1 149.25 95.93
  L 149.21 82.27
  A 0.52 0.52 0.0 0 1 149.73 81.75
  L 163.20 81.75
  Q 163.89 81.75 163.89 82.45
  Z
  M 203.0833 81.6843
  A 3.65 3.65 0.0 0 0 199.4397 78.0279
  L 178.9397 77.9921
  A 3.65 3.65 0.0 0 0 175.2833 81.6358
  L 175.2567 96.8757
  A 3.65 3.65 0.0 0 0 178.9003 100.5321
  L 199.4003 100.5679
  A 3.65 3.65 0.0 0 0 203.0567 96.9242
  L 203.0833 81.6843
  Z
  M 237.4667 81.6358
  A 3.66 3.66 0.0 0 0 233.8003 77.9822
  L 213.3803 78.0178
  A 3.66 3.66 0.0 0 0 209.7267 81.6842
  L 209.7533 96.9242
  A 3.66 3.66 0.0 0 0 213.4197 100.5778
  L 233.8397 100.5422
  A 3.66 3.66 0.0 0 0 237.4933 96.8758
  L 237.4667 81.6358
  Z
  M 278.06 91.21
  Q 278.07 90.49 278.79 90.50
  L 287.86 90.59
  Q 288.70 90.60 288.65 89.76
  L 288.52 87.49
  A 0.53 0.53 0.0 0 0 287.99 86.98
  L 278.76 87.00
  Q 278.02 87.01 278.02 86.26
  L 278.02 82.25
  Q 278.02 81.52 278.75 81.52
  L 295.30 81.51
  Q 296.09 81.51 296.16 80.73
  Q 296.28 79.48 296.04 78.48
  Q 295.93 78.01 295.45 78.01
  L 273.25 77.99
  Q 273.00 77.99 273.00 78.25
  L 273.00 99.95
  Q 273.00 100.53 273.58 100.53
  L 295.84 100.54
  Q 296.23 100.54 296.23 100.15
  L 296.28 96.96
  Q 296.28 96.63 295.96 96.63
  L 278.70 96.66
  Q 278.00 96.66 278.00 95.95
  L 278.06 91.21
  Z
  M 319.28 92.01
  C 322.10 92.02 326.17 92.39 326.31 88.42
  Q 326.43 85.16 326.30 81.38
  A 3.50 3.50 0.0 0 0 322.80 78.00
  L 302.49 77.99
  A 0.52 0.51 90.0 0 0 301.98 78.51
  L 301.99 100.19
  Q 301.99 100.64 302.44 100.63
  L 306.47 100.57
  A 0.55 0.54 -0.5 0 0 307.01 100.03
  L 307.00 92.74
  Q 307.00 91.99 307.76 91.99
  L 311.58 92.00
  Q 312.27 92.00 312.77 92.49
  L 319.66 99.25
  Q 321.02 100.59 322.93 100.65
  L 327.05 100.80
  Q 329.15 100.87 327.51 99.55
  L 319.02 92.74
  Q 318.11 92.00 319.28 92.01
  Z
  M 246.04 113.58
  A 0.33 0.33 0.0 0 1 246.37 113.25
  L 253.95 113.26
  A 0.33 0.33 0.0 0 0 254.28 112.93
  L 254.27 108.17
  A 0.33 0.33 0.0 0 0 253.94 107.84
  L 244.63 107.83
  A 0.33 0.33 0.0 0 0 244.30 108.17
  L 244.44 116.90
  A 0.33 0.33 0.0 0 0 244.77 117.22
  L 245.71 117.24
  A 0.33 0.33 0.0 0 0 246.04 116.91
  L 246.04 113.58
  Z
  M 259.49 110.87
  L 259.58 108.43
  Q 259.60 107.76 258.93 107.75
  L 258.52 107.75
  A 0.73 0.73 0.0 0 0 257.78 108.48
  L 257.77 116.44
  Q 257.77 117.19 258.52 117.21
  L 258.84 117.23
  Q 259.57 117.25 259.56 116.52
  L 259.50 113.79
  Q 259.49 113.06 260.21 113.08
  L 266.36 113.18
  A 0.66 0.65 -88.7 0 1 267.00 113.86
  L 266.91 116.49
  Q 266.89 117.05 267.43 117.20
  Q 267.74 117.29 268.05 117.25
  Q 268.95 117.13 268.95 116.23
  L 269.01 108.74
  A 0.97 0.97 0.0 0 0 267.99 107.77
  L 267.55 107.80
  Q 266.94 107.83 266.92 108.45
  L 266.87 111.10
  Q 266.86 111.56 266.40 111.56
  L 260.13 111.53
  A 0.64 0.64 0.0 0 1 259.49 110.87
  Z
  M 275.52 115.01
  L 280.83 115.11
  A 0.94 0.93 -13.9 0 1 281.63 115.59
  L 282.28 116.75
  A 1.07 1.05 66.7 0 0 283.50 117.25
  L 283.84 117.14
  A 0.50 0.49 -23.2 0 0 284.13 116.42
  L 279.61 108.49
  A 1.61 1.61 0.0 0 0 276.81 108.50
  L 272.29 116.54
  Q 272.00 117.06 272.59 117.16
  L 272.96 117.22
  Q 273.47 117.31 273.81 116.91
  Q 274.30 116.34 274.59 115.63
  Q 274.84 115.00 275.52 115.01
  Z
  M 295.32 113.28
  Q 295.92 113.12 296.42 113.22
  A 1.03 1.03 0.0 0 0 297.66 112.21
  L 297.66 109.25
  Q 297.65 107.85 296.25 107.85
  L 288.60 107.82
  A 0.83 0.83 0.0 0 0 287.76 108.65
  L 287.72 116.33
  A 0.84 0.84 0.0 0 0 288.59 117.17
  L 288.92 117.16
  A 0.62 0.62 0.0 0 0 289.51 116.52
  L 289.42 114.00
  A 0.74 0.73 -87.6 0 1 290.23 113.25
  C 293.51 113.58 294.15 117.62 297.57 117.20
  A 0.55 0.55 0.0 0 0 297.71 116.15
  Q 296.35 115.61 295.05 114.47
  A 0.69 0.69 0.0 0 1 295.32 113.28
  Z
  M 304.16 110.80
  L 307.68 115.62
  A 0.60 0.60 0.0 0 0 308.65 115.62
  L 311.60 111.46
  Q 312.78 109.79 312.76 111.83
  L 312.70 116.68
  Q 312.69 117.20 313.21 117.19
  L 313.59 117.19
  A 0.73 0.72 89.6 0 0 314.30 116.46
  L 314.28 109.94
  Q 314.27 105.98 311.80 109.08
  L 308.48 113.23
  Q 308.05 113.77 307.71 113.16
  Q 306.04 110.19 303.61 107.92
  A 0.93 0.93 0.0 0 0 302.04 108.59
  L 301.96 116.49
  Q 301.95 117.28 302.74 117.24
  L 303.25 117.22
  Q 303.71 117.20 303.69 116.75
  L 303.46 111.04
  Q 303.40 109.76 304.16 110.80
  Z
  M 326.56 115.24
  L 327.13 116.13
  Q 327.65 116.92 328.57 117.15
  Q 328.85 117.22 329.11 117.14
  A 0.54 0.54 0.0 0 0 329.42 116.35
  L 325.07 108.76
  A 1.80 1.80 0.0 0 0 321.95 108.75
  L 317.39 116.66
  A 0.29 0.29 0.0 0 0 317.57 117.08
  L 317.87 117.15
  Q 318.71 117.34 319.24 116.68
  L 320.31 115.33
  A 1.02 1.00 23.0 0 1 321.26 114.96
  Q 323.51 115.32 325.72 114.89
  Q 326.26 114.78 326.56 115.24
  Z"
/>
<path fill="#aedcd9" d="
  M 119.25 93.18
  L 119.49 88.00
  A 1.81 1.80 2.2 0 0 117.73 86.11
  L 104.35 85.80
  Q 103.19 85.77 103.20 84.60
  L 103.41 71.20
  Q 103.43 69.47 101.71 69.53
  Q 99.35 69.61 97.00 69.64
  Q 96.41 69.64 95.11 70.50
  Q 95.45 70.62 95.26 70.01
  Q 95.40 69.79 95.55 69.51
  Q 95.70 69.24 95.67 68.93
  Q 95.43 65.49 95.77 62.04
  A 1.15 1.14 2.5 0 1 96.90 61.01
  Q 109.58 60.95 123.00 60.84
  Q 124.87 60.82 126.10 61.12
  A 1.46 1.46 0.0 0 1 127.22 62.54
  L 127.25 92.26
  Q 127.25 92.78 126.73 92.81
  L 119.25 93.18
  Z"
/>
<path fill="#79c9c2" d="
  M 119.25 93.18
  L 119.27 117.36
  A 0.81 0.81 0.0 0 1 118.46 118.17
  L 88.52 118.28
  A 1.33 1.33 0.0 0 1 87.19 117.06
  Q 86.56 109.60 87.47 102.49
  Q 87.79 102.55 87.29 102.13
  L 102.55 102.08
  Q 103.40 102.08 103.39 101.23
  L 103.20 86.52
  A 0.84 0.83 88.0 0 0 102.32 85.69
  Q 99.25 85.83 96.25 85.90
  Q 94.90 85.93 95.17 84.95
  L 95.11 70.50
  Q 96.41 69.64 97.00 69.64
  Q 99.35 69.61 101.71 69.53
  Q 103.43 69.47 103.41 71.20
  L 103.20 84.60
  Q 103.19 85.77 104.35 85.80
  L 117.73 86.11
  A 1.81 1.80 2.2 0 1 119.49 88.00
  L 119.25 93.18
  Z"
/>
<path fill="#1b4473" d="
  M 95.26 70.01
  Q 95.45 70.62 95.11 70.50
  L 95.17 84.95
  L 95.06 85.41
  Q 94.93 85.93 94.39 85.91
  L 88.65 85.70
  A 1.87 1.87 0.0 0 0 86.71 87.60
  L 86.95 102.09
  L 71.72 102.12
  Q 70.83 102.12 70.83 101.23
  L 70.82 70.68
  A 0.94 0.94 0.0 0 1 71.77 69.74
  L 95.26 70.01
  Z"
/>
<path fill="#1b4473" d="
  M 249.48 92.43
  L 249.51 99.97
  Q 249.51 100.71 248.78 100.69
  L 245.20 100.61
  Q 244.55 100.60 244.55 99.95
  L 244.62 78.29
  A 0.34 0.34 0.0 0 1 244.96 77.95
  L 265.26 77.99
  A 3.76 3.75 -0.5 0 1 269.01 81.67
  Q 269.07 85.03 268.97 88.25
  C 268.87 91.56 265.70 91.71 263.24 91.70
  Q 256.81 91.67 250.22 91.69
  Q 249.48 91.69 249.48 92.43
  Z
  M 249.67 82.03
  L 249.69 87.67
  A 0.24 0.24 0.0 0 0 249.94 87.91
  L 262.04 87.84
  A 2.04 1.80 -0.3 0 0 264.07 86.03
  L 264.05 83.51
  A 2.04 1.80 -0.3 0 0 262.00 81.72
  L 249.90 81.79
  A 0.24 0.24 0.0 0 0 249.67 82.03
  Z"
/>
<path fill="#1b4473" d="
  M 163.20 81.75
  L 149.73 81.75
  A 0.52 0.52 0.0 0 0 149.21 82.27
  L 149.25 95.93
  A 0.69 0.68 90.0 0 0 149.93 96.62
  L 163.07 96.67
  A 0.84 0.83 -1.3 0 0 163.91 95.80
  L 163.74 92.30
  A 0.58 0.58 0.0 0 1 164.46 91.71
  L 168.32 92.64
  Q 168.92 92.78 168.97 93.39
  Q 169.23 96.56 168.20 98.89
  A 2.58 2.58 0.0 0 1 165.90 100.43
  Q 158.00 100.60 150.29 100.62
  C 147.72 100.62 144.33 100.71 144.28 97.05
  Q 144.16 88.78 144.28 81.89
  Q 144.34 78.09 148.14 78.04
  Q 156.42 77.92 164.97 78.04
  C 168.69 78.09 169.06 81.43 169.00 84.45
  Q 168.99 85.19 168.27 85.35
  L 164.53 86.17
  Q 163.88 86.32 163.88 85.65
  L 163.89 82.45
  Q 163.89 81.75 163.20 81.75
  Z"
/>
<path fill="#1b4473" d="
  M 203.0567 96.9242
  A 3.65 3.65 0.0 0 1 199.4003 100.5679
  L 178.9003 100.5321
  A 3.65 3.65 0.0 0 1 175.2567 96.8757
  L 175.2833 81.6358
  A 3.65 3.65 0.0 0 1 178.9397 77.9921
  L 199.4397 78.0279
  A 3.65 3.65 0.0 0 1 203.0833 81.6843
  L 203.0567 96.9242
  Z
  M 197.90 82.36
  A 0.50 0.50 0.0 0 0 197.40 81.86
  L 180.92 81.86
  A 0.50 0.50 0.0 0 0 180.42 82.36
  L 180.42 95.94
  A 0.50 0.50 0.0 0 0 180.92 96.44
  L 197.40 96.44
  A 0.50 0.50 0.0 0 0 197.90 95.94
  L 197.90 82.36
  Z"
/>
<path fill="#1b4473" d="
  M 237.4933 96.8758
  A 3.66 3.66 0.0 0 1 233.8397 100.5422
  L 213.4197 100.5778
  A 3.66 3.66 0.0 0 1 209.7533 96.9242
  L 209.7267 81.6842
  A 3.66 3.66 0.0 0 1 213.3803 78.0178
  L 233.8003 77.9822
  A 3.66 3.66 0.0 0 1 237.4667 81.6358
  L 237.4933 96.8758
  Z
  M 232.3018 82.4053
  A 0.54 0.54 0.0 0 0 231.7627 81.8643
  L 215.3427 81.8357
  A 0.54 0.54 0.0 0 0 214.8018 82.3747
  L 214.7782 95.8747
  A 0.54 0.54 0.0 0 0 215.3173 96.4157
  L 231.7373 96.4443
  A 0.54 0.54 0.0 0 0 232.2782 95.9053
  L 232.3018 82.4053
  Z"
/>
<path fill="#1b4473" d="
  M 278.70 96.66
  L 295.96 96.63
  Q 296.28 96.63 296.28 96.96
  L 296.23 100.15
  Q 296.23 100.54 295.84 100.54
  L 273.58 100.53
  Q 273.00 100.53 273.00 99.95
  L 273.00 78.25
  Q 273.00 77.99 273.25 77.99
  L 295.45 78.01
  Q 295.93 78.01 296.04 78.48
  Q 296.28 79.48 296.16 80.73
  Q 296.09 81.51 295.30 81.51
  L 278.75 81.52
  Q 278.02 81.52 278.02 82.25
  L 278.02 86.26
  Q 278.02 87.01 278.76 87.00
  L 287.99 86.98
  A 0.53 0.53 0.0 0 1 288.52 87.49
  L 288.65 89.76
  Q 288.70 90.60 287.86 90.59
  L 278.79 90.50
  Q 278.07 90.49 278.06 91.21
  L 278.00 95.95
  Q 278.00 96.66 278.70 96.66
  Z"
/>
<path fill="#1b4473" d="
  M 319.28 92.01
  Q 318.11 92.00 319.02 92.74
  L 327.51 99.55
  Q 329.15 100.87 327.05 100.80
  L 322.93 100.65
  Q 321.02 100.59 319.66 99.25
  L 312.77 92.49
  Q 312.27 92.00 311.58 92.00
  L 307.76 91.99
  Q 307.00 91.99 307.00 92.74
  L 307.01 100.03
  A 0.55 0.54 -0.5 0 1 306.47 100.57
  L 302.44 100.63
  Q 301.99 100.64 301.99 100.19
  L 301.98 78.51
  A 0.52 0.51 -90.0 0 1 302.49 77.99
  L 322.80 78.00
  A 3.50 3.50 0.0 0 1 326.30 81.38
  Q 326.43 85.16 326.31 88.42
  C 326.17 92.39 322.10 92.02 319.28 92.01
  Z
  M 321.3460 82.6775
  A 0.92 0.92 0.0 0 0 320.4244 81.7591
  L 307.9444 81.7809
  A 0.92 0.92 0.0 0 0 307.0260 82.7025
  L 307.0340 87.3025
  A 0.92 0.92 0.0 0 0 307.9556 88.2209
  L 320.4356 88.1991
  A 0.92 0.92 0.0 0 0 321.3540 87.2775
  L 321.3460 82.6775
  Z"
/>
<rect fill="#ffffff" x="180.42" y="81.86" width="17.48" height="14.58" rx="0.50"/>
<rect fill="#ffffff" x="-8.75" y="-7.29" transform="translate(223.54,89.14) rotate(0.1)" width="17.50" height="14.58" rx="0.54"/>
<path fill="#ffffff" d="
  M 249.67 82.03
  A 0.24 0.24 0.0 0 1 249.90 81.79
  L 262.00 81.72
  A 2.04 1.80 -0.3 0 1 264.05 83.51
  L 264.07 86.03
  A 2.04 1.80 -0.3 0 1 262.04 87.84
  L 249.94 87.91
  A 0.24 0.24 0.0 0 1 249.69 87.67
  L 249.67 82.03
  Z"
/>
<rect fill="#ffffff" x="-7.16" y="-3.22" transform="translate(314.19,84.99) rotate(-0.1)" width="14.32" height="6.44" rx="0.92"/>
<path fill="#29a598" d="
  M 95.17 84.95
  Q 94.90 85.93 96.25 85.90
  Q 99.25 85.83 102.32 85.69
  A 0.84 0.83 88.0 0 1 103.20 86.52
  L 103.39 101.23
  Q 103.40 102.08 102.55 102.08
  L 87.29 102.13
  Q 86.49 102.11 86.95 102.09
  L 86.71 87.60
  A 1.87 1.87 0.0 0 1 88.65 85.70
  L 94.39 85.91
  Q 94.93 85.93 95.06 85.41
  L 95.17 84.95
  Z"
/>
<path fill="#29a598" d="
  M 246.04 113.58
  L 246.04 116.91
  A 0.33 0.33 0.0 0 1 245.71 117.24
  L 244.77 117.22
  A 0.33 0.33 0.0 0 1 244.44 116.90
  L 244.30 108.17
  A 0.33 0.33 0.0 0 1 244.63 107.83
  L 253.94 107.84
  A 0.33 0.33 0.0 0 1 254.27 108.17
  L 254.28 112.93
  A 0.33 0.33 0.0 0 1 253.95 113.26
  L 246.37 113.25
  A 0.33 0.33 0.0 0 0 246.04 113.58
  Z
  M 252.5207 110.4069
  A 1.09 1.09 0.0 0 0 251.4364 109.3112
  L 247.1765 109.2889
  A 1.09 1.09 0.0 0 0 246.0808 110.3731
  L 246.0793 110.6531
  A 1.09 1.09 0.0 0 0 247.1636 111.7488
  L 251.4235 111.7711
  A 1.09 1.09 0.0 0 0 252.5192 110.6869
  L 252.5207 110.4069
  Z"
/>
<path fill="#29a598" d="
  M 260.13 111.53
  L 266.40 111.56
  Q 266.86 111.56 266.87 111.10
  L 266.92 108.45
  Q 266.94 107.83 267.55 107.80
  L 267.99 107.77
  A 0.97 0.97 0.0 0 1 269.01 108.74
  L 268.95 116.23
  Q 268.95 117.13 268.05 117.25
  Q 267.74 117.29 267.43 117.20
  Q 266.89 117.05 266.91 116.49
  L 267.00 113.86
  A 0.66 0.65 -88.7 0 0 266.36 113.18
  L 260.21 113.08
  Q 259.49 113.06 259.50 113.79
  L 259.56 116.52
  Q 259.57 117.25 258.84 117.23
  L 258.52 117.21
  Q 257.77 117.19 257.77 116.44
  L 257.78 108.48
  A 0.73 0.73 0.0 0 1 258.52 107.75
  L 258.93 107.75
  Q 259.60 107.76 259.58 108.43
  L 259.49 110.87
  A 0.64 0.64 0.0 0 0 260.13 111.53
  Z"
/>
<path fill="#29a598" d="
  M 274.59 115.63
  Q 274.30 116.34 273.81 116.91
  Q 273.47 117.31 272.96 117.22
  L 272.59 117.16
  Q 272.00 117.06 272.29 116.54
  L 276.81 108.50
  A 1.61 1.61 0.0 0 1 279.61 108.49
  L 284.13 116.42
  A 0.50 0.49 -23.2 0 1 283.84 117.14
  L 283.50 117.25
  A 1.07 1.05 66.7 0 1 282.28 116.75
  L 281.63 115.59
  A 0.94 0.93 -13.9 0 0 280.83 115.11
  L 275.52 115.01
  Q 274.84 115.00 274.59 115.63
  Z
  M 280.07 112.91
  L 278.47 109.97
  Q 278.04 109.19 277.65 109.99
  L 276.30 112.73
  Q 275.87 113.60 276.82 113.43
  Q 278.25 113.18 279.64 113.48
  Q 280.49 113.67 280.07 112.91
  Z"
/>
<path fill="#29a598" d="
  M 295.32 113.28
  A 0.69 0.69 0.0 0 0 295.05 114.47
  Q 296.35 115.61 297.71 116.15
  A 0.55 0.55 0.0 0 1 297.57 117.20
  C 294.15 117.62 293.51 113.58 290.23 113.25
  A 0.74 0.73 -87.6 0 0 289.42 114.00
  L 289.51 116.52
  A 0.62 0.62 0.0 0 1 288.92 117.16
  L 288.59 117.17
  A 0.84 0.84 0.0 0 1 287.72 116.33
  L 287.76 108.65
  A 0.83 0.83 0.0 0 1 288.60 107.82
  L 296.25 107.85
  Q 297.65 107.85 297.66 109.25
  L 297.66 112.21
  A 1.03 1.03 0.0 0 1 296.42 113.22
  Q 295.92 113.12 295.32 113.28
  Z
  M 295.8330 110.3916
  A 0.96 0.96 0.0 0 0 294.9106 109.3955
  L 290.5138 109.2265
  A 0.96 0.96 0.0 0 0 289.5177 110.1490
  L 289.4870 110.9484
  A 0.96 0.96 0.0 0 0 290.4094 111.9445
  L 294.8062 112.1135
  A 0.96 0.96 0.0 0 0 295.8023 111.1910
  L 295.8330 110.3916
  Z"
/>
<path fill="#29a598" d="
  M 303.46 111.04
  L 303.69 116.75
  Q 303.71 117.20 303.25 117.22
  L 302.74 117.24
  Q 301.95 117.28 301.96 116.49
  L 302.04 108.59
  A 0.93 0.93 0.0 0 1 303.61 107.92
  Q 306.04 110.19 307.71 113.16
  Q 308.05 113.77 308.48 113.23
  L 311.80 109.08
  Q 314.27 105.98 314.28 109.94
  L 314.30 116.46
  A 0.73 0.72 89.6 0 1 313.59 117.19
  L 313.21 117.19
  Q 312.69 117.20 312.70 116.68
  L 312.76 111.83
  Q 312.78 109.79 311.60 111.46
  L 308.65 115.62
  A 0.60 0.60 0.0 0 1 307.68 115.62
  L 304.16 110.80
  Q 303.40 109.76 303.46 111.04
  Z"
/>
<path fill="#29a598" d="
  M 325.72 114.89
  Q 323.51 115.32 321.26 114.96
  A 1.02 1.00 23.0 0 0 320.31 115.33
  L 319.24 116.68
  Q 318.71 117.34 317.87 117.15
  L 317.57 117.08
  A 0.29 0.29 0.0 0 1 317.39 116.66
  L 321.95 108.75
  A 1.80 1.80 0.0 0 1 325.07 108.76
  L 329.42 116.35
  A 0.54 0.54 0.0 0 1 329.11 117.14
  Q 328.85 117.22 328.57 117.15
  Q 327.65 116.92 327.13 116.13
  L 326.56 115.24
  Q 326.26 114.78 325.72 114.89
  Z
  M 323.81 110.05
  A 0.37 0.37 0.0 0 0 323.16 110.04
  L 321.49 112.92
  A 0.37 0.37 0.0 0 0 321.82 113.48
  L 325.00 113.41
  A 0.37 0.37 0.0 0 0 325.32 112.86
  L 323.81 110.05
  Z"
/>
<rect fill="#ffffff" x="-3.22" y="-1.23" transform="translate(249.30,110.53) rotate(0.3)" width="6.44" height="2.46" rx="1.09"/>
<rect fill="#ffffff" x="-3.16" y="-1.36" transform="translate(292.66,110.67) rotate(2.2)" width="6.32" height="2.72" rx="0.96"/>
<path fill="#ffffff" d="
  M 278.47 109.97
  L 280.07 112.91
  Q 280.49 113.67 279.64 113.48
  Q 278.25 113.18 276.82 113.43
  Q 275.87 113.60 276.30 112.73
  L 277.65 109.99
  Q 278.04 109.19 278.47 109.97
  Z"
/>
<path fill="#ffffff" d="
  M 323.81 110.05
  L 325.32 112.86
  A 0.37 0.37 0.0 0 1 325.00 113.41
  L 321.82 113.48
  A 0.37 0.37 0.0 0 1 321.49 112.92
  L 323.16 110.04
  A 0.37 0.37 0.0 0 1 323.81 110.05
  Z"
/>
</svg>
