<?xml version="1.0" encoding="UTF-8" standalone="no"?>
<!DOCTYPE svg PUBLIC "-//W3C//DTD SVG 1.1//EN" "http://www.w3.org/Graphics/SVG/1.1/DTD/svg11.dtd">
<svg xmlns="http://www.w3.org/2000/svg" version="1.1" viewBox="0.00 0.00 400.00 195.00">
<g stroke-width="2.00" fill="none" stroke-linecap="butt">
<path stroke="#83b8db" vector-effect="non-scaling-stroke" d="
  M 102.22 94.53
  C 110.64 93.05 121.38 87.91 126.15 80.19
  C 128.29 76.72 126.30 72.99 123.62 70.46
  C 112.58 60.04 95.35 57.01 80.68 59.72
  Q 63.74 62.86 49.35 74.32
  Q 49.23 74.42 49.31 74.54
  L 49.49 74.81
  Q 49.52 74.87 49.58 74.83
  C 68.66 61.49 95.83 58.65 113.29 76.43
  C 120.03 83.29 114.39 90.52 107.16 92.67
  Q 99.07 95.07 89.56 92.63
  C 84.62 91.37 79.08 86.87 79.19 81.22
  C 79.29 75.86 83.64 71.74 88.79 71.41
  Q 91.71 71.23 94.79 71.38
  Q 96.02 71.44 95.01 70.75
  Q 94.69 70.53 94.31 70.40
  Q 82.94 66.57 72.98 73.25
  C 67.26 77.08 64.18 83.59 69.17 89.44
  C 73.73 94.77 82.11 95.74 88.86 95.69
  Q 95.98 95.63 102.22 94.53"
/>
<path stroke="#83b8db" vector-effect="non-scaling-stroke" d="
  M 257.16 94.58
  Q 258.24 97.17 257.99 99.97
  A 0.61 0.60 6.5 0 0 258.51 100.62
  L 258.80 100.65
  A 0.32 0.31 4.0 0 0 259.16 100.34
  Q 259.19 97.60 260.02 95.06
  A 1.00 1.00 0.0 0 0 259.24 93.76
  Q 258.24 93.58 257.37 94.00
  Q 256.99 94.18 257.16 94.58"
/>
<path stroke="#83b8db" vector-effect="non-scaling-stroke" d="
  M 146.21 110.89
  Q 146.20 109.81 146.67 108.76
  C 147.32 107.29 147.35 105.07 147.23 103.52
  A 1.50 1.50 0.0 0 0 145.16 102.26
  C 141.01 103.99 139.07 107.78 136.80 111.44
  A 0.55 0.55 0.0 0 1 135.82 111.36
  Q 135.67 111.00 135.85 110.25
  Q 136.55 107.32 136.55 104.61
  Q 136.55 103.49 135.44 103.50
  L 134.96 103.51
  Q 133.73 103.52 133.76 104.75
  Q 133.92 109.90 132.99 115.60
  Q 132.76 117.03 133.88 117.88
  A 0.63 0.63 0.0 0 0 134.84 117.61
  Q 137.01 112.36 140.73 107.43
  Q 141.82 105.98 143.31 105.03
  A 0.94 0.94 0.0 0 1 144.75 105.79
  Q 144.78 107.04 144.50 108.25
  Q 143.62 112.04 142.75 116.12
  Q 142.56 117.00 143.08 117.66
  A 0.82 0.82 0.0 0 0 144.42 117.59
  Q 148.04 111.75 152.08 106.84
  Q 153.25 105.41 155.05 104.79
  A 0.77 0.77 0.0 0 1 156.05 105.68
  Q 155.10 110.07 154.56 114.01
  Q 154.25 116.35 155.97 117.36
  C 158.61 118.91 162.38 115.17 164.03 113.49
  Q 164.59 112.93 164.96 113.63
  C 165.25 114.18 165.44 114.82 165.84 115.32
  C 170.58 121.29 179.35 114.74 183.58 111.17
  Q 184.48 110.41 184.32 111.57
  Q 183.91 114.59 185.71 116.48
  C 188.36 119.27 193.06 116.28 194.95 114.03
  A 0.53 0.52 41.5 0 0 194.90 113.29
  L 194.68 113.10
  Q 194.53 112.97 194.40 113.12
  Q 192.49 115.27 189.94 115.57
  C 184.54 116.22 188.08 105.13 189.08 102.75
  Q 189.27 102.32 189.74 102.31
  L 199.76 102.23
  A 0.69 0.68 -84.9 0 0 200.43 101.66
  L 200.50 101.24
  Q 200.55 100.93 200.24 100.92
  L 190.54 100.84
  A 0.71 0.71 0.0 0 1 189.94 99.76
  L 191.67 96.89
  Q 192.04 96.28 191.33 96.32
  C 189.01 96.44 187.90 98.25 187.42 100.35
  Q 187.29 100.91 186.71 100.93
  L 183.21 101.05
  A 0.70 0.69 -74.4 0 0 182.64 101.38
  L 182.24 102.02
  A 0.33 0.33 0.0 0 0 182.58 102.51
  Q 184.26 102.20 185.94 102.50
  Q 186.45 102.59 186.38 103.11
  Q 185.93 106.28 184.36 108.26
  C 181.57 111.80 175.81 116.28 170.98 116.02
  A 2.87 2.86 -28.9 0 1 169.69 115.65
  Q 168.31 114.86 167.88 113.63
  Q 167.07 111.34 169.51 111.28
  C 172.71 111.21 176.69 109.56 178.35 106.56
  C 179.71 104.11 176.77 102.12 174.66 102.18
  Q 167.74 102.37 165.31 108.98
  C 164.27 111.79 161.96 114.06 159.41 115.47
  A 1.67 1.67 0.0 0 1 156.96 113.70
  L 158.72 104.47
  A 1.83 1.81 -70.5 0 0 157.81 102.54
  C 154.34 100.65 148.94 108.58 147.37 111.21
  Q 146.23 113.11 146.21 110.89"
/>
<path stroke="#83b8db" vector-effect="non-scaling-stroke" d="
  M 114.11 107.88
  Q 113.52 110.78 112.83 113.40
  C 111.04 120.22 122.60 117.45 125.60 116.30
  A 0.56 0.56 0.0 0 0 125.95 115.74
  L 125.93 115.41
  A 0.24 0.24 0.0 0 0 125.63 115.20
  Q 121.52 116.42 117.19 115.86
  A 2.10 2.09 -80.5 0 1 115.41 113.36
  L 116.57 107.70
  Q 116.72 106.98 117.46 107.01
  C 119.33 107.09 122.84 107.32 124.47 106.17
  Q 125.99 105.11 124.17 105.44
  Q 120.89 106.05 118.06 105.76
  Q 117.12 105.67 117.32 104.75
  L 118.50 99.34
  Q 118.70 98.39 119.67 98.35
  L 128.17 98.03
  A 0.83 0.82 -87.0 0 0 128.95 97.32
  L 128.99 96.97
  Q 129.04 96.63 128.70 96.64
  Q 122.35 96.91 115.53 96.98
  Q 113.16 97.00 111.27 98.14
  A 0.57 0.57 0.0 0 0 111.00 98.73
  L 111.07 99.10
  A 0.23 0.23 0.0 0 0 111.39 99.27
  Q 113.29 98.42 115.38 98.41
  Q 116.23 98.41 116.04 99.23
  L 114.71 105.22
  Q 114.56 105.90 113.87 105.78
  Q 112.96 105.62 112.16 106.00
  Q 111.24 106.43 112.13 106.92
  Q 112.74 107.26 113.47 107.17
  Q 114.28 107.08 114.11 107.88"
/>
<path stroke="#83b8db" vector-effect="non-scaling-stroke" d="
  M 237.72 108.03
  L 233.94 125.33
  Q 233.70 126.44 234.83 126.52
  L 235.20 126.54
  Q 236.28 126.62 236.38 125.55
  Q 236.76 121.28 237.92 117.04
  Q 238.08 116.45 238.68 116.60
  C 239.91 116.91 241.06 117.32 242.36 117.25
  Q 249.81 116.85 251.67 109.78
  C 252.58 106.35 250.82 102.97 247.19 102.31
  C 245.25 101.96 243.44 103.04 241.73 103.79
  Q 240.75 104.22 241.00 103.18
  L 241.78 99.93
  A 0.36 0.35 -0.7 0 0 241.34 99.51
  Q 238.00 100.41 234.43 99.73
  A 0.30 0.30 0.0 0 0 234.07 100.03
  L 234.07 100.42
  A 0.70 0.69 -80.9 0 0 234.53 101.06
  Q 236.18 101.63 237.78 101.47
  Q 239.27 101.31 238.92 102.77
  L 238.43 104.83
  A 1.99 1.99 0.0 0 1 236.83 106.32
  C 233.98 106.82 230.87 106.06 228.72 103.97
  Q 226.99 102.29 224.49 101.57
  Q 224.21 101.49 224.06 101.74
  Q 223.19 103.18 221.50 103.53
  C 216.93 104.48 213.28 108.34 214.45 113.11
  Q 215.19 116.13 218.67 117.38
  Q 221.48 118.39 224.23 117.02
  Q 230.33 113.96 230.63 107.36
  Q 230.65 106.84 231.14 107.01
  Q 234.04 108.00 237.22 107.50
  A 0.44 0.44 0.0 0 1 237.72 108.03"
/>
<path stroke="#83b8db" vector-effect="non-scaling-stroke" d="
  M 201.39 111.38
  Q 201.14 111.12 201.23 110.78
  Q 202.15 107.37 202.56 104.36
  Q 202.63 103.81 202.08 103.81
  L 200.78 103.82
  Q 200.18 103.82 200.12 104.42
  Q 199.63 109.43 198.25 115.16
  Q 198.00 116.21 198.36 117.22
  Q 198.60 117.90 199.30 117.74
  A 1.65 1.64 -84.7 0 0 200.42 116.80
  Q 203.05 110.70 207.77 106.06
  Q 209.74 104.11 211.98 105.06
  Q 212.56 105.31 213.11 105.03
  Q 213.97 104.59 214.13 103.81
  A 1.24 1.24 0.0 0 0 212.81 102.31
  C 207.96 102.71 204.83 107.57 202.25 111.32
  Q 201.86 111.89 201.39 111.38"
/>
<path stroke="#83b8db" vector-effect="non-scaling-stroke" d="
  M 287.01 109.78
  L 285.08 119.22
  A 0.36 0.36 0.0 0 0 285.61 119.60
  Q 287.15 118.71 289.29 118.91
  Q 290.09 118.98 290.35 118.29
  A 0.39 0.38 12.1 0 0 290.01 117.77
  L 288.53 117.71
  A 0.77 0.77 0.0 0 1 287.80 116.77
  L 290.58 104.03
  Q 290.71 103.41 290.10 103.28
  C 289.20 103.10 288.55 103.23 287.99 104.01
  Q 284.70 108.71 282.21 113.12
  Q 281.17 114.97 280.84 112.87
  Q 280.23 109.05 278.92 104.69
  Q 278.54 103.43 277.22 103.34
  Q 271.28 102.92 269.06 108.41
  A 0.66 0.66 0.0 0 0 269.44 109.28
  Q 269.72 109.39 270.00 109.30
  Q 270.91 109.02 271.14 108.09
  Q 271.95 104.84 275.22 103.96
  A 0.67 0.67 0.0 0 1 276.04 104.76
  Q 274.83 109.91 273.90 114.98
  Q 273.56 116.85 272.22 118.21
  C 271.15 119.31 269.26 119.09 268.31 117.97
  C 267.82 117.40 266.91 117.31 266.35 117.84
  A 0.90 0.89 30.0 0 0 266.76 119.36
  C 268.79 119.85 271.60 120.15 273.19 118.42
  C 275.76 115.63 276.01 112.99 276.82 109.57
  Q 277.22 107.88 277.80 109.52
  Q 279.13 113.31 279.10 117.66
  Q 279.10 118.00 279.33 118.24
  Q 279.63 118.56 280.30 118.18
  A 0.59 0.59 0.0 0 0 280.52 117.96
  L 285.87 109.33
  Q 287.72 106.35 287.01 109.78"
/>
<path stroke="#83b8db" vector-effect="non-scaling-stroke" d="
  M 344.94 109.07
  L 345.08 110.48
  Q 345.10 110.77 345.34 110.93
  Q 345.50 111.04 345.69 111.00
  Q 346.15 110.88 346.23 110.42
  Q 346.42 109.39 346.39 108.39
  Q 346.36 107.71 345.70 107.58
  C 341.08 106.67 337.61 110.05 336.43 114.21
  C 335.56 117.26 337.79 120.58 341.17 119.58
  Q 343.51 118.88 345.69 117.45
  Q 345.91 117.30 345.78 117.08
  L 345.65 116.85
  A 0.18 0.18 0.0 0 0 345.39 116.80
  Q 342.39 118.97 339.81 118.08
  A 1.13 1.13 0.0 0 1 339.06 117.16
  Q 338.40 111.91 341.20 109.15
  Q 342.45 107.91 344.26 108.31
  Q 344.88 108.45 344.94 109.07"
/>
<path stroke="#83b8db" vector-effect="non-scaling-stroke" d="
  M 301.52 116.28
  L 301.39 117.77
  A 1.80 1.80 0.0 0 0 303.57 119.68
  Q 306.30 119.09 307.18 117.51
  A 0.37 0.37 0.0 0 0 306.56 117.10
  Q 305.38 118.59 304.07 118.37
  Q 303.34 118.24 303.50 117.52
  L 305.59 108.13
  A 0.35 0.35 0.0 0 0 305.31 107.72
  Q 297.04 106.18 293.82 114.34
  C 292.97 116.50 293.32 120.81 296.87 119.52
  C 298.59 118.89 299.63 117.25 300.87 115.98
  Q 301.61 115.22 301.52 116.28"
/>
<path stroke="#83b8db" vector-effect="non-scaling-stroke" d="
  M 314.23 110.73
  L 314.26 109.24
  A 1.70 1.70 0.0 0 0 311.98 107.59
  Q 310.16 108.26 308.37 109.59
  A 0.38 0.37 -25.6 0 0 308.23 109.98
  L 308.32 110.30
  A 0.41 0.40 -28.6 0 0 308.98 110.49
  L 310.02 109.55
  Q 312.38 107.42 311.96 110.57
  Q 311.44 114.46 310.24 118.63
  A 0.90 0.90 0.0 0 0 311.02 119.77
  L 311.34 119.80
  Q 312.44 119.90 312.61 118.81
  C 313.20 115.02 316.00 109.58 320.18 109.18
  Q 321.24 109.08 321.47 108.03
  A 0.47 0.47 0.0 0 0 321.05 107.46
  C 317.36 107.20 317.22 109.27 314.85 111.05
  Q 314.21 111.53 314.23 110.73"
/>
<path stroke="#83b8db" vector-effect="non-scaling-stroke" d="
  M 324.2106 119.1330
  A 6.81 4.80 126.8 0 0 332.1335 116.5553
  A 6.81 4.80 126.8 0 0 332.3694 108.2270
  A 6.81 4.80 126.8 0 0 324.4465 110.8047
  A 6.81 4.80 126.8 0 0 324.2106 119.1330"
/>
<path stroke="#83b8db" vector-effect="non-scaling-stroke" d="
  M 168.52 110.69
  C 171.65 110.21 174.90 108.97 176.25 106.07
  C 177.09 104.27 175.40 102.81 173.68 103.11
  Q 170.28 103.71 168.64 107.22
  C 168.20 108.18 167.47 109.16 167.85 110.28
  Q 168.01 110.77 168.52 110.69"
/>
<path stroke="#83b8db" vector-effect="non-scaling-stroke" d="
  M 249.51 107.25
  C 248.71 102.32 243.22 103.82 240.62 106.04
  A 1.53 1.53 0.0 0 0 240.10 106.90
  L 238.53 114.27
  Q 238.40 114.85 238.90 115.16
  C 244.91 118.90 250.55 113.63 249.51 107.25"
/>
<path stroke="#83b8db" vector-effect="non-scaling-stroke" d="
  M 218.4395 115.8361
  A 6.67 5.26 126.0 0 0 226.6154 113.5318
  A 6.67 5.26 126.0 0 0 226.2805 105.0439
  A 6.67 5.26 126.0 0 0 218.1046 107.3482
  A 6.67 5.26 126.0 0 0 218.4395 115.8361"
/>
<path stroke="#83b8db" vector-effect="non-scaling-stroke" d="
  M 299.64 115.64
  Q 301.95 113.54 302.90 110.41
  Q 303.25 109.28 302.09 109.01
  C 297.39 107.91 295.61 113.81 295.77 117.41
  Q 295.80 118.01 296.40 118.01
  C 297.96 117.99 298.62 116.57 299.64 115.64"
/>
<path stroke="#83b8db" vector-effect="non-scaling-stroke" d="
  M 326.7675 119.0356
  A 5.55 2.89 105.6 0 0 331.0435 114.4672
  A 5.55 2.89 105.6 0 0 329.7525 108.3444
  A 5.55 2.89 105.6 0 0 325.4765 112.9128
  A 5.55 2.89 105.6 0 0 326.7675 119.0356"
/>
</g>
<path fill="#ffffff" d="
  M 0.00 0.00
  L 400.00 0.00
  L 400.00 195.00
  L 0.00 195.00
  L 0.00 0.00
  Z
  M 102.22 94.53
  C 110.64 93.05 121.38 87.91 126.15 80.19
  C 128.29 76.72 126.30 72.99 123.62 70.46
  C 112.58 60.04 95.35 57.01 80.68 59.72
  Q 63.74 62.86 49.35 74.32
  Q 49.23 74.42 49.31 74.54
  L 49.49 74.81
  Q 49.52 74.87 49.58 74.83
  C 68.66 61.49 95.83 58.65 113.29 76.43
  C 120.03 83.29 114.39 90.52 107.16 92.67
  Q 99.07 95.07 89.56 92.63
  C 84.62 91.37 79.08 86.87 79.19 81.22
  C 79.29 75.86 83.64 71.74 88.79 71.41
  Q 91.71 71.23 94.79 71.38
  Q 96.02 71.44 95.01 70.75
  Q 94.69 70.53 94.31 70.40
  Q 82.94 66.57 72.98 73.25
  C 67.26 77.08 64.18 83.59 69.17 89.44
  C 73.73 94.77 82.11 95.74 88.86 95.69
  Q 95.98 95.63 102.22 94.53
  Z
  M 257.16 94.58
  Q 258.24 97.17 257.99 99.97
  A 0.61 0.60 6.5 0 0 258.51 100.62
  L 258.80 100.65
  A 0.32 0.31 4.0 0 0 259.16 100.34
  Q 259.19 97.60 260.02 95.06
  A 1.00 1.00 0.0 0 0 259.24 93.76
  Q 258.24 93.58 257.37 94.00
  Q 256.99 94.18 257.16 94.58
  Z
  M 146.21 110.89
  Q 146.20 109.81 146.67 108.76
  C 147.32 107.29 147.35 105.07 147.23 103.52
  A 1.50 1.50 0.0 0 0 145.16 102.26
  C 141.01 103.99 139.07 107.78 136.80 111.44
  A 0.55 0.55 0.0 0 1 135.82 111.36
  Q 135.67 111.00 135.85 110.25
  Q 136.55 107.32 136.55 104.61
  Q 136.55 103.49 135.44 103.50
  L 134.96 103.51
  Q 133.73 103.52 133.76 104.75
  Q 133.92 109.90 132.99 115.60
  Q 132.76 117.03 133.88 117.88
  A 0.63 0.63 0.0 0 0 134.84 117.61
  Q 137.01 112.36 140.73 107.43
  Q 141.82 105.98 143.31 105.03
  A 0.94 0.94 0.0 0 1 144.75 105.79
  Q 144.78 107.04 144.50 108.25
  Q 143.62 112.04 142.75 116.12
  Q 142.56 117.00 143.08 117.66
  A 0.82 0.82 0.0 0 0 144.42 117.59
  Q 148.04 111.75 152.08 106.84
  Q 153.25 105.41 155.05 104.79
  A 0.77 0.77 0.0 0 1 156.05 105.68
  Q 155.10 110.07 154.56 114.01
  Q 154.25 116.35 155.97 117.36
  C 158.61 118.91 162.38 115.17 164.03 113.49
  Q 164.59 112.93 164.96 113.63
  C 165.25 114.18 165.44 114.82 165.84 115.32
  C 170.58 121.29 179.35 114.74 183.58 111.17
  Q 184.48 110.41 184.32 111.57
  Q 183.91 114.59 185.71 116.48
  C 188.36 119.27 193.06 116.28 194.95 114.03
  A 0.53 0.52 41.5 0 0 194.90 113.29
  L 194.68 113.10
  Q 194.53 112.97 194.40 113.12
  Q 192.49 115.27 189.94 115.57
  C 184.54 116.22 188.08 105.13 189.08 102.75
  Q 189.27 102.32 189.74 102.31
  L 199.76 102.23
  A 0.69 0.68 -84.9 0 0 200.43 101.66
  L 200.50 101.24
  Q 200.55 100.93 200.24 100.92
  L 190.54 100.84
  A 0.71 0.71 0.0 0 1 189.94 99.76
  L 191.67 96.89
  Q 192.04 96.28 191.33 96.32
  C 189.01 96.44 187.90 98.25 187.42 100.35
  Q 187.29 100.91 186.71 100.93
  L 183.21 101.05
  A 0.70 0.69 -74.4 0 0 182.64 101.38
  L 182.24 102.02
  A 0.33 0.33 0.0 0 0 182.58 102.51
  Q 184.26 102.20 185.94 102.50
  Q 186.45 102.59 186.38 103.11
  Q 185.93 106.28 184.36 108.26
  C 181.57 111.80 175.81 116.28 170.98 116.02
  A 2.87 2.86 -28.9 0 1 169.69 115.65
  Q 168.31 114.86 167.88 113.63
  Q 167.07 111.34 169.51 111.28
  C 172.71 111.21 176.69 109.56 178.35 106.56
  C 179.71 104.11 176.77 102.12 174.66 102.18
  Q 167.74 102.37 165.31 108.98
  C 164.27 111.79 161.96 114.06 159.41 115.47
  A 1.67 1.67 0.0 0 1 156.96 113.70
  L 158.72 104.47
  A 1.83 1.81 -70.5 0 0 157.81 102.54
  C 154.34 100.65 148.94 108.58 147.37 111.21
  Q 146.23 113.11 146.21 110.89
  Z
  M 114.11 107.88
  Q 113.52 110.78 112.83 113.40
  C 111.04 120.22 122.60 117.45 125.60 116.30
  A 0.56 0.56 0.0 0 0 125.95 115.74
  L 125.93 115.41
  A 0.24 0.24 0.0 0 0 125.63 115.20
  Q 121.52 116.42 117.19 115.86
  A 2.10 2.09 -80.5 0 1 115.41 113.36
  L 116.57 107.70
  Q 116.72 106.98 117.46 107.01
  C 119.33 107.09 122.84 107.32 124.47 106.17
  Q 125.99 105.11 124.17 105.44
  Q 120.89 106.05 118.06 105.76
  Q 117.12 105.67 117.32 104.75
  L 118.50 99.34
  Q 118.70 98.39 119.67 98.35
  L 128.17 98.03
  A 0.83 0.82 -87.0 0 0 128.95 97.32
  L 128.99 96.97
  Q 129.04 96.63 128.70 96.64
  Q 122.35 96.91 115.53 96.98
  Q 113.16 97.00 111.27 98.14
  A 0.57 0.57 0.0 0 0 111.00 98.73
  L 111.07 99.10
  A 0.23 0.23 0.0 0 0 111.39 99.27
  Q 113.29 98.42 115.38 98.41
  Q 116.23 98.41 116.04 99.23
  L 114.71 105.22
  Q 114.56 105.90 113.87 105.78
  Q 112.96 105.62 112.16 106.00
  Q 111.24 106.43 112.13 106.92
  Q 112.74 107.26 113.47 107.17
  Q 114.28 107.08 114.11 107.88
  Z
  M 237.72 108.03
  L 233.94 125.33
  Q 233.70 126.44 234.83 126.52
  L 235.20 126.54
  Q 236.28 126.62 236.38 125.55
  Q 236.76 121.28 237.92 117.04
  Q 238.08 116.45 238.68 116.60
  C 239.91 116.91 241.06 117.32 242.36 117.25
  Q 249.81 116.85 251.67 109.78
  C 252.58 106.35 250.82 102.97 247.19 102.31
  C 245.25 101.96 243.44 103.04 241.73 103.79
  Q 240.75 104.22 241.00 103.18
  L 241.78 99.93
  A 0.36 0.35 -0.7 0 0 241.34 99.51
  Q 238.00 100.41 234.43 99.73
  A 0.30 0.30 0.0 0 0 234.07 100.03
  L 234.07 100.42
  A 0.70 0.69 -80.9 0 0 234.53 101.06
  Q 236.18 101.63 237.78 101.47
  Q 239.27 101.31 238.92 102.77
  L 238.43 104.83
  A 1.99 1.99 0.0 0 1 236.83 106.32
  C 233.98 106.82 230.87 106.06 228.72 103.97
  Q 226.99 102.29 224.49 101.57
  Q 224.21 101.49 224.06 101.74
  Q 223.19 103.18 221.50 103.53
  C 216.93 104.48 213.28 108.34 214.45 113.11
  Q 215.19 116.13 218.67 117.38
  Q 221.48 118.39 224.23 117.02
  Q 230.33 113.96 230.63 107.36
  Q 230.65 106.84 231.14 107.01
  Q 234.04 108.00 237.22 107.50
  A 0.44 0.44 0.0 0 1 237.72 108.03
  Z
  M 201.39 111.38
  Q 201.14 111.12 201.23 110.78
  Q 202.15 107.37 202.56 104.36
  Q 202.63 103.81 202.08 103.81
  L 200.78 103.82
  Q 200.18 103.82 200.12 104.42
  Q 199.63 109.43 198.25 115.16
  Q 198.00 116.21 198.36 117.22
  Q 198.60 117.90 199.30 117.74
  A 1.65 1.64 -84.7 0 0 200.42 116.80
  Q 203.05 110.70 207.77 106.06
  Q 209.74 104.11 211.98 105.06
  Q 212.56 105.31 213.11 105.03
  Q 213.97 104.59 214.13 103.81
  A 1.24 1.24 0.0 0 0 212.81 102.31
  C 207.96 102.71 204.83 107.57 202.25 111.32
  Q 201.86 111.89 201.39 111.38
  Z
  M 287.01 109.78
  L 285.08 119.22
  A 0.36 0.36 0.0 0 0 285.61 119.60
  Q 287.15 118.71 289.29 118.91
  Q 290.09 118.98 290.35 118.29
  A 0.39 0.38 12.1 0 0 290.01 117.77
  L 288.53 117.71
  A 0.77 0.77 0.0 0 1 287.80 116.77
  L 290.58 104.03
  Q 290.71 103.41 290.10 103.28
  C 289.20 103.10 288.55 103.23 287.99 104.01
  Q 284.70 108.71 282.21 113.12
  Q 281.17 114.97 280.84 112.87
  Q 280.23 109.05 278.92 104.69
  Q 278.54 103.43 277.22 103.34
  Q 271.28 102.92 269.06 108.41
  A 0.66 0.66 0.0 0 0 269.44 109.28
  Q 269.72 109.39 270.00 109.30
  Q 270.91 109.02 271.14 108.09
  Q 271.95 104.84 275.22 103.96
  A 0.67 0.67 0.0 0 1 276.04 104.76
  Q 274.83 109.91 273.90 114.98
  Q 273.56 116.85 272.22 118.21
  C 271.15 119.31 269.26 119.09 268.31 117.97
  C 267.82 117.40 266.91 117.31 266.35 117.84
  A 0.90 0.89 30.0 0 0 266.76 119.36
  C 268.79 119.85 271.60 120.15 273.19 118.42
  C 275.76 115.63 276.01 112.99 276.82 109.57
  Q 277.22 107.88 277.80 109.52
  Q 279.13 113.31 279.10 117.66
  Q 279.10 118.00 279.33 118.24
  Q 279.63 118.56 280.30 118.18
  A 0.59 0.59 0.0 0 0 280.52 117.96
  L 285.87 109.33
  Q 287.72 106.35 287.01 109.78
  Z
  M 344.94 109.07
  L 345.08 110.48
  Q 345.10 110.77 345.34 110.93
  Q 345.50 111.04 345.69 111.00
  Q 346.15 110.88 346.23 110.42
  Q 346.42 109.39 346.39 108.39
  Q 346.36 107.71 345.70 107.58
  C 341.08 106.67 337.61 110.05 336.43 114.21
  C 335.56 117.26 337.79 120.58 341.17 119.58
  Q 343.51 118.88 345.69 117.45
  Q 345.91 117.30 345.78 117.08
  L 345.65 116.85
  A 0.18 0.18 0.0 0 0 345.39 116.80
  Q 342.39 118.97 339.81 118.08
  A 1.13 1.13 0.0 0 1 339.06 117.16
  Q 338.40 111.91 341.20 109.15
  Q 342.45 107.91 344.26 108.31
  Q 344.88 108.45 344.94 109.07
  Z
  M 301.52 116.28
  L 301.39 117.77
  A 1.80 1.80 0.0 0 0 303.57 119.68
  Q 306.30 119.09 307.18 117.51
  A 0.37 0.37 0.0 0 0 306.56 117.10
  Q 305.38 118.59 304.07 118.37
  Q 303.34 118.24 303.50 117.52
  L 305.59 108.13
  A 0.35 0.35 0.0 0 0 305.31 107.72
  Q 297.04 106.18 293.82 114.34
  C 292.97 116.50 293.32 120.81 296.87 119.52
  C 298.59 118.89 299.63 117.25 300.87 115.98
  Q 301.61 115.22 301.52 116.28
  Z
  M 314.23 110.73
  L 314.26 109.24
  A 1.70 1.70 0.0 0 0 311.98 107.59
  Q 310.16 108.26 308.37 109.59
  A 0.38 0.37 -25.6 0 0 308.23 109.98
  L 308.32 110.30
  A 0.41 0.40 -28.6 0 0 308.98 110.49
  L 310.02 109.55
  Q 312.38 107.42 311.96 110.57
  Q 311.44 114.46 310.24 118.63
  A 0.90 0.90 0.0 0 0 311.02 119.77
  L 311.34 119.80
  Q 312.44 119.90 312.61 118.81
  C 313.20 115.02 316.00 109.58 320.18 109.18
  Q 321.24 109.08 321.47 108.03
  A 0.47 0.47 0.0 0 0 321.05 107.46
  C 317.36 107.20 317.22 109.27 314.85 111.05
  Q 314.21 111.53 314.23 110.73
  Z
  M 324.2106 119.1330
  A 6.81 4.80 126.8 0 0 332.1335 116.5553
  A 6.81 4.80 126.8 0 0 332.3694 108.2270
  A 6.81 4.80 126.8 0 0 324.4465 110.8047
  A 6.81 4.80 126.8 0 0 324.2106 119.1330
  Z"
/>
<path fill="#0671b6" d="
  M 102.22 94.53
  Q 95.98 95.63 88.86 95.69
  C 82.11 95.74 73.73 94.77 69.17 89.44
  C 64.18 83.59 67.26 77.08 72.98 73.25
  Q 82.94 66.57 94.31 70.40
  Q 94.69 70.53 95.01 70.75
  Q 96.02 71.44 94.79 71.38
  Q 91.71 71.23 88.79 71.41
  C 83.64 71.74 79.29 75.86 79.19 81.22
  C 79.08 86.87 84.62 91.37 89.56 92.63
  Q 99.07 95.07 107.16 92.67
  C 114.39 90.52 120.03 83.29 113.29 76.43
  C 95.83 58.65 68.66 61.49 49.58 74.83
  Q 49.52 74.87 49.49 74.81
  L 49.31 74.54
  Q 49.23 74.42 49.35 74.32
  Q 63.74 62.86 80.68 59.72
  C 95.35 57.01 112.58 60.04 123.62 70.46
  C 126.30 72.99 128.29 76.72 126.15 80.19
  C 121.38 87.91 110.64 93.05 102.22 94.53
  Z"
/>
<path fill="#0671b6" d="
  M 257.16 94.58
  Q 256.99 94.18 257.37 94.00
  Q 258.24 93.58 259.24 93.76
  A 1.00 1.00 0.0 0 1 260.02 95.06
  Q 259.19 97.60 259.16 100.34
  A 0.32 0.31 4.0 0 1 258.80 100.65
  L 258.51 100.62
  A 0.61 0.60 6.5 0 1 257.99 99.97
  Q 258.24 97.17 257.16 94.58
  Z"
/>
<path fill="#0671b6" d="
  M 146.21 110.89
  Q 146.23 113.11 147.37 111.21
  C 148.94 108.58 154.34 100.65 157.81 102.54
  A 1.83 1.81 -70.5 0 1 158.72 104.47
  L 156.96 113.70
  A 1.67 1.67 0.0 0 0 159.41 115.47
  C 161.96 114.06 164.27 111.79 165.31 108.98
  Q 167.74 102.37 174.66 102.18
  C 176.77 102.12 179.71 104.11 178.35 106.56
  C 176.69 109.56 172.71 111.21 169.51 111.28
  Q 167.07 111.34 167.88 113.63
  Q 168.31 114.86 169.69 115.65
  A 2.87 2.86 -28.9 0 0 170.98 116.02
  C 175.81 116.28 181.57 111.80 184.36 108.26
  Q 185.93 106.28 186.38 103.11
  Q 186.45 102.59 185.94 102.50
  Q 184.26 102.20 182.58 102.51
  A 0.33 0.33 0.0 0 1 182.24 102.02
  L 182.64 101.38
  A 0.70 0.69 -74.4 0 1 183.21 101.05
  L 186.71 100.93
  Q 187.29 100.91 187.42 100.35
  C 187.90 98.25 189.01 96.44 191.33 96.32
  Q 192.04 96.28 191.67 96.89
  L 189.94 99.76
  A 0.71 0.71 0.0 0 0 190.54 100.84
  L 200.24 100.92
  Q 200.55 100.93 200.50 101.24
  L 200.43 101.66
  A 0.69 0.68 -84.9 0 1 199.76 102.23
  L 189.74 102.31
  Q 189.27 102.32 189.08 102.75
  C 188.08 105.13 184.54 116.22 189.94 115.57
  Q 192.49 115.27 194.40 113.12
  Q 194.53 112.97 194.68 113.10
  L 194.90 113.29
  A 0.53 0.52 41.5 0 1 194.95 114.03
  C 193.06 116.28 188.36 119.27 185.71 116.48
  Q 183.91 114.59 184.32 111.57
  Q 184.48 110.41 183.58 111.17
  C 179.35 114.74 170.58 121.29 165.84 115.32
  C 165.44 114.82 165.25 114.18 164.96 113.63
  Q 164.59 112.93 164.03 113.49
  C 162.38 115.17 158.61 118.91 155.97 117.36
  Q 154.25 116.35 154.56 114.01
  Q 155.10 110.07 156.05 105.68
  A 0.77 0.77 0.0 0 0 155.05 104.79
  Q 153.25 105.41 152.08 106.84
  Q 148.04 111.75 144.42 117.59
  A 0.82 0.82 0.0 0 1 143.08 117.66
  Q 142.56 117.00 142.75 116.12
  Q 143.62 112.04 144.50 108.25
  Q 144.78 107.04 144.75 105.79
  A 0.94 0.94 0.0 0 0 143.31 105.03
  Q 141.82 105.98 140.73 107.43
  Q 137.01 112.36 134.84 117.61
  A 0.63 0.63 0.0 0 1 133.88 117.88
  Q 132.76 117.03 132.99 115.60
  Q 133.92 109.90 133.76 104.75
  Q 133.73 103.52 134.96 103.51
  L 135.44 103.50
  Q 136.55 103.49 136.55 104.61
  Q 136.55 107.32 135.85 110.25
  Q 135.67 111.00 135.82 111.36
  A 0.55 0.55 0.0 0 0 136.80 111.44
  C 139.07 107.78 141.01 103.99 145.16 102.26
  A 1.50 1.50 0.0 0 1 147.23 103.52
  C 147.35 105.07 147.32 107.29 146.67 108.76
  Q 146.20 109.81 146.21 110.89
  Z
  M 168.52 110.69
  C 171.65 110.21 174.90 108.97 176.25 106.07
  C 177.09 104.27 175.40 102.81 173.68 103.11
  Q 170.28 103.71 168.64 107.22
  C 168.20 108.18 167.47 109.16 167.85 110.28
  Q 168.01 110.77 168.52 110.69
  Z"
/>
<path fill="#0671b6" d="
  M 113.47 107.17
  Q 112.74 107.26 112.13 106.92
  Q 111.24 106.43 112.16 106.00
  Q 112.96 105.62 113.87 105.78
  Q 114.56 105.90 114.71 105.22
  L 116.04 99.23
  Q 116.23 98.41 115.38 98.41
  Q 113.29 98.42 111.39 99.27
  A 0.23 0.23 0.0 0 1 111.07 99.10
  L 111.00 98.73
  A 0.57 0.57 0.0 0 1 111.27 98.14
  Q 113.16 97.00 115.53 96.98
  Q 122.35 96.91 128.70 96.64
  Q 129.04 96.63 128.99 96.97
  L 128.95 97.32
  A 0.83 0.82 -87.0 0 1 128.17 98.03
  L 119.67 98.35
  Q 118.70 98.39 118.50 99.34
  L 117.32 104.75
  Q 117.12 105.67 118.06 105.76
  Q 120.89 106.05 124.17 105.44
  Q 125.99 105.11 124.47 106.17
  C 122.84 107.32 119.33 107.09 117.46 107.01
  Q 116.72 106.98 116.57 107.70
  L 115.41 113.36
  A 2.10 2.09 -80.5 0 0 117.19 115.86
  Q 121.52 116.42 125.63 115.20
  A 0.24 0.24 0.0 0 1 125.93 115.41
  L 125.95 115.74
  A 0.56 0.56 0.0 0 1 125.60 116.30
  C 122.60 117.45 111.04 120.22 112.83 113.40
  Q 113.52 110.78 114.11 107.88
  Q 114.28 107.08 113.47 107.17
  Z"
/>
<path fill="#0671b6" d="
  M 237.72 108.03
  A 0.44 0.44 0.0 0 0 237.22 107.50
  Q 234.04 108.00 231.14 107.01
  Q 230.65 106.84 230.63 107.36
  Q 230.33 113.96 224.23 117.02
  Q 221.48 118.39 218.67 117.38
  Q 215.19 116.13 214.45 113.11
  C 213.28 108.34 216.93 104.48 221.50 103.53
  Q 223.19 103.18 224.06 101.74
  Q 224.21 101.49 224.49 101.57
  Q 226.99 102.29 228.72 103.97
  C 230.87 106.06 233.98 106.82 236.83 106.32
  A 1.99 1.99 0.0 0 0 238.43 104.83
  L 238.92 102.77
  Q 239.27 101.31 237.78 101.47
  Q 236.18 101.63 234.53 101.06
  A 0.70 0.69 -80.9 0 1 234.07 100.42
  L 234.07 100.03
  A 0.30 0.30 0.0 0 1 234.43 99.73
  Q 238.00 100.41 241.34 99.51
  A 0.36 0.35 -0.7 0 1 241.78 99.93
  L 241.00 103.18
  Q 240.75 104.22 241.73 103.79
  C 243.44 103.04 245.25 101.96 247.19 102.31
  C 250.82 102.97 252.58 106.35 251.67 109.78
  Q 249.81 116.85 242.36 117.25
  C 241.06 117.32 239.91 116.91 238.68 116.60
  Q 238.08 116.45 237.92 117.04
  Q 236.76 121.28 236.38 125.55
  Q 236.28 126.62 235.20 126.54
  L 234.83 126.52
  Q 233.70 126.44 233.94 125.33
  L 237.72 108.03
  Z
  M 249.51 107.25
  C 248.71 102.32 243.22 103.82 240.62 106.04
  A 1.53 1.53 0.0 0 0 240.10 106.90
  L 238.53 114.27
  Q 238.40 114.85 238.90 115.16
  C 244.91 118.90 250.55 113.63 249.51 107.25
  Z
  M 218.4395 115.8361
  A 6.67 5.26 126.0 0 0 226.6154 113.5318
  A 6.67 5.26 126.0 0 0 226.2805 105.0439
  A 6.67 5.26 126.0 0 0 218.1046 107.3482
  A 6.67 5.26 126.0 0 0 218.4395 115.8361
  Z"
/>
<path fill="#0671b6" d="
  M 201.39 111.38
  Q 201.86 111.89 202.25 111.32
  C 204.83 107.57 207.96 102.71 212.81 102.31
  A 1.24 1.24 0.0 0 1 214.13 103.81
  Q 213.97 104.59 213.11 105.03
  Q 212.56 105.31 211.98 105.06
  Q 209.74 104.11 207.77 106.06
  Q 203.05 110.70 200.42 116.80
  A 1.65 1.64 -84.7 0 1 199.30 117.74
  Q 198.60 117.90 198.36 117.22
  Q 198.00 116.21 198.25 115.16
  Q 199.63 109.43 200.12 104.42
  Q 200.18 103.82 200.78 103.82
  L 202.08 103.81
  Q 202.63 103.81 202.56 104.36
  Q 202.15 107.37 201.23 110.78
  Q 201.14 111.12 201.39 111.38
  Z"
/>
<path fill="#ffffff" d="
  M 168.52 110.69
  Q 168.01 110.77 167.85 110.28
  C 167.47 109.16 168.20 108.18 168.64 107.22
  Q 170.28 103.71 173.68 103.11
  C 175.40 102.81 177.09 104.27 176.25 106.07
  C 174.90 108.97 171.65 110.21 168.52 110.69
  Z"
/>
<path fill="#0671b6" d="
  M 287.01 109.78
  Q 287.72 106.35 285.87 109.33
  L 280.52 117.96
  A 0.59 0.59 0.0 0 1 280.30 118.18
  Q 279.63 118.56 279.33 118.24
  Q 279.10 118.00 279.10 117.66
  Q 279.13 113.31 277.80 109.52
  Q 277.22 107.88 276.82 109.57
  C 276.01 112.99 275.76 115.63 273.19 118.42
  C 271.60 120.15 268.79 119.85 266.76 119.36
  A 0.90 0.89 30.0 0 1 266.35 117.84
  C 266.91 117.31 267.82 117.40 268.31 117.97
  C 269.26 119.09 271.15 119.31 272.22 118.21
  Q 273.56 116.85 273.90 114.98
  Q 274.83 109.91 276.04 104.76
  A 0.67 0.67 0.0 0 0 275.22 103.96
  Q 271.95 104.84 271.14 108.09
  Q 270.91 109.02 270.00 109.30
  Q 269.72 109.39 269.44 109.28
  A 0.66 0.66 0.0 0 1 269.06 108.41
  Q 271.28 102.92 277.22 103.34
  Q 278.54 103.43 278.92 104.69
  Q 280.23 109.05 280.84 112.87
  Q 281.17 114.97 282.21 113.12
  Q 284.70 108.71 287.99 104.01
  C 288.55 103.23 289.20 103.10 290.10 103.28
  Q 290.71 103.41 290.58 104.03
  L 287.80 116.77
  A 0.77 0.77 0.0 0 0 288.53 117.71
  L 290.01 117.77
  A 0.39 0.38 12.1 0 1 290.35 118.29
  Q 290.09 118.98 289.29 118.91
  Q 287.15 118.71 285.61 119.60
  A 0.36 0.36 0.0 0 1 285.08 119.22
  L 287.01 109.78
  Z"
/>
<path fill="#ffffff" d="
  M 240.62 106.04
  C 243.22 103.82 248.71 102.32 249.51 107.25
  C 250.55 113.63 244.91 118.90 238.90 115.16
  Q 238.40 114.85 238.53 114.27
  L 240.10 106.90
  A 1.53 1.53 0.0 0 1 240.62 106.04
  Z"
/>
<ellipse fill="#ffffff" cx="0.00" cy="0.00" transform="translate(222.36,110.44) rotate(126.0)" rx="6.67" ry="5.26"/>
<path fill="#0671b6" d="
  M 344.26 108.31
  Q 342.45 107.91 341.20 109.15
  Q 338.40 111.91 339.06 117.16
  A 1.13 1.13 0.0 0 0 339.81 118.08
  Q 342.39 118.97 345.39 116.80
  A 0.18 0.18 0.0 0 1 345.65 116.85
  L 345.78 117.08
  Q 345.91 117.30 345.69 117.45
  Q 343.51 118.88 341.17 119.58
  C 337.79 120.58 335.56 117.26 336.43 114.21
  C 337.61 110.05 341.08 106.67 345.70 107.58
  Q 346.36 107.71 346.39 108.39
  Q 346.42 109.39 346.23 110.42
  Q 346.15 110.88 345.69 111.00
  Q 345.50 111.04 345.34 110.93
  Q 345.10 110.77 345.08 110.48
  L 344.94 109.07
  Q 344.88 108.45 344.26 108.31
  Z"
/>
<path fill="#0671b6" d="
  M 300.87 115.98
  C 299.63 117.25 298.59 118.89 296.87 119.52
  C 293.32 120.81 292.97 116.50 293.82 114.34
  Q 297.04 106.18 305.31 107.72
  A 0.35 0.35 0.0 0 1 305.59 108.13
  L 303.50 117.52
  Q 303.34 118.24 304.07 118.37
  Q 305.38 118.59 306.56 117.10
  A 0.37 0.37 0.0 0 1 307.18 117.51
  Q 306.30 119.09 303.57 119.68
  A 1.80 1.80 0.0 0 1 301.39 117.77
  L 301.52 116.28
  Q 301.61 115.22 300.87 115.98
  Z
  M 299.64 115.64
  Q 301.95 113.54 302.90 110.41
  Q 303.25 109.28 302.09 109.01
  C 297.39 107.91 295.61 113.81 295.77 117.41
  Q 295.80 118.01 296.40 118.01
  C 297.96 117.99 298.62 116.57 299.64 115.64
  Z"
/>
<path fill="#0671b6" d="
  M 314.85 111.05
  C 317.22 109.27 317.36 107.20 321.05 107.46
  A 0.47 0.47 0.0 0 1 321.47 108.03
  Q 321.24 109.08 320.18 109.18
  C 316.00 109.58 313.20 115.02 312.61 118.81
  Q 312.44 119.90 311.34 119.80
  L 311.02 119.77
  A 0.90 0.90 0.0 0 1 310.24 118.63
  Q 311.44 114.46 311.96 110.57
  Q 312.38 107.42 310.02 109.55
  L 308.98 110.49
  A 0.41 0.40 -28.6 0 1 308.32 110.30
  L 308.23 109.98
  A 0.38 0.37 -25.6 0 1 308.37 109.59
  Q 310.16 108.26 311.98 107.59
  A 1.70 1.70 0.0 0 1 314.26 109.24
  L 314.23 110.73
  Q 314.21 111.53 314.85 111.05
  Z"
/>
<path fill="#0671b6" d="
  M 324.2106 119.1330
  A 6.81 4.80 126.8 0 1 324.4465 110.8047
  A 6.81 4.80 126.8 0 1 332.3694 108.2270
  A 6.81 4.80 126.8 0 1 332.1335 116.5553
  A 6.81 4.80 126.8 0 1 324.2106 119.1330
  Z
  M 326.7675 119.0356
  A 5.55 2.89 105.6 0 0 331.0435 114.4672
  A 5.55 2.89 105.6 0 0 329.7525 108.3444
  A 5.55 2.89 105.6 0 0 325.4765 112.9128
  A 5.55 2.89 105.6 0 0 326.7675 119.0356
  Z"
/>
<ellipse fill="#ffffff" cx="0.00" cy="0.00" transform="translate(328.26,113.69) rotate(105.6)" rx="5.55" ry="2.89"/>
<path fill="#ffffff" d="
  M 299.64 115.64
  C 298.62 116.57 297.96 117.99 296.40 118.01
  Q 295.80 118.01 295.77 117.41
  C 295.61 113.81 297.39 107.91 302.09 109.01
  Q 303.25 109.28 302.90 110.41
  Q 301.95 113.54 299.64 115.64
  Z"
/>
</svg>
