<?xml version="1.0" encoding="UTF-8" standalone="no"?>
<!DOCTYPE svg PUBLIC "-//W3C//DTD SVG 1.1//EN" "http://www.w3.org/Graphics/SVG/1.1/DTD/svg11.dtd">
<svg xmlns="http://www.w3.org/2000/svg" version="1.1" viewBox="0.00 0.00 400.00 195.00">
<g stroke-width="2.00" fill="none" stroke-linecap="butt">
<path stroke="#82aed2" vector-effect="non-scaling-stroke" d="
  M 115.14 65.57
  C 119.10 69.11 125.81 68.43 127.44 62.62
  C 128.62 58.40 128.46 52.03 123.18 51.22
  C 116.43 50.19 109.71 60.73 115.14 65.57"
/>
<path stroke="#828282" vector-effect="non-scaling-stroke" d="
  M 116.60 85.26
  Q 115.63 87.00 115.38 89.04
  C 113.51 104.71 119.28 119.12 134.76 124.75
  Q 140.11 126.70 146.38 125.45
  C 154.78 123.78 162.09 120.59 167.16 113.85
  Q 171.32 108.30 174.56 102.80
  C 176.47 99.56 176.92 96.35 176.77 92.66
  C 176.12 77.22 165.15 64.13 148.85 64.42
  C 143.65 64.51 136.43 65.16 132.32 67.94
  Q 122.58 74.54 116.60 85.26"
/>
<path stroke="#909091" vector-effect="non-scaling-stroke" d="
  M 250.0131 75.1291
  A 3.97 3.48 88.8 0 0 253.4092 71.0871
  A 3.97 3.48 88.8 0 0 249.8469 67.1909
  A 3.97 3.48 88.8 0 0 246.4508 71.2329
  A 3.97 3.48 88.8 0 0 250.0131 75.1291"
/>
<path stroke="#909091" vector-effect="non-scaling-stroke" d="
  M 198.26 74.44
  L 195.71 67.83
  A 0.68 0.67 -30.5 0 0 194.65 67.56
  Q 194.10 68.01 193.90 68.73
  Q 193.20 71.22 192.29 73.22
  Q 191.11 75.81 193.28 73.97
  Q 193.31 73.95 193.77 73.13
  Q 194.03 72.69 194.52 72.57
  Q 196.52 72.12 197.19 74.65
  A 0.45 0.45 0.0 0 0 197.82 74.94
  L 198.11 74.80
  A 0.29 0.29 0.0 0 0 198.26 74.44"
/>
<path stroke="#909091" vector-effect="non-scaling-stroke" d="
  M 206.11 70.21
  L 206.37 69.99
  Q 207.06 69.40 206.49 68.69
  Q 204.96 66.78 201.99 67.57
  A 0.68 0.67 -8.0 0 0 201.49 68.22
  L 201.45 73.79
  Q 201.45 74.58 202.21 74.76
  C 203.68 75.12 205.85 75.17 206.69 73.63
  Q 207.40 72.33 206.14 71.37
  A 0.75 0.75 0.0 0 1 206.11 70.21"
/>
<path stroke="#909091" vector-effect="non-scaling-stroke" d="
  M 213.6600 75.1300
  A 3.93 3.45 90.0 0 0 217.1100 71.2000
  A 3.93 3.45 90.0 0 0 213.6600 67.2700
  A 3.93 3.45 90.0 0 0 210.2100 71.2000
  A 3.93 3.45 90.0 0 0 213.6600 75.1300"
/>
<path stroke="#909091" vector-effect="non-scaling-stroke" d="
  M 223.26 71.72
  Q 224.78 72.96 225.45 74.68
  Q 225.61 75.08 226.03 75.01
  L 226.38 74.96
  Q 226.78 74.90 226.67 74.51
  Q 226.33 73.32 225.39 72.46
  A 0.99 0.98 -32.6 0 1 225.76 70.79
  Q 226.86 70.43 226.11 68.44
  A 1.62 1.62 0.0 0 0 224.58 67.39
  L 221.61 67.40
  A 1.01 1.01 0.0 0 0 220.61 68.40
  L 220.57 74.32
  Q 220.56 74.64 220.89 74.69
  L 221.14 74.72
  Q 221.83 74.82 221.80 74.11
  L 221.72 72.50
  A 0.95 0.94 -71.7 0 1 223.26 71.72"
/>
<path stroke="#909091" vector-effect="non-scaling-stroke" d="
  M 240.29 69.19
  L 240.15 74.04
  Q 240.13 74.61 240.69 74.67
  L 240.99 74.71
  Q 241.56 74.77 241.54 74.20
  L 241.37 69.43
  Q 241.35 68.93 241.83 68.78
  L 243.29 68.35
  Q 243.57 68.26 243.50 67.98
  L 243.43 67.69
  A 0.59 0.59 0.0 0 0 242.74 67.25
  Q 240.73 67.65 238.70 67.26
  Q 238.08 67.14 238.15 67.77
  L 238.20 68.18
  Q 238.25 68.61 238.68 68.61
  L 239.73 68.62
  Q 240.31 68.62 240.29 69.19"
/>
<path stroke="#909091" vector-effect="non-scaling-stroke" d="
  M 266.88 71.26
  L 267.30 70.88
  A 1.84 1.84 0.0 0 0 266.86 67.83
  Q 265.15 67.02 263.32 67.39
  A 1.41 1.41 0.0 0 0 262.19 68.78
  L 262.23 74.09
  A 0.58 0.58 0.0 0 0 262.83 74.67
  L 263.08 74.66
  A 0.41 0.41 0.0 0 0 263.48 74.20
  L 263.26 72.57
  Q 263.19 72.06 263.64 71.81
  Q 264.59 71.29 265.24 72.11
  Q 266.12 73.22 267.03 74.55
  Q 267.76 75.62 268.07 74.36
  Q 268.32 73.40 267.15 72.91
  A 0.99 0.99 0.0 0 1 266.88 71.26"
/>
<path stroke="#909091" vector-effect="non-scaling-stroke" d="
  M 273.41 68.56
  Q 274.50 68.42 275.65 68.65
  Q 276.39 68.80 276.64 68.15
  A 0.64 0.64 0.0 0 0 276.01 67.28
  L 272.72 67.47
  Q 271.73 67.53 271.73 68.53
  L 271.73 73.94
  Q 271.72 74.91 272.69 74.91
  L 276.58 74.92
  A 0.30 0.30 0.0 0 0 276.88 74.65
  L 276.90 74.38
  Q 276.95 73.89 276.45 73.89
  L 273.78 73.91
  A 1.09 1.08 87.4 0 1 272.69 72.91
  Q 272.65 72.53 272.79 72.20
  Q 273.11 71.41 273.95 71.53
  Q 275.07 71.69 276.13 71.49
  Q 277.16 71.28 276.26 70.73
  Q 275.34 70.16 274.05 70.52
  Q 273.28 70.74 272.84 70.07
  Q 272.70 69.87 272.66 69.69
  A 0.94 0.90 79.9 0 1 273.41 68.56"
/>
<path stroke="#909091" vector-effect="non-scaling-stroke" d="
  M 283.95 74.18
  A 0.99 0.99 0.0 0 1 282.82 74.05
  L 281.29 72.67
  Q 281.08 72.48 280.79 72.49
  Q 280.63 72.50 280.53 72.59
  Q 280.18 72.95 280.46 73.36
  C 282.06 75.72 285.34 75.86 286.17 72.79
  A 1.08 1.08 0.0 0 0 285.78 71.65
  Q 284.35 70.57 282.57 70.19
  Q 281.96 70.06 281.81 69.46
  Q 281.76 69.27 281.85 69.09
  Q 282.23 68.36 283.02 68.38
  Q 284.38 68.43 285.44 69.61
  Q 285.58 69.76 285.73 69.63
  L 285.95 69.42
  A 0.25 0.24 52.6 0 0 285.99 69.10
  Q 284.01 66.08 281.39 68.09
  A 1.75 1.75 0.0 0 0 281.89 71.13
  L 284.47 72.01
  Q 285.58 72.38 284.90 73.33
  Q 284.52 73.86 283.95 74.18"
/>
<path stroke="#909091" vector-effect="non-scaling-stroke" d="
  M 185.67 73.17
  L 185.74 68.20
  A 0.56 0.55 4.7 0 0 185.26 67.64
  L 184.98 67.60
  A 0.54 0.54 0.0 0 0 184.37 68.15
  L 184.50 73.94
  A 0.95 0.94 -0.3 0 0 185.44 74.86
  L 188.25 74.90
  Q 188.86 74.91 188.69 74.33
  L 188.60 74.04
  A 0.24 0.23 77.3 0 0 188.34 73.87
  L 186.67 74.07
  A 0.90 0.89 -2.8 0 1 185.67 73.17"
/>
<path stroke="#909091" vector-effect="non-scaling-stroke" d="
  M 230.60 74.67
  C 231.11 71.99 234.09 71.73 234.68 74.44
  Q 234.82 75.05 235.42 74.87
  L 235.71 74.78
  A 0.43 0.43 0.0 0 0 235.98 74.20
  L 233.57 68.48
  Q 232.62 66.20 231.75 68.52
  L 229.51 74.54
  Q 229.39 74.88 229.75 74.87
  L 230.37 74.86
  Q 230.56 74.86 230.60 74.67"
/>
<path stroke="#909091" vector-effect="non-scaling-stroke" d="
  M 258.2420 68.0340
  A 0.51 0.51 0.0 0 0 257.7356 67.5204
  L 257.6356 67.5197
  A 0.51 0.51 0.0 0 0 257.1220 68.0262
  L 257.0780 74.3260
  A 0.51 0.51 0.0 0 0 257.5844 74.8396
  L 257.6844 74.8403
  A 0.51 0.51 0.0 0 0 258.1980 74.3338
  L 258.2420 68.0340"
/>
<path stroke="#909091" vector-effect="non-scaling-stroke" d="
  M 253.11 86.94
  A 0.33 0.33 0.0 0 0 253.05 86.43
  L 248.66 83.58
  A 0.33 0.33 0.0 0 0 248.21 83.67
  L 242.47 92.03
  A 0.33 0.33 0.0 0 0 242.56 92.50
  L 245.51 94.44
  A 0.33 0.33 0.0 0 0 245.93 94.39
  L 253.11 86.94"
/>
<path stroke="#909091" vector-effect="non-scaling-stroke" d="
  M 216.94 99.74
  L 217.02 85.01
  Q 217.02 84.26 216.26 84.26
  L 210.53 84.26
  A 0.71 0.71 0.0 0 0 209.82 84.97
  L 209.82 123.80
  A 0.73 0.72 89.6 0 0 210.55 124.53
  L 216.55 124.48
  Q 217.14 124.48 217.12 123.88
  Q 216.89 117.44 216.98 110.01
  Q 217.02 106.25 218.66 104.53
  C 220.49 102.62 224.05 103.45 224.62 106.25
  Q 224.98 108.03 224.99 109.84
  Q 225.01 117.11 224.97 123.78
  Q 224.97 124.55 225.74 124.54
  L 231.31 124.48
  Q 232.11 124.48 232.11 123.67
  Q 232.06 114.88 231.93 106.71
  C 231.80 98.18 223.77 94.46 217.46 99.98
  Q 216.93 100.44 216.94 99.74"
/>
<path stroke="#909091" vector-effect="non-scaling-stroke" d="
  M 191.28 91.07
  A 0.52 0.52 0.0 0 1 191.81 91.59
  L 191.73 124.00
  A 0.52 0.52 0.0 0 0 192.25 124.52
  L 198.76 124.50
  A 0.52 0.52 0.0 0 0 199.28 123.98
  L 199.25 91.71
  A 0.52 0.52 0.0 0 1 199.78 91.19
  L 206.33 91.25
  A 0.52 0.52 0.0 0 0 206.85 90.75
  L 206.97 84.92
  A 0.52 0.52 0.0 0 0 206.45 84.39
  L 184.83 84.51
  A 0.52 0.52 0.0 0 0 184.31 85.04
  L 184.42 90.63
  A 0.52 0.52 0.0 0 0 184.95 91.14
  L 191.28 91.07"
/>
<path stroke="#909091" vector-effect="non-scaling-stroke" d="
  M 242.25 113.02
  A 0.53 0.53 0.0 0 1 242.78 112.48
  L 257.80 112.50
  Q 258.49 112.50 258.49 111.81
  C 258.54 106.35 256.36 99.88 250.71 98.15
  Q 246.98 97.00 243.47 97.97
  C 237.02 99.75 234.86 105.79 234.89 111.94
  C 234.94 120.35 240.97 126.93 249.77 125.03
  Q 255.36 123.82 258.06 118.04
  A 0.67 0.67 0.0 0 0 257.57 117.10
  L 252.71 116.27
  Q 252.13 116.18 251.74 116.61
  Q 251.39 116.99 251.12 117.45
  C 249.89 119.54 247.42 120.33 245.30 119.29
  C 243.03 118.18 242.32 115.35 242.25 113.02"
/>
<path stroke="#909091" vector-effect="non-scaling-stroke" d="
  M 278.81 122.53
  Q 278.42 122.99 280.02 122.39"
/>
<path stroke="#828282" vector-effect="non-scaling-stroke" d="
  M 280.02 122.39
  L 279.95 123.89
  Q 279.92 124.36 280.39 124.36
  L 286.20 124.41
  Q 286.56 124.42 286.56 124.05
  L 286.55 99.15
  Q 286.55 98.51 285.90 98.51
  L 280.46 98.52
  A 0.58 0.58 0.0 0 0 279.93 99.34
  Q 280.11 99.73 280.01 100.13
  Q 279.83 100.86 279.27 100.36
  C 273.48 95.21 265.99 97.79 263.05 104.41
  C 259.96 111.39 261.76 120.73 268.46 124.31
  Q 274.18 127.36 278.81 122.53"
/>
<path stroke="#131314" vector-effect="non-scaling-stroke" d="
  M 280.02 122.39
  Q 282.10 123.54 284.38 123.02
  A 0.89 0.88 -8.2 0 0 285.07 122.11
  Q 284.56 111.49 284.71 100.95
  Q 284.71 100.43 284.20 100.43
  L 280.83 100.41
  Q 280.39 100.41 280.30 100.85
  Q 280.13 101.68 279.47 102.26
  A 0.65 0.64 -37.7 0 1 278.50 102.14
  Q 275.43 97.59 270.28 99.82
  C 262.24 103.30 261.64 111.66 265.11 118.74
  Q 266.85 122.27 270.78 123.12
  Q 274.33 123.89 278.81 122.53"
/>
<path stroke="#131314" vector-effect="non-scaling-stroke" d="
  M 168.62 109.26
  Q 171.74 105.03 174.08 98.88
  C 174.95 96.61 175.06 93.89 174.81 91.51
  Q 174.41 87.82 173.28 83.60
  C 171.11 75.53 165.04 69.31 157.15 67.04
  C 150.75 65.19 142.47 66.53 136.01 68.04
  Q 134.06 68.49 132.51 69.79
  Q 129.38 72.40 126.78 75.71
  Q 125.03 77.94 122.69 79.65
  C 119.25 82.15 117.29 85.84 116.90 90.28
  Q 115.97 100.79 120.33 110.24
  Q 122.32 114.56 125.46 117.29
  Q 128.72 120.13 132.99 122.01
  Q 140.64 125.39 148.31 123.32
  Q 155.94 121.26 161.61 117.61
  Q 163.68 116.28 165.42 113.74
  Q 167.01 111.43 168.62 109.26"
/>
<path stroke="#131314" vector-effect="non-scaling-stroke" d="
  M 161.82 106.53
  Q 163.78 103.56 165.33 100.30
  Q 167.64 95.46 167.61 89.87
  Q 167.59 86.76 165.79 83.92
  Q 163.61 80.48 161.50 78.78
  Q 151.33 70.59 138.27 75.27
  Q 134.93 76.47 129.73 80.80
  C 127.95 82.29 127.38 84.57 126.21 86.52
  C 123.88 90.37 124.13 96.05 124.73 100.61
  Q 125.35 105.30 127.84 108.91
  Q 132.91 116.25 142.61 116.82
  Q 144.05 116.91 145.34 116.53
  Q 146.75 116.12 148.19 115.90
  C 153.49 115.10 159.22 110.47 161.82 106.53"
/>
<path stroke="#909091" vector-effect="non-scaling-stroke" d="
  M 250.0538 74.0884
  A 2.83 2.29 88.1 0 0 252.2487 71.1841
  A 2.83 2.29 88.1 0 0 249.8662 68.4316
  A 2.83 2.29 88.1 0 0 247.6713 71.3359
  A 2.83 2.29 88.1 0 0 250.0538 74.0884"
/>
<path stroke="#909091" vector-effect="non-scaling-stroke" d="
  M 194.9776 72.1300
  A 1.37 0.95 90.1 0 0 195.9300 70.7617
  A 1.37 0.95 90.1 0 0 194.9824 69.3900
  A 1.37 0.95 90.1 0 0 194.0300 70.7583
  A 1.37 0.95 90.1 0 0 194.9776 72.1300"
/>
<path stroke="#909091" vector-effect="non-scaling-stroke" d="
  M 205.4177 69.4163
  A 1.50 1.05 -3.2 0 0 203.8614 68.4516
  A 1.50 1.05 -3.2 0 0 202.4223 69.5837
  A 1.50 1.05 -3.2 0 0 203.9786 70.5484
  A 1.50 1.05 -3.2 0 0 205.4177 69.4163"
/>
<path stroke="#909091" vector-effect="non-scaling-stroke" d="
  M 205.22 71.78
  Q 204.36 71.42 203.38 71.50
  A 1.02 1.02 0.0 0 0 202.53 72.93
  Q 203.44 75.00 205.25 73.50
  Q 205.84 73.01 205.68 72.31
  A 0.78 0.75 4.8 0 0 205.22 71.78"
/>
<path stroke="#909091" vector-effect="non-scaling-stroke" d="
  M 213.6949 74.0700
  A 2.84 2.28 89.7 0 0 215.9600 71.2181
  A 2.84 2.28 89.7 0 0 213.6651 68.3900
  A 2.84 2.28 89.7 0 0 211.4000 71.2419
  A 2.84 2.28 89.7 0 0 213.6949 74.0700"
/>
<path stroke="#909091" vector-effect="non-scaling-stroke" d="
  M 225.1499 69.5069
  A 1.05 1.05 0.0 0 0 224.0980 68.4588
  L 222.6780 68.4612
  A 1.05 1.05 0.0 0 0 221.6299 69.5131
  L 221.6301 69.6731
  A 1.05 1.05 0.0 0 0 222.6820 70.7212
  L 224.1020 70.7188
  A 1.05 1.05 0.0 0 0 225.1501 69.6669
  L 225.1499 69.5069"
/>
<path stroke="#909091" vector-effect="non-scaling-stroke" d="
  M 266.8199 69.5833
  A 1.91 1.12 -0.5 0 0 264.9002 68.4800
  A 1.91 1.12 -0.5 0 0 263.0001 69.6167
  A 1.91 1.12 -0.5 0 0 264.9198 70.7200
  A 1.91 1.12 -0.5 0 0 266.8199 69.5833"
/>
<path stroke="#909091" vector-effect="non-scaling-stroke" d="
  M 232.6198 71.9751
  A 1.24 0.81 95.1 0 0 233.5368 70.8120
  A 1.24 0.81 95.1 0 0 232.8402 69.5049
  A 1.24 0.81 95.1 0 0 231.9232 70.6680
  A 1.24 0.81 95.1 0 0 232.6198 71.9751"
/>
<path stroke="#828282" vector-effect="non-scaling-stroke" d="
  M 150.11 113.54
  Q 159.68 109.64 163.90 99.77
  C 167.52 91.28 165.42 81.60 156.62 77.63
  Q 141.46 70.78 130.10 83.29
  Q 126.79 86.94 126.26 90.56
  C 125.42 96.32 126.05 104.53 129.89 109.53
  C 134.47 115.49 143.72 116.15 150.11 113.54"
/>
<path stroke="#82aed2" vector-effect="non-scaling-stroke" d="
  M 152.5566 95.7235
  A 7.32 7.32 0.0 0 0 147.2870 86.8130
  L 145.9504 86.4698
  A 7.32 7.32 0.0 0 0 137.0399 91.7395
  L 136.3834 94.2965
  A 7.32 7.32 0.0 0 0 141.6530 103.2070
  L 142.9896 103.5502
  A 7.32 7.32 0.0 0 0 151.9001 98.2805
  L 152.5566 95.7235"
/>
<path stroke="#909091" vector-effect="non-scaling-stroke" d="
  M 242.83 108.05
  L 251.49 108.13
  A 0.22 0.22 0.0 0 0 251.71 107.91
  L 251.71 107.58
  A 4.77 4.52 -89.5 0 0 247.23 102.77
  L 247.17 102.77
  A 4.77 4.52 -89.5 0 0 242.61 107.50
  L 242.61 107.83
  A 0.22 0.22 0.0 0 0 242.83 108.05"
/>
<path stroke="#131314" vector-effect="non-scaling-stroke" d="
  M 279.94 105.27
  Q 276.95 101.87 272.29 102.96
  Q 270.05 103.49 268.88 105.60
  Q 264.01 114.37 272.48 120.37
  Q 273.03 120.76 273.68 120.63
  Q 281.69 119.11 282.13 110.71
  Q 282.28 107.93 279.94 105.27"
/>
<path stroke="#828282" vector-effect="non-scaling-stroke" d="
  M 274.5687 118.8399
  A 7.40 6.00 89.7 0 0 280.5299 111.4086
  A 7.40 6.00 89.7 0 0 274.4913 104.0401
  A 7.40 6.00 89.7 0 0 268.5301 111.4714
  A 7.40 6.00 89.7 0 0 274.5687 118.8399"
/>
</g>
<path fill="#ffffff" d="
  M 0.00 0.00
  L 400.00 0.00
  L 400.00 195.00
  L 0.00 195.00
  L 0.00 0.00
  Z
  M 115.14 65.57
  C 119.10 69.11 125.81 68.43 127.44 62.62
  C 128.62 58.40 128.46 52.03 123.18 51.22
  C 116.43 50.19 109.71 60.73 115.14 65.57
  Z
  M 116.60 85.26
  Q 115.63 87.00 115.38 89.04
  C 113.51 104.71 119.28 119.12 134.76 124.75
  Q 140.11 126.70 146.38 125.45
  C 154.78 123.78 162.09 120.59 167.16 113.85
  Q 171.32 108.30 174.56 102.80
  C 176.47 99.56 176.92 96.35 176.77 92.66
  C 176.12 77.22 165.15 64.13 148.85 64.42
  C 143.65 64.51 136.43 65.16 132.32 67.94
  Q 122.58 74.54 116.60 85.26
  Z
  M 250.0131 75.1291
  A 3.97 3.48 88.8 0 0 253.4092 71.0871
  A 3.97 3.48 88.8 0 0 249.8469 67.1909
  A 3.97 3.48 88.8 0 0 246.4508 71.2329
  A 3.97 3.48 88.8 0 0 250.0131 75.1291
  Z
  M 198.26 74.44
  L 195.71 67.83
  A 0.68 0.67 -30.5 0 0 194.65 67.56
  Q 194.10 68.01 193.90 68.73
  Q 193.20 71.22 192.29 73.22
  Q 191.11 75.81 193.28 73.97
  Q 193.31 73.95 193.77 73.13
  Q 194.03 72.69 194.52 72.57
  Q 196.52 72.12 197.19 74.65
  A 0.45 0.45 0.0 0 0 197.82 74.94
  L 198.11 74.80
  A 0.29 0.29 0.0 0 0 198.26 74.44
  Z
  M 206.11 70.21
  L 206.37 69.99
  Q 207.06 69.40 206.49 68.69
  Q 204.96 66.78 201.99 67.57
  A 0.68 0.67 -8.0 0 0 201.49 68.22
  L 201.45 73.79
  Q 201.45 74.58 202.21 74.76
  C 203.68 75.12 205.85 75.17 206.69 73.63
  Q 207.40 72.33 206.14 71.37
  A 0.75 0.75 0.0 0 1 206.11 70.21
  Z
  M 213.6600 75.1300
  A 3.93 3.45 90.0 0 0 217.1100 71.2000
  A 3.93 3.45 90.0 0 0 213.6600 67.2700
  A 3.93 3.45 90.0 0 0 210.2100 71.2000
  A 3.93 3.45 90.0 0 0 213.6600 75.1300
  Z
  M 223.26 71.72
  Q 224.78 72.96 225.45 74.68
  Q 225.61 75.08 226.03 75.01
  L 226.38 74.96
  Q 226.78 74.90 226.67 74.51
  Q 226.33 73.32 225.39 72.46
  A 0.99 0.98 -32.6 0 1 225.76 70.79
  Q 226.86 70.43 226.11 68.44
  A 1.62 1.62 0.0 0 0 224.58 67.39
  L 221.61 67.40
  A 1.01 1.01 0.0 0 0 220.61 68.40
  L 220.57 74.32
  Q 220.56 74.64 220.89 74.69
  L 221.14 74.72
  Q 221.83 74.82 221.80 74.11
  L 221.72 72.50
  A 0.95 0.94 -71.7 0 1 223.26 71.72
  Z
  M 240.29 69.19
  L 240.15 74.04
  Q 240.13 74.61 240.69 74.67
  L 240.99 74.71
  Q 241.56 74.77 241.54 74.20
  L 241.37 69.43
  Q 241.35 68.93 241.83 68.78
  L 243.29 68.35
  Q 243.57 68.26 243.50 67.98
  L 243.43 67.69
  A 0.59 0.59 0.0 0 0 242.74 67.25
  Q 240.73 67.65 238.70 67.26
  Q 238.08 67.14 238.15 67.77
  L 238.20 68.18
  Q 238.25 68.61 238.68 68.61
  L 239.73 68.62
  Q 240.31 68.62 240.29 69.19
  Z
  M 266.88 71.26
  L 267.30 70.88
  A 1.84 1.84 0.0 0 0 266.86 67.83
  Q 265.15 67.02 263.32 67.39
  A 1.41 1.41 0.0 0 0 262.19 68.78
  L 262.23 74.09
  A 0.58 0.58 0.0 0 0 262.83 74.67
  L 263.08 74.66
  A 0.41 0.41 0.0 0 0 263.48 74.20
  L 263.26 72.57
  Q 263.19 72.06 263.64 71.81
  Q 264.59 71.29 265.24 72.11
  Q 266.12 73.22 267.03 74.55
  Q 267.76 75.62 268.07 74.36
  Q 268.32 73.40 267.15 72.91
  A 0.99 0.99 0.0 0 1 266.88 71.26
  Z
  M 273.41 68.56
  Q 274.50 68.42 275.65 68.65
  Q 276.39 68.80 276.64 68.15
  A 0.64 0.64 0.0 0 0 276.01 67.28
  L 272.72 67.47
  Q 271.73 67.53 271.73 68.53
  L 271.73 73.94
  Q 271.72 74.91 272.69 74.91
  L 276.58 74.92
  A 0.30 0.30 0.0 0 0 276.88 74.65
  L 276.90 74.38
  Q 276.95 73.89 276.45 73.89
  L 273.78 73.91
  A 1.09 1.08 87.4 0 1 272.69 72.91
  Q 272.65 72.53 272.79 72.20
  Q 273.11 71.41 273.95 71.53
  Q 275.07 71.69 276.13 71.49
  Q 277.16 71.28 276.26 70.73
  Q 275.34 70.16 274.05 70.52
  Q 273.28 70.74 272.84 70.07
  Q 272.70 69.87 272.66 69.69
  A 0.94 0.90 79.9 0 1 273.41 68.56
  Z
  M 283.95 74.18
  A 0.99 0.99 0.0 0 1 282.82 74.05
  L 281.29 72.67
  Q 281.08 72.48 280.79 72.49
  Q 280.63 72.50 280.53 72.59
  Q 280.18 72.95 280.46 73.36
  C 282.06 75.72 285.34 75.86 286.17 72.79
  A 1.08 1.08 0.0 0 0 285.78 71.65
  Q 284.35 70.57 282.57 70.19
  Q 281.96 70.06 281.81 69.46
  Q 281.76 69.27 281.85 69.09
  Q 282.23 68.36 283.02 68.38
  Q 284.38 68.43 285.44 69.61
  Q 285.58 69.76 285.73 69.63
  L 285.95 69.42
  A 0.25 0.24 52.6 0 0 285.99 69.10
  Q 284.01 66.08 281.39 68.09
  A 1.75 1.75 0.0 0 0 281.89 71.13
  L 284.47 72.01
  Q 285.58 72.38 284.90 73.33
  Q 284.52 73.86 283.95 74.18
  Z
  M 185.67 73.17
  L 185.74 68.20
  A 0.56 0.55 4.7 0 0 185.26 67.64
  L 184.98 67.60
  A 0.54 0.54 0.0 0 0 184.37 68.15
  L 184.50 73.94
  A 0.95 0.94 -0.3 0 0 185.44 74.86
  L 188.25 74.90
  Q 188.86 74.91 188.69 74.33
  L 188.60 74.04
  A 0.24 0.23 77.3 0 0 188.34 73.87
  L 186.67 74.07
  A 0.90 0.89 -2.8 0 1 185.67 73.17
  Z
  M 230.60 74.67
  C 231.11 71.99 234.09 71.73 234.68 74.44
  Q 234.82 75.05 235.42 74.87
  L 235.71 74.78
  A 0.43 0.43 0.0 0 0 235.98 74.20
  L 233.57 68.48
  Q 232.62 66.20 231.75 68.52
  L 229.51 74.54
  Q 229.39 74.88 229.75 74.87
  L 230.37 74.86
  Q 230.56 74.86 230.60 74.67
  Z
  M 258.2420 68.0340
  A 0.51 0.51 0.0 0 0 257.7356 67.5204
  L 257.6356 67.5197
  A 0.51 0.51 0.0 0 0 257.1220 68.0262
  L 257.0780 74.3260
  A 0.51 0.51 0.0 0 0 257.5844 74.8396
  L 257.6844 74.8403
  A 0.51 0.51 0.0 0 0 258.1980 74.3338
  L 258.2420 68.0340
  Z
  M 253.11 86.94
  A 0.33 0.33 0.0 0 0 253.05 86.43
  L 248.66 83.58
  A 0.33 0.33 0.0 0 0 248.21 83.67
  L 242.47 92.03
  A 0.33 0.33 0.0 0 0 242.56 92.50
  L 245.51 94.44
  A 0.33 0.33 0.0 0 0 245.93 94.39
  L 253.11 86.94
  Z
  M 216.94 99.74
  L 217.02 85.01
  Q 217.02 84.26 216.26 84.26
  L 210.53 84.26
  A 0.71 0.71 0.0 0 0 209.82 84.97
  L 209.82 123.80
  A 0.73 0.72 89.6 0 0 210.55 124.53
  L 216.55 124.48
  Q 217.14 124.48 217.12 123.88
  Q 216.89 117.44 216.98 110.01
  Q 217.02 106.25 218.66 104.53
  C 220.49 102.62 224.05 103.45 224.62 106.25
  Q 224.98 108.03 224.99 109.84
  Q 225.01 117.11 224.97 123.78
  Q 224.97 124.55 225.74 124.54
  L 231.31 124.48
  Q 232.11 124.48 232.11 123.67
  Q 232.06 114.88 231.93 106.71
  C 231.80 98.18 223.77 94.46 217.46 99.98
  Q 216.93 100.44 216.94 99.74
  Z
  M 191.28 91.07
  A 0.52 0.52 0.0 0 1 191.81 91.59
  L 191.73 124.00
  A 0.52 0.52 0.0 0 0 192.25 124.52
  L 198.76 124.50
  A 0.52 0.52 0.0 0 0 199.28 123.98
  L 199.25 91.71
  A 0.52 0.52 0.0 0 1 199.78 91.19
  L 206.33 91.25
  A 0.52 0.52 0.0 0 0 206.85 90.75
  L 206.97 84.92
  A 0.52 0.52 0.0 0 0 206.45 84.39
  L 184.83 84.51
  A 0.52 0.52 0.0 0 0 184.31 85.04
  L 184.42 90.63
  A 0.52 0.52 0.0 0 0 184.95 91.14
  L 191.28 91.07
  Z
  M 242.25 113.02
  A 0.53 0.53 0.0 0 1 242.78 112.48
  L 257.80 112.50
  Q 258.49 112.50 258.49 111.81
  C 258.54 106.35 256.36 99.88 250.71 98.15
  Q 246.98 97.00 243.47 97.97
  C 237.02 99.75 234.86 105.79 234.89 111.94
  C 234.94 120.35 240.97 126.93 249.77 125.03
  Q 255.36 123.82 258.06 118.04
  A 0.67 0.67 0.0 0 0 257.57 117.10
  L 252.71 116.27
  Q 252.13 116.18 251.74 116.61
  Q 251.39 116.99 251.12 117.45
  C 249.89 119.54 247.42 120.33 245.30 119.29
  C 243.03 118.18 242.32 115.35 242.25 113.02
  Z
  M 278.81 122.53
  Q 278.42 122.99 280.02 122.39
  L 279.95 123.89
  Q 279.92 124.36 280.39 124.36
  L 286.20 124.41
  Q 286.56 124.42 286.56 124.05
  L 286.55 99.15
  Q 286.55 98.51 285.90 98.51
  L 280.46 98.52
  A 0.58 0.58 0.0 0 0 279.93 99.34
  Q 280.11 99.73 280.01 100.13
  Q 279.83 100.86 279.27 100.36
  C 273.48 95.21 265.99 97.79 263.05 104.41
  C 259.96 111.39 261.76 120.73 268.46 124.31
  Q 274.18 127.36 278.81 122.53
  Z"
/>
<path fill="#055da5" d="
  M 127.44 62.62
  C 125.81 68.43 119.10 69.11 115.14 65.57
  C 109.71 60.73 116.43 50.19 123.18 51.22
  C 128.46 52.03 128.62 58.40 127.44 62.62
  Z"
/>
<path fill="#050405" d="
  M 116.60 85.26
  Q 122.58 74.54 132.32 67.94
  C 136.43 65.16 143.65 64.51 148.85 64.42
  C 165.15 64.13 176.12 77.22 176.77 92.66
  C 176.92 96.35 176.47 99.56 174.56 102.80
  Q 171.32 108.30 167.16 113.85
  C 162.09 120.59 154.78 123.78 146.38 125.45
  Q 140.11 126.70 134.76 124.75
  C 119.28 119.12 113.51 104.71 115.38 89.04
  Q 115.63 87.00 116.60 85.26
  Z
  M 168.62 109.26
  Q 171.74 105.03 174.08 98.88
  C 174.95 96.61 175.06 93.89 174.81 91.51
  Q 174.41 87.82 173.28 83.60
  C 171.11 75.53 165.04 69.31 157.15 67.04
  C 150.75 65.19 142.47 66.53 136.01 68.04
  Q 134.06 68.49 132.51 69.79
  Q 129.38 72.40 126.78 75.71
  Q 125.03 77.94 122.69 79.65
  C 119.25 82.15 117.29 85.84 116.90 90.28
  Q 115.97 100.79 120.33 110.24
  Q 122.32 114.56 125.46 117.29
  Q 128.72 120.13 132.99 122.01
  Q 140.64 125.39 148.31 123.32
  Q 155.94 121.26 161.61 117.61
  Q 163.68 116.28 165.42 113.74
  Q 167.01 111.43 168.62 109.26
  Z"
/>
<path fill="#212123" d="
  M 165.42 113.74
  Q 163.68 116.28 161.61 117.61
  Q 155.94 121.26 148.31 123.32
  Q 140.64 125.39 132.99 122.01
  Q 128.72 120.13 125.46 117.29
  Q 122.32 114.56 120.33 110.24
  Q 115.97 100.79 116.90 90.28
  C 117.29 85.84 119.25 82.15 122.69 79.65
  Q 125.03 77.94 126.78 75.71
  Q 129.38 72.40 132.51 69.79
  Q 134.06 68.49 136.01 68.04
  C 142.47 66.53 150.75 65.19 157.15 67.04
  C 165.04 69.31 171.11 75.53 173.28 83.60
  Q 174.41 87.82 174.81 91.51
  C 175.06 93.89 174.95 96.61 174.08 98.88
  Q 171.74 105.03 168.62 109.26
  Q 167.01 111.43 165.42 113.74
  Z
  M 161.82 106.53
  Q 163.78 103.56 165.33 100.30
  Q 167.64 95.46 167.61 89.87
  Q 167.59 86.76 165.79 83.92
  Q 163.61 80.48 161.50 78.78
  Q 151.33 70.59 138.27 75.27
  Q 134.93 76.47 129.73 80.80
  C 127.95 82.29 127.38 84.57 126.21 86.52
  C 123.88 90.37 124.13 96.05 124.73 100.61
  Q 125.35 105.30 127.84 108.91
  Q 132.91 116.25 142.61 116.82
  Q 144.05 116.91 145.34 116.53
  Q 146.75 116.12 148.19 115.90
  C 153.49 115.10 159.22 110.47 161.82 106.53
  Z"
/>
<path fill="#212123" d="
  M 250.0131 75.1291
  A 3.97 3.48 88.8 0 1 246.4508 71.2329
  A 3.97 3.48 88.8 0 1 249.8469 67.1909
  A 3.97 3.48 88.8 0 1 253.4092 71.0871
  A 3.97 3.48 88.8 0 1 250.0131 75.1291
  Z
  M 250.0538 74.0884
  A 2.83 2.29 88.1 0 0 252.2487 71.1841
  A 2.83 2.29 88.1 0 0 249.8662 68.4316
  A 2.83 2.29 88.1 0 0 247.6713 71.3359
  A 2.83 2.29 88.1 0 0 250.0538 74.0884
  Z"
/>
<path fill="#212123" d="
  M 198.26 74.44
  A 0.29 0.29 0.0 0 1 198.11 74.80
  L 197.82 74.94
  A 0.45 0.45 0.0 0 1 197.19 74.65
  Q 196.52 72.12 194.52 72.57
  Q 194.03 72.69 193.77 73.13
  Q 193.31 73.95 193.28 73.97
  Q 191.11 75.81 192.29 73.22
  Q 193.20 71.22 193.90 68.73
  Q 194.10 68.01 194.65 67.56
  A 0.68 0.67 -30.5 0 1 195.71 67.83
  L 198.26 74.44
  Z
  M 194.9776 72.1300
  A 1.37 0.95 90.1 0 0 195.9300 70.7617
  A 1.37 0.95 90.1 0 0 194.9824 69.3900
  A 1.37 0.95 90.1 0 0 194.0300 70.7583
  A 1.37 0.95 90.1 0 0 194.9776 72.1300
  Z"
/>
<path fill="#212123" d="
  M 206.14 71.37
  Q 207.40 72.33 206.69 73.63
  C 205.85 75.17 203.68 75.12 202.21 74.76
  Q 201.45 74.58 201.45 73.79
  L 201.49 68.22
  A 0.68 0.67 -8.0 0 1 201.99 67.57
  Q 204.96 66.78 206.49 68.69
  Q 207.06 69.40 206.37 69.99
  L 206.11 70.21
  A 0.75 0.75 0.0 0 0 206.14 71.37
  Z
  M 205.4177 69.4163
  A 1.50 1.05 -3.2 0 0 203.8614 68.4516
  A 1.50 1.05 -3.2 0 0 202.4223 69.5837
  A 1.50 1.05 -3.2 0 0 203.9786 70.5484
  A 1.50 1.05 -3.2 0 0 205.4177 69.4163
  Z
  M 205.22 71.78
  Q 204.36 71.42 203.38 71.50
  A 1.02 1.02 0.0 0 0 202.53 72.93
  Q 203.44 75.00 205.25 73.50
  Q 205.84 73.01 205.68 72.31
  A 0.78 0.75 4.8 0 0 205.22 71.78
  Z"
/>
<path fill="#212123" d="
  M 213.6600 75.1300
  A 3.93 3.45 90.0 0 1 210.2100 71.2000
  A 3.93 3.45 90.0 0 1 213.6600 67.2700
  A 3.93 3.45 90.0 0 1 217.1100 71.2000
  A 3.93 3.45 90.0 0 1 213.6600 75.1300
  Z
  M 213.6949 74.0700
  A 2.84 2.28 89.7 0 0 215.9600 71.2181
  A 2.84 2.28 89.7 0 0 213.6651 68.3900
  A 2.84 2.28 89.7 0 0 211.4000 71.2419
  A 2.84 2.28 89.7 0 0 213.6949 74.0700
  Z"
/>
<path fill="#212123" d="
  M 223.26 71.72
  A 0.95 0.94 -71.7 0 0 221.72 72.50
  L 221.80 74.11
  Q 221.83 74.82 221.14 74.72
  L 220.89 74.69
  Q 220.56 74.64 220.57 74.32
  L 220.61 68.40
  A 1.01 1.01 0.0 0 1 221.61 67.40
  L 224.58 67.39
  A 1.62 1.62 0.0 0 1 226.11 68.44
  Q 226.86 70.43 225.76 70.79
  A 0.99 0.98 -32.6 0 0 225.39 72.46
  Q 226.33 73.32 226.67 74.51
  Q 226.78 74.90 226.38 74.96
  L 226.03 75.01
  Q 225.61 75.08 225.45 74.68
  Q 224.78 72.96 223.26 71.72
  Z
  M 225.1499 69.5069
  A 1.05 1.05 0.0 0 0 224.0980 68.4588
  L 222.6780 68.4612
  A 1.05 1.05 0.0 0 0 221.6299 69.5131
  L 221.6301 69.6731
  A 1.05 1.05 0.0 0 0 222.6820 70.7212
  L 224.1020 70.7188
  A 1.05 1.05 0.0 0 0 225.1501 69.6669
  L 225.1499 69.5069
  Z"
/>
<path fill="#212123" d="
  M 239.73 68.62
  L 238.68 68.61
  Q 238.25 68.61 238.20 68.18
  L 238.15 67.77
  Q 238.08 67.14 238.70 67.26
  Q 240.73 67.65 242.74 67.25
  A 0.59 0.59 0.0 0 1 243.43 67.69
  L 243.50 67.98
  Q 243.57 68.26 243.29 68.35
  L 241.83 68.78
  Q 241.35 68.93 241.37 69.43
  L 241.54 74.20
  Q 241.56 74.77 240.99 74.71
  L 240.69 74.67
  Q 240.13 74.61 240.15 74.04
  L 240.29 69.19
  Q 240.31 68.62 239.73 68.62
  Z"
/>
<path fill="#212123" d="
  M 266.88 71.26
  A 0.99 0.99 0.0 0 0 267.15 72.91
  Q 268.32 73.40 268.07 74.36
  Q 267.76 75.62 267.03 74.55
  Q 266.12 73.22 265.24 72.11
  Q 264.59 71.29 263.64 71.81
  Q 263.19 72.06 263.26 72.57
  L 263.48 74.20
  A 0.41 0.41 0.0 0 1 263.08 74.66
  L 262.83 74.67
  A 0.58 0.58 0.0 0 1 262.23 74.09
  L 262.19 68.78
  A 1.41 1.41 0.0 0 1 263.32 67.39
  Q 265.15 67.02 266.86 67.83
  A 1.84 1.84 0.0 0 1 267.30 70.88
  L 266.88 71.26
  Z
  M 266.8199 69.5833
  A 1.91 1.12 -0.5 0 0 264.9002 68.4800
  A 1.91 1.12 -0.5 0 0 263.0001 69.6167
  A 1.91 1.12 -0.5 0 0 264.9198 70.7200
  A 1.91 1.12 -0.5 0 0 266.8199 69.5833
  Z"
/>
<path fill="#212123" d="
  M 273.41 68.56
  A 0.94 0.90 79.9 0 0 272.66 69.69
  Q 272.70 69.87 272.84 70.07
  Q 273.28 70.74 274.05 70.52
  Q 275.34 70.16 276.26 70.73
  Q 277.16 71.28 276.13 71.49
  Q 275.07 71.69 273.95 71.53
  Q 273.11 71.41 272.79 72.20
  Q 272.65 72.53 272.69 72.91
  A 1.09 1.08 87.4 0 0 273.78 73.91
  L 276.45 73.89
  Q 276.95 73.89 276.90 74.38
  L 276.88 74.65
  A 0.30 0.30 0.0 0 1 276.58 74.92
  L 272.69 74.91
  Q 271.72 74.91 271.73 73.94
  L 271.73 68.53
  Q 271.73 67.53 272.72 67.47
  L 276.01 67.28
  A 0.64 0.64 0.0 0 1 276.64 68.15
  Q 276.39 68.80 275.65 68.65
  Q 274.50 68.42 273.41 68.56
  Z"
/>
<path fill="#212123" d="
  M 284.47 72.01
  L 281.89 71.13
  A 1.75 1.75 0.0 0 1 281.39 68.09
  Q 284.01 66.08 285.99 69.10
  A 0.25 0.24 52.6 0 1 285.95 69.42
  L 285.73 69.63
  Q 285.58 69.76 285.44 69.61
  Q 284.38 68.43 283.02 68.38
  Q 282.23 68.36 281.85 69.09
  Q 281.76 69.27 281.81 69.46
  Q 281.96 70.06 282.57 70.19
  Q 284.35 70.57 285.78 71.65
  A 1.08 1.08 0.0 0 1 286.17 72.79
  C 285.34 75.86 282.06 75.72 280.46 73.36
  Q 280.18 72.95 280.53 72.59
  Q 280.63 72.50 280.79 72.49
  Q 281.08 72.48 281.29 72.67
  L 282.82 74.05
  A 0.99 0.99 0.0 0 0 283.95 74.18
  Q 284.52 73.86 284.90 73.33
  Q 285.58 72.38 284.47 72.01
  Z"
/>
<path fill="#212123" d="
  M 186.67 74.07
  L 188.34 73.87
  A 0.24 0.23 77.3 0 1 188.60 74.04
  L 188.69 74.33
  Q 188.86 74.91 188.25 74.90
  L 185.44 74.86
  A 0.95 0.94 -0.3 0 1 184.50 73.94
  L 184.37 68.15
  A 0.54 0.54 0.0 0 1 184.98 67.60
  L 185.26 67.64
  A 0.56 0.55 4.7 0 1 185.74 68.20
  L 185.67 73.17
  A 0.90 0.89 -2.8 0 0 186.67 74.07
  Z"
/>
<path fill="#212123" d="
  M 234.68 74.44
  C 234.09 71.73 231.11 71.99 230.60 74.67
  Q 230.56 74.86 230.37 74.86
  L 229.75 74.87
  Q 229.39 74.88 229.51 74.54
  L 231.75 68.52
  Q 232.62 66.20 233.57 68.48
  L 235.98 74.20
  A 0.43 0.43 0.0 0 1 235.71 74.78
  L 235.42 74.87
  Q 234.82 75.05 234.68 74.44
  Z
  M 232.6198 71.9751
  A 1.24 0.81 95.1 0 0 233.5368 70.8120
  A 1.24 0.81 95.1 0 0 232.8402 69.5049
  A 1.24 0.81 95.1 0 0 231.9232 70.6680
  A 1.24 0.81 95.1 0 0 232.6198 71.9751
  Z"
/>
<rect fill="#212123" x="-0.56" y="-3.66" transform="translate(257.66,71.18) rotate(0.4)" width="1.12" height="7.32" rx="0.51"/>
<ellipse fill="#ffffff" cx="0.00" cy="0.00" transform="translate(213.68,71.23) rotate(89.7)" rx="2.84" ry="2.28"/>
<ellipse fill="#ffffff" cx="0.00" cy="0.00" transform="translate(203.92,69.50) rotate(-3.2)" rx="1.50" ry="1.05"/>
<rect fill="#ffffff" x="-1.76" y="-1.13" transform="translate(223.39,69.59) rotate(-0.1)" width="3.52" height="2.26" rx="1.05"/>
<ellipse fill="#ffffff" cx="0.00" cy="0.00" transform="translate(249.96,71.26) rotate(88.1)" rx="2.83" ry="2.29"/>
<ellipse fill="#ffffff" cx="0.00" cy="0.00" transform="translate(264.91,69.60) rotate(-0.5)" rx="1.91" ry="1.12"/>
<ellipse fill="#ffffff" cx="0.00" cy="0.00" transform="translate(194.98,70.76) rotate(90.1)" rx="1.37" ry="0.95"/>
<ellipse fill="#ffffff" cx="0.00" cy="0.00" transform="translate(232.73,70.74) rotate(95.1)" rx="1.24" ry="0.81"/>
<path fill="#ffffff" d="
  M 205.22 71.78
  A 0.78 0.75 4.8 0 1 205.68 72.31
  Q 205.84 73.01 205.25 73.50
  Q 203.44 75.00 202.53 72.93
  A 1.02 1.02 0.0 0 1 203.38 71.50
  Q 204.36 71.42 205.22 71.78
  Z"
/>
<path fill="#050405" d="
  M 161.82 106.53
  C 159.22 110.47 153.49 115.10 148.19 115.90
  Q 146.75 116.12 145.34 116.53
  Q 144.05 116.91 142.61 116.82
  Q 132.91 116.25 127.84 108.91
  Q 125.35 105.30 124.73 100.61
  C 124.13 96.05 123.88 90.37 126.21 86.52
  C 127.38 84.57 127.95 82.29 129.73 80.80
  Q 134.93 76.47 138.27 75.27
  Q 151.33 70.59 161.50 78.78
  Q 163.61 80.48 165.79 83.92
  Q 167.59 86.76 167.61 89.87
  Q 167.64 95.46 165.33 100.30
  Q 163.78 103.56 161.82 106.53
  Z
  M 150.11 113.54
  Q 159.68 109.64 163.90 99.77
  C 167.52 91.28 165.42 81.60 156.62 77.63
  Q 141.46 70.78 130.10 83.29
  Q 126.79 86.94 126.26 90.56
  C 125.42 96.32 126.05 104.53 129.89 109.53
  C 134.47 115.49 143.72 116.15 150.11 113.54
  Z"
/>
<path fill="#ffffff" d="
  M 150.11 113.54
  C 143.72 116.15 134.47 115.49 129.89 109.53
  C 126.05 104.53 125.42 96.32 126.26 90.56
  Q 126.79 86.94 130.10 83.29
  Q 141.46 70.78 156.62 77.63
  C 165.42 81.60 167.52 91.28 163.90 99.77
  Q 159.68 109.64 150.11 113.54
  Z
  M 152.5566 95.7235
  A 7.32 7.32 0.0 0 0 147.2870 86.8130
  L 145.9504 86.4698
  A 7.32 7.32 0.0 0 0 137.0399 91.7395
  L 136.3834 94.2965
  A 7.32 7.32 0.0 0 0 141.6530 103.2070
  L 142.9896 103.5502
  A 7.32 7.32 0.0 0 0 151.9001 98.2805
  L 152.5566 95.7235
  Z"
/>
<path fill="#212123" d="
  M 253.11 86.94
  L 245.93 94.39
  A 0.33 0.33 0.0 0 1 245.51 94.44
  L 242.56 92.50
  A 0.33 0.33 0.0 0 1 242.47 92.03
  L 248.21 83.67
  A 0.33 0.33 0.0 0 1 248.66 83.58
  L 253.05 86.43
  A 0.33 0.33 0.0 0 1 253.11 86.94
  Z"
/>
<path fill="#212123" d="
  M 217.46 99.98
  C 223.77 94.46 231.80 98.18 231.93 106.71
  Q 232.06 114.88 232.11 123.67
  Q 232.11 124.48 231.31 124.48
  L 225.74 124.54
  Q 224.97 124.55 224.97 123.78
  Q 225.01 117.11 224.99 109.84
  Q 224.98 108.03 224.62 106.25
  C 224.05 103.45 220.49 102.62 218.66 104.53
  Q 217.02 106.25 216.98 110.01
  Q 216.89 117.44 217.12 123.88
  Q 217.14 124.48 216.55 124.48
  L 210.55 124.53
  A 0.73 0.72 89.6 0 1 209.82 123.80
  L 209.82 84.97
  A 0.71 0.71 0.0 0 1 210.53 84.26
  L 216.26 84.26
  Q 217.02 84.26 217.02 85.01
  L 216.94 99.74
  Q 216.93 100.44 217.46 99.98
  Z"
/>
<path fill="#212123" d="
  M 191.28 91.07
  L 184.95 91.14
  A 0.52 0.52 0.0 0 1 184.42 90.63
  L 184.31 85.04
  A 0.52 0.52 0.0 0 1 184.83 84.51
  L 206.45 84.39
  A 0.52 0.52 0.0 0 1 206.97 84.92
  L 206.85 90.75
  A 0.52 0.52 0.0 0 1 206.33 91.25
  L 199.78 91.19
  A 0.52 0.52 0.0 0 0 199.25 91.71
  L 199.28 123.98
  A 0.52 0.52 0.0 0 1 198.76 124.50
  L 192.25 124.52
  A 0.52 0.52 0.0 0 1 191.73 124.00
  L 191.81 91.59
  A 0.52 0.52 0.0 0 0 191.28 91.07
  Z"
/>
<rect fill="#055da5" x="-8.01" y="-8.64" transform="translate(144.47,95.01) rotate(14.4)" width="16.02" height="17.28" rx="7.32"/>
<path fill="#212123" d="
  M 242.25 113.02
  C 242.32 115.35 243.03 118.18 245.30 119.29
  C 247.42 120.33 249.89 119.54 251.12 117.45
  Q 251.39 116.99 251.74 116.61
  Q 252.13 116.18 252.71 116.27
  L 257.57 117.10
  A 0.67 0.67 0.0 0 1 258.06 118.04
  Q 255.36 123.82 249.77 125.03
  C 240.97 126.93 234.94 120.35 234.89 111.94
  C 234.86 105.79 237.02 99.75 243.47 97.97
  Q 246.98 97.00 250.71 98.15
  C 256.36 99.88 258.54 106.35 258.49 111.81
  Q 258.49 112.50 257.80 112.50
  L 242.78 112.48
  A 0.53 0.53 0.0 0 0 242.25 113.02
  Z
  M 242.83 108.05
  L 251.49 108.13
  A 0.22 0.22 0.0 0 0 251.71 107.91
  L 251.71 107.58
  A 4.77 4.52 -89.5 0 0 247.23 102.77
  L 247.17 102.77
  A 4.77 4.52 -89.5 0 0 242.61 107.50
  L 242.61 107.83
  A 0.22 0.22 0.0 0 0 242.83 108.05
  Z"
/>
<path fill="#050405" d="
  M 280.02 122.39
  Q 282.10 123.54 284.38 123.02
  A 0.89 0.88 -8.2 0 0 285.07 122.11
  Q 284.56 111.49 284.71 100.95
  Q 284.71 100.43 284.20 100.43
  L 280.83 100.41
  Q 280.39 100.41 280.30 100.85
  Q 280.13 101.68 279.47 102.26
  A 0.65 0.64 -37.7 0 1 278.50 102.14
  Q 275.43 97.59 270.28 99.82
  C 262.24 103.30 261.64 111.66 265.11 118.74
  Q 266.85 122.27 270.78 123.12
  Q 274.33 123.89 278.81 122.53
  Q 274.18 127.36 268.46 124.31
  C 261.76 120.73 259.96 111.39 263.05 104.41
  C 265.99 97.79 273.48 95.21 279.27 100.36
  Q 279.83 100.86 280.01 100.13
  Q 280.11 99.73 279.93 99.34
  A 0.58 0.58 0.0 0 1 280.46 98.52
  L 285.90 98.51
  Q 286.55 98.51 286.55 99.15
  L 286.56 124.05
  Q 286.56 124.42 286.20 124.41
  L 280.39 124.36
  Q 279.92 124.36 279.95 123.89
  L 280.02 122.39
  Z"
/>
<path fill="#212123" d="
  M 280.02 122.39
  Q 278.42 122.99 278.81 122.53
  Q 274.33 123.89 270.78 123.12
  Q 266.85 122.27 265.11 118.74
  C 261.64 111.66 262.24 103.30 270.28 99.82
  Q 275.43 97.59 278.50 102.14
  A 0.65 0.64 -37.7 0 0 279.47 102.26
  Q 280.13 101.68 280.30 100.85
  Q 280.39 100.41 280.83 100.41
  L 284.20 100.43
  Q 284.71 100.43 284.71 100.95
  Q 284.56 111.49 285.07 122.11
  A 0.89 0.88 -8.2 0 1 284.38 123.02
  Q 282.10 123.54 280.02 122.39
  Z
  M 279.94 105.27
  Q 276.95 101.87 272.29 102.96
  Q 270.05 103.49 268.88 105.60
  Q 264.01 114.37 272.48 120.37
  Q 273.03 120.76 273.68 120.63
  Q 281.69 119.11 282.13 110.71
  Q 282.28 107.93 279.94 105.27
  Z"
/>
<path fill="#ffffff" d="
  M 242.83 108.05
  A 0.22 0.22 0.0 0 1 242.61 107.83
  L 242.61 107.50
  A 4.77 4.52 -89.5 0 1 247.17 102.77
  L 247.23 102.77
  A 4.77 4.52 -89.5 0 1 251.71 107.58
  L 251.71 107.91
  A 0.22 0.22 0.0 0 1 251.49 108.13
  L 242.83 108.05
  Z"
/>
<path fill="#050405" d="
  M 279.94 105.27
  Q 282.28 107.93 282.13 110.71
  Q 281.69 119.11 273.68 120.63
  Q 273.03 120.76 272.48 120.37
  Q 264.01 114.37 268.88 105.60
  Q 270.05 103.49 272.29 102.96
  Q 276.95 101.87 279.94 105.27
  Z
  M 274.5687 118.8399
  A 7.40 6.00 89.7 0 0 280.5299 111.4086
  A 7.40 6.00 89.7 0 0 274.4913 104.0401
  A 7.40 6.00 89.7 0 0 268.5301 111.4714
  A 7.40 6.00 89.7 0 0 274.5687 118.8399
  Z"
/>
<ellipse fill="#ffffff" cx="0.00" cy="0.00" transform="translate(274.53,111.44) rotate(89.7)" rx="7.40" ry="6.00"/>
</svg>
