<?xml version="1.0" encoding="UTF-8" standalone="no"?>
<!DOCTYPE svg PUBLIC "-//W3C//DTD SVG 1.1//EN" "http://www.w3.org/Graphics/SVG/1.1/DTD/svg11.dtd">
<svg xmlns="http://www.w3.org/2000/svg" version="1.1" viewBox="0.00 0.00 400.00 195.00">
<g stroke-width="2.00" fill="none" stroke-linecap="butt">
<path stroke="#aecd95" vector-effect="non-scaling-stroke" d="
  M 159.41 24.81
  A 11.25 11.11 -1.4 0 0 152.05 27.33
  A 11.25 11.11 -0.7 0 0 148.04 37.50
  A 11.26 11.13 -0.9 0 0 157.28 46.89"
/>
<path stroke="#c0d993" vector-effect="non-scaling-stroke" d="
  M 157.28 46.89
  A 11.27 11.13 -0.8 0 0 170.29 37.84
  A 11.27 11.12 -0.4 0 0 159.41 24.81"
/>
<path stroke="#6ea628" vector-effect="non-scaling-stroke" d="
  M 157.28 46.89
  L 159.22 46.87
  Q 159.72 46.86 159.97 46.43
  Q 160.19 46.06 159.96 45.62
  Q 159.83 45.36 159.40 45.11
  Q 158.88 44.80 158.77 44.63
  Q 157.01 41.88 156.86 37.98
  Q 156.60 31.41 159.41 24.81"
/>
<path stroke="#92a9cc" vector-effect="non-scaling-stroke" d="
  M 111.41 52.03
  Q 110.60 54.94 112.48 56.06
  C 115.69 57.99 119.48 60.53 123.15 59.20
  Q 130.10 56.67 136.63 54.39
  Q 141.38 52.73 147.50 53.09"
/>
<path stroke="#909cbf" vector-effect="non-scaling-stroke" d="
  M 147.50 53.09
  Q 154.73 56.45 156.88 63.99
  Q 158.34 69.12 158.47 75.48
  Q 158.72 88.16 158.32 99.38
  C 158.15 104.28 162.67 105.07 166.02 102.66
  Q 172.97 97.65 180.16 92.84
  C 185.46 89.28 193.60 86.51 198.06 92.95
  Q 200.54 96.54 199.98 101.14
  Q 198.77 111.23 197.03 122.64
  C 196.69 124.92 194.96 124.59 193.51 125.54
  A 0.51 0.51 0.0 0 0 193.79 126.48
  L 202.74 126.48
  A 0.59 0.59 0.0 0 0 203.33 125.94
  L 203.35 125.66
  Q 203.36 125.60 203.30 125.58
  Q 201.84 125.15 200.85 124.35
  Q 200.31 123.91 200.40 123.11
  C 200.94 118.31 201.36 113.04 205.32 109.81
  C 208.72 107.04 212.51 109.57 211.95 113.74
  Q 211.24 118.94 210.61 123.07
  A 1.80 1.79 -15.7 0 1 209.98 124.19
  Q 208.99 125.03 207.66 125.33
  A 0.79 0.78 -2.3 0 0 207.06 125.97
  L 207.02 126.24
  A 0.21 0.21 0.0 0 0 207.23 126.48
  L 216.25 126.45
  A 0.48 0.48 0.0 0 0 216.73 126.03
  Q 216.77 125.77 216.58 125.58
  C 216.01 124.99 214.95 124.85 214.28 124.16
  Q 213.90 123.76 214.00 123.21
  Q 214.95 118.36 215.18 114.47
  C 215.58 107.48 207.75 105.78 203.33 110.00
  Q 202.01 111.26 202.42 109.48
  Q 203.55 104.67 203.86 98.94
  C 204.03 95.93 203.26 93.41 201.39 91.06
  Q 194.74 82.70 184.03 86.13
  Q 178.23 87.98 173.10 91.28
  Q 168.55 94.20 164.03 97.23"
/>
<path stroke="#92a9cc" vector-effect="non-scaling-stroke" d="
  M 164.03 97.23
  Q 164.55 86.39 164.38 76.00
  C 164.26 68.44 162.52 59.84 157.65 53.83
  Q 154.03 49.37 150.32 48.96"
/>
<path stroke="#909cbf" vector-effect="non-scaling-stroke" d="
  M 150.32 48.96
  Q 143.73 46.28 135.87 47.59
  Q 118.60 50.47 111.41 52.03"
/>
<path stroke="#23468b" vector-effect="non-scaling-stroke" d="
  M 150.32 48.96
  Q 141.65 48.80 132.75 50.13
  Q 117.14 52.47 112.51 53.30
  Q 111.36 53.51 111.41 52.03"
/>
<path stroke="#23468b" vector-effect="non-scaling-stroke" d="
  M 164.03 97.23
  L 163.39 97.86
  A 1.45 1.45 0.0 0 1 160.95 96.56
  Q 161.07 95.93 161.45 95.34
  A 0.85 0.85 0.0 0 0 161.50 94.49
  Q 161.26 94.02 161.73 93.75
  A 0.80 0.79 -10.7 0 0 162.12 93.19
  Q 162.33 91.95 161.82 90.95
  Q 161.61 90.52 161.68 90.04
  Q 161.78 89.32 161.51 88.75
  Q 161.10 87.89 161.10 87.65
  Q 161.08 87.01 161.34 86.45"
/>
<path stroke="#92a9cc" vector-effect="non-scaling-stroke" d="
  M 161.34 86.45
  Q 161.62 86.99 161.62 87.26
  Q 161.61 88.64 161.76 87.27
  Q 162.12 83.98 161.41 80.21"
/>
<path stroke="#23468b" vector-effect="non-scaling-stroke" d="
  M 161.41 80.21
  Q 161.93 73.96 160.36 67.87"
/>
<path stroke="#92a9cc" vector-effect="non-scaling-stroke" d="
  M 160.36 67.87
  Q 159.23 61.44 155.89 57.89"
/>
<path stroke="#23468b" vector-effect="non-scaling-stroke" d="
  M 155.89 57.89
  Q 154.63 57.24 153.62 56.12
  Q 152.29 54.65 151.57 54.23
  Q 149.34 52.90 147.50 53.09"
/>
<path stroke="#909cbf" vector-effect="non-scaling-stroke" d="
  M 155.89 57.89
  L 160.25 68.92
  Q 160.43 69.36 160.54 68.90
  Q 160.69 68.25 160.36 67.87"
/>
<path stroke="#909cbf" vector-effect="non-scaling-stroke" d="
  M 161.41 80.21
  L 161.34 86.45"
/>
<path stroke="#c0d993" vector-effect="non-scaling-stroke" d="
  M 149.68 131.87
  C 164.28 135.19 178.41 128.99 187.27 117.21
  C 190.46 112.99 193.57 106.93 194.52 101.35
  Q 194.73 100.12 194.11 101.20
  Q 193.37 102.51 192.64 103.85
  Q 186.84 114.58 175.92 119.48
  C 153.68 129.45 126.64 112.53 129.72 87.24
  Q 131.55 72.14 141.13 60.94
  C 142.06 59.84 143.44 58.98 144.43 57.90
  Q 145.12 57.14 144.14 57.42
  Q 130.81 61.16 124.88 73.26
  C 113.42 96.60 122.83 125.77 149.68 131.87"
/>
<path stroke="#c0d993" vector-effect="non-scaling-stroke" d="
  M 282.20 93.18
  Q 282.19 93.98 281.45 93.67
  C 273.40 90.31 266.39 102.11 273.38 106.89
  Q 275.68 108.46 278.85 107.38
  Q 279.33 107.21 279.84 107.26
  L 284.98 107.67
  Q 285.85 107.74 285.90 106.87
  L 285.91 106.46
  Q 285.92 106.40 285.86 106.38
  Q 284.74 106.00 284.05 105.42
  Q 283.74 105.16 283.79 104.76
  L 286.31 87.02
  A 0.70 0.70 0.0 0 0 285.51 86.22
  L 281.49 86.82
  Q 279.26 87.16 281.27 88.17
  L 282.48 88.78
  A 0.75 0.73 -66.9 0 1 282.84 89.70
  Q 282.23 91.34 282.20 93.18"
/>
<path stroke="#aecd95" vector-effect="non-scaling-stroke" d="
  M 239.63 101.76
  L 236.15 88.32
  Q 236.01 87.76 235.44 87.68
  Q 233.31 87.37 230.91 87.68
  Q 228.91 87.94 230.58 89.06
  Q 231.06 89.38 231.58 89.64
  A 0.99 0.99 0.0 0 1 232.11 90.66
  L 229.92 105.00
  A 0.78 0.77 -3.8 0 1 229.38 105.61
  L 227.92 106.07
  Q 227.45 106.22 227.27 106.68
  Q 227.15 106.97 227.35 107.33
  A 0.58 0.57 -16.7 0 0 227.92 107.63
  Q 230.46 107.40 232.82 107.64
  Q 233.26 107.68 233.60 107.38
  Q 233.94 107.07 233.50 106.40
  A 0.88 0.82 78.7 0 0 233.03 106.06
  L 231.99 105.77
  Q 231.40 105.61 231.49 105.00
  L 233.22 93.03
  Q 233.43 91.55 233.81 93.00
  L 237.61 107.50
  Q 237.96 108.85 238.64 107.64
  L 247.06 92.55
  Q 247.12 92.44 247.25 92.46
  Q 247.41 92.48 247.48 92.59
  Q 247.57 92.76 247.53 92.95
  Q 246.51 97.92 245.94 103.32
  Q 245.67 105.82 243.12 106.25
  A 0.38 0.38 0.0 0 0 242.81 106.71
  L 242.86 106.96
  A 0.84 0.84 0.0 0 0 243.69 107.62
  L 250.77 107.59
  A 0.40 0.39 88.6 0 0 251.16 107.17
  L 251.15 106.85
  A 0.95 0.93 9.3 0 0 250.53 106.00
  L 249.32 105.56
  Q 248.82 105.38 248.89 104.85
  L 250.94 90.80
  A 1.33 1.30 -17.0 0 1 251.37 90.01
  Q 251.94 89.51 252.65 89.18
  Q 255.39 87.91 252.38 87.59
  Q 250.49 87.40 248.67 87.63
  Q 248.03 87.71 247.72 88.27
  L 240.16 101.83
  Q 239.81 102.45 239.63 101.76"
/>
<path stroke="#aecd95" vector-effect="non-scaling-stroke" d="
  M 257.97 101.13
  L 267.42 100.35
  Q 268.00 100.30 267.99 99.72
  C 267.90 93.71 262.21 91.15 257.47 94.33
  Q 253.90 96.73 253.44 100.91
  C 252.73 107.37 260.34 109.68 264.59 106.02
  Q 267.88 103.19 263.77 104.59
  Q 263.71 104.61 262.62 105.44
  C 259.17 108.08 257.16 104.61 257.48 101.60
  Q 257.53 101.17 257.97 101.13"
/>
<path stroke="#909cbf" vector-effect="non-scaling-stroke" d="
  M 225.3599 110.9541
  A 1.72 1.50 -25.7 0 0 223.1595 110.3484
  A 1.72 1.50 -25.7 0 0 222.2601 112.4459
  A 1.72 1.50 -25.7 0 0 224.4605 113.0516
  A 1.72 1.50 -25.7 0 0 225.3599 110.9541"
/>
<path stroke="#92a9cc" vector-effect="non-scaling-stroke" d="
  M 291.4703 110.9645
  A 1.69 1.47 -24.3 0 0 289.3251 110.3202
  A 1.69 1.47 -24.3 0 0 288.3897 112.3555
  A 1.69 1.47 -24.3 0 0 290.5349 112.9998
  A 1.69 1.47 -24.3 0 0 291.4703 110.9645"
/>
<path stroke="#92a9cc" vector-effect="non-scaling-stroke" d="
  M 282.62 115.23
  Q 283.52 114.98 284.50 115.04
  A 1.23 1.22 79.1 0 0 285.68 113.29
  Q 284.76 111.35 282.90 112.69
  Q 282.07 113.28 281.55 114.14
  Q 281.17 114.77 280.48 114.53
  Q 275.30 112.76 272.01 116.77
  C 269.82 119.45 270.87 123.22 274.30 124.21
  Q 275.73 124.62 277.18 124.84
  C 278.98 125.11 279.98 127.02 279.18 128.66
  Q 277.63 131.81 273.38 131.20
  Q 272.99 131.14 272.97 131.53
  L 272.96 131.96
  A 0.65 0.64 -88.2 0 0 273.58 132.63
  C 276.11 132.71 280.03 132.11 281.63 130.00
  C 283.19 127.94 282.78 125.45 280.38 124.25
  Q 279.74 123.93 280.31 123.50
  Q 284.94 119.96 282.38 115.84
  Q 282.09 115.37 282.62 115.23"
/>
<path stroke="#909cbf" vector-effect="non-scaling-stroke" d="
  M 230.21 116.89
  L 229.19 123.69
  Q 229.10 124.30 228.55 124.57
  L 227.22 125.24
  Q 227.02 125.34 226.90 125.53
  Q 226.79 125.69 226.81 125.86
  Q 226.87 126.49 227.50 126.48
  L 233.47 126.40
  A 0.48 0.48 0.0 0 0 233.88 125.67
  Q 233.42 124.90 232.50 124.74
  Q 231.92 124.63 231.95 124.04
  C 232.10 121.25 232.85 115.61 236.21 115.26
  Q 236.96 115.19 236.95 115.94
  L 236.94 117.24
  Q 236.94 117.81 237.48 117.99
  Q 238.65 118.39 239.52 117.38
  A 1.87 1.87 0.0 0 0 238.88 114.46
  Q 236.71 113.47 234.49 114.53
  Q 234.05 114.74 233.58 114.60
  Q 231.42 113.95 228.68 114.54
  Q 228.31 114.62 228.21 114.98
  Q 228.15 115.17 228.22 115.34
  Q 228.43 115.85 228.99 115.90
  Q 229.42 115.93 229.79 116.11
  A 0.74 0.74 0.0 0 1 230.21 116.89"
/>
<path stroke="#909cbf" vector-effect="non-scaling-stroke" d="
  M 253.74 123.72
  L 255.07 114.72
  Q 255.17 114.03 254.48 114.11
  L 250.73 114.53
  Q 249.44 114.68 250.34 115.62
  Q 250.76 116.07 251.34 116.17
  Q 252.00 116.27 251.95 116.94
  C 251.72 119.78 250.98 124.84 247.62 125.20
  Q 245.13 125.47 245.31 122.89
  Q 245.60 118.71 246.51 114.77
  Q 246.66 114.09 245.97 114.15
  L 241.95 114.53
  Q 241.48 114.57 241.40 115.03
  Q 241.36 115.27 241.51 115.47
  Q 241.73 115.76 242.08 115.85
  Q 242.51 115.97 242.93 116.15
  A 0.90 0.89 -70.2 0 1 243.44 117.24
  C 242.29 120.91 241.45 126.38 246.99 126.67
  Q 248.25 126.74 249.38 126.06
  A 1.30 1.28 -49.9 0 1 250.46 125.96
  Q 252.70 126.78 255.10 126.37
  A 0.58 0.58 0.0 0 0 255.45 125.42
  Q 255.03 124.93 254.40 124.74
  Q 253.62 124.52 253.74 123.72"
/>
<path stroke="#909cbf" vector-effect="non-scaling-stroke" d="
  M 266.99 116.02
  Q 266.85 116.47 266.91 116.94
  A 1.34 1.34 0.0 0 0 269.08 117.82
  Q 269.67 117.34 269.86 116.64
  A 1.84 1.84 0.0 0 0 268.81 114.46
  Q 266.48 113.47 264.37 114.53
  A 0.96 0.95 -49.7 0 1 263.69 114.59
  Q 261.37 113.93 258.70 114.52
  Q 258.50 114.56 258.37 114.71
  Q 258.13 114.98 258.26 115.30
  Q 258.47 115.79 258.99 115.87
  Q 259.48 115.94 259.86 116.23
  Q 260.32 116.58 260.23 117.14
  L 259.21 123.66
  Q 259.11 124.33 258.52 124.64
  Q 258.03 124.91 257.51 125.06
  Q 257.18 125.15 257.00 125.45
  Q 256.86 125.69 256.87 125.96
  A 0.42 0.41 0.7 0 0 257.28 126.37
  L 263.27 126.44
  A 0.61 0.61 0.0 0 0 263.75 125.44
  Q 263.28 124.88 262.53 124.71
  Q 261.91 124.57 261.96 123.94
  C 262.21 120.94 262.84 115.89 266.26 115.20
  A 0.64 0.64 0.0 0 1 266.99 116.02"
/>
<path stroke="#92a9cc" vector-effect="non-scaling-stroke" d="
  M 298.20 120.88
  L 305.77 120.20
  A 1.00 1.00 0.0 0 0 306.66 119.03
  C 305.09 110.12 293.84 114.21 294.23 121.74
  C 294.51 127.28 301.74 128.22 304.68 124.08
  Q 305.54 122.87 304.17 123.46
  C 302.34 124.24 299.92 126.62 298.21 124.24
  Q 297.44 123.16 297.54 121.56
  Q 297.58 120.93 298.20 120.88"
/>
<path stroke="#909cbf" vector-effect="non-scaling-stroke" d="
  M 220.29 124.57
  L 219.00 125.03
  Q 218.61 125.17 218.49 125.57
  Q 218.44 125.78 218.50 125.99
  Q 218.66 126.50 219.19 126.50
  L 225.09 126.44
  A 0.53 0.53 0.0 0 0 225.52 125.60
  Q 225.10 125.01 224.39 124.73
  Q 223.58 124.41 223.71 123.55
  L 225.02 114.76
  A 0.49 0.49 0.0 0 0 224.50 114.20
  L 220.79 114.52
  Q 219.40 114.63 220.32 115.68
  Q 220.65 116.06 221.16 116.14
  A 0.82 0.81 -81.8 0 1 221.83 117.04
  L 220.97 123.71
  Q 220.89 124.35 220.29 124.57"
/>
<path stroke="#92a9cc" vector-effect="non-scaling-stroke" d="
  M 289.77 123.74
  L 291.17 114.71
  A 0.42 0.42 0.0 0 0 290.72 114.22
  L 286.64 114.58
  Q 285.76 114.65 286.24 115.40
  Q 286.52 115.85 287.05 115.94
  Q 288.15 116.13 288.00 117.23
  L 287.11 123.73
  Q 287.03 124.32 286.48 124.56
  L 284.70 125.34
  A 0.34 0.34 0.0 0 0 284.51 125.75
  L 284.58 126.00
  A 0.64 0.63 80.9 0 0 285.20 126.46
  L 291.06 126.39
  A 0.62 0.62 0.0 0 0 291.51 125.36
  Q 291.06 124.86 290.41 124.70
  Q 289.65 124.52 289.77 123.74"
/>
<path stroke="#92a9cc" vector-effect="non-scaling-stroke" d="
  M 190.60 128.57
  C 179.03 129.04 167.43 134.04 167.81 147.64
  Q 167.85 149.35 168.60 147.82
  Q 175.07 134.63 189.18 130.14
  Q 190.07 129.86 190.85 129.41
  Q 192.47 128.49 190.60 128.57"
/>
<path stroke="#92a9cc" vector-effect="non-scaling-stroke" d="
  M 145.27 135.25
  Q 129.55 125.00 114.26 135.65
  Q 111.94 137.27 114.73 136.79
  C 130.98 133.98 147.60 140.10 160.00 151.06
  Q 160.32 151.34 160.75 151.25
  A 0.31 0.30 -23.6 0 0 160.94 150.78
  Q 154.49 141.25 145.27 135.25"
/>
<path stroke="#c0d993" vector-effect="non-scaling-stroke" d="
  M 277.1363 106.4051
  A 6.02 3.27 97.0 0 0 281.1156 100.8285
  A 6.02 3.27 97.0 0 0 278.6037 94.4549
  A 6.02 3.27 97.0 0 0 274.6244 100.0315
  A 6.02 3.27 97.0 0 0 277.1363 106.4051"
/>
<path stroke="#aecd95" vector-effect="non-scaling-stroke" d="
  M 260.24 94.59
  A 1.12 1.12 0.0 0 0 259.26 95.14
  L 257.66 97.82
  A 1.12 1.12 0.0 0 0 258.71 99.50
  L 263.09 99.15
  A 1.12 1.12 0.0 0 0 264.04 97.63
  L 263.16 95.35
  A 1.12 1.12 0.0 0 0 262.14 94.63
  L 260.24 94.59"
/>
<path stroke="#92a9cc" vector-effect="non-scaling-stroke" d="
  M 276.3876 123.2249
  A 4.04 2.79 100.3 0 0 279.8550 119.7489
  A 4.04 2.79 100.3 0 0 277.8324 115.2751
  A 4.04 2.79 100.3 0 0 274.3650 118.7511
  A 4.04 2.79 100.3 0 0 276.3876 123.2249"
/>
<path stroke="#92a9cc" vector-effect="non-scaling-stroke" d="
  M 298.25 119.60
  L 303.29 118.90
  A 0.26 0.26 0.0 0 0 303.51 118.61
  L 303.49 118.46
  A 3.51 2.76 82.1 0 0 300.27 115.36
  L 300.19 115.37
  A 3.51 2.76 82.1 0 0 297.94 119.23
  L 297.96 119.38
  A 0.26 0.26 0.0 0 0 298.25 119.60"
/>
</g>
<path fill="#ffffff" d="
  M 0.00 0.00
  L 400.00 0.00
  L 400.00 195.00
  L 0.00 195.00
  L 0.00 0.00
  Z
  M 159.41 24.81
  A 11.25 11.11 -1.4 0 0 152.05 27.33
  A 11.25 11.11 -0.7 0 0 148.04 37.50
  A 11.26 11.13 -0.9 0 0 157.28 46.89
  A 11.27 11.13 -0.8 0 0 170.29 37.84
  A 11.27 11.12 -0.4 0 0 159.41 24.81
  Z
  M 111.41 52.03
  Q 110.60 54.94 112.48 56.06
  C 115.69 57.99 119.48 60.53 123.15 59.20
  Q 130.10 56.67 136.63 54.39
  Q 141.38 52.73 147.50 53.09
  Q 154.73 56.45 156.88 63.99
  Q 158.34 69.12 158.47 75.48
  Q 158.72 88.16 158.32 99.38
  C 158.15 104.28 162.67 105.07 166.02 102.66
  Q 172.97 97.65 180.16 92.84
  C 185.46 89.28 193.60 86.51 198.06 92.95
  Q 200.54 96.54 199.98 101.14
  Q 198.77 111.23 197.03 122.64
  C 196.69 124.92 194.96 124.59 193.51 125.54
  A 0.51 0.51 0.0 0 0 193.79 126.48
  L 202.74 126.48
  A 0.59 0.59 0.0 0 0 203.33 125.94
  L 203.35 125.66
  Q 203.36 125.60 203.30 125.58
  Q 201.84 125.15 200.85 124.35
  Q 200.31 123.91 200.40 123.11
  C 200.94 118.31 201.36 113.04 205.32 109.81
  C 208.72 107.04 212.51 109.57 211.95 113.74
  Q 211.24 118.94 210.61 123.07
  A 1.80 1.79 -15.7 0 1 209.98 124.19
  Q 208.99 125.03 207.66 125.33
  A 0.79 0.78 -2.3 0 0 207.06 125.97
  L 207.02 126.24
  A 0.21 0.21 0.0 0 0 207.23 126.48
  L 216.25 126.45
  A 0.48 0.48 0.0 0 0 216.73 126.03
  Q 216.77 125.77 216.58 125.58
  C 216.01 124.99 214.95 124.85 214.28 124.16
  Q 213.90 123.76 214.00 123.21
  Q 214.95 118.36 215.18 114.47
  C 215.58 107.48 207.75 105.78 203.33 110.00
  Q 202.01 111.26 202.42 109.48
  Q 203.55 104.67 203.86 98.94
  C 204.03 95.93 203.26 93.41 201.39 91.06
  Q 194.74 82.70 184.03 86.13
  Q 178.23 87.98 173.10 91.28
  Q 168.55 94.20 164.03 97.23
  Q 164.55 86.39 164.38 76.00
  C 164.26 68.44 162.52 59.84 157.65 53.83
  Q 154.03 49.37 150.32 48.96
  Q 143.73 46.28 135.87 47.59
  Q 118.60 50.47 111.41 52.03
  Z
  M 149.68 131.87
  C 164.28 135.19 178.41 128.99 187.27 117.21
  C 190.46 112.99 193.57 106.93 194.52 101.35
  Q 194.73 100.12 194.11 101.20
  Q 193.37 102.51 192.64 103.85
  Q 186.84 114.58 175.92 119.48
  C 153.68 129.45 126.64 112.53 129.72 87.24
  Q 131.55 72.14 141.13 60.94
  C 142.06 59.84 143.44 58.98 144.43 57.90
  Q 145.12 57.14 144.14 57.42
  Q 130.81 61.16 124.88 73.26
  C 113.42 96.60 122.83 125.77 149.68 131.87
  Z
  M 282.20 93.18
  Q 282.19 93.98 281.45 93.67
  C 273.40 90.31 266.39 102.11 273.38 106.89
  Q 275.68 108.46 278.85 107.38
  Q 279.33 107.21 279.84 107.26
  L 284.98 107.67
  Q 285.85 107.74 285.90 106.87
  L 285.91 106.46
  Q 285.92 106.40 285.86 106.38
  Q 284.74 106.00 284.05 105.42
  Q 283.74 105.16 283.79 104.76
  L 286.31 87.02
  A 0.70 0.70 0.0 0 0 285.51 86.22
  L 281.49 86.82
  Q 279.26 87.16 281.27 88.17
  L 282.48 88.78
  A 0.75 0.73 -66.9 0 1 282.84 89.70
  Q 282.23 91.34 282.20 93.18
  Z
  M 239.63 101.76
  L 236.15 88.32
  Q 236.01 87.76 235.44 87.68
  Q 233.31 87.37 230.91 87.68
  Q 228.91 87.94 230.58 89.06
  Q 231.06 89.38 231.58 89.64
  A 0.99 0.99 0.0 0 1 232.11 90.66
  L 229.92 105.00
  A 0.78 0.77 -3.8 0 1 229.38 105.61
  L 227.92 106.07
  Q 227.45 106.22 227.27 106.68
  Q 227.15 106.97 227.35 107.33
  A 0.58 0.57 -16.7 0 0 227.92 107.63
  Q 230.46 107.40 232.82 107.64
  Q 233.26 107.68 233.60 107.38
  Q 233.94 107.07 233.50 106.40
  A 0.88 0.82 78.7 0 0 233.03 106.06
  L 231.99 105.77
  Q 231.40 105.61 231.49 105.00
  L 233.22 93.03
  Q 233.43 91.55 233.81 93.00
  L 237.61 107.50
  Q 237.96 108.85 238.64 107.64
  L 247.06 92.55
  Q 247.12 92.44 247.25 92.46
  Q 247.41 92.48 247.48 92.59
  Q 247.57 92.76 247.53 92.95
  Q 246.51 97.92 245.94 103.32
  Q 245.67 105.82 243.12 106.25
  A 0.38 0.38 0.0 0 0 242.81 106.71
  L 242.86 106.96
  A 0.84 0.84 0.0 0 0 243.69 107.62
  L 250.77 107.59
  A 0.40 0.39 88.6 0 0 251.16 107.17
  L 251.15 106.85
  A 0.95 0.93 9.3 0 0 250.53 106.00
  L 249.32 105.56
  Q 248.82 105.38 248.89 104.85
  L 250.94 90.80
  A 1.33 1.30 -17.0 0 1 251.37 90.01
  Q 251.94 89.51 252.65 89.18
  Q 255.39 87.91 252.38 87.59
  Q 250.49 87.40 248.67 87.63
  Q 248.03 87.71 247.72 88.27
  L 240.16 101.83
  Q 239.81 102.45 239.63 101.76
  Z
  M 257.97 101.13
  L 267.42 100.35
  Q 268.00 100.30 267.99 99.72
  C 267.90 93.71 262.21 91.15 257.47 94.33
  Q 253.90 96.73 253.44 100.91
  C 252.73 107.37 260.34 109.68 264.59 106.02
  Q 267.88 103.19 263.77 104.59
  Q 263.71 104.61 262.62 105.44
  C 259.17 108.08 257.16 104.61 257.48 101.60
  Q 257.53 101.17 257.97 101.13
  Z
  M 225.3599 110.9541
  A 1.72 1.50 -25.7 0 0 223.1595 110.3484
  A 1.72 1.50 -25.7 0 0 222.2601 112.4459
  A 1.72 1.50 -25.7 0 0 224.4605 113.0516
  A 1.72 1.50 -25.7 0 0 225.3599 110.9541
  Z
  M 291.4703 110.9645
  A 1.69 1.47 -24.3 0 0 289.3251 110.3202
  A 1.69 1.47 -24.3 0 0 288.3897 112.3555
  A 1.69 1.47 -24.3 0 0 290.5349 112.9998
  A 1.69 1.47 -24.3 0 0 291.4703 110.9645
  Z
  M 282.62 115.23
  Q 283.52 114.98 284.50 115.04
  A 1.23 1.22 79.1 0 0 285.68 113.29
  Q 284.76 111.35 282.90 112.69
  Q 282.07 113.28 281.55 114.14
  Q 281.17 114.77 280.48 114.53
  Q 275.30 112.76 272.01 116.77
  C 269.82 119.45 270.87 123.22 274.30 124.21
  Q 275.73 124.62 277.18 124.84
  C 278.98 125.11 279.98 127.02 279.18 128.66
  Q 277.63 131.81 273.38 131.20
  Q 272.99 131.14 272.97 131.53
  L 272.96 131.96
  A 0.65 0.64 -88.2 0 0 273.58 132.63
  C 276.11 132.71 280.03 132.11 281.63 130.00
  C 283.19 127.94 282.78 125.45 280.38 124.25
  Q 279.74 123.93 280.31 123.50
  Q 284.94 119.96 282.38 115.84
  Q 282.09 115.37 282.62 115.23
  Z
  M 230.21 116.89
  L 229.19 123.69
  Q 229.10 124.30 228.55 124.57
  L 227.22 125.24
  Q 227.02 125.34 226.90 125.53
  Q 226.79 125.69 226.81 125.86
  Q 226.87 126.49 227.50 126.48
  L 233.47 126.40
  A 0.48 0.48 0.0 0 0 233.88 125.67
  Q 233.42 124.90 232.50 124.74
  Q 231.92 124.63 231.95 124.04
  C 232.10 121.25 232.85 115.61 236.21 115.26
  Q 236.96 115.19 236.95 115.94
  L 236.94 117.24
  Q 236.94 117.81 237.48 117.99
  Q 238.65 118.39 239.52 117.38
  A 1.87 1.87 0.0 0 0 238.88 114.46
  Q 236.71 113.47 234.49 114.53
  Q 234.05 114.74 233.58 114.60
  Q 231.42 113.95 228.68 114.54
  Q 228.31 114.62 228.21 114.98
  Q 228.15 115.17 228.22 115.34
  Q 228.43 115.85 228.99 115.90
  Q 229.42 115.93 229.79 116.11
  A 0.74 0.74 0.0 0 1 230.21 116.89
  Z
  M 253.74 123.72
  L 255.07 114.72
  Q 255.17 114.03 254.48 114.11
  L 250.73 114.53
  Q 249.44 114.68 250.34 115.62
  Q 250.76 116.07 251.34 116.17
  Q 252.00 116.27 251.95 116.94
  C 251.72 119.78 250.98 124.84 247.62 125.20
  Q 245.13 125.47 245.31 122.89
  Q 245.60 118.71 246.51 114.77
  Q 246.66 114.09 245.97 114.15
  L 241.95 114.53
  Q 241.48 114.57 241.40 115.03
  Q 241.36 115.27 241.51 115.47
  Q 241.73 115.76 242.08 115.85
  Q 242.51 115.97 242.93 116.15
  A 0.90 0.89 -70.2 0 1 243.44 117.24
  C 242.29 120.91 241.45 126.38 246.99 126.67
  Q 248.25 126.74 249.38 126.06
  A 1.30 1.28 -49.9 0 1 250.46 125.96
  Q 252.70 126.78 255.10 126.37
  A 0.58 0.58 0.0 0 0 255.45 125.42
  Q 255.03 124.93 254.40 124.74
  Q 253.62 124.52 253.74 123.72
  Z
  M 266.99 116.02
  Q 266.85 116.47 266.91 116.94
  A 1.34 1.34 0.0 0 0 269.08 117.82
  Q 269.67 117.34 269.86 116.64
  A 1.84 1.84 0.0 0 0 268.81 114.46
  Q 266.48 113.47 264.37 114.53
  A 0.96 0.95 -49.7 0 1 263.69 114.59
  Q 261.37 113.93 258.70 114.52
  Q 258.50 114.56 258.37 114.71
  Q 258.13 114.98 258.26 115.30
  Q 258.47 115.79 258.99 115.87
  Q 259.48 115.94 259.86 116.23
  Q 260.32 116.58 260.23 117.14
  L 259.21 123.66
  Q 259.11 124.33 258.52 124.64
  Q 258.03 124.91 257.51 125.06
  Q 257.18 125.15 257.00 125.45
  Q 256.86 125.69 256.87 125.96
  A 0.42 0.41 0.7 0 0 257.28 126.37
  L 263.27 126.44
  A 0.61 0.61 0.0 0 0 263.75 125.44
  Q 263.28 124.88 262.53 124.71
  Q 261.91 124.57 261.96 123.94
  C 262.21 120.94 262.84 115.89 266.26 115.20
  A 0.64 0.64 0.0 0 1 266.99 116.02
  Z
  M 298.20 120.88
  L 305.77 120.20
  A 1.00 1.00 0.0 0 0 306.66 119.03
  C 305.09 110.12 293.84 114.21 294.23 121.74
  C 294.51 127.28 301.74 128.22 304.68 124.08
  Q 305.54 122.87 304.17 123.46
  C 302.34 124.24 299.92 126.62 298.21 124.24
  Q 297.44 123.16 297.54 121.56
  Q 297.58 120.93 298.20 120.88
  Z
  M 220.29 124.57
  L 219.00 125.03
  Q 218.61 125.17 218.49 125.57
  Q 218.44 125.78 218.50 125.99
  Q 218.66 126.50 219.19 126.50
  L 225.09 126.44
  A 0.53 0.53 0.0 0 0 225.52 125.60
  Q 225.10 125.01 224.39 124.73
  Q 223.58 124.41 223.71 123.55
  L 225.02 114.76
  A 0.49 0.49 0.0 0 0 224.50 114.20
  L 220.79 114.52
  Q 219.40 114.63 220.32 115.68
  Q 220.65 116.06 221.16 116.14
  A 0.82 0.81 -81.8 0 1 221.83 117.04
  L 220.97 123.71
  Q 220.89 124.35 220.29 124.57
  Z
  M 289.77 123.74
  L 291.17 114.71
  A 0.42 0.42 0.0 0 0 290.72 114.22
  L 286.64 114.58
  Q 285.76 114.65 286.24 115.40
  Q 286.52 115.85 287.05 115.94
  Q 288.15 116.13 288.00 117.23
  L 287.11 123.73
  Q 287.03 124.32 286.48 124.56
  L 284.70 125.34
  A 0.34 0.34 0.0 0 0 284.51 125.75
  L 284.58 126.00
  A 0.64 0.63 80.9 0 0 285.20 126.46
  L 291.06 126.39
  A 0.62 0.62 0.0 0 0 291.51 125.36
  Q 291.06 124.86 290.41 124.70
  Q 289.65 124.52 289.77 123.74
  Z
  M 190.60 128.57
  C 179.03 129.04 167.43 134.04 167.81 147.64
  Q 167.85 149.35 168.60 147.82
  Q 175.07 134.63 189.18 130.14
  Q 190.07 129.86 190.85 129.41
  Q 192.47 128.49 190.60 128.57
  Z
  M 145.27 135.25
  Q 129.55 125.00 114.26 135.65
  Q 111.94 137.27 114.73 136.79
  C 130.98 133.98 147.60 140.10 160.00 151.06
  Q 160.32 151.34 160.75 151.25
  A 0.31 0.30 -23.6 0 0 160.94 150.78
  Q 154.49 141.25 145.27 135.25
  Z"
/>
<path fill="#80b226" d="
  M 157.28 46.89
  L 159.22 46.87
  Q 159.72 46.86 159.97 46.43
  Q 160.19 46.06 159.96 45.62
  Q 159.83 45.36 159.40 45.11
  Q 158.88 44.80 158.77 44.63
  Q 157.01 41.88 156.86 37.98
  Q 156.60 31.41 159.41 24.81
  A 11.27 11.12 -0.4 0 1 170.29 37.84
  A 11.27 11.13 -0.8 0 1 157.28 46.89
  Z"
/>
<path fill="#5c9a2a" d="
  M 159.41 24.81
  Q 156.60 31.41 156.86 37.98
  Q 157.01 41.88 158.77 44.63
  Q 158.88 44.80 159.40 45.11
  Q 159.83 45.36 159.96 45.62
  Q 160.19 46.06 159.97 46.43
  Q 159.72 46.86 159.22 46.87
  L 157.28 46.89
  A 11.26 11.13 -0.9 0 1 148.04 37.50
  A 11.25 11.11 -0.7 0 1 152.05 27.33
  A 11.25 11.11 -1.4 0 1 159.41 24.81
  Z"
/>
<path fill="#21387e" d="
  M 150.32 48.96
  Q 141.65 48.80 132.75 50.13
  Q 117.14 52.47 112.51 53.30
  Q 111.36 53.51 111.41 52.03
  Q 118.60 50.47 135.87 47.59
  Q 143.73 46.28 150.32 48.96
  Z"
/>
<path fill="#255398" d="
  M 150.32 48.96
  Q 154.03 49.37 157.65 53.83
  C 162.52 59.84 164.26 68.44 164.38 76.00
  Q 164.55 86.39 164.03 97.23
  L 163.39 97.86
  A 1.45 1.45 0.0 0 1 160.95 96.56
  Q 161.07 95.93 161.45 95.34
  A 0.85 0.85 0.0 0 0 161.50 94.49
  Q 161.26 94.02 161.73 93.75
  A 0.80 0.79 -10.7 0 0 162.12 93.19
  Q 162.33 91.95 161.82 90.95
  Q 161.61 90.52 161.68 90.04
  Q 161.78 89.32 161.51 88.75
  Q 161.10 87.89 161.10 87.65
  Q 161.08 87.01 161.34 86.45
  Q 161.62 86.99 161.62 87.26
  Q 161.61 88.64 161.76 87.27
  Q 162.12 83.98 161.41 80.21
  Q 161.93 73.96 160.36 67.87
  Q 159.23 61.44 155.89 57.89
  Q 154.63 57.24 153.62 56.12
  Q 152.29 54.65 151.57 54.23
  Q 149.34 52.90 147.50 53.09
  Q 141.38 52.73 136.63 54.39
  Q 130.10 56.67 123.15 59.20
  C 119.48 60.53 115.69 57.99 112.48 56.06
  Q 110.60 54.94 111.41 52.03
  Q 111.36 53.51 112.51 53.30
  Q 117.14 52.47 132.75 50.13
  Q 141.65 48.80 150.32 48.96
  Z"
/>
<path fill="#21387e" d="
  M 155.89 57.89
  L 160.25 68.92
  Q 160.43 69.36 160.54 68.90
  Q 160.69 68.25 160.36 67.87
  Q 161.93 73.96 161.41 80.21
  L 161.34 86.45
  Q 161.08 87.01 161.10 87.65
  Q 161.10 87.89 161.51 88.75
  Q 161.78 89.32 161.68 90.04
  Q 161.61 90.52 161.82 90.95
  Q 162.33 91.95 162.12 93.19
  A 0.80 0.79 -10.7 0 1 161.73 93.75
  Q 161.26 94.02 161.50 94.49
  A 0.85 0.85 0.0 0 1 161.45 95.34
  Q 161.07 95.93 160.95 96.56
  A 1.45 1.45 0.0 0 0 163.39 97.86
  L 164.03 97.23
  Q 168.55 94.20 173.10 91.28
  Q 178.23 87.98 184.03 86.13
  Q 194.74 82.70 201.39 91.06
  C 203.26 93.41 204.03 95.93 203.86 98.94
  Q 203.55 104.67 202.42 109.48
  Q 202.01 111.26 203.33 110.00
  C 207.75 105.78 215.58 107.48 215.18 114.47
  Q 214.95 118.36 214.00 123.21
  Q 213.90 123.76 214.28 124.16
  C 214.95 124.85 216.01 124.99 216.58 125.58
  Q 216.77 125.77 216.73 126.03
  A 0.48 0.48 0.0 0 1 216.25 126.45
  L 207.23 126.48
  A 0.21 0.21 0.0 0 1 207.02 126.24
  L 207.06 125.97
  A 0.79 0.78 -2.3 0 1 207.66 125.33
  Q 208.99 125.03 209.98 124.19
  A 1.80 1.79 -15.7 0 0 210.61 123.07
  Q 211.24 118.94 211.95 113.74
  C 212.51 109.57 208.72 107.04 205.32 109.81
  C 201.36 113.04 200.94 118.31 200.40 123.11
  Q 200.31 123.91 200.85 124.35
  Q 201.84 125.15 203.30 125.58
  Q 203.36 125.60 203.35 125.66
  L 203.33 125.94
  A 0.59 0.59 0.0 0 1 202.74 126.48
  L 193.79 126.48
  A 0.51 0.51 0.0 0 1 193.51 125.54
  C 194.96 124.59 196.69 124.92 197.03 122.64
  Q 198.77 111.23 199.98 101.14
  Q 200.54 96.54 198.06 92.95
  C 193.60 86.51 185.46 89.28 180.16 92.84
  Q 172.97 97.65 166.02 102.66
  C 162.67 105.07 158.15 104.28 158.32 99.38
  Q 158.72 88.16 158.47 75.48
  Q 158.34 69.12 156.88 63.99
  Q 154.73 56.45 147.50 53.09
  Q 149.34 52.90 151.57 54.23
  Q 152.29 54.65 153.62 56.12
  Q 154.63 57.24 155.89 57.89
  Z"
/>
<path fill="#80b226" d="
  M 149.68 131.87
  C 122.83 125.77 113.42 96.60 124.88 73.26
  Q 130.81 61.16 144.14 57.42
  Q 145.12 57.14 144.43 57.90
  C 143.44 58.98 142.06 59.84 141.13 60.94
  Q 131.55 72.14 129.72 87.24
  C 126.64 112.53 153.68 129.45 175.92 119.48
  Q 186.84 114.58 192.64 103.85
  Q 193.37 102.51 194.11 101.20
  Q 194.73 100.12 194.52 101.35
  C 193.57 106.93 190.46 112.99 187.27 117.21
  C 178.41 128.99 164.28 135.19 149.68 131.87
  Z"
/>
<path fill="#ffffff" d="
  M 160.36 67.87
  Q 160.69 68.25 160.54 68.90
  Q 160.43 69.36 160.25 68.92
  L 155.89 57.89
  Q 159.23 61.44 160.36 67.87
  Z"
/>
<path fill="#ffffff" d="
  M 161.41 80.21
  Q 162.12 83.98 161.76 87.27
  Q 161.61 88.64 161.62 87.26
  Q 161.62 86.99 161.34 86.45
  L 161.41 80.21
  Z"
/>
<path fill="#80b226" d="
  M 282.20 93.18
  Q 282.23 91.34 282.84 89.70
  A 0.75 0.73 -66.9 0 0 282.48 88.78
  L 281.27 88.17
  Q 279.26 87.16 281.49 86.82
  L 285.51 86.22
  A 0.70 0.70 0.0 0 1 286.31 87.02
  L 283.79 104.76
  Q 283.74 105.16 284.05 105.42
  Q 284.74 106.00 285.86 106.38
  Q 285.92 106.40 285.91 106.46
  L 285.90 106.87
  Q 285.85 107.74 284.98 107.67
  L 279.84 107.26
  Q 279.33 107.21 278.85 107.38
  Q 275.68 108.46 273.38 106.89
  C 266.39 102.11 273.40 90.31 281.45 93.67
  Q 282.19 93.98 282.20 93.18
  Z
  M 277.1363 106.4051
  A 6.02 3.27 97.0 0 0 281.1156 100.8285
  A 6.02 3.27 97.0 0 0 278.6037 94.4549
  A 6.02 3.27 97.0 0 0 274.6244 100.0315
  A 6.02 3.27 97.0 0 0 277.1363 106.4051
  Z"
/>
<path fill="#5c9a2a" d="
  M 239.63 101.76
  Q 239.81 102.45 240.16 101.83
  L 247.72 88.27
  Q 248.03 87.71 248.67 87.63
  Q 250.49 87.40 252.38 87.59
  Q 255.39 87.91 252.65 89.18
  Q 251.94 89.51 251.37 90.01
  A 1.33 1.30 -17.0 0 0 250.94 90.80
  L 248.89 104.85
  Q 248.82 105.38 249.32 105.56
  L 250.53 106.00
  A 0.95 0.93 9.3 0 1 251.15 106.85
  L 251.16 107.17
  A 0.40 0.39 88.6 0 1 250.77 107.59
  L 243.69 107.62
  A 0.84 0.84 0.0 0 1 242.86 106.96
  L 242.81 106.71
  A 0.38 0.38 0.0 0 1 243.12 106.25
  Q 245.67 105.82 245.94 103.32
  Q 246.51 97.92 247.53 92.95
  Q 247.57 92.76 247.48 92.59
  Q 247.41 92.48 247.25 92.46
  Q 247.12 92.44 247.06 92.55
  L 238.64 107.64
  Q 237.96 108.85 237.61 107.50
  L 233.81 93.00
  Q 233.43 91.55 233.22 93.03
  L 231.49 105.00
  Q 231.40 105.61 231.99 105.77
  L 233.03 106.06
  A 0.88 0.82 78.7 0 1 233.50 106.40
  Q 233.94 107.07 233.60 107.38
  Q 233.26 107.68 232.82 107.64
  Q 230.46 107.40 227.92 107.63
  A 0.58 0.57 -16.7 0 1 227.35 107.33
  Q 227.15 106.97 227.27 106.68
  Q 227.45 106.22 227.92 106.07
  L 229.38 105.61
  A 0.78 0.77 -3.8 0 0 229.92 105.00
  L 232.11 90.66
  A 0.99 0.99 0.0 0 0 231.58 89.64
  Q 231.06 89.38 230.58 89.06
  Q 228.91 87.94 230.91 87.68
  Q 233.31 87.37 235.44 87.68
  Q 236.01 87.76 236.15 88.32
  L 239.63 101.76
  Z"
/>
<path fill="#5c9a2a" d="
  M 257.48 101.60
  C 257.16 104.61 259.17 108.08 262.62 105.44
  Q 263.71 104.61 263.77 104.59
  Q 267.88 103.19 264.59 106.02
  C 260.34 109.68 252.73 107.37 253.44 100.91
  Q 253.90 96.73 257.47 94.33
  C 262.21 91.15 267.90 93.71 267.99 99.72
  Q 268.00 100.30 267.42 100.35
  L 257.97 101.13
  Q 257.53 101.17 257.48 101.60
  Z
  M 260.24 94.59
  A 1.12 1.12 0.0 0 0 259.26 95.14
  L 257.66 97.82
  A 1.12 1.12 0.0 0 0 258.71 99.50
  L 263.09 99.15
  A 1.12 1.12 0.0 0 0 264.04 97.63
  L 263.16 95.35
  A 1.12 1.12 0.0 0 0 262.14 94.63
  L 260.24 94.59
  Z"
/>
<path fill="#ffffff" d="
  M 260.24 94.59
  L 262.14 94.63
  A 1.12 1.12 0.0 0 1 263.16 95.35
  L 264.04 97.63
  A 1.12 1.12 0.0 0 1 263.09 99.15
  L 258.71 99.50
  A 1.12 1.12 0.0 0 1 257.66 97.82
  L 259.26 95.14
  A 1.12 1.12 0.0 0 1 260.24 94.59
  Z"
/>
<ellipse fill="#ffffff" cx="0.00" cy="0.00" transform="translate(277.87,100.43) rotate(97.0)" rx="6.02" ry="3.27"/>
<ellipse fill="#21387e" cx="0.00" cy="0.00" transform="translate(223.81,111.70) rotate(-25.7)" rx="1.72" ry="1.50"/>
<ellipse fill="#255398" cx="0.00" cy="0.00" transform="translate(289.93,111.66) rotate(-24.3)" rx="1.69" ry="1.47"/>
<path fill="#255398" d="
  M 282.38 115.84
  Q 284.94 119.96 280.31 123.50
  Q 279.74 123.93 280.38 124.25
  C 282.78 125.45 283.19 127.94 281.63 130.00
  C 280.03 132.11 276.11 132.71 273.58 132.63
  A 0.65 0.64 -88.2 0 1 272.96 131.96
  L 272.97 131.53
  Q 272.99 131.14 273.38 131.20
  Q 277.63 131.81 279.18 128.66
  C 279.98 127.02 278.98 125.11 277.18 124.84
  Q 275.73 124.62 274.30 124.21
  C 270.87 123.22 269.82 119.45 272.01 116.77
  Q 275.30 112.76 280.48 114.53
  Q 281.17 114.77 281.55 114.14
  Q 282.07 113.28 282.90 112.69
  Q 284.76 111.35 285.68 113.29
  A 1.23 1.22 79.1 0 1 284.50 115.04
  Q 283.52 114.98 282.62 115.23
  Q 282.09 115.37 282.38 115.84
  Z
  M 276.3876 123.2249
  A 4.04 2.79 100.3 0 0 279.8550 119.7489
  A 4.04 2.79 100.3 0 0 277.8324 115.2751
  A 4.04 2.79 100.3 0 0 274.3650 118.7511
  A 4.04 2.79 100.3 0 0 276.3876 123.2249
  Z"
/>
<path fill="#21387e" d="
  M 229.79 116.11
  Q 229.42 115.93 228.99 115.90
  Q 228.43 115.85 228.22 115.34
  Q 228.15 115.17 228.21 114.98
  Q 228.31 114.62 228.68 114.54
  Q 231.42 113.95 233.58 114.60
  Q 234.05 114.74 234.49 114.53
  Q 236.71 113.47 238.88 114.46
  A 1.87 1.87 0.0 0 1 239.52 117.38
  Q 238.65 118.39 237.48 117.99
  Q 236.94 117.81 236.94 117.24
  L 236.95 115.94
  Q 236.96 115.19 236.21 115.26
  C 232.85 115.61 232.10 121.25 231.95 124.04
  Q 231.92 124.63 232.50 124.74
  Q 233.42 124.90 233.88 125.67
  A 0.48 0.48 0.0 0 1 233.47 126.40
  L 227.50 126.48
  Q 226.87 126.49 226.81 125.86
  Q 226.79 125.69 226.90 125.53
  Q 227.02 125.34 227.22 125.24
  L 228.55 124.57
  Q 229.10 124.30 229.19 123.69
  L 230.21 116.89
  A 0.74 0.74 0.0 0 0 229.79 116.11
  Z"
/>
<path fill="#21387e" d="
  M 254.40 124.74
  Q 255.03 124.93 255.45 125.42
  A 0.58 0.58 0.0 0 1 255.10 126.37
  Q 252.70 126.78 250.46 125.96
  A 1.30 1.28 -49.9 0 0 249.38 126.06
  Q 248.25 126.74 246.99 126.67
  C 241.45 126.38 242.29 120.91 243.44 117.24
  A 0.90 0.89 -70.2 0 0 242.93 116.15
  Q 242.51 115.97 242.08 115.85
  Q 241.73 115.76 241.51 115.47
  Q 241.36 115.27 241.40 115.03
  Q 241.48 114.57 241.95 114.53
  L 245.97 114.15
  Q 246.66 114.09 246.51 114.77
  Q 245.60 118.71 245.31 122.89
  Q 245.13 125.47 247.62 125.20
  C 250.98 124.84 251.72 119.78 251.95 116.94
  Q 252.00 116.27 251.34 116.17
  Q 250.76 116.07 250.34 115.62
  Q 249.44 114.68 250.73 114.53
  L 254.48 114.11
  Q 255.17 114.03 255.07 114.72
  L 253.74 123.72
  Q 253.62 124.52 254.40 124.74
  Z"
/>
<path fill="#21387e" d="
  M 266.26 115.20
  C 262.84 115.89 262.21 120.94 261.96 123.94
  Q 261.91 124.57 262.53 124.71
  Q 263.28 124.88 263.75 125.44
  A 0.61 0.61 0.0 0 1 263.27 126.44
  L 257.28 126.37
  A 0.42 0.41 0.7 0 1 256.87 125.96
  Q 256.86 125.69 257.00 125.45
  Q 257.18 125.15 257.51 125.06
  Q 258.03 124.91 258.52 124.64
  Q 259.11 124.33 259.21 123.66
  L 260.23 117.14
  Q 260.32 116.58 259.86 116.23
  Q 259.48 115.94 258.99 115.87
  Q 258.47 115.79 258.26 115.30
  Q 258.13 114.98 258.37 114.71
  Q 258.50 114.56 258.70 114.52
  Q 261.37 113.93 263.69 114.59
  A 0.96 0.95 -49.7 0 0 264.37 114.53
  Q 266.48 113.47 268.81 114.46
  A 1.84 1.84 0.0 0 1 269.86 116.64
  Q 269.67 117.34 269.08 117.82
  A 1.34 1.34 0.0 0 1 266.91 116.94
  Q 266.85 116.47 266.99 116.02
  A 0.64 0.64 0.0 0 0 266.26 115.20
  Z"
/>
<path fill="#255398" d="
  M 297.54 121.56
  Q 297.44 123.16 298.21 124.24
  C 299.92 126.62 302.34 124.24 304.17 123.46
  Q 305.54 122.87 304.68 124.08
  C 301.74 128.22 294.51 127.28 294.23 121.74
  C 293.84 114.21 305.09 110.12 306.66 119.03
  A 1.00 1.00 0.0 0 1 305.77 120.20
  L 298.20 120.88
  Q 297.58 120.93 297.54 121.56
  Z
  M 298.25 119.60
  L 303.29 118.90
  A 0.26 0.26 0.0 0 0 303.51 118.61
  L 303.49 118.46
  A 3.51 2.76 82.1 0 0 300.27 115.36
  L 300.19 115.37
  A 3.51 2.76 82.1 0 0 297.94 119.23
  L 297.96 119.38
  A 0.26 0.26 0.0 0 0 298.25 119.60
  Z"
/>
<path fill="#21387e" d="
  M 220.97 123.71
  L 221.83 117.04
  A 0.82 0.81 -81.8 0 0 221.16 116.14
  Q 220.65 116.06 220.32 115.68
  Q 219.40 114.63 220.79 114.52
  L 224.50 114.20
  A 0.49 0.49 0.0 0 1 225.02 114.76
  L 223.71 123.55
  Q 223.58 124.41 224.39 124.73
  Q 225.10 125.01 225.52 125.60
  A 0.53 0.53 0.0 0 1 225.09 126.44
  L 219.19 126.50
  Q 218.66 126.50 218.50 125.99
  Q 218.44 125.78 218.49 125.57
  Q 218.61 125.17 219.00 125.03
  L 220.29 124.57
  Q 220.89 124.35 220.97 123.71
  Z"
/>
<path fill="#255398" d="
  M 290.41 124.70
  Q 291.06 124.86 291.51 125.36
  A 0.62 0.62 0.0 0 1 291.06 126.39
  L 285.20 126.46
  A 0.64 0.63 80.9 0 1 284.58 126.00
  L 284.51 125.75
  A 0.34 0.34 0.0 0 1 284.70 125.34
  L 286.48 124.56
  Q 287.03 124.32 287.11 123.73
  L 288.00 117.23
  Q 288.15 116.13 287.05 115.94
  Q 286.52 115.85 286.24 115.40
  Q 285.76 114.65 286.64 114.58
  L 290.72 114.22
  A 0.42 0.42 0.0 0 1 291.17 114.71
  L 289.77 123.74
  Q 289.65 124.52 290.41 124.70
  Z"
/>
<ellipse fill="#ffffff" cx="0.00" cy="0.00" transform="translate(277.11,119.25) rotate(100.3)" rx="4.04" ry="2.79"/>
<path fill="#ffffff" d="
  M 298.25 119.60
  A 0.26 0.26 0.0 0 1 297.96 119.38
  L 297.94 119.23
  A 3.51 2.76 82.1 0 1 300.19 115.37
  L 300.27 115.36
  A 3.51 2.76 82.1 0 1 303.49 118.46
  L 303.51 118.61
  A 0.26 0.26 0.0 0 1 303.29 118.90
  L 298.25 119.60
  Z"
/>
<path fill="#255398" d="
  M 190.60 128.57
  Q 192.47 128.49 190.85 129.41
  Q 190.07 129.86 189.18 130.14
  Q 175.07 134.63 168.60 147.82
  Q 167.85 149.35 167.81 147.64
  C 167.43 134.04 179.03 129.04 190.60 128.57
  Z"
/>
<path fill="#255398" d="
  M 145.27 135.25
  Q 154.49 141.25 160.94 150.78
  A 0.31 0.30 -23.6 0 1 160.75 151.25
  Q 160.32 151.34 160.00 151.06
  C 147.60 140.10 130.98 133.98 114.73 136.79
  Q 111.94 137.27 114.26 135.65
  Q 129.55 125.00 145.27 135.25
  Z"
/>
</svg>
