<?xml version="1.0" encoding="UTF-8" standalone="no"?>
<!DOCTYPE svg PUBLIC "-//W3C//DTD SVG 1.1//EN" "http://www.w3.org/Graphics/SVG/1.1/DTD/svg11.dtd">
<svg xmlns="http://www.w3.org/2000/svg" version="1.1" viewBox="0.00 0.00 400.00 195.00">
<g stroke-width="2.00" fill="none" stroke-linecap="butt">
<path stroke="#86adcc" vector-effect="non-scaling-stroke" d="
  M 52.38 64.59
  L 56.71 106.25
  A 0.21 0.21 0.0 0 0 57.06 106.38
  Q 57.21 106.25 57.31 106.07
  Q 57.43 105.85 57.45 105.61
  Q 59.46 85.30 61.69 64.45
  A 0.43 0.41 -86.9 0 0 61.28 63.98
  L 52.92 64.00
  Q 52.32 64.00 52.38 64.59"
/>
<path stroke="#eda792" vector-effect="non-scaling-stroke" d="
  M 44.05 90.96
  Q 46.31 86.26 46.73 81.81
  C 47.22 76.64 43.68 71.55 38.84 69.70
  Q 36.07 68.66 37.95 70.94
  C 40.82 74.45 40.18 79.87 38.40 83.77
  C 34.70 91.88 29.74 100.91 35.45 109.66
  Q 39.44 115.77 47.77 117.49
  Q 57.65 119.54 67.04 117.22
  C 75.49 115.14 82.12 109.45 81.24 100.45
  C 80.59 93.81 74.51 89.49 68.20 88.62
  Q 65.59 88.26 67.79 89.70
  Q 72.38 92.72 73.33 98.79
  C 75.06 109.98 65.53 117.48 55.02 116.44
  Q 49.11 115.86 45.66 113.10
  C 38.60 107.45 40.54 98.26 44.05 90.96"
/>
<path stroke="#86adcc" vector-effect="non-scaling-stroke" d="
  M 162.0839 117.5087
  A 17.12 16.68 97.1 0 0 180.7521 102.5817
  A 17.12 16.68 97.1 0 0 166.3161 83.5313
  A 17.12 16.68 97.1 0 0 147.6479 98.4583
  A 17.12 16.68 97.1 0 0 162.0839 117.5087"
/>
<path stroke="#86adcc" vector-effect="non-scaling-stroke" d="
  M 346.83 116.46
  C 351.31 117.70 356.49 118.15 360.95 116.66
  C 368.81 114.03 369.48 104.42 362.51 100.29
  Q 358.84 98.12 354.86 96.11
  C 352.53 94.93 350.56 92.90 350.86 90.06
  C 351.39 84.93 357.56 84.22 361.29 86.17
  A 1.51 1.50 -88.8 0 1 361.99 86.90
  Q 363.06 89.22 364.05 91.72
  Q 364.26 92.25 364.80 92.19
  A 0.63 0.62 -6.7 0 0 365.34 91.51
  L 364.68 85.72
  Q 364.59 84.85 363.75 84.59
  C 357.53 82.61 345.72 83.04 346.42 92.64
  C 346.85 98.47 353.12 101.20 357.75 103.50
  Q 360.34 104.78 361.65 106.90
  C 363.59 110.04 361.81 114.11 358.38 115.25
  Q 354.06 116.70 349.63 114.66
  A 1.52 1.51 -88.1 0 1 348.85 113.82
  Q 347.80 111.00 346.42 107.94
  Q 346.34 107.76 346.14 107.81
  L 345.82 107.89
  A 0.61 0.61 0.0 0 0 345.37 108.54
  L 346.17 115.70
  A 0.90 0.89 4.4 0 0 346.83 116.46"
/>
<path stroke="#86adcc" vector-effect="non-scaling-stroke" d="
  M 221.16 114.51
  A 0.68 0.67 -74.1 0 1 220.67 113.62
  L 223.30 106.43
  A 1.44 1.44 0.0 0 1 224.65 105.49
  L 235.31 105.50
  A 0.95 0.95 0.0 0 1 236.20 106.12
  L 238.99 113.55
  A 0.73 0.72 -16.4 0 1 238.46 114.51
  L 234.83 115.28
  A 0.36 0.35 -9.8 0 0 234.55 115.67
  L 234.59 116.01
  A 0.63 0.61 86.3 0 0 235.20 116.56
  L 248.12 116.58
  Q 248.46 116.58 248.45 116.24
  L 248.44 115.88
  Q 248.43 115.37 247.94 115.23
  L 245.44 114.48
  Q 244.76 114.28 244.51 113.62
  L 233.44 84.32
  A 0.78 0.78 0.0 0 0 232.71 83.81
  C 231.25 83.82 229.50 84.23 228.91 85.80
  Q 223.52 100.17 218.62 113.11
  C 218.07 114.56 216.43 115.03 215.04 115.20
  A 0.59 0.58 -4.9 0 0 214.53 115.80
  L 214.53 116.07
  Q 214.55 116.50 214.97 116.50
  L 224.66 116.61
  Q 225.52 116.61 225.12 115.86
  L 224.97 115.59
  Q 224.82 115.30 224.50 115.23
  L 221.16 114.51"
/>
<path stroke="#86adcc" vector-effect="non-scaling-stroke" d="
  M 115.24 90.74
  Q 115.24 89.88 115.77 90.56
  Q 125.96 103.58 136.14 116.73
  Q 136.65 117.39 137.44 117.22
  A 0.44 0.44 0.0 0 0 137.79 116.79
  L 137.73 87.82
  A 1.17 1.16 -19.8 0 1 138.16 86.92
  Q 139.10 86.15 140.58 86.03
  Q 141.19 85.98 141.23 85.36
  L 141.25 85.03
  Q 141.28 84.56 140.81 84.56
  L 131.82 84.50
  A 0.61 0.61 0.0 0 0 131.21 85.17
  L 131.25 85.58
  A 0.40 0.39 89.2 0 0 131.62 85.94
  Q 133.57 86.08 134.99 86.67
  Q 135.54 86.90 135.54 87.50
  L 135.61 106.27
  Q 135.61 107.90 134.62 106.61
  L 118.31 85.48
  A 2.54 2.53 70.9 0 0 116.28 84.49
  L 110.25 84.55
  Q 107.66 84.58 109.91 85.85
  Q 110.66 86.28 111.52 86.44
  A 2.16 2.15 -84.5 0 1 113.26 88.56
  L 113.24 113.63
  A 0.92 0.92 0.0 0 1 112.61 114.50
  L 109.92 115.38
  A 0.32 0.31 -17.9 0 0 109.71 115.77
  L 109.82 116.10
  Q 109.98 116.63 110.55 116.63
  L 119.36 116.51
  A 0.30 0.29 -3.6 0 0 119.65 116.19
  L 119.63 115.82
  A 0.68 0.68 0.0 0 0 119.10 115.21
  L 115.94 114.48
  A 0.88 0.87 6.7 0 1 115.26 113.63
  L 115.24 90.74"
/>
<path stroke="#86adcc" vector-effect="non-scaling-stroke" d="
  M 201.63 109.69
  L 193.46 87.47
  A 0.65 0.65 0.0 0 1 193.88 86.62
  Q 195.26 86.19 196.70 85.91
  Q 197.00 85.86 197.21 85.65
  Q 197.49 85.37 197.29 84.87
  A 0.51 0.49 78.4 0 0 196.83 84.55
  L 184.51 84.51
  A 0.40 0.40 0.0 0 0 184.11 84.87
  L 184.08 85.19
  A 0.60 0.59 -81.9 0 0 184.57 85.85
  C 185.88 86.06 187.51 86.59 188.03 87.96
  Q 193.28 101.85 198.70 116.07
  A 1.90 1.89 75.6 0 0 200.72 117.27
  Q 202.00 117.09 202.41 116.00
  Q 207.44 102.75 213.16 87.38
  Q 213.34 86.89 213.83 86.71
  L 216.49 85.74
  A 0.29 0.27 -14.2 0 0 216.68 85.44
  L 216.65 85.15
  A 0.68 0.67 86.7 0 0 215.98 84.55
  L 207.87 84.53
  Q 207.47 84.53 207.18 84.79
  Q 207.01 84.95 207.04 85.16
  Q 207.13 85.78 207.74 85.90
  L 210.05 86.36
  A 1.03 1.02 15.9 0 1 210.81 87.71
  L 202.69 109.69
  Q 202.16 111.13 201.63 109.69"
/>
<path stroke="#86adcc" vector-effect="non-scaling-stroke" d="
  M 263.02 102.00
  Q 264.49 101.86 265.77 102.15
  Q 266.34 102.28 266.66 102.77
  L 275.12 115.95
  Q 275.54 116.60 276.31 116.60
  L 283.85 116.60
  A 0.35 0.34 -89.1 0 0 284.19 116.26
  L 284.19 115.90
  A 0.57 0.56 -85.2 0 0 283.72 115.34
  C 281.91 115.03 279.87 114.51 278.82 112.87
  Q 274.96 106.84 271.29 101.60
  A 0.48 0.48 0.0 0 1 271.54 100.86
  C 274.22 100.03 277.10 98.20 278.02 95.45
  C 280.24 88.84 274.06 84.77 268.44 84.57
  Q 261.41 84.31 253.62 84.60
  A 0.37 0.36 87.7 0 0 253.27 84.99
  L 253.28 85.29
  A 0.54 0.54 0.0 0 0 253.70 85.79
  L 256.56 86.47
  Q 257.25 86.63 257.25 87.35
  L 257.28 113.53
  Q 257.28 114.35 256.49 114.57
  L 253.74 115.31
  A 0.54 0.53 81.2 0 0 253.35 115.85
  L 253.36 116.14
  A 0.40 0.40 0.0 0 0 253.76 116.52
  L 266.16 116.62
  A 0.69 0.69 0.0 0 0 266.85 115.94
  L 266.86 115.63
  A 0.36 0.35 8.2 0 0 266.59 115.28
  L 263.04 114.50
  A 0.96 0.96 0.0 0 1 262.29 113.56
  L 262.32 102.77
  A 0.79 0.78 87.5 0 1 263.02 102.00"
/>
<path stroke="#86adcc" vector-effect="non-scaling-stroke" d="
  M 303.82 113.65
  L 303.80 86.98
  A 0.72 0.71 -0.0 0 1 304.52 86.27
  L 310.64 86.28
  A 1.54 1.53 -11.1 0 1 312.06 87.23
  L 313.69 91.24
  A 0.59 0.59 0.0 0 0 314.42 91.58
  Q 314.94 91.42 314.89 91.04
  Q 314.42 87.67 314.33 85.11
  A 0.59 0.58 89.0 0 0 313.75 84.54
  L 288.96 84.52
  A 0.61 0.60 3.8 0 0 288.36 85.04
  L 287.58 90.97
  A 0.55 0.55 0.0 0 0 288.39 91.53
  Q 288.78 91.32 289.00 90.90
  Q 289.85 89.26 290.38 87.57
  A 1.81 1.81 0.0 0 1 292.08 86.30
  L 297.70 86.24
  A 0.96 0.95 89.7 0 1 298.66 87.20
  L 298.71 113.31
  A 0.95 0.94 73.0 0 1 298.30 114.09
  Q 296.88 115.05 294.62 115.20
  Q 294.22 115.22 294.20 115.62
  L 294.18 115.99
  Q 294.14 116.67 294.82 116.66
  L 308.18 116.50
  A 0.36 0.36 0.0 0 0 308.52 116.04
  L 308.45 115.77
  A 0.79 0.79 0.0 0 0 307.86 115.22
  L 304.49 114.49
  Q 303.82 114.34 303.82 113.65"
/>
<path stroke="#86adcc" vector-effect="non-scaling-stroke" d="
  M 326.50 114.45
  L 323.12 115.24
  Q 322.65 115.35 322.58 115.83
  L 322.54 116.10
  A 0.38 0.38 0.0 0 0 322.92 116.53
  L 336.34 116.57
  Q 336.87 116.57 336.92 116.04
  Q 336.97 115.54 336.52 115.42
  Q 334.56 114.88 332.77 114.39
  A 0.70 0.69 -82.3 0 1 332.26 113.72
  L 332.28 87.70
  Q 332.28 87.04 332.87 86.75
  Q 334.22 86.09 335.93 86.00
  A 0.99 0.98 -82.9 0 0 336.83 85.29
  L 336.91 85.03
  Q 337.05 84.56 336.56 84.56
  L 323.26 84.53
  Q 321.49 84.53 322.92 85.57
  Q 324.07 86.42 325.73 86.40
  A 1.36 1.36 0.0 0 1 327.11 87.76
  L 327.14 113.64
  A 0.83 0.82 -7.0 0 1 326.50 114.45"
/>
<path stroke="#86adcc" vector-effect="non-scaling-stroke" d="
  M 165.9250 115.9871
  A 15.53 11.06 83.4 0 0 175.1267 99.2888
  A 15.53 11.06 83.4 0 0 162.3550 85.1329
  A 15.53 11.06 83.4 0 0 153.1533 101.8312
  A 15.53 11.06 83.4 0 0 165.9250 115.9871"
/>
<path stroke="#86adcc" vector-effect="non-scaling-stroke" d="
  M 224.61 102.80
  A 0.32 0.32 0.0 0 0 224.91 103.23
  L 234.77 103.23
  A 0.32 0.32 0.0 0 0 235.07 102.80
  L 230.14 89.88
  A 0.32 0.32 0.0 0 0 229.54 89.88
  L 224.61 102.80"
/>
<path stroke="#86adcc" vector-effect="non-scaling-stroke" d="
  M 262.32 86.85
  L 262.30 99.65
  A 0.57 0.57 0.0 0 0 262.87 100.22
  L 264.67 100.22
  A 8.53 6.68 0.1 0 0 273.21 93.56
  L 273.21 92.98
  A 8.53 6.68 0.1 0 0 264.69 86.28
  L 262.89 86.28
  A 0.57 0.57 0.0 0 0 262.32 86.85"
/>
</g>
<path fill="#ffffff" d="
  M 0.00 0.00
  L 400.00 0.00
  L 400.00 195.00
  L 0.00 195.00
  L 0.00 0.00
  Z
  M 52.38 64.59
  L 56.71 106.25
  A 0.21 0.21 0.0 0 0 57.06 106.38
  Q 57.21 106.25 57.31 106.07
  Q 57.43 105.85 57.45 105.61
  Q 59.46 85.30 61.69 64.45
  A 0.43 0.41 -86.9 0 0 61.28 63.98
  L 52.92 64.00
  Q 52.32 64.00 52.38 64.59
  Z
  M 44.05 90.96
  Q 46.31 86.26 46.73 81.81
  C 47.22 76.64 43.68 71.55 38.84 69.70
  Q 36.07 68.66 37.95 70.94
  C 40.82 74.45 40.18 79.87 38.40 83.77
  C 34.70 91.88 29.74 100.91 35.45 109.66
  Q 39.44 115.77 47.77 117.49
  Q 57.65 119.54 67.04 117.22
  C 75.49 115.14 82.12 109.45 81.24 100.45
  C 80.59 93.81 74.51 89.49 68.20 88.62
  Q 65.59 88.26 67.79 89.70
  Q 72.38 92.72 73.33 98.79
  C 75.06 109.98 65.53 117.48 55.02 116.44
  Q 49.11 115.86 45.66 113.10
  C 38.60 107.45 40.54 98.26 44.05 90.96
  Z
  M 162.0839 117.5087
  A 17.12 16.68 97.1 0 0 180.7521 102.5817
  A 17.12 16.68 97.1 0 0 166.3161 83.5313
  A 17.12 16.68 97.1 0 0 147.6479 98.4583
  A 17.12 16.68 97.1 0 0 162.0839 117.5087
  Z
  M 346.83 116.46
  C 351.31 117.70 356.49 118.15 360.95 116.66
  C 368.81 114.03 369.48 104.42 362.51 100.29
  Q 358.84 98.12 354.86 96.11
  C 352.53 94.93 350.56 92.90 350.86 90.06
  C 351.39 84.93 357.56 84.22 361.29 86.17
  A 1.51 1.50 -88.8 0 1 361.99 86.90
  Q 363.06 89.22 364.05 91.72
  Q 364.26 92.25 364.80 92.19
  A 0.63 0.62 -6.7 0 0 365.34 91.51
  L 364.68 85.72
  Q 364.59 84.85 363.75 84.59
  C 357.53 82.61 345.72 83.04 346.42 92.64
  C 346.85 98.47 353.12 101.20 357.75 103.50
  Q 360.34 104.78 361.65 106.90
  C 363.59 110.04 361.81 114.11 358.38 115.25
  Q 354.06 116.70 349.63 114.66
  A 1.52 1.51 -88.1 0 1 348.85 113.82
  Q 347.80 111.00 346.42 107.94
  Q 346.34 107.76 346.14 107.81
  L 345.82 107.89
  A 0.61 0.61 0.0 0 0 345.37 108.54
  L 346.17 115.70
  A 0.90 0.89 4.4 0 0 346.83 116.46
  Z
  M 221.16 114.51
  A 0.68 0.67 -74.1 0 1 220.67 113.62
  L 223.30 106.43
  A 1.44 1.44 0.0 0 1 224.65 105.49
  L 235.31 105.50
  A 0.95 0.95 0.0 0 1 236.20 106.12
  L 238.99 113.55
  A 0.73 0.72 -16.4 0 1 238.46 114.51
  L 234.83 115.28
  A 0.36 0.35 -9.8 0 0 234.55 115.67
  L 234.59 116.01
  A 0.63 0.61 86.3 0 0 235.20 116.56
  L 248.12 116.58
  Q 248.46 116.58 248.45 116.24
  L 248.44 115.88
  Q 248.43 115.37 247.94 115.23
  L 245.44 114.48
  Q 244.76 114.28 244.51 113.62
  L 233.44 84.32
  A 0.78 0.78 0.0 0 0 232.71 83.81
  C 231.25 83.82 229.50 84.23 228.91 85.80
  Q 223.52 100.17 218.62 113.11
  C 218.07 114.56 216.43 115.03 215.04 115.20
  A 0.59 0.58 -4.9 0 0 214.53 115.80
  L 214.53 116.07
  Q 214.55 116.50 214.97 116.50
  L 224.66 116.61
  Q 225.52 116.61 225.12 115.86
  L 224.97 115.59
  Q 224.82 115.30 224.50 115.23
  L 221.16 114.51
  Z
  M 115.24 90.74
  Q 115.24 89.88 115.77 90.56
  Q 125.96 103.58 136.14 116.73
  Q 136.65 117.39 137.44 117.22
  A 0.44 0.44 0.0 0 0 137.79 116.79
  L 137.73 87.82
  A 1.17 1.16 -19.8 0 1 138.16 86.92
  Q 139.10 86.15 140.58 86.03
  Q 141.19 85.98 141.23 85.36
  L 141.25 85.03
  Q 141.28 84.56 140.81 84.56
  L 131.82 84.50
  A 0.61 0.61 0.0 0 0 131.21 85.17
  L 131.25 85.58
  A 0.40 0.39 89.2 0 0 131.62 85.94
  Q 133.57 86.08 134.99 86.67
  Q 135.54 86.90 135.54 87.50
  L 135.61 106.27
  Q 135.61 107.90 134.62 106.61
  L 118.31 85.48
  A 2.54 2.53 70.9 0 0 116.28 84.49
  L 110.25 84.55
  Q 107.66 84.58 109.91 85.85
  Q 110.66 86.28 111.52 86.44
  A 2.16 2.15 -84.5 0 1 113.26 88.56
  L 113.24 113.63
  A 0.92 0.92 0.0 0 1 112.61 114.50
  L 109.92 115.38
  A 0.32 0.31 -17.9 0 0 109.71 115.77
  L 109.82 116.10
  Q 109.98 116.63 110.55 116.63
  L 119.36 116.51
  A 0.30 0.29 -3.6 0 0 119.65 116.19
  L 119.63 115.82
  A 0.68 0.68 0.0 0 0 119.10 115.21
  L 115.94 114.48
  A 0.88 0.87 6.7 0 1 115.26 113.63
  L 115.24 90.74
  Z
  M 201.63 109.69
  L 193.46 87.47
  A 0.65 0.65 0.0 0 1 193.88 86.62
  Q 195.26 86.19 196.70 85.91
  Q 197.00 85.86 197.21 85.65
  Q 197.49 85.37 197.29 84.87
  A 0.51 0.49 78.4 0 0 196.83 84.55
  L 184.51 84.51
  A 0.40 0.40 0.0 0 0 184.11 84.87
  L 184.08 85.19
  A 0.60 0.59 -81.9 0 0 184.57 85.85
  C 185.88 86.06 187.51 86.59 188.03 87.96
  Q 193.28 101.85 198.70 116.07
  A 1.90 1.89 75.6 0 0 200.72 117.27
  Q 202.00 117.09 202.41 116.00
  Q 207.44 102.75 213.16 87.38
  Q 213.34 86.89 213.83 86.71
  L 216.49 85.74
  A 0.29 0.27 -14.2 0 0 216.68 85.44
  L 216.65 85.15
  A 0.68 0.67 86.7 0 0 215.98 84.55
  L 207.87 84.53
  Q 207.47 84.53 207.18 84.79
  Q 207.01 84.95 207.04 85.16
  Q 207.13 85.78 207.74 85.90
  L 210.05 86.36
  A 1.03 1.02 15.9 0 1 210.81 87.71
  L 202.69 109.69
  Q 202.16 111.13 201.63 109.69
  Z
  M 263.02 102.00
  Q 264.49 101.86 265.77 102.15
  Q 266.34 102.28 266.66 102.77
  L 275.12 115.95
  Q 275.54 116.60 276.31 116.60
  L 283.85 116.60
  A 0.35 0.34 -89.1 0 0 284.19 116.26
  L 284.19 115.90
  A 0.57 0.56 -85.2 0 0 283.72 115.34
  C 281.91 115.03 279.87 114.51 278.82 112.87
  Q 274.96 106.84 271.29 101.60
  A 0.48 0.48 0.0 0 1 271.54 100.86
  C 274.22 100.03 277.10 98.20 278.02 95.45
  C 280.24 88.84 274.06 84.77 268.44 84.57
  Q 261.41 84.31 253.62 84.60
  A 0.37 0.36 87.7 0 0 253.27 84.99
  L 253.28 85.29
  A 0.54 0.54 0.0 0 0 253.70 85.79
  L 256.56 86.47
  Q 257.25 86.63 257.25 87.35
  L 257.28 113.53
  Q 257.28 114.35 256.49 114.57
  L 253.74 115.31
  A 0.54 0.53 81.2 0 0 253.35 115.85
  L 253.36 116.14
  A 0.40 0.40 0.0 0 0 253.76 116.52
  L 266.16 116.62
  A 0.69 0.69 0.0 0 0 266.85 115.94
  L 266.86 115.63
  A 0.36 0.35 8.2 0 0 266.59 115.28
  L 263.04 114.50
  A 0.96 0.96 0.0 0 1 262.29 113.56
  L 262.32 102.77
  A 0.79 0.78 87.5 0 1 263.02 102.00
  Z
  M 303.82 113.65
  L 303.80 86.98
  A 0.72 0.71 -0.0 0 1 304.52 86.27
  L 310.64 86.28
  A 1.54 1.53 -11.1 0 1 312.06 87.23
  L 313.69 91.24
  A 0.59 0.59 0.0 0 0 314.42 91.58
  Q 314.94 91.42 314.89 91.04
  Q 314.42 87.67 314.33 85.11
  A 0.59 0.58 89.0 0 0 313.75 84.54
  L 288.96 84.52
  A 0.61 0.60 3.8 0 0 288.36 85.04
  L 287.58 90.97
  A 0.55 0.55 0.0 0 0 288.39 91.53
  Q 288.78 91.32 289.00 90.90
  Q 289.85 89.26 290.38 87.57
  A 1.81 1.81 0.0 0 1 292.08 86.30
  L 297.70 86.24
  A 0.96 0.95 89.7 0 1 298.66 87.20
  L 298.71 113.31
  A 0.95 0.94 73.0 0 1 298.30 114.09
  Q 296.88 115.05 294.62 115.20
  Q 294.22 115.22 294.20 115.62
  L 294.18 115.99
  Q 294.14 116.67 294.82 116.66
  L 308.18 116.50
  A 0.36 0.36 0.0 0 0 308.52 116.04
  L 308.45 115.77
  A 0.79 0.79 0.0 0 0 307.86 115.22
  L 304.49 114.49
  Q 303.82 114.34 303.82 113.65
  Z
  M 326.50 114.45
  L 323.12 115.24
  Q 322.65 115.35 322.58 115.83
  L 322.54 116.10
  A 0.38 0.38 0.0 0 0 322.92 116.53
  L 336.34 116.57
  Q 336.87 116.57 336.92 116.04
  Q 336.97 115.54 336.52 115.42
  Q 334.56 114.88 332.77 114.39
  A 0.70 0.69 -82.3 0 1 332.26 113.72
  L 332.28 87.70
  Q 332.28 87.04 332.87 86.75
  Q 334.22 86.09 335.93 86.00
  A 0.99 0.98 -82.9 0 0 336.83 85.29
  L 336.91 85.03
  Q 337.05 84.56 336.56 84.56
  L 323.26 84.53
  Q 321.49 84.53 322.92 85.57
  Q 324.07 86.42 325.73 86.40
  A 1.36 1.36 0.0 0 1 327.11 87.76
  L 327.14 113.64
  A 0.83 0.82 -7.0 0 1 326.50 114.45
  Z"
/>
<path fill="#0d5b98" d="
  M 56.71 106.25
  L 52.38 64.59
  Q 52.32 64.00 52.92 64.00
  L 61.28 63.98
  A 0.43 0.41 -86.9 0 1 61.69 64.45
  Q 59.46 85.30 57.45 105.61
  Q 57.43 105.85 57.31 106.07
  Q 57.21 106.25 57.06 106.38
  A 0.21 0.21 0.0 0 1 56.71 106.25
  Z"
/>
<path fill="#db4e24" d="
  M 44.05 90.96
  C 40.54 98.26 38.60 107.45 45.66 113.10
  Q 49.11 115.86 55.02 116.44
  C 65.53 117.48 75.06 109.98 73.33 98.79
  Q 72.38 92.72 67.79 89.70
  Q 65.59 88.26 68.20 88.62
  C 74.51 89.49 80.59 93.81 81.24 100.45
  C 82.12 109.45 75.49 115.14 67.04 117.22
  Q 57.65 119.54 47.77 117.49
  Q 39.44 115.77 35.45 109.66
  C 29.74 100.91 34.70 91.88 38.40 83.77
  C 40.18 79.87 40.82 74.45 37.95 70.94
  Q 36.07 68.66 38.84 69.70
  C 43.68 71.55 47.22 76.64 46.73 81.81
  Q 46.31 86.26 44.05 90.96
  Z"
/>
<path fill="#0d5b98" d="
  M 162.0839 117.5087
  A 17.12 16.68 97.1 0 1 147.6479 98.4583
  A 17.12 16.68 97.1 0 1 166.3161 83.5313
  A 17.12 16.68 97.1 0 1 180.7521 102.5817
  A 17.12 16.68 97.1 0 1 162.0839 117.5087
  Z
  M 165.9250 115.9871
  A 15.53 11.06 83.4 0 0 175.1267 99.2888
  A 15.53 11.06 83.4 0 0 162.3550 85.1329
  A 15.53 11.06 83.4 0 0 153.1533 101.8312
  A 15.53 11.06 83.4 0 0 165.9250 115.9871
  Z"
/>
<path fill="#0d5b98" d="
  M 360.95 116.66
  C 356.49 118.15 351.31 117.70 346.83 116.46
  A 0.90 0.89 4.4 0 1 346.17 115.70
  L 345.37 108.54
  A 0.61 0.61 0.0 0 1 345.82 107.89
  L 346.14 107.81
  Q 346.34 107.76 346.42 107.94
  Q 347.80 111.00 348.85 113.82
  A 1.52 1.51 -88.1 0 0 349.63 114.66
  Q 354.06 116.70 358.38 115.25
  C 361.81 114.11 363.59 110.04 361.65 106.90
  Q 360.34 104.78 357.75 103.50
  C 353.12 101.20 346.85 98.47 346.42 92.64
  C 345.72 83.04 357.53 82.61 363.75 84.59
  Q 364.59 84.85 364.68 85.72
  L 365.34 91.51
  A 0.63 0.62 -6.7 0 1 364.80 92.19
  Q 364.26 92.25 364.05 91.72
  Q 363.06 89.22 361.99 86.90
  A 1.51 1.50 -88.8 0 0 361.29 86.17
  C 357.56 84.22 351.39 84.93 350.86 90.06
  C 350.56 92.90 352.53 94.93 354.86 96.11
  Q 358.84 98.12 362.51 100.29
  C 369.48 104.42 368.81 114.03 360.95 116.66
  Z"
/>
<path fill="#0d5b98" d="
  M 221.16 114.51
  L 224.50 115.23
  Q 224.82 115.30 224.97 115.59
  L 225.12 115.86
  Q 225.52 116.61 224.66 116.61
  L 214.97 116.50
  Q 214.55 116.50 214.53 116.07
  L 214.53 115.80
  A 0.59 0.58 -4.9 0 1 215.04 115.20
  C 216.43 115.03 218.07 114.56 218.62 113.11
  Q 223.52 100.17 228.91 85.80
  C 229.50 84.23 231.25 83.82 232.71 83.81
  A 0.78 0.78 0.0 0 1 233.44 84.32
  L 244.51 113.62
  Q 244.76 114.28 245.44 114.48
  L 247.94 115.23
  Q 248.43 115.37 248.44 115.88
  L 248.45 116.24
  Q 248.46 116.58 248.12 116.58
  L 235.20 116.56
  A 0.63 0.61 86.3 0 1 234.59 116.01
  L 234.55 115.67
  A 0.36 0.35 -9.8 0 1 234.83 115.28
  L 238.46 114.51
  A 0.73 0.72 -16.4 0 0 238.99 113.55
  L 236.20 106.12
  A 0.95 0.95 0.0 0 0 235.31 105.50
  L 224.65 105.49
  A 1.44 1.44 0.0 0 0 223.30 106.43
  L 220.67 113.62
  A 0.68 0.67 -74.1 0 0 221.16 114.51
  Z
  M 224.61 102.80
  A 0.32 0.32 0.0 0 0 224.91 103.23
  L 234.77 103.23
  A 0.32 0.32 0.0 0 0 235.07 102.80
  L 230.14 89.88
  A 0.32 0.32 0.0 0 0 229.54 89.88
  L 224.61 102.80
  Z"
/>
<path fill="#0d5b98" d="
  M 115.24 90.74
  L 115.26 113.63
  A 0.88 0.87 6.7 0 0 115.94 114.48
  L 119.10 115.21
  A 0.68 0.68 0.0 0 1 119.63 115.82
  L 119.65 116.19
  A 0.30 0.29 -3.6 0 1 119.36 116.51
  L 110.55 116.63
  Q 109.98 116.63 109.82 116.10
  L 109.71 115.77
  A 0.32 0.31 -17.9 0 1 109.92 115.38
  L 112.61 114.50
  A 0.92 0.92 0.0 0 0 113.24 113.63
  L 113.26 88.56
  A 2.16 2.15 -84.5 0 0 111.52 86.44
  Q 110.66 86.28 109.91 85.85
  Q 107.66 84.58 110.25 84.55
  L 116.28 84.49
  A 2.54 2.53 70.9 0 1 118.31 85.48
  L 134.62 106.61
  Q 135.61 107.90 135.61 106.27
  L 135.54 87.50
  Q 135.54 86.90 134.99 86.67
  Q 133.57 86.08 131.62 85.94
  A 0.40 0.39 89.2 0 1 131.25 85.58
  L 131.21 85.17
  A 0.61 0.61 0.0 0 1 131.82 84.50
  L 140.81 84.56
  Q 141.28 84.56 141.25 85.03
  L 141.23 85.36
  Q 141.19 85.98 140.58 86.03
  Q 139.10 86.15 138.16 86.92
  A 1.17 1.16 -19.8 0 0 137.73 87.82
  L 137.79 116.79
  A 0.44 0.44 0.0 0 1 137.44 117.22
  Q 136.65 117.39 136.14 116.73
  Q 125.96 103.58 115.77 90.56
  Q 115.24 89.88 115.24 90.74
  Z"
/>
<path fill="#0d5b98" d="
  M 201.63 109.69
  Q 202.16 111.13 202.69 109.69
  L 210.81 87.71
  A 1.03 1.02 15.9 0 0 210.05 86.36
  L 207.74 85.90
  Q 207.13 85.78 207.04 85.16
  Q 207.01 84.95 207.18 84.79
  Q 207.47 84.53 207.87 84.53
  L 215.98 84.55
  A 0.68 0.67 86.7 0 1 216.65 85.15
  L 216.68 85.44
  A 0.29 0.27 -14.2 0 1 216.49 85.74
  L 213.83 86.71
  Q 213.34 86.89 213.16 87.38
  Q 207.44 102.75 202.41 116.00
  Q 202.00 117.09 200.72 117.27
  A 1.90 1.89 75.6 0 1 198.70 116.07
  Q 193.28 101.85 188.03 87.96
  C 187.51 86.59 185.88 86.06 184.57 85.85
  A 0.60 0.59 -81.9 0 1 184.08 85.19
  L 184.11 84.87
  A 0.40 0.40 0.0 0 1 184.51 84.51
  L 196.83 84.55
  A 0.51 0.49 78.4 0 1 197.29 84.87
  Q 197.49 85.37 197.21 85.65
  Q 197.00 85.86 196.70 85.91
  Q 195.26 86.19 193.88 86.62
  A 0.65 0.65 0.0 0 0 193.46 87.47
  L 201.63 109.69
  Z"
/>
<path fill="#0d5b98" d="
  M 262.32 102.77
  L 262.29 113.56
  A 0.96 0.96 0.0 0 0 263.04 114.50
  L 266.59 115.28
  A 0.36 0.35 8.2 0 1 266.86 115.63
  L 266.85 115.94
  A 0.69 0.69 0.0 0 1 266.16 116.62
  L 253.76 116.52
  A 0.40 0.40 0.0 0 1 253.36 116.14
  L 253.35 115.85
  A 0.54 0.53 81.2 0 1 253.74 115.31
  L 256.49 114.57
  Q 257.28 114.35 257.28 113.53
  L 257.25 87.35
  Q 257.25 86.63 256.56 86.47
  L 253.70 85.79
  A 0.54 0.54 0.0 0 1 253.28 85.29
  L 253.27 84.99
  A 0.37 0.36 87.7 0 1 253.62 84.60
  Q 261.41 84.31 268.44 84.57
  C 274.06 84.77 280.24 88.84 278.02 95.45
  C 277.10 98.20 274.22 100.03 271.54 100.86
  A 0.48 0.48 0.0 0 0 271.29 101.60
  Q 274.96 106.84 278.82 112.87
  C 279.87 114.51 281.91 115.03 283.72 115.34
  A 0.57 0.56 -85.2 0 1 284.19 115.90
  L 284.19 116.26
  A 0.35 0.34 -89.1 0 1 283.85 116.60
  L 276.31 116.60
  Q 275.54 116.60 275.12 115.95
  L 266.66 102.77
  Q 266.34 102.28 265.77 102.15
  Q 264.49 101.86 263.02 102.00
  A 0.79 0.78 87.5 0 0 262.32 102.77
  Z
  M 262.32 86.85
  L 262.30 99.65
  A 0.57 0.57 0.0 0 0 262.87 100.22
  L 264.67 100.22
  A 8.53 6.68 0.1 0 0 273.21 93.56
  L 273.21 92.98
  A 8.53 6.68 0.1 0 0 264.69 86.28
  L 262.89 86.28
  A 0.57 0.57 0.0 0 0 262.32 86.85
  Z"
/>
<path fill="#0d5b98" d="
  M 304.49 114.49
  L 307.86 115.22
  A 0.79 0.79 0.0 0 1 308.45 115.77
  L 308.52 116.04
  A 0.36 0.36 0.0 0 1 308.18 116.50
  L 294.82 116.66
  Q 294.14 116.67 294.18 115.99
  L 294.20 115.62
  Q 294.22 115.22 294.62 115.20
  Q 296.88 115.05 298.30 114.09
  A 0.95 0.94 73.0 0 0 298.71 113.31
  L 298.66 87.20
  A 0.96 0.95 89.7 0 0 297.70 86.24
  L 292.08 86.30
  A 1.81 1.81 0.0 0 0 290.38 87.57
  Q 289.85 89.26 289.00 90.90
  Q 288.78 91.32 288.39 91.53
  A 0.55 0.55 0.0 0 1 287.58 90.97
  L 288.36 85.04
  A 0.61 0.60 3.8 0 1 288.96 84.52
  L 313.75 84.54
  A 0.59 0.58 89.0 0 1 314.33 85.11
  Q 314.42 87.67 314.89 91.04
  Q 314.94 91.42 314.42 91.58
  A 0.59 0.59 0.0 0 1 313.69 91.24
  L 312.06 87.23
  A 1.54 1.53 -11.1 0 0 310.64 86.28
  L 304.52 86.27
  A 0.72 0.71 -0.0 0 0 303.80 86.98
  L 303.82 113.65
  Q 303.82 114.34 304.49 114.49
  Z"
/>
<path fill="#0d5b98" d="
  M 326.50 114.45
  A 0.83 0.82 -7.0 0 0 327.14 113.64
  L 327.11 87.76
  A 1.36 1.36 0.0 0 0 325.73 86.40
  Q 324.07 86.42 322.92 85.57
  Q 321.49 84.53 323.26 84.53
  L 336.56 84.56
  Q 337.05 84.56 336.91 85.03
  L 336.83 85.29
  A 0.99 0.98 -82.9 0 1 335.93 86.00
  Q 334.22 86.09 332.87 86.75
  Q 332.28 87.04 332.28 87.70
  L 332.26 113.72
  A 0.70 0.69 -82.3 0 0 332.77 114.39
  Q 334.56 114.88 336.52 115.42
  Q 336.97 115.54 336.92 116.04
  Q 336.87 116.57 336.34 116.57
  L 322.92 116.53
  A 0.38 0.38 0.0 0 1 322.54 116.10
  L 322.58 115.83
  Q 322.65 115.35 323.12 115.24
  L 326.50 114.45
  Z"
/>
<ellipse fill="#ffffff" cx="0.00" cy="0.00" transform="translate(164.14,100.56) rotate(83.4)" rx="15.53" ry="11.06"/>
<path fill="#ffffff" d="
  M 262.32 86.85
  A 0.57 0.57 0.0 0 1 262.89 86.28
  L 264.69 86.28
  A 8.53 6.68 0.1 0 1 273.21 92.98
  L 273.21 93.56
  A 8.53 6.68 0.1 0 1 264.67 100.22
  L 262.87 100.22
  A 0.57 0.57 0.0 0 1 262.30 99.65
  L 262.32 86.85
  Z"
/>
<path fill="#ffffff" d="
  M 224.61 102.80
  L 229.54 89.88
  A 0.32 0.32 0.0 0 1 230.14 89.88
  L 235.07 102.80
  A 0.32 0.32 0.0 0 1 234.77 103.23
  L 224.91 103.23
  A 0.32 0.32 0.0 0 1 224.61 102.80
  Z"
/>
</svg>
