<?xml version="1.0" encoding="UTF-8" standalone="no"?>
<!DOCTYPE svg PUBLIC "-//W3C//DTD SVG 1.1//EN" "http://www.w3.org/Graphics/SVG/1.1/DTD/svg11.dtd">
<svg xmlns="http://www.w3.org/2000/svg" version="1.1" viewBox="0.00 0.00 479.00 158.00">
<path fill="#2490c7" d="
  M 78.21 0.00
  L 79.58 0.00
  L 79.58 61.58
  Q 79.58 62.16 80.15 62.28
  C 85.32 63.34 88.36 68.22 89.66 73.03
  Q 89.80 73.55 89.46 73.97
  L 85.48 78.95
  A 0.25 0.25 0.0 0 0 85.68 79.36
  L 479.00 79.56
  L 479.00 81.00
  L 91.03 81.02
  Q 90.47 81.02 90.44 81.58
  C 90.12 88.05 86.68 95.37 80.17 96.87
  Q 79.59 97.00 79.59 97.59
  L 79.55 158.00
  L 78.26 158.00
  L 78.25 97.57
  A 0.71 0.69 6.2 0 0 77.69 96.89
  C 70.86 95.40 67.78 87.96 67.33 81.55
  Q 67.29 80.99 66.73 80.99
  L 0.00 80.96
  L 0.00 79.57
  L 66.71 79.57
  Q 67.26 79.57 67.26 79.02
  C 67.31 72.16 70.47 63.91 77.72 62.22
  Q 78.19 62.10 78.19 61.62
  L 78.21 0.00
  Z"
/>
<path fill="#000000" d="
  M 42.84 66.74
  Q 41.01 71.26 40.65 78.32
  A 0.69 0.69 0.0 0 1 39.96 78.97
  L 21.76 78.97
  A 0.50 0.49 1.1 0 1 21.26 78.46
  C 21.92 47.55 46.25 23.58 76.95 22.48
  A 0.58 0.58 0.0 0 1 77.55 23.05
  L 77.58 41.37
  A 0.43 0.43 0.0 0 1 77.19 41.80
  Q 52.06 43.89 42.84 66.74
  Z"
/>
<path fill="#2490c7" d="
  M 106.77 55.77
  L 106.78 70.25
  Q 106.78 70.53 106.50 70.53
  L 99.54 70.52
  Q 99.31 70.52 99.31 70.29
  L 99.31 33.04
  Q 99.31 32.42 99.93 32.43
  Q 109.26 32.58 119.69 32.42
  Q 126.60 32.31 129.88 34.00
  Q 136.11 37.20 135.20 45.43
  C 134.41 52.56 129.02 54.96 122.47 55.06
  Q 114.21 55.18 107.46 55.09
  Q 106.77 55.08 106.77 55.77
  Z
  M 106.77 39.04
  L 106.77 48.52
  A 0.28 0.28 0.0 0 0 107.05 48.80
  L 122.06 48.80
  A 5.69 4.66 0.0 0 0 127.75 44.14
  L 127.75 43.42
  A 5.69 4.66 -0.0 0 0 122.06 38.76
  L 107.05 38.76
  A 0.28 0.28 0.0 0 0 106.77 39.04
  Z"
/>
<path fill="#2490c7" d="
  M 295.21 69.61
  L 281.58 45.25
  A 0.30 0.30 0.0 0 0 281.02 45.39
  L 281.02 70.22
  A 0.30 0.30 0.0 0 1 280.72 70.52
  L 274.61 70.52
  A 0.30 0.30 0.0 0 1 274.31 70.22
  L 274.31 32.78
  A 0.30 0.30 0.0 0 1 274.61 32.48
  L 283.40 32.48
  A 0.30 0.30 0.0 0 1 283.67 32.63
  L 295.93 54.78
  A 0.30 0.30 0.0 0 0 296.46 54.78
  L 309.38 32.63
  A 0.30 0.30 0.0 0 1 309.64 32.48
  L 317.78 32.48
  A 0.30 0.30 0.0 0 1 318.08 32.78
  L 318.11 70.21
  A 0.30 0.30 0.0 0 1 317.81 70.51
  L 311.03 70.53
  A 0.30 0.30 0.0 0 1 310.73 70.23
  L 310.73 45.38
  A 0.30 0.30 0.0 0 0 310.17 45.22
  L 295.73 69.62
  A 0.30 0.30 0.0 0 1 295.21 69.61
  Z"
/>
<path fill="#2490c7" d="
  M 344.92 39.06
  L 340.59 44.52
  A 0.30 0.30 0.0 0 1 340.36 44.63
  L 337.22 44.66
  A 0.30 0.30 0.0 0 1 336.94 44.25
  L 338.98 38.76
  A 0.30 0.30 0.0 0 1 339.26 38.56
  L 344.68 38.57
  A 0.30 0.30 0.0 0 1 344.92 39.06
  Z"
/>
<path fill="#2490c7" d="
  M 195.3799 58.0407
  A 14.52 13.24 0.2 0 1 180.8138 71.2299
  A 14.52 13.24 0.2 0 1 166.3401 57.9393
  A 14.52 13.24 0.2 0 1 180.9062 44.7501
  A 14.52 13.24 0.2 0 1 195.3799 58.0407
  Z
  M 189.8199 58.0213
  A 8.96 8.36 0.2 0 0 180.8892 49.6301
  A 8.96 8.36 0.2 0 0 171.9001 57.9587
  A 8.96 8.36 0.2 0 0 180.8308 66.3499
  A 8.96 8.36 0.2 0 0 189.8199 58.0213
  Z"
/>
<path fill="#2490c7" d="
  M 404.96 65.66
  C 409.37 67.17 414.65 65.64 418.76 62.77
  A 0.23 0.22 -29.4 0 1 419.10 62.86
  L 420.67 66.31
  Q 420.79 66.57 420.55 66.74
  Q 412.28 72.59 403.33 70.49
  C 394.55 68.43 391.15 58.90 395.31 51.32
  Q 398.32 45.84 405.86 45.03
  Q 413.87 44.17 420.51 49.73
  Q 420.79 49.96 420.60 50.27
  L 418.80 53.28
  A 0.26 0.26 0.0 0 1 418.40 53.34
  Q 413.67 49.08 407.24 49.82
  C 397.82 50.89 395.65 62.46 404.96 65.66
  Z"
/>
<path fill="#2490c7" d="
  M 143.50 60.75
  L 143.50 70.26
  Q 143.50 70.53 143.24 70.53
  L 138.50 70.52
  A 0.27 0.27 0.0 0 1 138.23 70.25
  L 138.22 46.03
  Q 138.22 45.50 138.75 45.50
  Q 148.15 45.38 155.57 45.57
  Q 162.82 45.76 163.03 52.64
  C 163.16 56.88 160.43 59.26 156.38 59.75
  A 0.44 0.44 0.0 0 0 156.07 60.43
  L 162.94 70.35
  A 0.09 0.09 0.0 0 1 162.87 70.49
  L 157.28 70.54
  A 0.37 0.37 0.0 0 1 156.97 70.37
  L 150.28 60.67
  Q 149.98 60.24 149.45 60.24
  L 144.00 60.26
  A 0.50 0.49 -0.0 0 0 143.50 60.75
  Z
  M 143.49 50.42
  L 143.51 55.34
  A 0.39 0.39 0.0 0 0 143.90 55.73
  L 153.77 55.70
  A 3.84 2.61 -0.2 0 0 157.60 53.08
  L 157.60 52.60
  A 3.84 2.61 -0.2 0 0 153.75 50.00
  L 143.88 50.03
  A 0.39 0.39 0.0 0 0 143.49 50.42
  Z"
/>
<path fill="#2490c7" d="
  M 223.77 54.93
  L 214.62 69.30
  A 0.37 0.37 0.0 0 1 213.99 69.29
  L 205.27 54.81
  Q 204.85 54.12 204.86 54.93
  L 204.88 70.13
  Q 204.88 70.52 204.49 70.52
  L 200.54 70.52
  Q 200.05 70.52 200.05 70.04
  L 200.06 46.09
  Q 200.06 45.48 200.66 45.48
  L 205.23 45.48
  Q 205.65 45.48 205.87 45.84
  L 214.37 59.43
  Q 214.79 60.09 215.20 59.43
  L 223.67 45.93
  Q 223.95 45.47 224.49 45.47
  L 229.05 45.48
  Q 229.62 45.48 229.62 46.05
  L 229.62 70.08
  Q 229.62 70.53 229.17 70.53
  L 224.76 70.52
  Q 224.25 70.52 224.25 70.01
  L 224.25 55.07
  Q 224.25 54.19 223.77 54.93
  Z"
/>
<path fill="#2490c7" d="
  M 241.30 60.93
  C 241.35 66.85 248.92 67.00 252.76 65.53
  Q 255.64 64.43 255.69 61.36
  Q 255.82 53.86 255.73 45.77
  Q 255.72 45.48 256.02 45.48
  L 260.24 45.47
  A 0.25 0.25 0.0 0 1 260.49 45.72
  Q 260.61 55.15 260.45 62.66
  Q 260.30 69.18 253.67 70.51
  C 247.35 71.77 236.33 71.76 236.09 62.91
  Q 235.87 54.62 236.04 45.67
  Q 236.05 45.48 236.24 45.48
  L 241.00 45.47
  A 0.29 0.28 90.0 0 1 241.28 45.76
  Q 241.24 53.58 241.30 60.93
  Z"
/>
<path fill="#2490c7" d="
  M 328.61 60.16
  L 328.61 65.68
  A 0.30 0.30 0.0 0 0 328.91 65.98
  L 346.45 65.98
  A 0.30 0.30 0.0 0 1 346.75 66.28
  L 346.74 70.22
  A 0.30 0.30 0.0 0 1 346.44 70.52
  L 323.61 70.52
  A 0.30 0.30 0.0 0 1 323.31 70.22
  L 323.31 45.78
  A 0.30 0.30 0.0 0 1 323.61 45.48
  L 345.72 45.47
  A 0.30 0.30 0.0 0 1 346.02 45.77
  L 346.02 49.72
  A 0.30 0.30 0.0 0 1 345.72 50.02
  L 328.88 50.02
  A 0.30 0.30 0.0 0 0 328.58 50.32
  L 328.62 55.20
  A 0.30 0.30 0.0 0 0 328.92 55.50
  L 339.97 55.50
  A 0.30 0.30 0.0 0 1 340.27 55.80
  L 340.28 59.58
  A 0.30 0.30 0.0 0 1 339.98 59.88
  L 328.91 59.86
  A 0.30 0.30 0.0 0 0 328.61 60.16
  Z"
/>
<path fill="#2490c7" d="
  M 351.81 45.88
  A 0.41 0.41 0.0 0 1 352.22 45.47
  L 366.72 45.47
  A 11.31 11.16 0.0 0 1 378.03 56.63
  L 378.03 59.37
  A 11.31 11.16 0.0 0 1 366.72 70.53
  L 352.22 70.53
  A 0.41 0.41 0.0 0 1 351.81 70.12
  L 351.81 45.88
  Z
  M 357.30 50.97
  L 356.73 64.62
  A 1.25 1.25 0.0 0 0 357.93 65.92
  L 364.33 66.19
  A 7.94 7.36 2.4 0 0 372.57 59.17
  L 372.63 57.73
  A 7.94 7.36 2.4 0 0 365.01 50.04
  L 358.60 49.77
  A 1.25 1.25 0.0 0 0 357.30 50.97
  Z"
/>
<rect fill="#2490c7" x="383.12" y="45.48" width="5.38" height="25.04" rx="0.31"/>
<path fill="#2490c7" d="
  M 431.97 64.44
  L 429.29 70.35
  A 0.32 0.32 0.0 0 1 428.99 70.54
  L 424.74 70.51
  A 0.32 0.32 0.0 0 1 424.46 70.06
  L 436.11 45.65
  A 0.32 0.32 0.0 0 1 436.40 45.47
  L 440.10 45.48
  A 0.32 0.32 0.0 0 1 440.39 45.66
  L 452.57 70.03
  A 0.32 0.32 0.0 0 1 452.29 70.49
  L 447.66 70.54
  A 0.32 0.32 0.0 0 1 447.38 70.37
  L 444.02 64.40
  A 0.32 0.32 0.0 0 0 443.74 64.24
  L 432.27 64.25
  A 0.32 0.32 0.0 0 0 431.97 64.44
  Z
  M 441.96 60.75
  A 0.32 0.32 0.0 0 0 442.23 60.27
  L 438.12 53.26
  A 0.32 0.32 0.0 0 0 437.56 53.27
  L 433.67 60.26
  A 0.32 0.32 0.0 0 0 433.95 60.74
  L 441.96 60.75
  Z"
/>
<path fill="#2490c7" d="
  M 479.00 66.00
  L 479.00 70.51
  L 457.99 70.48
  Q 457.48 70.48 457.48 69.97
  L 457.48 45.75
  A 0.27 0.27 0.0 0 1 457.75 45.48
  L 462.49 45.47
  A 0.27 0.26 -90.0 0 1 462.75 45.74
  L 462.75 65.46
  Q 462.75 65.95 463.24 65.95
  L 479.00 66.00
  Z"
/>
<path fill="#2490c7" d="
  M 40.57 82.34
  C 41.90 102.27 56.67 117.80 76.91 118.63
  A 0.60 0.60 0.0 0 1 77.49 119.23
  L 77.54 137.30
  A 0.71 0.70 -89.2 0 1 76.82 138.01
  C 46.01 137.03 22.45 112.97 21.23 82.34
  A 0.54 0.54 0.0 0 1 21.77 81.78
  L 40.00 81.81
  Q 40.53 81.81 40.57 82.34
  Z"
/>
<path fill="#000000" d="
  M 80.19 137.20
  L 80.21 119.16
  A 0.54 0.53 89.4 0 1 80.72 118.63
  C 101.18 117.69 115.92 102.33 117.22 82.03
  A 0.41 0.40 -87.7 0 1 117.62 81.65
  L 135.78 81.68
  A 0.69 0.69 0.0 0 1 136.46 82.37
  C 136.22 112.34 110.86 137.66 80.93 137.94
  Q 80.19 137.94 80.19 137.20
  Z"
/>
<path fill="#000000" d="
  M 149.74 97.69
  L 152.10 97.72
  Q 152.46 97.72 152.58 98.06
  Q 152.75 98.51 152.30 98.91
  A 0.52 0.49 23.7 0 1 151.97 99.03
  L 148.26 99.05
  Q 147.47 99.06 147.48 98.27
  L 147.49 91.50
  A 0.46 0.45 3.4 0 1 148.00 91.05
  L 148.44 91.10
  A 0.67 0.66 3.4 0 1 149.03 91.76
  L 149.04 96.99
  Q 149.04 97.68 149.74 97.69
  Z"
/>
<path fill="#000000" d="
  M 166.66 97.86
  Q 166.65 98.27 166.43 98.61
  Q 166.08 99.15 165.44 99.06
  Q 165.30 99.05 165.17 99.01
  Q 164.65 98.88 164.85 98.38
  L 167.61 91.55
  A 0.61 0.61 0.0 0 1 168.23 91.17
  L 168.70 91.20
  A 0.81 0.81 0.0 0 1 169.37 91.71
  L 171.99 98.30
  A 0.58 0.58 0.0 0 1 171.34 99.08
  Q 170.29 98.88 170.22 97.75
  A 0.77 0.77 0.0 0 0 169.45 97.03
  L 167.51 97.03
  Q 166.69 97.04 166.66 97.86
  Z
  M 169.17 95.21
  L 168.65 93.83
  Q 168.32 92.95 168.14 93.87
  Q 168.03 94.46 167.70 94.93
  A 0.48 0.47 19.1 0 0 168.06 95.67
  L 168.80 95.71
  A 0.37 0.37 0.0 0 0 169.17 95.21
  Z"
/>
<path fill="#000000" d="
  M 212.08 92.34
  Q 211.49 92.34 211.50 92.92
  L 211.52 94.01
  Q 211.53 94.49 212.01 94.49
  Q 213.01 94.48 214.07 94.50
  Q 214.47 94.51 214.69 94.84
  Q 214.79 94.98 214.73 95.14
  Q 214.62 95.48 214.26 95.49
  L 212.13 95.53
  Q 211.56 95.55 211.53 96.12
  L 211.48 97.06
  Q 211.45 97.68 212.06 97.68
  L 215.01 97.70
  A 0.40 0.39 90.0 0 1 215.40 98.10
  L 215.41 98.44
  A 0.61 0.61 0.0 0 1 214.80 99.05
  L 210.75 99.05
  Q 209.96 99.05 209.96 98.25
  L 209.96 92.14
  A 0.91 0.91 0.0 0 1 210.86 91.22
  L 214.50 91.18
  A 0.43 0.42 1.3 0 1 214.93 91.62
  L 214.91 91.95
  A 0.42 0.42 0.0 0 1 214.49 92.35
  L 212.08 92.34
  Z"
/>
<path fill="#000000" d="
  M 220.55 94.30
  L 220.87 98.41
  Q 220.92 99.00 220.33 98.98
  L 219.69 98.96
  Q 219.19 98.95 219.19 98.44
  L 219.23 93.18
  Q 219.25 89.39 221.57 92.38
  Q 222.94 94.14 224.08 96.11
  Q 224.52 96.87 224.51 95.99
  L 224.48 91.54
  A 0.45 0.45 0.0 0 1 224.97 91.08
  L 225.39 91.11
  A 0.70 0.69 -87.8 0 1 226.03 91.81
  L 226.05 98.53
  Q 226.06 99.11 225.47 99.06
  L 225.09 99.03
  Q 224.49 98.97 224.15 98.48
  L 221.05 94.12
  Q 220.47 93.29 220.55 94.30
  Z"
/>
<path fill="#000000" d="
  M 251.09 97.62
  Q 251.74 97.77 251.88 98.45
  Q 252.00 99.05 251.38 99.04
  L 246.25 98.99
  A 1.22 1.19 66.8 0 1 245.45 98.66
  Q 243.03 96.40 244.08 93.42
  C 245.97 88.00 254.17 92.37 250.90 97.12
  Q 250.62 97.51 251.09 97.62
  Z
  M 247.7196 97.9191
  A 2.85 2.35 88.6 0 0 249.9993 95.0126
  A 2.85 2.35 88.6 0 0 247.5804 92.2209
  A 2.85 2.35 88.6 0 0 245.3007 95.1274
  A 2.85 2.35 88.6 0 0 247.7196 97.9191
  Z"
/>
<path fill="#000000" d="
  M 257.74 97.59
  Q 259.12 98.23 260.20 97.44
  A 1.21 1.20 71.9 0 0 260.69 96.47
  L 260.69 91.50
  Q 260.69 91.19 261.00 91.19
  L 261.98 91.20
  A 0.34 0.33 1.7 0 1 262.31 91.54
  C 262.29 93.90 263.14 97.57 260.50 98.86
  Q 258.82 99.69 256.79 98.67
  Q 256.11 98.33 255.96 97.59
  Q 255.43 94.88 255.77 91.43
  Q 255.82 90.92 256.32 91.07
  L 256.66 91.18
  A 0.43 0.43 0.0 0 1 256.96 91.56
  L 257.20 96.80
  A 0.92 0.92 0.0 0 0 257.74 97.59
  Z"
/>
<rect fill="#000000" x="-0.78" y="-3.97" transform="translate(267.26,95.07) rotate(-0.1)" width="1.56" height="7.94" rx="0.56"/>
<path fill="#000000" d="
  M 297.11 94.65
  L 295.90 97.72
  Q 294.89 100.30 293.93 97.70
  Q 293.29 95.98 292.73 94.03
  Q 292.68 93.84 292.52 93.75
  Q 292.47 93.73 292.42 93.75
  Q 292.28 93.82 292.30 93.97
  Q 292.55 95.99 292.57 98.30
  Q 292.58 98.93 291.96 99.00
  L 291.53 99.04
  A 0.51 0.51 0.0 0 1 290.96 98.53
  L 290.96 91.97
  A 0.87 0.86 88.6 0 1 291.78 91.10
  Q 292.93 91.03 293.36 92.21
  Q 294.09 94.19 294.71 95.90
  Q 294.97 96.62 295.23 95.91
  Q 295.85 94.24 296.36 92.56
  Q 296.74 91.28 297.92 91.05
  A 0.95 0.94 84.5 0 1 299.04 91.98
  L 299.04 98.48
  Q 299.04 99.17 298.36 99.06
  L 298.07 99.01
  A 0.74 0.74 0.0 0 1 297.46 98.28
  L 297.51 94.73
  Q 297.53 93.59 297.11 94.65
  Z"
/>
<path fill="#000000" d="
  M 304.99 92.37
  Q 304.47 92.41 304.49 92.93
  Q 304.49 92.94 304.54 94.06
  Q 304.55 94.49 304.99 94.49
  Q 306.01 94.48 307.06 94.50
  Q 307.47 94.51 307.70 94.85
  Q 307.79 94.99 307.73 95.15
  Q 307.60 95.48 307.24 95.49
  L 305.13 95.53
  Q 304.56 95.55 304.53 96.12
  L 304.48 97.06
  Q 304.45 97.68 305.06 97.68
  L 308.01 97.70
  A 0.41 0.40 89.3 0 1 308.41 98.10
  L 308.41 98.45
  A 0.61 0.60 -0.0 0 1 307.80 99.05
  L 303.88 99.05
  Q 302.96 99.05 302.96 98.13
  L 302.95 92.14
  A 0.92 0.92 0.0 0 1 303.86 91.22
  L 307.50 91.18
  Q 307.95 91.18 307.93 91.62
  L 307.91 91.95
  A 0.43 0.43 0.0 0 1 307.44 92.36
  Q 306.24 92.28 304.99 92.37
  Z"
/>
<path fill="#000000" d="
  M 313.58 94.44
  L 313.87 98.42
  Q 313.91 99.00 313.33 98.98
  L 312.70 98.96
  Q 312.19 98.95 312.19 98.45
  L 312.23 93.18
  Q 312.25 89.42 314.57 92.38
  Q 315.94 94.13 317.08 96.10
  Q 317.52 96.87 317.51 95.99
  L 317.48 91.54
  A 0.45 0.45 0.0 0 1 317.97 91.08
  L 318.38 91.11
  A 0.72 0.71 2.6 0 1 319.03 91.82
  L 319.05 97.45
  Q 319.07 100.69 317.02 98.18
  Q 315.52 96.35 314.11 94.25
  Q 313.50 93.33 313.58 94.44
  Z"
/>
<path fill="#000000" d="
  M 324.96 92.82
  A 0.64 0.63 84.8 0 0 324.21 92.19
  Q 322.32 92.55 322.33 91.65
  A 0.39 0.39 0.0 0 1 322.72 91.26
  L 328.56 91.15
  Q 328.98 91.14 328.92 91.56
  L 328.86 92.05
  A 0.43 0.42 -83.4 0 1 328.41 92.41
  L 327.26 92.30
  Q 326.51 92.23 326.51 92.99
  L 326.53 98.33
  Q 326.53 98.94 325.92 99.01
  L 325.53 99.05
  A 0.52 0.52 0.0 0 1 324.95 98.53
  L 324.96 92.82
  Z"
/>
<path fill="#000000" d="
  M 356.6634 99.2223
  A 4.15 3.94 86.5 0 1 352.4773 95.3205
  A 4.15 3.94 86.5 0 1 356.1566 90.9377
  A 4.15 3.94 86.5 0 1 360.3427 94.8395
  A 4.15 3.94 86.5 0 1 356.6634 99.2223
  Z
  M 356.4150 97.9200
  A 2.85 2.35 90.1 0 0 358.7700 95.0741
  A 2.85 2.35 90.1 0 0 356.4250 92.2200
  A 2.85 2.35 90.1 0 0 354.0700 95.0659
  A 2.85 2.35 90.1 0 0 356.4150 97.9200
  Z"
/>
<path fill="#000000" d="
  M 365.47 96.93
  L 365.58 98.26
  Q 365.64 98.92 364.99 99.00
  L 364.42 99.07
  Q 363.96 99.13 363.96 98.67
  L 363.95 92.01
  A 0.85 0.85 0.0 0 1 364.75 91.16
  Q 366.81 91.01 368.44 91.51
  A 1.51 1.49 -0.3 0 1 369.43 92.48
  C 370.35 95.28 368.12 95.77 366.11 96.11
  Q 365.41 96.23 365.47 96.93
  Z
  M 365.51 92.82
  L 365.51 94.24
  A 0.44 0.44 0.0 0 0 365.94 94.69
  L 366.52 94.69
  A 1.64 1.06 0.3 0 0 368.17 93.64
  L 368.17 93.46
  A 1.64 1.06 0.3 0 0 366.54 92.39
  L 365.96 92.39
  A 0.44 0.44 0.0 0 0 365.51 92.82
  Z"
/>
<path fill="#000000" d="
  M 385.71 92.29
  L 383.58 92.29
  A 0.25 0.25 0.0 0 1 383.33 92.04
  L 383.35 91.50
  A 0.25 0.25 0.0 0 1 383.59 91.26
  L 389.69 91.15
  A 0.25 0.25 0.0 0 1 389.94 91.43
  L 389.83 92.20
  A 0.25 0.25 0.0 0 1 389.56 92.42
  L 387.78 92.26
  A 0.25 0.25 0.0 0 0 387.51 92.50
  L 387.53 98.72
  A 0.25 0.25 0.0 0 1 387.31 98.97
  L 386.23 99.09
  A 0.25 0.25 0.0 0 1 385.95 98.84
  L 385.96 92.54
  A 0.25 0.25 0.0 0 0 385.71 92.29
  Z"
/>
<path fill="#000000" d="
  M 397.00 97.12
  Q 394.52 96.42 393.87 98.49
  A 0.72 0.72 0.0 0 1 393.09 98.99
  L 392.76 98.94
  Q 392.12 98.86 392.37 98.26
  L 395.07 91.65
  A 0.96 0.95 45.2 0 1 396.84 91.66
  L 399.57 98.48
  Q 399.74 98.91 399.28 98.94
  L 398.74 98.98
  A 0.77 0.76 -12.3 0 1 397.97 98.49
  L 397.69 97.75
  A 1.03 1.01 -2.1 0 0 397.00 97.12
  Z
  M 396.69 95.23
  L 396.19 93.75
  Q 395.94 93.02 395.69 93.75
  L 395.29 94.94
  Q 395.04 95.66 395.79 95.76
  Q 396.22 95.82 396.55 95.61
  A 0.33 0.32 -25.7 0 0 396.69 95.23
  Z"
/>
<path fill="#000000" d="
  M 404.82 97.71
  L 407.66 97.62
  A 0.30 0.30 0.0 0 1 407.96 97.87
  L 408.09 98.70
  A 0.30 0.30 0.0 0 1 407.80 99.05
  L 403.26 99.05
  A 0.30 0.30 0.0 0 1 402.96 98.75
  L 402.96 91.45
  A 0.30 0.30 0.0 0 1 403.22 91.15
  L 404.18 91.01
  A 0.30 0.30 0.0 0 1 404.52 91.31
  L 404.51 97.41
  A 0.30 0.30 0.0 0 0 404.82 97.71
  Z"
/>
<path fill="#000000" d="
  M 413.34 94.06
  L 413.60 98.27
  Q 413.64 98.93 412.98 99.00
  L 412.54 99.06
  A 0.54 0.52 -3.0 0 1 411.95 98.54
  L 411.96 91.98
  A 0.93 0.93 0.0 0 1 413.05 91.06
  Q 413.98 91.22 414.33 92.13
  Q 415.04 93.99 415.67 95.84
  Q 415.95 96.67 416.25 95.85
  Q 416.86 94.11 417.51 92.22
  Q 417.76 91.50 418.43 91.17
  Q 419.01 90.89 419.54 91.17
  Q 420.04 91.44 420.04 92.00
  L 420.05 98.53
  A 0.53 0.53 0.0 0 1 419.47 99.06
  L 419.09 99.02
  Q 418.47 98.96 418.47 98.34
  L 418.50 94.56
  Q 418.51 93.80 418.20 94.50
  Q 417.68 95.67 417.31 96.81
  Q 415.82 101.34 414.63 96.72
  Q 414.24 95.20 413.63 93.98
  Q 413.30 93.32 413.34 94.06
  Z"
/>
<path fill="#000000" d="
  M 427.6282 99.2399
  A 4.17 3.92 90.3 0 1 423.7301 95.0495
  A 4.17 3.92 90.3 0 1 427.6718 90.9001
  A 4.17 3.92 90.3 0 1 431.5699 95.0905
  A 4.17 3.92 90.3 0 1 427.6282 99.2399
  Z
  M 427.7598 97.9379
  A 2.86 2.35 87.8 0 0 429.9983 94.9898
  A 2.86 2.35 87.8 0 0 427.5402 92.2221
  A 2.86 2.35 87.8 0 0 425.3017 95.1702
  A 2.86 2.35 87.8 0 0 427.7598 97.9379
  Z"
/>
<path fill="#000000" d="
  M 446.8489 99.2397
  A 4.18 3.91 90.7 0 1 442.9903 95.0122
  A 4.18 3.91 90.7 0 1 446.9511 90.8803
  A 4.18 3.91 90.7 0 1 450.8097 95.1078
  A 4.18 3.91 90.7 0 1 446.8489 99.2397
  Z
  M 447.0352 97.9468
  A 2.87 2.40 87.3 0 0 449.2973 94.9669
  A 2.87 2.40 87.3 0 0 446.7648 92.2132
  A 2.87 2.40 87.3 0 0 444.5027 95.1931
  A 2.87 2.40 87.3 0 0 447.0352 97.9468
  Z"
/>
<path fill="#000000" d="
  M 459.17 96.28
  Q 458.50 96.06 457.86 95.79
  Q 457.52 95.64 457.54 95.25
  Q 457.57 94.73 458.10 94.72
  L 460.47 94.66
  Q 461.05 94.65 461.05 95.22
  L 461.05 97.71
  A 1.52 1.52 0.0 0 1 459.56 99.24
  Q 453.99 99.32 454.31 94.65
  C 454.50 91.80 457.85 90.38 460.35 91.18
  Q 460.80 91.32 460.79 91.80
  L 460.78 92.06
  Q 460.76 92.62 460.22 92.47
  C 455.06 91.02 454.30 97.92 458.54 97.91
  Q 459.30 97.91 459.60 97.21
  Q 459.89 96.51 459.17 96.28
  Z"
/>
<path fill="#000000" d="
  M 158.02 95.53
  A 0.21 0.21 0.0 0 0 157.81 95.73
  L 157.74 97.19
  Q 157.71 97.67 158.19 97.68
  L 161.25 97.71
  Q 161.62 97.72 161.60 98.09
  L 161.58 98.43
  Q 161.55 99.04 160.94 99.04
  L 156.99 99.04
  A 0.80 0.80 0.0 0 1 156.19 98.24
  L 156.23 91.86
  Q 156.23 91.20 156.89 91.21
  L 160.82 91.23
  Q 161.46 91.23 161.41 91.86
  Q 161.39 92.15 160.80 92.28
  Q 160.65 92.32 160.49 92.32
  L 158.20 92.33
  Q 157.73 92.33 157.74 92.80
  L 157.78 94.14
  A 0.36 0.35 88.4 0 0 158.14 94.49
  L 160.55 94.47
  Q 160.87 94.47 160.86 94.80
  L 160.85 95.21
  A 0.32 0.31 -1.0 0 1 160.54 95.52
  L 158.02 95.53
  Z"
/>
<path fill="#000000" d="
  M 175.47 91.62
  A 0.44 0.44 0.0 0 1 175.91 91.18
  L 178.19 91.17
  A 4.08 3.76 -0.1 0 1 182.28 94.92
  L 182.28 95.26
  A 4.08 3.76 -0.1 0 1 178.21 99.03
  L 175.93 99.04
  A 0.44 0.44 0.0 0 1 175.49 98.60
  L 175.47 91.62
  Z
  M 176.99 92.83
  L 177.05 97.27
  A 0.51 0.51 0.0 0 0 177.56 97.78
  L 177.86 97.77
  A 2.87 2.44 -0.7 0 0 180.70 95.30
  L 180.70 94.72
  A 2.87 2.44 -0.7 0 0 177.80 92.31
  L 177.50 92.32
  A 0.51 0.51 0.0 0 0 176.99 92.83
  Z"
/>
<path fill="#000000" d="
  M 188.28 95.52
  Q 187.82 95.52 187.80 95.97
  L 187.73 97.20
  A 0.48 0.47 1.8 0 0 188.20 97.69
  L 191.00 97.70
  A 0.63 0.63 0.0 0 1 191.62 98.21
  Q 191.73 98.81 190.85 98.98
  Q 190.53 99.05 190.20 99.05
  L 187.24 99.04
  Q 186.19 99.04 186.20 97.99
  L 186.23 92.23
  Q 186.23 91.19 187.27 91.20
  L 191.00 91.24
  A 0.41 0.40 -8.3 0 1 191.37 91.51
  Q 191.52 91.93 191.17 92.19
  Q 191.02 92.29 190.84 92.30
  L 188.19 92.34
  Q 187.73 92.35 187.74 92.81
  L 187.78 94.02
  Q 187.79 94.50 188.27 94.49
  L 190.55 94.48
  Q 190.87 94.47 190.86 94.80
  L 190.85 95.21
  A 0.31 0.31 0.0 0 1 190.54 95.52
  L 188.28 95.52
  Z"
/>
<path fill="#000000" d="
  M 196.78 97.09
  Q 196.74 97.72 196.84 98.34
  Q 196.94 99.00 196.28 98.98
  L 195.69 98.96
  A 0.52 0.52 0.0 0 1 195.19 98.44
  L 195.23 91.79
  Q 195.23 91.19 195.83 91.20
  C 197.33 91.20 199.49 90.77 200.55 92.16
  Q 201.39 93.25 200.81 94.43
  Q 200.52 95.02 199.93 95.32
  Q 199.76 95.40 199.62 95.54
  A 0.62 0.62 0.0 0 0 199.57 96.37
  L 201.20 98.45
  A 0.29 0.28 -29.4 0 1 201.07 98.89
  L 200.69 99.04
  Q 199.95 99.31 199.48 98.68
  L 198.06 96.72
  Q 196.90 95.13 196.78 97.09
  Z
  M 196.75 92.64
  L 196.73 94.32
  A 0.35 0.35 0.0 0 0 197.07 94.67
  L 197.58 94.68
  A 1.90 0.98 1.0 0 0 199.50 93.73
  L 199.50 93.31
  A 1.90 0.98 1.0 0 0 197.62 92.30
  L 197.11 92.29
  A 0.35 0.35 0.0 0 0 196.75 92.64
  Z"
/>
<path fill="#000000" d="
  M 237.02 95.53
  Q 236.82 95.53 236.81 95.73
  L 236.74 97.20
  A 0.47 0.47 0.0 0 0 237.20 97.69
  L 240.05 97.70
  A 0.56 0.55 -12.7 0 1 240.55 98.01
  Q 240.72 98.36 240.51 98.66
  Q 240.24 99.04 239.78 99.04
  L 235.86 99.03
  Q 235.19 99.03 235.19 98.36
  L 235.23 91.73
  Q 235.23 91.19 235.77 91.20
  L 239.80 91.24
  Q 240.30 91.24 240.40 91.73
  Q 240.45 91.98 240.21 92.15
  Q 240.00 92.31 239.73 92.31
  L 237.02 92.34
  A 0.27 0.26 -1.1 0 0 236.76 92.60
  L 236.77 94.01
  Q 236.77 94.50 237.26 94.49
  L 239.55 94.48
  Q 239.87 94.47 239.86 94.80
  L 239.85 95.21
  A 0.31 0.30 -0.0 0 1 239.54 95.51
  L 237.02 95.53
  Z"
/>
<path fill="#000000" d="
  M 273.75 96.96
  L 273.85 98.43
  Q 273.89 98.99 273.32 98.98
  L 272.70 98.97
  A 0.52 0.52 0.0 0 1 272.19 98.45
  L 272.23 91.79
  Q 272.23 91.25 272.78 91.21
  Q 274.40 91.08 275.89 91.32
  Q 277.98 91.66 277.81 93.77
  Q 277.63 95.87 274.66 95.95
  A 0.95 0.94 87.4 0 0 273.75 96.96
  Z
  M 273.75 92.65
  L 273.73 94.35
  A 0.35 0.35 0.0 0 0 274.08 94.70
  L 274.25 94.70
  A 2.12 0.96 0.5 0 0 276.38 93.76
  L 276.38 93.28
  A 2.12 0.96 0.5 0 0 274.27 92.30
  L 274.10 92.30
  A 0.35 0.35 0.0 0 0 273.75 92.65
  Z"
/>
<path fill="#000000" d="
  M 284.07 95.49
  Q 283.50 95.40 283.40 95.97
  L 283.21 97.04
  Q 283.09 97.74 283.80 97.72
  L 286.40 97.64
  Q 286.92 97.63 287.00 98.14
  L 287.05 98.46
  A 0.52 0.51 -4.3 0 1 286.54 99.05
  L 282.62 99.05
  Q 281.68 99.05 281.68 98.12
  L 281.69 92.25
  Q 281.69 91.18 282.75 91.20
  L 286.49 91.25
  Q 286.72 91.25 286.75 91.49
  L 286.80 91.99
  Q 286.84 92.33 286.50 92.32
  L 283.95 92.31
  Q 283.20 92.31 283.26 93.05
  L 283.34 93.92
  Q 283.38 94.45 283.92 94.46
  L 285.93 94.51
  A 0.42 0.41 0.0 0 1 286.34 94.91
  Q 286.36 95.34 286.00 95.42
  Q 285.03 95.64 284.07 95.49
  Z"
/>
<path fill="#000000" d="
  M 337.24 91.70
  A 0.54 0.54 0.0 0 1 337.78 91.17
  L 339.92 91.18
  A 4.08 3.70 0.5 0 1 343.97 94.92
  L 343.97 95.36
  A 4.08 3.70 0.5 0 1 339.86 99.02
  L 337.72 99.01
  A 0.54 0.54 0.0 0 1 337.18 98.46
  L 337.24 91.70
  Z
  M 338.75 92.71
  L 338.79 97.41
  A 0.29 0.29 0.0 0 0 339.08 97.70
  L 339.94 97.69
  A 2.57 2.40 -0.4 0 0 342.49 95.28
  L 342.49 94.80
  A 2.57 2.40 -0.4 0 0 339.90 92.42
  L 339.04 92.42
  A 0.29 0.29 0.0 0 0 338.75 92.71
  Z"
/>
<path fill="#000000" d="
  M 348.46 94.28
  Q 347.60 95.68 347.54 94.04
  Q 347.49 92.72 348.24 91.45
  A 0.67 0.66 25.2 0 1 349.06 91.16
  L 349.40 91.30
  Q 349.83 91.47 349.66 91.91
  Q 349.18 93.11 348.46 94.28
  Z"
/>
<path fill="#000000" d="
  M 375.31 95.85
  L 375.35 98.69
  A 0.33 0.33 0.0 0 1 375.03 99.03
  L 374.00 99.06
  A 0.33 0.33 0.0 0 1 373.66 98.73
  L 373.70 91.51
  A 0.33 0.33 0.0 0 1 374.04 91.18
  L 375.00 91.21
  A 0.33 0.33 0.0 0 1 375.32 91.54
  L 375.31 94.13
  A 0.33 0.33 0.0 0 0 375.64 94.46
  L 378.38 94.50
  A 0.33 0.33 0.0 0 0 378.72 94.17
  L 378.64 91.53
  A 0.33 0.33 0.0 0 1 378.98 91.19
  L 379.99 91.20
  A 0.33 0.33 0.0 0 1 380.31 91.53
  L 380.32 98.74
  A 0.33 0.33 0.0 0 1 379.98 99.07
  L 378.94 99.03
  A 0.33 0.33 0.0 0 1 378.62 98.69
  L 378.74 95.85
  A 0.33 0.33 0.0 0 0 378.41 95.51
  L 375.63 95.52
  A 0.33 0.33 0.0 0 0 375.31 95.85
  Z"
/>
<path fill="#000000" d="
  M 437.07 97.66
  L 440.12 97.70
  A 0.29 0.29 0.0 0 1 440.41 97.99
  L 440.41 98.77
  A 0.29 0.29 0.0 0 1 440.12 99.06
  L 435.47 99.02
  A 0.29 0.29 0.0 0 1 435.18 98.73
  L 435.24 91.45
  A 0.29 0.29 0.0 0 1 435.51 91.17
  L 436.48 91.12
  A 0.29 0.29 0.0 0 1 436.78 91.41
  L 436.78 97.37
  A 0.29 0.29 0.0 0 0 437.07 97.66
  Z"
/>
<rect fill="#000000" x="465.21" y="91.17" width="1.58" height="7.80" rx="0.48"/>
<path fill="#000000" d="
  M 473.25 95.48
  A 0.72 0.72 0.0 0 0 472.38 96.06
  L 472.23 96.93
  Q 472.10 97.75 472.93 97.72
  L 475.52 97.64
  Q 475.92 97.63 475.98 98.02
  L 476.05 98.46
  A 0.52 0.51 -4.3 0 1 475.54 99.05
  L 471.48 99.05
  Q 470.67 99.05 470.67 98.23
  L 470.69 92.00
  Q 470.70 91.19 471.51 91.20
  L 475.45 91.25
  Q 475.78 91.25 475.76 91.58
  L 475.73 92.06
  Q 475.71 92.32 475.45 92.32
  L 472.95 92.31
  Q 472.20 92.31 472.26 93.05
  L 472.34 93.96
  A 0.65 0.64 -8.3 0 0 473.12 94.53
  Q 474.22 94.31 475.14 94.64
  A 0.37 0.37 0.0 0 1 475.15 95.33
  Q 474.27 95.70 473.25 95.48
  Z"
/>
</svg>
