<?xml version="1.0" encoding="UTF-8" standalone="no"?>
<!DOCTYPE svg PUBLIC "-//W3C//DTD SVG 1.1//EN" "http://www.w3.org/Graphics/SVG/1.1/DTD/svg11.dtd">
<svg xmlns="http://www.w3.org/2000/svg" version="1.1" viewBox="0.00 0.00 400.00 195.00">
<g stroke-width="2.00" fill="none" stroke-linecap="butt">
<path stroke="#b1dbed" vector-effect="non-scaling-stroke" d="
  M 135.28 23.32
  C 136.80 23.13 138.33 23.15 139.77 22.88
  Q 141.88 22.49 139.74 22.45
  Q 119.38 22.14 99.00 25.34
  C 90.30 26.70 77.96 30.13 70.99 36.41
  C 51.99 53.55 85.77 80.95 97.46 90.01
  Q 111.22 100.68 127.44 111.17
  Q 127.64 111.30 127.80 111.12
  L 128.07 110.79
  Q 128.19 110.65 128.05 110.53
  Q 123.06 106.01 118.01 101.60
  C 114.78 98.77 111.96 95.52 108.90 92.39
  Q 98.73 81.94 91.35 68.95
  Q 88.62 64.14 87.01 57.32
  C 84.49 46.62 89.54 37.92 98.74 32.81
  Q 106.34 28.60 113.40 27.00
  Q 123.36 24.75 135.28 23.32"
/>
<path stroke="#84b1d5" vector-effect="non-scaling-stroke" d="
  M 244.93 80.32
  C 245.09 69.75 245.34 58.83 244.73 48.16
  Q 244.68 47.30 244.18 48.01
  Q 241.96 51.18 241.93 54.51
  Q 241.80 69.76 241.82 82.74
  Q 241.82 84.31 240.36 84.67
  Q 234.15 86.20 226.16 85.26
  Q 225.54 85.18 225.47 84.56
  Q 224.75 78.19 222.40 72.78
  Q 221.78 71.35 221.26 72.81
  Q 220.74 74.29 220.25 75.84
  A 4.69 4.63 -46.9 0 0 220.33 78.84
  L 222.20 83.91
  A 0.99 0.99 0.0 0 1 221.28 85.24
  L 199.69 85.29
  Q 199.04 85.29 198.89 84.65
  C 197.96 80.51 196.36 76.83 193.54 73.88
  A 2.28 2.27 -41.6 0 0 190.44 73.70
  C 187.69 75.98 186.81 80.27 185.68 83.52
  A 2.59 2.59 0.0 0 1 183.22 85.26
  L 169.74 85.26
  Q 167.22 85.26 167.22 82.74
  L 167.19 49.47
  Q 167.19 47.91 166.25 49.15
  C 164.85 51.01 163.90 53.15 163.91 55.53
  Q 163.91 67.84 163.81 80.87
  C 163.78 84.58 165.13 91.22 169.87 91.27
  Q 175.71 91.32 182.97 91.32
  Q 183.61 91.32 184.07 90.88
  Q 185.12 89.86 185.73 88.45
  A 0.71 0.70 -52.5 0 1 186.93 88.29
  Q 189.45 91.48 193.58 91.45
  Q 227.38 91.25 261.64 91.37
  A 1.77 1.77 0.0 0 0 263.40 89.79
  C 264.00 84.10 264.37 78.43 259.16 74.82
  C 254.08 71.29 248.65 76.69 245.76 80.60
  A 0.46 0.46 0.0 0 1 244.93 80.32"
/>
<path stroke="#84b1d5" vector-effect="non-scaling-stroke" d="
  M 115.24 147.60
  C 104.78 151.05 92.14 153.01 80.64 152.89
  Q 80.42 152.89 80.41 153.11
  L 80.41 153.12
  Q 80.40 153.30 80.58 153.31
  Q 104.43 154.99 127.82 150.24
  C 141.20 147.52 161.89 140.32 156.03 121.90
  Q 154.73 117.78 152.40 114.31
  Q 145.37 103.85 135.35 95.23
  Q 117.00 79.45 93.66 64.59
  Q 93.10 64.24 93.21 64.88
  Q 93.29 65.31 93.62 65.58
  Q 109.42 78.25 121.99 93.88
  C 129.31 102.97 136.86 115.05 135.91 126.70
  C 135.02 137.81 125.04 144.37 115.24 147.60"
/>
<path stroke="#84b1d5" vector-effect="non-scaling-stroke" d="
  M 285.12 91.25
  Q 286.39 91.15 285.97 92.35
  C 283.03 100.84 273.28 105.62 267.68 95.94
  Q 266.60 94.07 266.97 96.20
  C 267.59 99.86 270.87 105.28 275.16 105.67
  C 282.99 106.39 287.84 99.27 288.87 92.11
  Q 289.00 91.14 289.98 91.19
  Q 296.35 91.47 303.45 91.27
  C 305.00 91.22 306.03 90.66 307.43 90.20
  A 1.50 1.47 -43.9 0 1 308.42 90.21
  C 311.73 91.46 318.11 92.29 321.15 89.79
  Q 321.72 89.32 322.36 89.71
  Q 326.28 92.10 332.50 91.48
  C 336.40 91.09 334.70 78.44 334.24 76.26
  Q 333.98 75.04 333.02 75.84
  Q 332.14 76.57 331.43 77.53
  A 3.73 3.68 60.2 0 0 330.74 80.13
  L 331.10 83.25
  Q 331.33 85.32 329.25 85.30
  L 325.92 85.26
  Q 324.35 85.24 324.45 83.67
  L 324.90 76.73
  A 0.42 0.41 73.4 0 0 324.24 76.37
  C 321.77 78.21 321.34 81.37 321.28 84.24
  A 1.12 1.12 0.0 0 1 320.10 85.34
  L 310.61 84.87
  Q 309.88 84.84 309.91 84.11
  L 310.22 76.65
  Q 310.29 75.04 309.14 76.17
  Q 308.24 77.06 307.52 78.27
  Q 306.73 79.59 306.79 81.14
  Q 306.86 82.74 306.25 84.34
  Q 306.03 84.93 305.40 84.95
  L 290.25 85.42
  Q 289.40 85.45 289.35 84.59
  C 289.11 80.11 288.56 75.09 284.97 72.41
  Q 284.50 72.06 284.02 72.38
  Q 282.25 73.56 281.33 75.47
  C 279.07 80.18 277.21 87.45 282.52 90.85
  C 283.30 91.35 284.23 91.32 285.12 91.25"
/>
<path stroke="#84b1d5" vector-effect="non-scaling-stroke" d="
  M 215.40 104.70
  L 212.36 101.55
  Q 211.48 100.64 210.90 101.77
  L 209.73 104.04
  Q 209.04 105.40 210.21 106.37
  L 213.43 109.01
  A 0.57 0.57 0.0 0 0 214.32 108.80
  L 215.71 105.51
  Q 215.94 104.97 216.43 105.30
  Q 217.83 106.23 218.97 107.83
  Q 220.16 109.48 220.98 107.62
  L 221.67 106.06
  Q 222.37 104.49 221.05 103.40
  L 218.24 101.09
  A 0.69 0.68 29.8 0 0 217.16 101.38
  L 216.01 104.57
  Q 215.81 105.13 215.40 104.70"
/>
<path stroke="#f1959c" vector-effect="non-scaling-stroke" d="
  M 83.73 124.13
  A 0.42 0.42 0.0 0 0 83.73 124.65
  L 95.12 139.49
  A 0.42 0.42 0.0 0 0 95.78 139.49
  L 107.53 124.83
  A 0.42 0.42 0.0 0 0 107.53 124.31
  L 95.86 109.66
  A 0.42 0.42 0.0 0 0 95.20 109.66
  L 83.73 124.13"
/>
<path stroke="#84b1d5" vector-effect="non-scaling-stroke" d="
  M 196.11 125.65
  A 0.91 0.90 3.2 0 1 196.92 126.55
  Q 196.96 135.15 196.93 143.01
  C 196.91 147.40 200.06 151.65 204.94 149.90
  Q 209.56 148.25 208.57 143.45
  Q 208.37 142.50 207.77 143.27
  Q 206.07 145.46 202.98 145.04
  A 1.20 1.19 75.7 0 1 202.18 144.56
  Q 201.27 143.31 201.24 141.75
  Q 201.10 134.35 201.26 126.44
  A 0.99 0.99 0.0 0 1 202.28 125.47
  L 207.36 125.64
  Q 208.66 125.68 208.63 124.39
  L 208.59 122.11
  Q 208.56 120.90 207.36 120.98
  L 202.50 121.30
  A 0.96 0.95 -0.6 0 1 201.48 120.31
  Q 201.61 117.52 201.63 114.54
  Q 201.64 113.61 200.97 113.11
  A 0.63 0.63 0.0 0 0 199.98 113.46
  C 199.38 115.91 197.51 120.22 194.97 121.41
  C 193.46 122.13 192.81 123.69 193.40 125.26
  A 0.80 0.80 0.0 0 0 194.33 125.76
  Q 195.24 125.56 196.11 125.65"
/>
<path stroke="#84b1d5" vector-effect="non-scaling-stroke" d="
  M 222.79 123.72
  L 222.81 114.01
  A 0.85 0.84 1.8 0 0 222.01 113.17
  L 219.56 113.02
  Q 218.58 112.96 218.58 113.94
  L 218.50 148.33
  Q 218.49 149.66 219.83 149.67
  L 221.67 149.69
  Q 222.96 149.70 222.94 148.41
  Q 222.86 141.82 222.87 134.88
  C 222.87 130.78 224.02 124.71 229.27 125.07
  C 232.10 125.26 233.21 128.48 233.25 130.87
  Q 233.39 139.78 233.27 148.46
  Q 233.25 149.68 234.48 149.66
  L 236.47 149.61
  A 1.08 1.08 0.0 0 0 237.53 148.52
  C 237.50 142.31 237.40 135.91 237.51 129.53
  C 237.62 123.37 234.70 118.07 227.50 120.16
  C 225.61 120.70 224.67 122.57 223.39 123.96
  Q 222.79 124.61 222.79 123.72"
/>
<path stroke="#84b1d5" vector-effect="non-scaling-stroke" d="
  M 295.36 124.78
  C 294.11 120.67 290.78 118.60 286.81 120.22
  C 285.10 120.92 284.12 122.63 282.91 123.96
  Q 282.31 124.62 282.28 123.73
  L 282.19 121.07
  Q 282.16 119.99 281.07 119.98
  L 279.76 119.97
  Q 278.48 119.96 278.48 121.24
  L 278.40 148.44
  Q 278.40 149.73 279.69 149.74
  L 281.30 149.74
  Q 282.74 149.74 282.63 148.30
  C 282.34 144.44 280.84 124.34 287.89 125.00
  C 290.72 125.26 291.59 128.98 291.63 131.29
  Q 291.80 139.61 291.64 148.59
  Q 291.62 149.74 292.76 149.69
  L 294.95 149.59
  Q 296.06 149.54 295.97 148.44
  C 295.62 143.84 294.46 126.87 300.33 125.20
  C 304.15 124.11 304.97 129.06 305.05 131.71
  Q 305.27 140.01 305.16 148.51
  Q 305.14 149.74 306.37 149.72
  L 308.28 149.68
  A 1.28 1.28 0.0 0 0 309.53 148.40
  Q 309.53 138.64 309.46 129.56
  C 309.43 124.53 307.75 118.72 301.23 119.86
  Q 297.77 120.46 296.23 124.80
  Q 295.77 126.12 295.36 124.78"
/>
<path stroke="#84b1d5" vector-effect="non-scaling-stroke" d="
  M 177.20 120.46
  C 171.93 118.70 166.28 120.01 164.21 125.55
  C 162.66 129.70 162.75 134.51 163.07 138.82
  C 163.57 145.59 167.72 151.32 175.40 150.01
  C 179.80 149.27 182.26 145.30 183.08 141.26
  C 184.33 135.01 184.67 122.95 177.20 120.46"
/>
<path stroke="#84b1d5" vector-effect="non-scaling-stroke" d="
  M 254.46 136.60
  L 266.72 136.63
  Q 267.22 136.64 267.28 136.13
  C 268.15 128.91 267.04 118.89 257.33 119.77
  C 251.48 120.30 248.92 127.07 248.56 132.22
  C 248.20 137.24 248.69 143.19 252.03 147.21
  C 254.53 150.23 258.41 151.00 262.02 149.45
  C 266.36 147.59 266.72 144.26 266.50 139.97
  Q 266.48 139.74 266.30 139.58
  Q 266.26 139.54 266.21 139.53
  Q 265.73 139.49 265.58 139.91
  Q 263.46 145.84 257.80 145.24
  A 4.50 4.50 0.0 0 1 254.03 142.29
  Q 253.22 140.03 252.82 138.93
  Q 251.98 136.60 254.46 136.60"
/>
<path stroke="#84b1d5" vector-effect="non-scaling-stroke" d="
  M 332.69 146.78
  L 332.79 148.75
  Q 332.83 149.68 333.76 149.70
  L 335.98 149.74
  Q 336.97 149.77 336.97 148.78
  Q 337.02 138.11 336.99 127.00
  C 336.97 119.25 329.56 118.11 323.95 121.67
  C 321.36 123.32 321.46 126.11 321.65 128.85
  Q 321.70 129.70 322.30 129.10
  C 323.57 127.82 324.89 125.98 326.66 125.48
  C 328.60 124.93 331.15 124.44 332.24 126.70
  C 333.89 130.10 331.95 132.20 328.84 133.02
  C 322.07 134.81 318.95 138.97 320.94 146.15
  C 322.19 150.65 328.15 151.86 330.90 147.94
  Q 331.41 147.20 331.99 146.54
  Q 332.65 145.79 332.69 146.78"
/>
<path stroke="#84b1d5" vector-effect="non-scaling-stroke" d="
  M 193.31 86.04
  A 1.65 1.65 0.0 0 0 195.64 84.18
  L 195.16 82.18
  A 1.65 1.65 0.0 0 0 194.85 81.53
  L 193.06 79.27
  A 1.65 1.65 0.0 0 0 190.45 79.30
  L 188.69 81.61
  A 1.65 1.65 0.0 0 0 189.29 84.09
  L 193.31 86.04"
/>
<path stroke="#84b1d5" vector-effect="non-scaling-stroke" d="
  M 254.19 79.52
  A 1.62 1.62 0.0 0 0 252.78 79.67
  L 247.24 83.11
  A 1.62 1.62 0.0 0 0 248.14 86.10
  L 259.22 85.83
  A 1.62 1.62 0.0 0 0 260.44 83.20
  L 259.17 81.61
  A 1.62 1.62 0.0 0 0 258.46 81.09
  L 254.19 79.52"
/>
<path stroke="#84b1d5" vector-effect="non-scaling-stroke" d="
  M 285.08 85.14
  A 1.18 1.18 0.0 0 0 286.66 83.74
  L 286.16 81.89
  A 1.18 1.18 0.0 0 0 285.92 81.44
  L 284.52 79.76
  A 1.18 1.18 0.0 0 0 282.49 80.16
  L 281.71 82.61
  A 1.18 1.18 0.0 0 0 282.40 84.06
  L 285.08 85.14"
/>
<path stroke="#84b1d5" vector-effect="non-scaling-stroke" d="
  M 173.1343 145.3292
  A 10.29 6.59 90.7 0 0 179.8495 135.1205
  A 10.29 6.59 90.7 0 0 173.3857 124.7508
  A 10.29 6.59 90.7 0 0 166.6705 134.9595
  A 10.29 6.59 90.7 0 0 173.1343 145.3292"
/>
<path stroke="#84b1d5" vector-effect="non-scaling-stroke" d="
  M 253.26 131.93
  L 264.00 131.73
  A 0.22 0.22 0.0 0 0 264.21 131.50
  L 264.20 130.78
  A 6.16 5.13 88.9 0 0 258.95 124.72
  L 258.03 124.74
  A 6.16 5.13 88.9 0 0 253.02 131.00
  L 253.03 131.72
  A 0.22 0.22 0.0 0 0 253.26 131.93"
/>
<path stroke="#84b1d5" vector-effect="non-scaling-stroke" d="
  M 332.02 135.36
  Q 329.16 136.74 326.85 138.18
  C 324.68 139.54 323.48 143.47 326.06 145.17
  Q 327.23 145.94 328.52 145.64
  C 332.38 144.72 333.05 138.96 332.58 135.66
  Q 332.51 135.12 332.02 135.36"
/>
</g>
<path fill="#f7f7f7" d="
  M 0.00 0.00
  L 400.00 0.00
  L 400.00 195.00
  L 0.00 195.00
  L 0.00 0.00
  Z
  M 135.28 23.32
  C 136.80 23.13 138.33 23.15 139.77 22.88
  Q 141.88 22.49 139.74 22.45
  Q 119.38 22.14 99.00 25.34
  C 90.30 26.70 77.96 30.13 70.99 36.41
  C 51.99 53.55 85.77 80.95 97.46 90.01
  Q 111.22 100.68 127.44 111.17
  Q 127.64 111.30 127.80 111.12
  L 128.07 110.79
  Q 128.19 110.65 128.05 110.53
  Q 123.06 106.01 118.01 101.60
  C 114.78 98.77 111.96 95.52 108.90 92.39
  Q 98.73 81.94 91.35 68.95
  Q 88.62 64.14 87.01 57.32
  C 84.49 46.62 89.54 37.92 98.74 32.81
  Q 106.34 28.60 113.40 27.00
  Q 123.36 24.75 135.28 23.32
  Z
  M 244.93 80.32
  C 245.09 69.75 245.34 58.83 244.73 48.16
  Q 244.68 47.30 244.18 48.01
  Q 241.96 51.18 241.93 54.51
  Q 241.80 69.76 241.82 82.74
  Q 241.82 84.31 240.36 84.67
  Q 234.15 86.20 226.16 85.26
  Q 225.54 85.18 225.47 84.56
  Q 224.75 78.19 222.40 72.78
  Q 221.78 71.35 221.26 72.81
  Q 220.74 74.29 220.25 75.84
  A 4.69 4.63 -46.9 0 0 220.33 78.84
  L 222.20 83.91
  A 0.99 0.99 0.0 0 1 221.28 85.24
  L 199.69 85.29
  Q 199.04 85.29 198.89 84.65
  C 197.96 80.51 196.36 76.83 193.54 73.88
  A 2.28 2.27 -41.6 0 0 190.44 73.70
  C 187.69 75.98 186.81 80.27 185.68 83.52
  A 2.59 2.59 0.0 0 1 183.22 85.26
  L 169.74 85.26
  Q 167.22 85.26 167.22 82.74
  L 167.19 49.47
  Q 167.19 47.91 166.25 49.15
  C 164.85 51.01 163.90 53.15 163.91 55.53
  Q 163.91 67.84 163.81 80.87
  C 163.78 84.58 165.13 91.22 169.87 91.27
  Q 175.71 91.32 182.97 91.32
  Q 183.61 91.32 184.07 90.88
  Q 185.12 89.86 185.73 88.45
  A 0.71 0.70 -52.5 0 1 186.93 88.29
  Q 189.45 91.48 193.58 91.45
  Q 227.38 91.25 261.64 91.37
  A 1.77 1.77 0.0 0 0 263.40 89.79
  C 264.00 84.10 264.37 78.43 259.16 74.82
  C 254.08 71.29 248.65 76.69 245.76 80.60
  A 0.46 0.46 0.0 0 1 244.93 80.32
  Z
  M 115.24 147.60
  C 104.78 151.05 92.14 153.01 80.64 152.89
  Q 80.42 152.89 80.41 153.11
  L 80.41 153.12
  Q 80.40 153.30 80.58 153.31
  Q 104.43 154.99 127.82 150.24
  C 141.20 147.52 161.89 140.32 156.03 121.90
  Q 154.73 117.78 152.40 114.31
  Q 145.37 103.85 135.35 95.23
  Q 117.00 79.45 93.66 64.59
  Q 93.10 64.24 93.21 64.88
  Q 93.29 65.31 93.62 65.58
  Q 109.42 78.25 121.99 93.88
  C 129.31 102.97 136.86 115.05 135.91 126.70
  C 135.02 137.81 125.04 144.37 115.24 147.60
  Z
  M 285.12 91.25
  Q 286.39 91.15 285.97 92.35
  C 283.03 100.84 273.28 105.62 267.68 95.94
  Q 266.60 94.07 266.97 96.20
  C 267.59 99.86 270.87 105.28 275.16 105.67
  C 282.99 106.39 287.84 99.27 288.87 92.11
  Q 289.00 91.14 289.98 91.19
  Q 296.35 91.47 303.45 91.27
  C 305.00 91.22 306.03 90.66 307.43 90.20
  A 1.50 1.47 -43.9 0 1 308.42 90.21
  C 311.73 91.46 318.11 92.29 321.15 89.79
  Q 321.72 89.32 322.36 89.71
  Q 326.28 92.10 332.50 91.48
  C 336.40 91.09 334.70 78.44 334.24 76.26
  Q 333.98 75.04 333.02 75.84
  Q 332.14 76.57 331.43 77.53
  A 3.73 3.68 60.2 0 0 330.74 80.13
  L 331.10 83.25
  Q 331.33 85.32 329.25 85.30
  L 325.92 85.26
  Q 324.35 85.24 324.45 83.67
  L 324.90 76.73
  A 0.42 0.41 73.4 0 0 324.24 76.37
  C 321.77 78.21 321.34 81.37 321.28 84.24
  A 1.12 1.12 0.0 0 1 320.10 85.34
  L 310.61 84.87
  Q 309.88 84.84 309.91 84.11
  L 310.22 76.65
  Q 310.29 75.04 309.14 76.17
  Q 308.24 77.06 307.52 78.27
  Q 306.73 79.59 306.79 81.14
  Q 306.86 82.74 306.25 84.34
  Q 306.03 84.93 305.40 84.95
  L 290.25 85.42
  Q 289.40 85.45 289.35 84.59
  C 289.11 80.11 288.56 75.09 284.97 72.41
  Q 284.50 72.06 284.02 72.38
  Q 282.25 73.56 281.33 75.47
  C 279.07 80.18 277.21 87.45 282.52 90.85
  C 283.30 91.35 284.23 91.32 285.12 91.25
  Z
  M 215.40 104.70
  L 212.36 101.55
  Q 211.48 100.64 210.90 101.77
  L 209.73 104.04
  Q 209.04 105.40 210.21 106.37
  L 213.43 109.01
  A 0.57 0.57 0.0 0 0 214.32 108.80
  L 215.71 105.51
  Q 215.94 104.97 216.43 105.30
  Q 217.83 106.23 218.97 107.83
  Q 220.16 109.48 220.98 107.62
  L 221.67 106.06
  Q 222.37 104.49 221.05 103.40
  L 218.24 101.09
  A 0.69 0.68 29.8 0 0 217.16 101.38
  L 216.01 104.57
  Q 215.81 105.13 215.40 104.70
  Z
  M 83.73 124.13
  A 0.42 0.42 0.0 0 0 83.73 124.65
  L 95.12 139.49
  A 0.42 0.42 0.0 0 0 95.78 139.49
  L 107.53 124.83
  A 0.42 0.42 0.0 0 0 107.53 124.31
  L 95.86 109.66
  A 0.42 0.42 0.0 0 0 95.20 109.66
  L 83.73 124.13
  Z
  M 196.11 125.65
  A 0.91 0.90 3.2 0 1 196.92 126.55
  Q 196.96 135.15 196.93 143.01
  C 196.91 147.40 200.06 151.65 204.94 149.90
  Q 209.56 148.25 208.57 143.45
  Q 208.37 142.50 207.77 143.27
  Q 206.07 145.46 202.98 145.04
  A 1.20 1.19 75.7 0 1 202.18 144.56
  Q 201.27 143.31 201.24 141.75
  Q 201.10 134.35 201.26 126.44
  A 0.99 0.99 0.0 0 1 202.28 125.47
  L 207.36 125.64
  Q 208.66 125.68 208.63 124.39
  L 208.59 122.11
  Q 208.56 120.90 207.36 120.98
  L 202.50 121.30
  A 0.96 0.95 -0.6 0 1 201.48 120.31
  Q 201.61 117.52 201.63 114.54
  Q 201.64 113.61 200.97 113.11
  A 0.63 0.63 0.0 0 0 199.98 113.46
  C 199.38 115.91 197.51 120.22 194.97 121.41
  C 193.46 122.13 192.81 123.69 193.40 125.26
  A 0.80 0.80 0.0 0 0 194.33 125.76
  Q 195.24 125.56 196.11 125.65
  Z
  M 222.79 123.72
  L 222.81 114.01
  A 0.85 0.84 1.8 0 0 222.01 113.17
  L 219.56 113.02
  Q 218.58 112.96 218.58 113.94
  L 218.50 148.33
  Q 218.49 149.66 219.83 149.67
  L 221.67 149.69
  Q 222.96 149.70 222.94 148.41
  Q 222.86 141.82 222.87 134.88
  C 222.87 130.78 224.02 124.71 229.27 125.07
  C 232.10 125.26 233.21 128.48 233.25 130.87
  Q 233.39 139.78 233.27 148.46
  Q 233.25 149.68 234.48 149.66
  L 236.47 149.61
  A 1.08 1.08 0.0 0 0 237.53 148.52
  C 237.50 142.31 237.40 135.91 237.51 129.53
  C 237.62 123.37 234.70 118.07 227.50 120.16
  C 225.61 120.70 224.67 122.57 223.39 123.96
  Q 222.79 124.61 222.79 123.72
  Z
  M 295.36 124.78
  C 294.11 120.67 290.78 118.60 286.81 120.22
  C 285.10 120.92 284.12 122.63 282.91 123.96
  Q 282.31 124.62 282.28 123.73
  L 282.19 121.07
  Q 282.16 119.99 281.07 119.98
  L 279.76 119.97
  Q 278.48 119.96 278.48 121.24
  L 278.40 148.44
  Q 278.40 149.73 279.69 149.74
  L 281.30 149.74
  Q 282.74 149.74 282.63 148.30
  C 282.34 144.44 280.84 124.34 287.89 125.00
  C 290.72 125.26 291.59 128.98 291.63 131.29
  Q 291.80 139.61 291.64 148.59
  Q 291.62 149.74 292.76 149.69
  L 294.95 149.59
  Q 296.06 149.54 295.97 148.44
  C 295.62 143.84 294.46 126.87 300.33 125.20
  C 304.15 124.11 304.97 129.06 305.05 131.71
  Q 305.27 140.01 305.16 148.51
  Q 305.14 149.74 306.37 149.72
  L 308.28 149.68
  A 1.28 1.28 0.0 0 0 309.53 148.40
  Q 309.53 138.64 309.46 129.56
  C 309.43 124.53 307.75 118.72 301.23 119.86
  Q 297.77 120.46 296.23 124.80
  Q 295.77 126.12 295.36 124.78
  Z
  M 177.20 120.46
  C 171.93 118.70 166.28 120.01 164.21 125.55
  C 162.66 129.70 162.75 134.51 163.07 138.82
  C 163.57 145.59 167.72 151.32 175.40 150.01
  C 179.80 149.27 182.26 145.30 183.08 141.26
  C 184.33 135.01 184.67 122.95 177.20 120.46
  Z
  M 254.46 136.60
  L 266.72 136.63
  Q 267.22 136.64 267.28 136.13
  C 268.15 128.91 267.04 118.89 257.33 119.77
  C 251.48 120.30 248.92 127.07 248.56 132.22
  C 248.20 137.24 248.69 143.19 252.03 147.21
  C 254.53 150.23 258.41 151.00 262.02 149.45
  C 266.36 147.59 266.72 144.26 266.50 139.97
  Q 266.48 139.74 266.30 139.58
  Q 266.26 139.54 266.21 139.53
  Q 265.73 139.49 265.58 139.91
  Q 263.46 145.84 257.80 145.24
  A 4.50 4.50 0.0 0 1 254.03 142.29
  Q 253.22 140.03 252.82 138.93
  Q 251.98 136.60 254.46 136.60
  Z
  M 332.69 146.78
  L 332.79 148.75
  Q 332.83 149.68 333.76 149.70
  L 335.98 149.74
  Q 336.97 149.77 336.97 148.78
  Q 337.02 138.11 336.99 127.00
  C 336.97 119.25 329.56 118.11 323.95 121.67
  C 321.36 123.32 321.46 126.11 321.65 128.85
  Q 321.70 129.70 322.30 129.10
  C 323.57 127.82 324.89 125.98 326.66 125.48
  C 328.60 124.93 331.15 124.44 332.24 126.70
  C 333.89 130.10 331.95 132.20 328.84 133.02
  C 322.07 134.81 318.95 138.97 320.94 146.15
  C 322.19 150.65 328.15 151.86 330.90 147.94
  Q 331.41 147.20 331.99 146.54
  Q 332.65 145.79 332.69 146.78
  Z"
/>
<path fill="#6abee2" d="
  M 135.28 23.32
  Q 123.36 24.75 113.40 27.00
  Q 106.34 28.60 98.74 32.81
  C 89.54 37.92 84.49 46.62 87.01 57.32
  Q 88.62 64.14 91.35 68.95
  Q 98.73 81.94 108.90 92.39
  C 111.96 95.52 114.78 98.77 118.01 101.60
  Q 123.06 106.01 128.05 110.53
  Q 128.19 110.65 128.07 110.79
  L 127.80 111.12
  Q 127.64 111.30 127.44 111.17
  Q 111.22 100.68 97.46 90.01
  C 85.77 80.95 51.99 53.55 70.99 36.41
  C 77.96 30.13 90.30 26.70 99.00 25.34
  Q 119.38 22.14 139.74 22.45
  Q 141.88 22.49 139.77 22.88
  C 138.33 23.15 136.80 23.13 135.28 23.32
  Z"
/>
<path fill="#106ab2" d="
  M 244.93 80.32
  A 0.46 0.46 0.0 0 0 245.76 80.60
  C 248.65 76.69 254.08 71.29 259.16 74.82
  C 264.37 78.43 264.00 84.10 263.40 89.79
  A 1.77 1.77 0.0 0 1 261.64 91.37
  Q 227.38 91.25 193.58 91.45
  Q 189.45 91.48 186.93 88.29
  A 0.71 0.70 -52.5 0 0 185.73 88.45
  Q 185.12 89.86 184.07 90.88
  Q 183.61 91.32 182.97 91.32
  Q 175.71 91.32 169.87 91.27
  C 165.13 91.22 163.78 84.58 163.81 80.87
  Q 163.91 67.84 163.91 55.53
  C 163.90 53.15 164.85 51.01 166.25 49.15
  Q 167.19 47.91 167.19 49.47
  L 167.22 82.74
  Q 167.22 85.26 169.74 85.26
  L 183.22 85.26
  A 2.59 2.59 0.0 0 0 185.68 83.52
  C 186.81 80.27 187.69 75.98 190.44 73.70
  A 2.28 2.27 -41.6 0 1 193.54 73.88
  C 196.36 76.83 197.96 80.51 198.89 84.65
  Q 199.04 85.29 199.69 85.29
  L 221.28 85.24
  A 0.99 0.99 0.0 0 0 222.20 83.91
  L 220.33 78.84
  A 4.69 4.63 -46.9 0 1 220.25 75.84
  Q 220.74 74.29 221.26 72.81
  Q 221.78 71.35 222.40 72.78
  Q 224.75 78.19 225.47 84.56
  Q 225.54 85.18 226.16 85.26
  Q 234.15 86.20 240.36 84.67
  Q 241.82 84.31 241.82 82.74
  Q 241.80 69.76 241.93 54.51
  Q 241.96 51.18 244.18 48.01
  Q 244.68 47.30 244.73 48.16
  C 245.34 58.83 245.09 69.75 244.93 80.32
  Z
  M 193.31 86.04
  A 1.65 1.65 0.0 0 0 195.64 84.18
  L 195.16 82.18
  A 1.65 1.65 0.0 0 0 194.85 81.53
  L 193.06 79.27
  A 1.65 1.65 0.0 0 0 190.45 79.30
  L 188.69 81.61
  A 1.65 1.65 0.0 0 0 189.29 84.09
  L 193.31 86.04
  Z
  M 254.19 79.52
  A 1.62 1.62 0.0 0 0 252.78 79.67
  L 247.24 83.11
  A 1.62 1.62 0.0 0 0 248.14 86.10
  L 259.22 85.83
  A 1.62 1.62 0.0 0 0 260.44 83.20
  L 259.17 81.61
  A 1.62 1.62 0.0 0 0 258.46 81.09
  L 254.19 79.52
  Z"
/>
<path fill="#106ab2" d="
  M 80.64 152.89
  C 92.14 153.01 104.78 151.05 115.24 147.60
  C 125.04 144.37 135.02 137.81 135.91 126.70
  C 136.86 115.05 129.31 102.97 121.99 93.88
  Q 109.42 78.25 93.62 65.58
  Q 93.29 65.31 93.21 64.88
  Q 93.10 64.24 93.66 64.59
  Q 117.00 79.45 135.35 95.23
  Q 145.37 103.85 152.40 114.31
  Q 154.73 117.78 156.03 121.90
  C 161.89 140.32 141.20 147.52 127.82 150.24
  Q 104.43 154.99 80.58 153.31
  Q 80.40 153.30 80.41 153.12
  L 80.41 153.11
  Q 80.42 152.89 80.64 152.89
  Z"
/>
<path fill="#106ab2" d="
  M 285.12 91.25
  C 284.23 91.32 283.30 91.35 282.52 90.85
  C 277.21 87.45 279.07 80.18 281.33 75.47
  Q 282.25 73.56 284.02 72.38
  Q 284.50 72.06 284.97 72.41
  C 288.56 75.09 289.11 80.11 289.35 84.59
  Q 289.40 85.45 290.25 85.42
  L 305.40 84.95
  Q 306.03 84.93 306.25 84.34
  Q 306.86 82.74 306.79 81.14
  Q 306.73 79.59 307.52 78.27
  Q 308.24 77.06 309.14 76.17
  Q 310.29 75.04 310.22 76.65
  L 309.91 84.11
  Q 309.88 84.84 310.61 84.87
  L 320.10 85.34
  A 1.12 1.12 0.0 0 0 321.28 84.24
  C 321.34 81.37 321.77 78.21 324.24 76.37
  A 0.42 0.41 73.4 0 1 324.90 76.73
  L 324.45 83.67
  Q 324.35 85.24 325.92 85.26
  L 329.25 85.30
  Q 331.33 85.32 331.10 83.25
  L 330.74 80.13
  A 3.73 3.68 60.2 0 1 331.43 77.53
  Q 332.14 76.57 333.02 75.84
  Q 333.98 75.04 334.24 76.26
  C 334.70 78.44 336.40 91.09 332.50 91.48
  Q 326.28 92.10 322.36 89.71
  Q 321.72 89.32 321.15 89.79
  C 318.11 92.29 311.73 91.46 308.42 90.21
  A 1.50 1.47 -43.9 0 0 307.43 90.20
  C 306.03 90.66 305.00 91.22 303.45 91.27
  Q 296.35 91.47 289.98 91.19
  Q 289.00 91.14 288.87 92.11
  C 287.84 99.27 282.99 106.39 275.16 105.67
  C 270.87 105.28 267.59 99.86 266.97 96.20
  Q 266.60 94.07 267.68 95.94
  C 273.28 105.62 283.03 100.84 285.97 92.35
  Q 286.39 91.15 285.12 91.25
  Z
  M 285.08 85.14
  A 1.18 1.18 0.0 0 0 286.66 83.74
  L 286.16 81.89
  A 1.18 1.18 0.0 0 0 285.92 81.44
  L 284.52 79.76
  A 1.18 1.18 0.0 0 0 282.49 80.16
  L 281.71 82.61
  A 1.18 1.18 0.0 0 0 282.40 84.06
  L 285.08 85.14
  Z"
/>
<path fill="#f7f7f7" d="
  M 193.31 86.04
  L 189.29 84.09
  A 1.65 1.65 0.0 0 1 188.69 81.61
  L 190.45 79.30
  A 1.65 1.65 0.0 0 1 193.06 79.27
  L 194.85 81.53
  A 1.65 1.65 0.0 0 1 195.16 82.18
  L 195.64 84.18
  A 1.65 1.65 0.0 0 1 193.31 86.04
  Z"
/>
<path fill="#f7f7f7" d="
  M 285.08 85.14
  L 282.40 84.06
  A 1.18 1.18 0.0 0 1 281.71 82.61
  L 282.49 80.16
  A 1.18 1.18 0.0 0 1 284.52 79.76
  L 285.92 81.44
  A 1.18 1.18 0.0 0 1 286.16 81.89
  L 286.66 83.74
  A 1.18 1.18 0.0 0 1 285.08 85.14
  Z"
/>
<path fill="#f7f7f7" d="
  M 254.19 79.52
  L 258.46 81.09
  A 1.62 1.62 0.0 0 1 259.17 81.61
  L 260.44 83.20
  A 1.62 1.62 0.0 0 1 259.22 85.83
  L 248.14 86.10
  A 1.62 1.62 0.0 0 1 247.24 83.11
  L 252.78 79.67
  A 1.62 1.62 0.0 0 1 254.19 79.52
  Z"
/>
<path fill="#106ab2" d="
  M 216.01 104.57
  L 217.16 101.38
  A 0.69 0.68 29.8 0 1 218.24 101.09
  L 221.05 103.40
  Q 222.37 104.49 221.67 106.06
  L 220.98 107.62
  Q 220.16 109.48 218.97 107.83
  Q 217.83 106.23 216.43 105.30
  Q 215.94 104.97 215.71 105.51
  L 214.32 108.80
  A 0.57 0.57 0.0 0 1 213.43 109.01
  L 210.21 106.37
  Q 209.04 105.40 209.73 104.04
  L 210.90 101.77
  Q 211.48 100.64 212.36 101.55
  L 215.40 104.70
  Q 215.81 105.13 216.01 104.57
  Z"
/>
<path fill="#eb3240" d="
  M 83.73 124.13
  L 95.20 109.66
  A 0.42 0.42 0.0 0 1 95.86 109.66
  L 107.53 124.31
  A 0.42 0.42 0.0 0 1 107.53 124.83
  L 95.78 139.49
  A 0.42 0.42 0.0 0 1 95.12 139.49
  L 83.73 124.65
  A 0.42 0.42 0.0 0 1 83.73 124.13
  Z"
/>
<path fill="#106ab2" d="
  M 196.11 125.65
  Q 195.24 125.56 194.33 125.76
  A 0.80 0.80 0.0 0 1 193.40 125.26
  C 192.81 123.69 193.46 122.13 194.97 121.41
  C 197.51 120.22 199.38 115.91 199.98 113.46
  A 0.63 0.63 0.0 0 1 200.97 113.11
  Q 201.64 113.61 201.63 114.54
  Q 201.61 117.52 201.48 120.31
  A 0.96 0.95 -0.6 0 0 202.50 121.30
  L 207.36 120.98
  Q 208.56 120.90 208.59 122.11
  L 208.63 124.39
  Q 208.66 125.68 207.36 125.64
  L 202.28 125.47
  A 0.99 0.99 0.0 0 0 201.26 126.44
  Q 201.10 134.35 201.24 141.75
  Q 201.27 143.31 202.18 144.56
  A 1.20 1.19 75.7 0 0 202.98 145.04
  Q 206.07 145.46 207.77 143.27
  Q 208.37 142.50 208.57 143.45
  Q 209.56 148.25 204.94 149.90
  C 200.06 151.65 196.91 147.40 196.93 143.01
  Q 196.96 135.15 196.92 126.55
  A 0.91 0.90 3.2 0 0 196.11 125.65
  Z"
/>
<path fill="#106ab2" d="
  M 223.39 123.96
  C 224.67 122.57 225.61 120.70 227.50 120.16
  C 234.70 118.07 237.62 123.37 237.51 129.53
  C 237.40 135.91 237.50 142.31 237.53 148.52
  A 1.08 1.08 0.0 0 1 236.47 149.61
  L 234.48 149.66
  Q 233.25 149.68 233.27 148.46
  Q 233.39 139.78 233.25 130.87
  C 233.21 128.48 232.10 125.26 229.27 125.07
  C 224.02 124.71 222.87 130.78 222.87 134.88
  Q 222.86 141.82 222.94 148.41
  Q 222.96 149.70 221.67 149.69
  L 219.83 149.67
  Q 218.49 149.66 218.50 148.33
  L 218.58 113.94
  Q 218.58 112.96 219.56 113.02
  L 222.01 113.17
  A 0.85 0.84 1.8 0 1 222.81 114.01
  L 222.79 123.72
  Q 222.79 124.61 223.39 123.96
  Z"
/>
<path fill="#106ab2" d="
  M 295.36 124.78
  Q 295.77 126.12 296.23 124.80
  Q 297.77 120.46 301.23 119.86
  C 307.75 118.72 309.43 124.53 309.46 129.56
  Q 309.53 138.64 309.53 148.40
  A 1.28 1.28 0.0 0 1 308.28 149.68
  L 306.37 149.72
  Q 305.14 149.74 305.16 148.51
  Q 305.27 140.01 305.05 131.71
  C 304.97 129.06 304.15 124.11 300.33 125.20
  C 294.46 126.87 295.62 143.84 295.97 148.44
  Q 296.06 149.54 294.95 149.59
  L 292.76 149.69
  Q 291.62 149.74 291.64 148.59
  Q 291.80 139.61 291.63 131.29
  C 291.59 128.98 290.72 125.26 287.89 125.00
  C 280.84 124.34 282.34 144.44 282.63 148.30
  Q 282.74 149.74 281.30 149.74
  L 279.69 149.74
  Q 278.40 149.73 278.40 148.44
  L 278.48 121.24
  Q 278.48 119.96 279.76 119.97
  L 281.07 119.98
  Q 282.16 119.99 282.19 121.07
  L 282.28 123.73
  Q 282.31 124.62 282.91 123.96
  C 284.12 122.63 285.10 120.92 286.81 120.22
  C 290.78 118.60 294.11 120.67 295.36 124.78
  Z"
/>
<path fill="#106ab2" d="
  M 177.20 120.46
  C 184.67 122.95 184.33 135.01 183.08 141.26
  C 182.26 145.30 179.80 149.27 175.40 150.01
  C 167.72 151.32 163.57 145.59 163.07 138.82
  C 162.75 134.51 162.66 129.70 164.21 125.55
  C 166.28 120.01 171.93 118.70 177.20 120.46
  Z
  M 173.1343 145.3292
  A 10.29 6.59 90.7 0 0 179.8495 135.1205
  A 10.29 6.59 90.7 0 0 173.3857 124.7508
  A 10.29 6.59 90.7 0 0 166.6705 134.9595
  A 10.29 6.59 90.7 0 0 173.1343 145.3292
  Z"
/>
<path fill="#106ab2" d="
  M 254.46 136.60
  Q 251.98 136.60 252.82 138.93
  Q 253.22 140.03 254.03 142.29
  A 4.50 4.50 0.0 0 0 257.80 145.24
  Q 263.46 145.84 265.58 139.91
  Q 265.73 139.49 266.21 139.53
  Q 266.26 139.54 266.30 139.58
  Q 266.48 139.74 266.50 139.97
  C 266.72 144.26 266.36 147.59 262.02 149.45
  C 258.41 151.00 254.53 150.23 252.03 147.21
  C 248.69 143.19 248.20 137.24 248.56 132.22
  C 248.92 127.07 251.48 120.30 257.33 119.77
  C 267.04 118.89 268.15 128.91 267.28 136.13
  Q 267.22 136.64 266.72 136.63
  L 254.46 136.60
  Z
  M 253.26 131.93
  L 264.00 131.73
  A 0.22 0.22 0.0 0 0 264.21 131.50
  L 264.20 130.78
  A 6.16 5.13 88.9 0 0 258.95 124.72
  L 258.03 124.74
  A 6.16 5.13 88.9 0 0 253.02 131.00
  L 253.03 131.72
  A 0.22 0.22 0.0 0 0 253.26 131.93
  Z"
/>
<path fill="#106ab2" d="
  M 331.99 146.54
  Q 331.41 147.20 330.90 147.94
  C 328.15 151.86 322.19 150.65 320.94 146.15
  C 318.95 138.97 322.07 134.81 328.84 133.02
  C 331.95 132.20 333.89 130.10 332.24 126.70
  C 331.15 124.44 328.60 124.93 326.66 125.48
  C 324.89 125.98 323.57 127.82 322.30 129.10
  Q 321.70 129.70 321.65 128.85
  C 321.46 126.11 321.36 123.32 323.95 121.67
  C 329.56 118.11 336.97 119.25 336.99 127.00
  Q 337.02 138.11 336.97 148.78
  Q 336.97 149.77 335.98 149.74
  L 333.76 149.70
  Q 332.83 149.68 332.79 148.75
  L 332.69 146.78
  Q 332.65 145.79 331.99 146.54
  Z
  M 332.02 135.36
  Q 329.16 136.74 326.85 138.18
  C 324.68 139.54 323.48 143.47 326.06 145.17
  Q 327.23 145.94 328.52 145.64
  C 332.38 144.72 333.05 138.96 332.58 135.66
  Q 332.51 135.12 332.02 135.36
  Z"
/>
<path fill="#f7f7f7" d="
  M 253.26 131.93
  A 0.22 0.22 0.0 0 1 253.03 131.72
  L 253.02 131.00
  A 6.16 5.13 88.9 0 1 258.03 124.74
  L 258.95 124.72
  A 6.16 5.13 88.9 0 1 264.20 130.78
  L 264.21 131.50
  A 0.22 0.22 0.0 0 1 264.00 131.73
  L 253.26 131.93
  Z"
/>
<ellipse fill="#f7f7f7" cx="0.00" cy="0.00" transform="translate(173.26,135.04) rotate(90.7)" rx="10.29" ry="6.59"/>
<path fill="#f7f7f7" d="
  M 332.02 135.36
  Q 332.51 135.12 332.58 135.66
  C 333.05 138.96 332.38 144.72 328.52 145.64
  Q 327.23 145.94 326.06 145.17
  C 323.48 143.47 324.68 139.54 326.85 138.18
  Q 329.16 136.74 332.02 135.36
  Z"
/>
</svg>
