<?xml version="1.0" encoding="UTF-8" standalone="no"?>
<!DOCTYPE svg PUBLIC "-//W3C//DTD SVG 1.1//EN" "http://www.w3.org/Graphics/SVG/1.1/DTD/svg11.dtd">
<svg xmlns="http://www.w3.org/2000/svg" version="1.1" viewBox="0.00 0.00 400.00 195.00">
<g stroke-width="2.00" fill="none" stroke-linecap="butt">
<path stroke="#91a3cf" vector-effect="non-scaling-stroke" d="
  M 271.34 168.13
  C 278.09 169.93 284.73 172.54 291.46 174.88
  Q 294.95 176.09 299.25 175.39
  A 0.36 0.35 -4.8 0 0 299.55 175.04
  L 299.72 15.49
  A 0.48 0.48 0.0 0 0 299.24 15.01
  L 119.50 15.01
  A 0.49 0.48 -90.0 0 0 119.02 15.50
  L 119.02 174.97
  Q 119.02 175.45 119.49 175.51
  Q 122.70 175.89 125.47 174.86
  Q 196.85 148.23 271.34 168.13"
/>
<path stroke="#91a3cf" vector-effect="non-scaling-stroke" d="
  M 141.46 87.80
  Q 139.35 87.83 140.32 85.96
  Q 143.33 80.21 147.16 76.02
  C 152.82 69.82 157.22 63.97 158.16 55.58
  A 0.63 0.63 0.0 0 0 157.53 54.88
  L 127.52 54.88
  Q 126.92 54.88 126.92 55.48
  L 126.89 65.95
  Q 126.89 66.56 127.49 66.67
  Q 128.51 66.87 129.60 66.70
  A 1.08 1.08 0.0 0 0 130.47 65.99
  Q 131.19 63.96 132.42 62.20
  Q 134.16 59.71 137.17 59.28
  Q 139.45 58.96 141.72 58.65
  Q 144.56 58.25 143.16 60.75
  Q 140.18 66.14 136.81 69.73
  Q 132.67 74.14 129.84 78.07
  C 127.56 81.24 125.02 86.83 124.97 91.18
  Q 124.96 91.76 125.54 91.76
  L 156.76 91.79
  Q 157.32 91.79 157.32 91.24
  L 157.39 80.48
  Q 157.39 79.80 156.71 79.80
  L 153.83 79.80
  A 0.92 0.91 -85.1 0 0 152.93 80.57
  Q 152.49 83.17 151.02 85.20
  Q 149.18 87.73 146.06 87.76
  L 141.46 87.80"
/>
<path stroke="#91a3cf" vector-effect="non-scaling-stroke" d="
  M 178.27 70.48
  L 178.25 59.78
  Q 178.24 59.08 178.93 59.00
  C 185.08 58.21 188.74 59.68 190.54 65.89
  A 1.11 1.09 87.1 0 0 191.37 66.66
  Q 192.72 66.92 194.19 66.71
  A 0.92 0.91 86.4 0 0 194.97 65.81
  L 195.00 55.18
  A 0.32 0.32 0.0 0 0 194.68 54.85
  L 162.69 54.81
  Q 161.94 54.81 161.93 55.56
  L 161.92 57.90
  Q 161.91 58.77 162.77 58.85
  Q 165.74 59.11 165.75 61.98
  Q 165.79 71.41 165.75 84.57
  Q 165.74 87.43 163.09 87.88
  A 1.47 1.47 0.0 0 0 161.86 89.23
  L 161.75 90.72
  Q 161.67 91.77 162.72 91.77
  L 194.46 91.80
  A 0.51 0.51 0.0 0 0 194.97 91.29
  L 194.98 80.74
  Q 194.98 80.05 194.31 79.88
  Q 192.74 79.49 191.33 80.05
  Q 190.76 80.27 190.59 80.86
  C 188.69 87.37 185.30 87.96 179.13 87.78
  A 0.88 0.88 0.0 0 1 178.27 86.90
  L 178.27 76.17
  A 0.94 0.94 0.0 0 1 179.18 75.23
  Q 182.69 75.10 183.03 78.43
  Q 183.18 79.84 184.59 79.91
  L 186.05 79.97
  A 1.27 1.27 0.0 0 0 187.39 78.69
  L 187.28 67.78
  Q 187.27 66.80 186.28 66.81
  L 184.28 66.82
  Q 183.28 66.83 183.19 67.82
  Q 182.81 71.76 179.05 71.34
  Q 178.28 71.25 178.27 70.48"
/>
<path stroke="#91a3cf" vector-effect="non-scaling-stroke" d="
  M 199.89 58.68
  C 203.29 59.51 203.40 60.68 203.45 63.88
  Q 203.59 73.08 203.38 84.36
  Q 203.33 87.38 200.51 87.82
  Q 199.88 87.92 199.58 88.49
  Q 198.99 89.67 199.17 90.96
  Q 199.28 91.70 200.02 91.70
  L 219.43 91.79
  Q 220.34 91.80 220.28 90.89
  Q 220.13 88.68 220.13 88.66
  Q 220.07 87.74 219.15 87.74
  Q 216.14 87.77 216.09 84.56
  Q 215.87 72.63 216.08 61.49
  A 2.35 2.35 0.0 0 1 217.85 59.25
  L 219.82 58.75
  Q 220.27 58.64 220.26 58.18
  L 220.20 55.53
  Q 220.19 54.87 219.53 54.87
  L 200.31 54.87
  Q 199.58 54.87 199.38 55.58
  Q 199.08 56.71 199.29 58.02
  Q 199.37 58.55 199.89 58.68"
/>
<path stroke="#91a3cf" vector-effect="non-scaling-stroke" d="
  M 238.80 58.94
  Q 249.36 57.81 251.16 65.87
  A 1.13 1.12 -6.0 0 0 252.26 66.75
  L 254.20 66.73
  Q 255.12 66.72 255.12 65.80
  L 255.13 55.25
  A 0.38 0.38 0.0 0 0 254.75 54.87
  L 226.69 54.90
  Q 224.74 54.90 224.53 56.83
  C 223.95 62.16 227.88 68.26 231.36 72.00
  C 235.57 76.52 239.58 81.39 241.98 86.98
  A 0.72 0.71 -8.0 0 1 241.23 87.97
  Q 239.25 87.71 236.95 87.79
  C 232.49 87.94 229.82 84.74 228.97 80.51
  A 0.82 0.82 0.0 0 0 228.19 79.85
  L 225.28 79.76
  Q 224.55 79.74 224.56 80.47
  L 224.69 91.49
  A 0.30 0.29 -0.0 0 0 224.99 91.78
  L 254.50 91.75
  A 0.98 0.96 9.2 0 0 255.42 91.10
  C 257.54 84.82 251.78 76.79 247.52 72.49
  C 243.75 68.68 240.55 64.79 238.29 59.83
  A 0.63 0.63 0.0 0 1 238.80 58.94"
/>
<path stroke="#91a3cf" vector-effect="non-scaling-stroke" d="
  M 274.37 58.77
  C 280.55 58.48 284.57 59.55 286.61 65.95
  Q 286.87 66.78 287.74 66.76
  L 290.03 66.71
  Q 290.74 66.69 290.74 65.97
  L 290.74 55.51
  A 0.58 0.58 0.0 0 0 290.16 54.93
  L 261.29 54.87
  A 1.49 1.48 4.8 0 0 259.82 56.10
  C 258.39 64.32 266.11 71.53 270.90 77.13
  Q 274.70 81.58 277.23 86.75
  A 0.68 0.68 0.0 0 1 276.66 87.73
  C 274.20 87.88 270.58 88.15 268.50 87.02
  Q 264.85 85.05 264.05 79.93
  Q 264.03 79.83 263.93 79.83
  L 260.08 79.84
  Q 259.75 79.84 259.75 80.17
  L 259.77 91.15
  A 0.63 0.62 89.6 0 0 260.40 91.78
  L 289.26 91.75
  A 1.71 1.70 3.7 0 0 290.94 90.28
  C 292.11 81.68 284.54 74.64 279.49 68.92
  Q 275.97 64.93 273.77 59.72
  Q 273.39 58.82 274.37 58.77"
/>
</g>
<path fill="#ffffff" d="
  M 0.00 0.00
  L 400.00 0.00
  L 400.00 195.00
  L 0.00 195.00
  L 0.00 0.00
  Z
  M 271.34 168.13
  C 278.09 169.93 284.73 172.54 291.46 174.88
  Q 294.95 176.09 299.25 175.39
  A 0.36 0.35 -4.8 0 0 299.55 175.04
  L 299.72 15.49
  A 0.48 0.48 0.0 0 0 299.24 15.01
  L 119.50 15.01
  A 0.49 0.48 -90.0 0 0 119.02 15.50
  L 119.02 174.97
  Q 119.02 175.45 119.49 175.51
  Q 122.70 175.89 125.47 174.86
  Q 196.85 148.23 271.34 168.13
  Z"
/>
<path fill="#23479e" d="
  M 271.34 168.13
  Q 196.85 148.23 125.47 174.86
  Q 122.70 175.89 119.49 175.51
  Q 119.02 175.45 119.02 174.97
  L 119.02 15.50
  A 0.49 0.48 -90.0 0 1 119.50 15.01
  L 299.24 15.01
  A 0.48 0.48 0.0 0 1 299.72 15.49
  L 299.55 175.04
  A 0.36 0.35 -4.8 0 1 299.25 175.39
  Q 294.95 176.09 291.46 174.88
  C 284.73 172.54 278.09 169.93 271.34 168.13
  Z
  M 141.46 87.80
  Q 139.35 87.83 140.32 85.96
  Q 143.33 80.21 147.16 76.02
  C 152.82 69.82 157.22 63.97 158.16 55.58
  A 0.63 0.63 0.0 0 0 157.53 54.88
  L 127.52 54.88
  Q 126.92 54.88 126.92 55.48
  L 126.89 65.95
  Q 126.89 66.56 127.49 66.67
  Q 128.51 66.87 129.60 66.70
  A 1.08 1.08 0.0 0 0 130.47 65.99
  Q 131.19 63.96 132.42 62.20
  Q 134.16 59.71 137.17 59.28
  Q 139.45 58.96 141.72 58.65
  Q 144.56 58.25 143.16 60.75
  Q 140.18 66.14 136.81 69.73
  Q 132.67 74.14 129.84 78.07
  C 127.56 81.24 125.02 86.83 124.97 91.18
  Q 124.96 91.76 125.54 91.76
  L 156.76 91.79
  Q 157.32 91.79 157.32 91.24
  L 157.39 80.48
  Q 157.39 79.80 156.71 79.80
  L 153.83 79.80
  A 0.92 0.91 -85.1 0 0 152.93 80.57
  Q 152.49 83.17 151.02 85.20
  Q 149.18 87.73 146.06 87.76
  L 141.46 87.80
  Z
  M 178.27 70.48
  L 178.25 59.78
  Q 178.24 59.08 178.93 59.00
  C 185.08 58.21 188.74 59.68 190.54 65.89
  A 1.11 1.09 87.1 0 0 191.37 66.66
  Q 192.72 66.92 194.19 66.71
  A 0.92 0.91 86.4 0 0 194.97 65.81
  L 195.00 55.18
  A 0.32 0.32 0.0 0 0 194.68 54.85
  L 162.69 54.81
  Q 161.94 54.81 161.93 55.56
  L 161.92 57.90
  Q 161.91 58.77 162.77 58.85
  Q 165.74 59.11 165.75 61.98
  Q 165.79 71.41 165.75 84.57
  Q 165.74 87.43 163.09 87.88
  A 1.47 1.47 0.0 0 0 161.86 89.23
  L 161.75 90.72
  Q 161.67 91.77 162.72 91.77
  L 194.46 91.80
  A 0.51 0.51 0.0 0 0 194.97 91.29
  L 194.98 80.74
  Q 194.98 80.05 194.31 79.88
  Q 192.74 79.49 191.33 80.05
  Q 190.76 80.27 190.59 80.86
  C 188.69 87.37 185.30 87.96 179.13 87.78
  A 0.88 0.88 0.0 0 1 178.27 86.90
  L 178.27 76.17
  A 0.94 0.94 0.0 0 1 179.18 75.23
  Q 182.69 75.10 183.03 78.43
  Q 183.18 79.84 184.59 79.91
  L 186.05 79.97
  A 1.27 1.27 0.0 0 0 187.39 78.69
  L 187.28 67.78
  Q 187.27 66.80 186.28 66.81
  L 184.28 66.82
  Q 183.28 66.83 183.19 67.82
  Q 182.81 71.76 179.05 71.34
  Q 178.28 71.25 178.27 70.48
  Z
  M 199.89 58.68
  C 203.29 59.51 203.40 60.68 203.45 63.88
  Q 203.59 73.08 203.38 84.36
  Q 203.33 87.38 200.51 87.82
  Q 199.88 87.92 199.58 88.49
  Q 198.99 89.67 199.17 90.96
  Q 199.28 91.70 200.02 91.70
  L 219.43 91.79
  Q 220.34 91.80 220.28 90.89
  Q 220.13 88.68 220.13 88.66
  Q 220.07 87.74 219.15 87.74
  Q 216.14 87.77 216.09 84.56
  Q 215.87 72.63 216.08 61.49
  A 2.35 2.35 0.0 0 1 217.85 59.25
  L 219.82 58.75
  Q 220.27 58.64 220.26 58.18
  L 220.20 55.53
  Q 220.19 54.87 219.53 54.87
  L 200.31 54.87
  Q 199.58 54.87 199.38 55.58
  Q 199.08 56.71 199.29 58.02
  Q 199.37 58.55 199.89 58.68
  Z
  M 238.80 58.94
  Q 249.36 57.81 251.16 65.87
  A 1.13 1.12 -6.0 0 0 252.26 66.75
  L 254.20 66.73
  Q 255.12 66.72 255.12 65.80
  L 255.13 55.25
  A 0.38 0.38 0.0 0 0 254.75 54.87
  L 226.69 54.90
  Q 224.74 54.90 224.53 56.83
  C 223.95 62.16 227.88 68.26 231.36 72.00
  C 235.57 76.52 239.58 81.39 241.98 86.98
  A 0.72 0.71 -8.0 0 1 241.23 87.97
  Q 239.25 87.71 236.95 87.79
  C 232.49 87.94 229.82 84.74 228.97 80.51
  A 0.82 0.82 0.0 0 0 228.19 79.85
  L 225.28 79.76
  Q 224.55 79.74 224.56 80.47
  L 224.69 91.49
  A 0.30 0.29 -0.0 0 0 224.99 91.78
  L 254.50 91.75
  A 0.98 0.96 9.2 0 0 255.42 91.10
  C 257.54 84.82 251.78 76.79 247.52 72.49
  C 243.75 68.68 240.55 64.79 238.29 59.83
  A 0.63 0.63 0.0 0 1 238.80 58.94
  Z
  M 274.37 58.77
  C 280.55 58.48 284.57 59.55 286.61 65.95
  Q 286.87 66.78 287.74 66.76
  L 290.03 66.71
  Q 290.74 66.69 290.74 65.97
  L 290.74 55.51
  A 0.58 0.58 0.0 0 0 290.16 54.93
  L 261.29 54.87
  A 1.49 1.48 4.8 0 0 259.82 56.10
  C 258.39 64.32 266.11 71.53 270.90 77.13
  Q 274.70 81.58 277.23 86.75
  A 0.68 0.68 0.0 0 1 276.66 87.73
  C 274.20 87.88 270.58 88.15 268.50 87.02
  Q 264.85 85.05 264.05 79.93
  Q 264.03 79.83 263.93 79.83
  L 260.08 79.84
  Q 259.75 79.84 259.75 80.17
  L 259.77 91.15
  A 0.63 0.62 89.6 0 0 260.40 91.78
  L 289.26 91.75
  A 1.71 1.70 3.7 0 0 290.94 90.28
  C 292.11 81.68 284.54 74.64 279.49 68.92
  Q 275.97 64.93 273.77 59.72
  Q 273.39 58.82 274.37 58.77
  Z"
/>
<path fill="#ffffff" d="
  M 141.46 87.80
  L 146.06 87.76
  Q 149.18 87.73 151.02 85.20
  Q 152.49 83.17 152.93 80.57
  A 0.92 0.91 -85.1 0 1 153.83 79.80
  L 156.71 79.80
  Q 157.39 79.80 157.39 80.48
  L 157.32 91.24
  Q 157.32 91.79 156.76 91.79
  L 125.54 91.76
  Q 124.96 91.76 124.97 91.18
  C 125.02 86.83 127.56 81.24 129.84 78.07
  Q 132.67 74.14 136.81 69.73
  Q 140.18 66.14 143.16 60.75
  Q 144.56 58.25 141.72 58.65
  Q 139.45 58.96 137.17 59.28
  Q 134.16 59.71 132.42 62.20
  Q 131.19 63.96 130.47 65.99
  A 1.08 1.08 0.0 0 1 129.60 66.70
  Q 128.51 66.87 127.49 66.67
  Q 126.89 66.56 126.89 65.95
  L 126.92 55.48
  Q 126.92 54.88 127.52 54.88
  L 157.53 54.88
  A 0.63 0.63 0.0 0 1 158.16 55.58
  C 157.22 63.97 152.82 69.82 147.16 76.02
  Q 143.33 80.21 140.32 85.96
  Q 139.35 87.83 141.46 87.80
  Z"
/>
<path fill="#ffffff" d="
  M 179.05 71.34
  Q 182.81 71.76 183.19 67.82
  Q 183.28 66.83 184.28 66.82
  L 186.28 66.81
  Q 187.27 66.80 187.28 67.78
  L 187.39 78.69
  A 1.27 1.27 0.0 0 1 186.05 79.97
  L 184.59 79.91
  Q 183.18 79.84 183.03 78.43
  Q 182.69 75.10 179.18 75.23
  A 0.94 0.94 0.0 0 0 178.27 76.17
  L 178.27 86.90
  A 0.88 0.88 0.0 0 0 179.13 87.78
  C 185.30 87.96 188.69 87.37 190.59 80.86
  Q 190.76 80.27 191.33 80.05
  Q 192.74 79.49 194.31 79.88
  Q 194.98 80.05 194.98 80.74
  L 194.97 91.29
  A 0.51 0.51 0.0 0 1 194.46 91.80
  L 162.72 91.77
  Q 161.67 91.77 161.75 90.72
  L 161.86 89.23
  A 1.47 1.47 0.0 0 1 163.09 87.88
  Q 165.74 87.43 165.75 84.57
  Q 165.79 71.41 165.75 61.98
  Q 165.74 59.11 162.77 58.85
  Q 161.91 58.77 161.92 57.90
  L 161.93 55.56
  Q 161.94 54.81 162.69 54.81
  L 194.68 54.85
  A 0.32 0.32 0.0 0 1 195.00 55.18
  L 194.97 65.81
  A 0.92 0.91 86.4 0 1 194.19 66.71
  Q 192.72 66.92 191.37 66.66
  A 1.11 1.09 87.1 0 1 190.54 65.89
  C 188.74 59.68 185.08 58.21 178.93 59.00
  Q 178.24 59.08 178.25 59.78
  L 178.27 70.48
  Q 178.28 71.25 179.05 71.34
  Z"
/>
<path fill="#ffffff" d="
  M 203.45 63.88
  C 203.40 60.68 203.29 59.51 199.89 58.68
  Q 199.37 58.55 199.29 58.02
  Q 199.08 56.71 199.38 55.58
  Q 199.58 54.87 200.31 54.87
  L 219.53 54.87
  Q 220.19 54.87 220.20 55.53
  L 220.26 58.18
  Q 220.27 58.64 219.82 58.75
  L 217.85 59.25
  A 2.35 2.35 0.0 0 0 216.08 61.49
  Q 215.87 72.63 216.09 84.56
  Q 216.14 87.77 219.15 87.74
  Q 220.07 87.74 220.13 88.66
  Q 220.13 88.68 220.28 90.89
  Q 220.34 91.80 219.43 91.79
  L 200.02 91.70
  Q 199.28 91.70 199.17 90.96
  Q 198.99 89.67 199.58 88.49
  Q 199.88 87.92 200.51 87.82
  Q 203.33 87.38 203.38 84.36
  Q 203.59 73.08 203.45 63.88
  Z"
/>
<path fill="#ffffff" d="
  M 238.80 58.94
  A 0.63 0.63 0.0 0 0 238.29 59.83
  C 240.55 64.79 243.75 68.68 247.52 72.49
  C 251.78 76.79 257.54 84.82 255.42 91.10
  A 0.98 0.96 9.2 0 1 254.50 91.75
  L 224.99 91.78
  A 0.30 0.29 -0.0 0 1 224.69 91.49
  L 224.56 80.47
  Q 224.55 79.74 225.28 79.76
  L 228.19 79.85
  A 0.82 0.82 0.0 0 1 228.97 80.51
  C 229.82 84.74 232.49 87.94 236.95 87.79
  Q 239.25 87.71 241.23 87.97
  A 0.72 0.71 -8.0 0 0 241.98 86.98
  C 239.58 81.39 235.57 76.52 231.36 72.00
  C 227.88 68.26 223.95 62.16 224.53 56.83
  Q 224.74 54.90 226.69 54.90
  L 254.75 54.87
  A 0.38 0.38 0.0 0 1 255.13 55.25
  L 255.12 65.80
  Q 255.12 66.72 254.20 66.73
  L 252.26 66.75
  A 1.13 1.12 -6.0 0 1 251.16 65.87
  Q 249.36 57.81 238.80 58.94
  Z"
/>
<path fill="#ffffff" d="
  M 274.37 58.77
  Q 273.39 58.82 273.77 59.72
  Q 275.97 64.93 279.49 68.92
  C 284.54 74.64 292.11 81.68 290.94 90.28
  A 1.71 1.70 3.7 0 1 289.26 91.75
  L 260.40 91.78
  A 0.63 0.62 89.6 0 1 259.77 91.15
  L 259.75 80.17
  Q 259.75 79.84 260.08 79.84
  L 263.93 79.83
  Q 264.03 79.83 264.05 79.93
  Q 264.85 85.05 268.50 87.02
  C 270.58 88.15 274.20 87.88 276.66 87.73
  A 0.68 0.68 0.0 0 0 277.23 86.75
  Q 274.70 81.58 270.90 77.13
  C 266.11 71.53 258.39 64.32 259.82 56.10
  A 1.49 1.48 4.8 0 1 261.29 54.87
  L 290.16 54.93
  A 0.58 0.58 0.0 0 1 290.74 55.51
  L 290.74 65.97
  Q 290.74 66.69 290.03 66.71
  L 287.74 66.76
  Q 286.87 66.78 286.61 65.95
  C 284.57 59.55 280.55 58.48 274.37 58.77
  Z"
/>
</svg>
