<?xml version="1.0" encoding="UTF-8" standalone="no"?>
<!DOCTYPE svg PUBLIC "-//W3C//DTD SVG 1.1//EN" "http://www.w3.org/Graphics/SVG/1.1/DTD/svg11.dtd">
<svg xmlns="http://www.w3.org/2000/svg" version="1.1" viewBox="0.00 0.00 400.00 195.00">
<g stroke-width="2.00" fill="none" stroke-linecap="butt">
<path stroke="#eaeaeb" vector-effect="non-scaling-stroke" d="
  M 151.98 63.51
  Q 152.19 65.45 151.26 67.63
  A 1.17 1.13 -5.1 0 1 150.82 68.14
  Q 150.51 68.34 150.16 68.38
  Q 149.54 68.46 149.48 69.09
  Q 149.11 73.39 144.23 75.95
  C 142.84 76.68 140.38 75.84 139.66 76.60
  A 0.69 0.68 38.2 0 0 139.79 77.64
  Q 148.18 83.07 155.65 75.88
  Q 157.47 74.13 158.33 72.09
  Q 160.67 66.53 159.83 60.46
  C 158.91 53.80 156.62 48.30 149.52 46.67
  C 145.38 45.72 146.02 50.30 146.89 52.54
  Q 147.85 55.00 148.42 57.59
  C 148.80 59.32 149.95 60.43 150.01 62.26
  Q 150.03 62.74 150.50 62.84
  Q 151.02 62.95 151.18 63.49
  Q 151.23 63.69 151.42 63.60
  Q 151.56 63.53 151.66 63.41
  A 0.18 0.18 0.0 0 1 151.98 63.51"
/>
<path stroke="#cbe5f0" vector-effect="non-scaling-stroke" d="
  M 173.30 83.42
  Q 180.30 86.70 186.53 81.97
  C 187.88 80.95 188.53 78.78 186.92 77.61
  Q 181.95 73.96 177.58 72.74
  C 175.20 72.08 173.13 70.31 172.15 68.06
  Q 171.16 65.76 170.08 63.54
  Q 167.65 58.51 171.76 54.49
  Q 173.37 52.92 171.29 53.78
  C 165.72 56.07 162.73 60.26 162.47 66.10
  Q 162.25 70.92 163.43 73.66
  Q 166.20 80.09 173.30 83.42"
/>
<path stroke="#97d5de" vector-effect="non-scaling-stroke" d="
  M 149.96 82.80
  C 143.60 87.81 139.67 97.18 145.41 103.99
  A 1.91 1.91 0.0 0 0 147.90 104.37
  Q 149.16 103.57 149.95 102.29
  Q 153.04 97.23 156.61 92.82
  C 160.03 88.58 166.00 85.85 170.47 90.49
  Q 171.14 91.18 171.82 91.89
  Q 172.94 93.06 172.71 91.46
  Q 170.95 79.51 158.82 78.39"
/>
<path stroke="#cbe5f0" vector-effect="non-scaling-stroke" d="
  M 158.82 78.39
  L 157.70 78.81
  Q 157.23 78.99 157.13 79.48
  Q 156.97 80.27 157.29 81.06
  A 2.10 2.09 -26.2 0 1 156.38 83.70
  Q 155.21 84.35 154.00 84.09
  Q 153.39 83.96 153.11 83.41
  L 152.44 82.10
  A 0.72 0.72 0.0 0 0 151.77 81.71
  Q 150.09 81.80 149.96 82.80"
/>
<path stroke="#63bbcf" vector-effect="non-scaling-stroke" d="
  M 158.82 78.39
  L 158.56 78.89
  Q 158.34 79.33 158.77 79.58
  Q 160.64 80.66 161.03 82.54
  Q 161.28 83.72 161.68 84.84
  Q 162.43 86.91 160.29 88.04
  Q 158.27 89.11 156.81 90.59
  A 1.29 1.28 -62.5 0 1 155.69 90.95
  Q 150.05 89.93 149.96 82.80"
/>
<path stroke="#c8c8c8" vector-effect="non-scaling-stroke" d="
  M 160.85 106.77
  C 161.01 105.27 161.45 102.51 160.86 101.05
  A 1.08 1.08 0.0 0 0 158.82 101.14
  Q 157.35 105.99 153.18 108.39
  Q 152.54 108.76 152.22 109.54
  Q 151.93 110.23 152.21 110.89
  Q 152.48 111.54 153.19 111.53
  L 155.29 111.48
  A 0.97 0.96 2.6 0 1 156.27 112.55
  Q 155.37 120.64 156.42 129.45
  C 157.15 135.58 162.33 136.07 167.08 134.86
  Q 171.40 133.76 170.52 129.43
  A 0.48 0.48 0.0 0 0 169.75 129.15
  C 165.19 132.80 160.55 132.20 160.71 125.31
  Q 160.87 118.37 160.66 112.10
  Q 160.64 111.50 161.24 111.50
  L 169.45 111.52
  Q 170.18 111.53 170.23 110.80
  L 170.38 108.30
  Q 170.44 107.41 169.55 107.42
  L 161.52 107.51
  Q 160.77 107.51 160.85 106.77"
/>
<path stroke="#c8c8c8" vector-effect="non-scaling-stroke" d="
  M 177.42 111.29
  L 177.60 101.78
  A 1.00 1.00 0.0 0 0 176.52 100.77
  L 173.32 101.02
  Q 172.71 101.07 172.71 101.68
  L 172.68 134.24
  Q 172.68 135.05 173.49 135.02
  L 176.74 134.88
  Q 177.69 134.84 177.67 133.89
  Q 177.34 122.25 177.54 119.01
  C 177.82 114.46 182.06 109.79 186.86 111.86
  C 189.46 112.98 189.75 116.56 189.75 119.02
  Q 189.75 126.41 189.71 134.01
  A 0.89 0.89 0.0 0 0 190.65 134.91
  L 193.96 134.75
  Q 194.46 134.72 194.47 134.22
  Q 194.56 122.74 194.25 114.78
  C 194.07 110.17 190.74 106.51 185.88 106.82
  Q 181.24 107.12 178.39 111.58
  Q 177.39 113.15 177.42 111.29"
/>
<path stroke="#c8c8c8" vector-effect="non-scaling-stroke" d="
  M 240.35 110.70
  Q 238.77 113.29 238.83 110.25
  L 239.01 102.06
  Q 239.04 100.57 237.56 100.63
  L 235.02 100.73
  Q 233.80 100.77 233.80 101.99
  L 233.80 133.84
  Q 233.79 135.13 235.09 135.15
  L 237.95 135.19
  Q 239.21 135.21 239.21 133.95
  Q 239.21 127.67 239.03 120.64
  Q 238.94 117.31 240.48 114.76
  C 243.44 109.85 251.10 110.61 250.92 117.41
  Q 250.72 125.46 250.77 133.84
  Q 250.78 135.23 252.17 135.19
  L 254.55 135.13
  Q 255.94 135.09 255.96 133.70
  Q 256.08 122.02 255.81 114.74
  C 255.49 106.14 244.67 103.64 240.35 110.70"
/>
<path stroke="#c8c8c8" vector-effect="non-scaling-stroke" d="
  M 83.02 107.42
  A 0.22 0.22 0.0 0 1 83.19 107.78
  Q 76.58 116.33 68.58 126.26
  C 66.68 128.62 66.19 131.19 66.82 134.13
  Q 67.03 135.09 68.01 135.07
  L 88.03 134.83
  Q 89.12 134.82 89.12 133.72
  L 89.12 131.25
  Q 89.12 130.12 88.00 130.12
  L 73.60 130.11
  A 0.63 0.62 -71.2 0 1 73.11 129.10
  Q 80.11 119.98 87.58 110.00
  C 89.17 107.88 89.04 105.91 89.00 103.45
  A 0.92 0.92 0.0 0 0 88.09 102.54
  L 67.95 102.41
  Q 66.80 102.40 66.75 103.55
  L 66.63 106.31
  A 1.18 1.18 0.0 0 0 67.82 107.54
  L 83.02 107.42"
/>
<path stroke="#c8c8c8" vector-effect="non-scaling-stroke" d="
  M 96.18 122.48
  L 113.00 122.51
  A 0.55 0.54 -88.9 0 0 113.54 121.98
  C 113.71 115.56 112.69 108.06 104.82 106.90
  C 91.74 104.95 88.56 120.03 92.43 128.99
  C 95.48 136.06 103.71 136.77 109.75 133.17
  Q 113.53 130.91 111.97 126.58
  Q 111.82 126.15 111.48 126.45
  C 109.90 127.90 108.58 129.82 106.53 130.63
  Q 99.24 133.50 96.08 126.00
  Q 95.50 124.63 95.48 123.18
  Q 95.48 122.47 96.18 122.48"
/>
<path stroke="#c8c8c8" vector-effect="non-scaling-stroke" d="
  M 121.69 111.78
  L 121.93 108.01
  A 0.68 0.67 -89.6 0 0 121.23 107.29
  L 117.75 107.43
  Q 117.08 107.45 117.09 108.12
  Q 117.35 122.73 117.09 133.90
  Q 117.07 134.76 117.93 134.79
  L 121.06 134.92
  A 0.92 0.92 0.0 0 0 122.01 133.95
  Q 121.68 127.52 121.83 120.79
  C 121.93 116.36 123.49 112.24 128.36 111.49
  C 132.08 110.91 134.16 113.94 134.12 117.26
  Q 134.03 125.42 134.03 133.87
  A 1.13 1.12 -0.5 0 0 135.18 134.99
  L 137.95 134.95
  Q 139.07 134.93 139.03 133.81
  Q 138.76 126.30 138.85 117.41
  C 138.89 113.36 137.90 108.89 133.72 107.39
  C 128.61 105.57 125.25 108.14 122.35 112.03
  Q 121.61 113.02 121.69 111.78"
/>
<path stroke="#c8c8c8" vector-effect="non-scaling-stroke" d="
  M 211.35 131.48
  C 213.51 133.95 215.71 135.62 219.29 135.26
  C 230.08 134.18 231.30 120.34 228.35 112.56
  C 225.90 106.09 218.51 104.96 213.70 109.19
  C 212.67 110.09 212.26 111.43 211.25 112.30
  Q 210.54 112.90 210.68 111.98
  L 211.20 108.51
  Q 211.41 107.12 210.01 107.16
  L 207.45 107.24
  Q 206.18 107.28 206.18 108.55
  L 206.27 140.24
  A 0.97 0.97 0.0 0 0 207.24 141.20
  L 210.05 141.20
  Q 211.04 141.20 211.01 140.20
  L 210.76 131.71
  Q 210.73 130.78 211.35 131.48"
/>
<path stroke="#c8c8c8" vector-effect="non-scaling-stroke" d="
  M 274.22 133.25
  L 274.56 134.39
  Q 274.74 135.01 275.39 135.01
  L 278.62 135.03
  Q 279.65 135.04 279.60 134.01
  Q 279.19 124.90 279.25 114.80
  C 279.31 104.96 267.94 105.36 262.15 108.90
  Q 260.41 109.96 260.00 111.96
  Q 259.75 113.19 260.03 114.32
  Q 260.44 116.03 261.65 114.74
  C 264.19 112.01 269.52 110.07 272.91 112.56
  C 276.19 114.97 273.55 118.23 270.62 119.00
  C 265.66 120.29 258.57 121.94 258.71 128.28
  C 258.90 136.70 268.51 137.07 273.41 133.01
  Q 274.00 132.52 274.22 133.25"
/>
<path stroke="#c8c8c8" vector-effect="non-scaling-stroke" d="
  M 287.87 110.28
  Q 287.84 109.40 288.05 108.49
  Q 288.35 107.15 286.98 107.16
  L 284.53 107.17
  Q 283.48 107.17 283.48 108.22
  L 283.51 133.78
  Q 283.51 135.05 284.78 135.02
  L 287.29 134.96
  A 1.09 1.08 88.2 0 0 288.35 133.82
  Q 287.94 124.55 288.64 117.19
  C 289.05 112.93 293.81 109.91 297.77 112.69
  Q 298.99 113.54 299.32 112.09
  Q 300.59 106.59 294.98 106.66
  Q 290.85 106.71 288.98 110.52
  Q 287.93 112.65 287.87 110.28"
/>
<path stroke="#c8c8c8" vector-effect="non-scaling-stroke" d="
  M 305.64 110.01
  L 305.77 108.51
  A 1.24 1.23 1.9 0 0 304.51 107.17
  L 302.07 107.23
  A 0.95 0.95 0.0 0 0 301.14 108.18
  L 301.10 133.62
  Q 301.10 135.02 302.50 135.00
  L 305.01 134.96
  Q 306.37 134.94 306.33 133.58
  Q 306.11 125.97 306.29 118.45
  C 306.48 110.86 317.18 108.22 317.41 117.36
  Q 317.63 125.86 317.44 133.80
  Q 317.41 134.92 318.52 134.93
  L 321.48 134.98
  Q 322.43 135.00 322.43 134.05
  Q 322.43 126.62 322.43 118.36
  C 322.43 111.12 332.99 108.33 333.47 116.15
  Q 333.98 124.58 333.69 133.74
  A 1.22 1.22 0.0 0 0 334.98 135.00
  L 337.58 134.86
  Q 338.66 134.81 338.64 133.73
  Q 338.53 125.86 338.67 117.46
  Q 338.73 114.20 337.55 111.19
  C 335.42 105.77 329.05 105.70 324.92 108.76
  C 323.85 109.56 323.22 110.68 322.30 111.62
  Q 321.78 112.16 321.51 111.45
  C 319.08 104.85 310.63 105.59 307.07 110.54
  Q 305.40 112.85 305.64 110.01"
/>
<path stroke="#c8c8c8" vector-effect="non-scaling-stroke" d="
  M 357.05 132.74
  L 357.10 134.16
  A 0.78 0.78 0.0 0 0 357.90 134.91
  L 360.99 134.83
  A 0.75 0.74 89.6 0 0 361.72 134.08
  Q 361.70 124.01 361.56 114.15
  Q 361.48 108.74 356.57 107.34
  Q 350.13 105.52 344.17 109.41
  A 3.82 3.81 -15.8 0 0 342.45 112.48
  L 342.40 113.97
  Q 342.34 116.10 343.88 114.63
  C 346.47 112.18 349.09 111.25 352.56 111.39
  C 356.46 111.56 359.38 116.09 354.83 118.35
  C 351.13 120.20 341.89 121.51 341.38 126.76
  Q 340.64 134.43 347.87 135.24
  Q 352.97 135.81 356.04 132.38
  Q 357.00 131.30 357.05 132.74"
/>
<path stroke="#c8c8c8" vector-effect="non-scaling-stroke" d="
  M 149.2110 108.2677
  A 0.30 0.30 0.0 0 0 148.9094 107.9692
  L 144.7294 107.9911
  A 0.30 0.30 0.0 0 0 144.4310 108.2927
  L 144.5690 134.6523
  A 0.30 0.30 0.0 0 0 144.8706 134.9508
  L 149.0506 134.9289
  A 0.30 0.30 0.0 0 0 149.3490 134.6273
  L 149.2110 108.2677"
/>
<path stroke="#c8c8c8" vector-effect="non-scaling-stroke" d="
  M 95.94 118.43
  L 109.58 118.62
  A 0.17 0.17 0.0 0 0 109.75 118.46
  L 109.75 118.33
  A 6.90 6.74 0.8 0 0 102.95 111.49
  L 102.77 111.49
  A 6.90 6.74 0.8 0 0 95.78 118.13
  L 95.77 118.26
  A 0.17 0.17 0.0 0 0 95.94 118.43"
/>
<path stroke="#c8c8c8" vector-effect="non-scaling-stroke" d="
  M 217.7487 131.5778
  A 10.09 7.21 91.2 0 0 225.1684 121.6410
  A 10.09 7.21 91.2 0 0 218.1713 111.4022
  A 10.09 7.21 91.2 0 0 210.7516 121.3390
  A 10.09 7.21 91.2 0 0 217.7487 131.5778"
/>
<path stroke="#c8c8c8" vector-effect="non-scaling-stroke" d="
  M 266.48 124.35
  C 261.22 126.32 263.71 133.37 269.23 131.38
  C 273.36 129.89 274.69 126.20 274.61 122.07
  A 0.52 0.52 0.0 0 0 273.91 121.59
  Q 270.25 122.94 266.48 124.35"
/>
<path stroke="#c8c8c8" vector-effect="non-scaling-stroke" d="
  M 349.60 131.94
  C 355.44 131.77 357.46 126.71 357.19 121.68
  A 0.51 0.51 0.0 0 0 356.48 121.24
  Q 353.29 122.63 350.12 123.75
  C 348.32 124.39 346.13 125.59 345.89 127.70
  C 345.67 129.77 347.35 132.00 349.60 131.94"
/>
</g>
<path fill="#ffffff" d="
  M 0.00 0.00
  L 400.00 0.00
  L 400.00 195.00
  L 0.00 195.00
  L 0.00 0.00
  Z
  M 151.98 63.51
  Q 152.19 65.45 151.26 67.63
  A 1.17 1.13 -5.1 0 1 150.82 68.14
  Q 150.51 68.34 150.16 68.38
  Q 149.54 68.46 149.48 69.09
  Q 149.11 73.39 144.23 75.95
  C 142.84 76.68 140.38 75.84 139.66 76.60
  A 0.69 0.68 38.2 0 0 139.79 77.64
  Q 148.18 83.07 155.65 75.88
  Q 157.47 74.13 158.33 72.09
  Q 160.67 66.53 159.83 60.46
  C 158.91 53.80 156.62 48.30 149.52 46.67
  C 145.38 45.72 146.02 50.30 146.89 52.54
  Q 147.85 55.00 148.42 57.59
  C 148.80 59.32 149.95 60.43 150.01 62.26
  Q 150.03 62.74 150.50 62.84
  Q 151.02 62.95 151.18 63.49
  Q 151.23 63.69 151.42 63.60
  Q 151.56 63.53 151.66 63.41
  A 0.18 0.18 0.0 0 1 151.98 63.51
  Z
  M 173.30 83.42
  Q 180.30 86.70 186.53 81.97
  C 187.88 80.95 188.53 78.78 186.92 77.61
  Q 181.95 73.96 177.58 72.74
  C 175.20 72.08 173.13 70.31 172.15 68.06
  Q 171.16 65.76 170.08 63.54
  Q 167.65 58.51 171.76 54.49
  Q 173.37 52.92 171.29 53.78
  C 165.72 56.07 162.73 60.26 162.47 66.10
  Q 162.25 70.92 163.43 73.66
  Q 166.20 80.09 173.30 83.42
  Z
  M 149.96 82.80
  C 143.60 87.81 139.67 97.18 145.41 103.99
  A 1.91 1.91 0.0 0 0 147.90 104.37
  Q 149.16 103.57 149.95 102.29
  Q 153.04 97.23 156.61 92.82
  C 160.03 88.58 166.00 85.85 170.47 90.49
  Q 171.14 91.18 171.82 91.89
  Q 172.94 93.06 172.71 91.46
  Q 170.95 79.51 158.82 78.39
  L 157.70 78.81
  Q 157.23 78.99 157.13 79.48
  Q 156.97 80.27 157.29 81.06
  A 2.10 2.09 -26.2 0 1 156.38 83.70
  Q 155.21 84.35 154.00 84.09
  Q 153.39 83.96 153.11 83.41
  L 152.44 82.10
  A 0.72 0.72 0.0 0 0 151.77 81.71
  Q 150.09 81.80 149.96 82.80
  Z
  M 160.85 106.77
  C 161.01 105.27 161.45 102.51 160.86 101.05
  A 1.08 1.08 0.0 0 0 158.82 101.14
  Q 157.35 105.99 153.18 108.39
  Q 152.54 108.76 152.22 109.54
  Q 151.93 110.23 152.21 110.89
  Q 152.48 111.54 153.19 111.53
  L 155.29 111.48
  A 0.97 0.96 2.6 0 1 156.27 112.55
  Q 155.37 120.64 156.42 129.45
  C 157.15 135.58 162.33 136.07 167.08 134.86
  Q 171.40 133.76 170.52 129.43
  A 0.48 0.48 0.0 0 0 169.75 129.15
  C 165.19 132.80 160.55 132.20 160.71 125.31
  Q 160.87 118.37 160.66 112.10
  Q 160.64 111.50 161.24 111.50
  L 169.45 111.52
  Q 170.18 111.53 170.23 110.80
  L 170.38 108.30
  Q 170.44 107.41 169.55 107.42
  L 161.52 107.51
  Q 160.77 107.51 160.85 106.77
  Z
  M 177.42 111.29
  L 177.60 101.78
  A 1.00 1.00 0.0 0 0 176.52 100.77
  L 173.32 101.02
  Q 172.71 101.07 172.71 101.68
  L 172.68 134.24
  Q 172.68 135.05 173.49 135.02
  L 176.74 134.88
  Q 177.69 134.84 177.67 133.89
  Q 177.34 122.25 177.54 119.01
  C 177.82 114.46 182.06 109.79 186.86 111.86
  C 189.46 112.98 189.75 116.56 189.75 119.02
  Q 189.75 126.41 189.71 134.01
  A 0.89 0.89 0.0 0 0 190.65 134.91
  L 193.96 134.75
  Q 194.46 134.72 194.47 134.22
  Q 194.56 122.74 194.25 114.78
  C 194.07 110.17 190.74 106.51 185.88 106.82
  Q 181.24 107.12 178.39 111.58
  Q 177.39 113.15 177.42 111.29
  Z
  M 240.35 110.70
  Q 238.77 113.29 238.83 110.25
  L 239.01 102.06
  Q 239.04 100.57 237.56 100.63
  L 235.02 100.73
  Q 233.80 100.77 233.80 101.99
  L 233.80 133.84
  Q 233.79 135.13 235.09 135.15
  L 237.95 135.19
  Q 239.21 135.21 239.21 133.95
  Q 239.21 127.67 239.03 120.64
  Q 238.94 117.31 240.48 114.76
  C 243.44 109.85 251.10 110.61 250.92 117.41
  Q 250.72 125.46 250.77 133.84
  Q 250.78 135.23 252.17 135.19
  L 254.55 135.13
  Q 255.94 135.09 255.96 133.70
  Q 256.08 122.02 255.81 114.74
  C 255.49 106.14 244.67 103.64 240.35 110.70
  Z
  M 83.02 107.42
  A 0.22 0.22 0.0 0 1 83.19 107.78
  Q 76.58 116.33 68.58 126.26
  C 66.68 128.62 66.19 131.19 66.82 134.13
  Q 67.03 135.09 68.01 135.07
  L 88.03 134.83
  Q 89.12 134.82 89.12 133.72
  L 89.12 131.25
  Q 89.12 130.12 88.00 130.12
  L 73.60 130.11
  A 0.63 0.62 -71.2 0 1 73.11 129.10
  Q 80.11 119.98 87.58 110.00
  C 89.17 107.88 89.04 105.91 89.00 103.45
  A 0.92 0.92 0.0 0 0 88.09 102.54
  L 67.95 102.41
  Q 66.80 102.40 66.75 103.55
  L 66.63 106.31
  A 1.18 1.18 0.0 0 0 67.82 107.54
  L 83.02 107.42
  Z
  M 96.18 122.48
  L 113.00 122.51
  A 0.55 0.54 -88.9 0 0 113.54 121.98
  C 113.71 115.56 112.69 108.06 104.82 106.90
  C 91.74 104.95 88.56 120.03 92.43 128.99
  C 95.48 136.06 103.71 136.77 109.75 133.17
  Q 113.53 130.91 111.97 126.58
  Q 111.82 126.15 111.48 126.45
  C 109.90 127.90 108.58 129.82 106.53 130.63
  Q 99.24 133.50 96.08 126.00
  Q 95.50 124.63 95.48 123.18
  Q 95.48 122.47 96.18 122.48
  Z
  M 121.69 111.78
  L 121.93 108.01
  A 0.68 0.67 -89.6 0 0 121.23 107.29
  L 117.75 107.43
  Q 117.08 107.45 117.09 108.12
  Q 117.35 122.73 117.09 133.90
  Q 117.07 134.76 117.93 134.79
  L 121.06 134.92
  A 0.92 0.92 0.0 0 0 122.01 133.95
  Q 121.68 127.52 121.83 120.79
  C 121.93 116.36 123.49 112.24 128.36 111.49
  C 132.08 110.91 134.16 113.94 134.12 117.26
  Q 134.03 125.42 134.03 133.87
  A 1.13 1.12 -0.5 0 0 135.18 134.99
  L 137.95 134.95
  Q 139.07 134.93 139.03 133.81
  Q 138.76 126.30 138.85 117.41
  C 138.89 113.36 137.90 108.89 133.72 107.39
  C 128.61 105.57 125.25 108.14 122.35 112.03
  Q 121.61 113.02 121.69 111.78
  Z
  M 211.35 131.48
  C 213.51 133.95 215.71 135.62 219.29 135.26
  C 230.08 134.18 231.30 120.34 228.35 112.56
  C 225.90 106.09 218.51 104.96 213.70 109.19
  C 212.67 110.09 212.26 111.43 211.25 112.30
  Q 210.54 112.90 210.68 111.98
  L 211.20 108.51
  Q 211.41 107.12 210.01 107.16
  L 207.45 107.24
  Q 206.18 107.28 206.18 108.55
  L 206.27 140.24
  A 0.97 0.97 0.0 0 0 207.24 141.20
  L 210.05 141.20
  Q 211.04 141.20 211.01 140.20
  L 210.76 131.71
  Q 210.73 130.78 211.35 131.48
  Z
  M 274.22 133.25
  L 274.56 134.39
  Q 274.74 135.01 275.39 135.01
  L 278.62 135.03
  Q 279.65 135.04 279.60 134.01
  Q 279.19 124.90 279.25 114.80
  C 279.31 104.96 267.94 105.36 262.15 108.90
  Q 260.41 109.96 260.00 111.96
  Q 259.75 113.19 260.03 114.32
  Q 260.44 116.03 261.65 114.74
  C 264.19 112.01 269.52 110.07 272.91 112.56
  C 276.19 114.97 273.55 118.23 270.62 119.00
  C 265.66 120.29 258.57 121.94 258.71 128.28
  C 258.90 136.70 268.51 137.07 273.41 133.01
  Q 274.00 132.52 274.22 133.25
  Z
  M 287.87 110.28
  Q 287.84 109.40 288.05 108.49
  Q 288.35 107.15 286.98 107.16
  L 284.53 107.17
  Q 283.48 107.17 283.48 108.22
  L 283.51 133.78
  Q 283.51 135.05 284.78 135.02
  L 287.29 134.96
  A 1.09 1.08 88.2 0 0 288.35 133.82
  Q 287.94 124.55 288.64 117.19
  C 289.05 112.93 293.81 109.91 297.77 112.69
  Q 298.99 113.54 299.32 112.09
  Q 300.59 106.59 294.98 106.66
  Q 290.85 106.71 288.98 110.52
  Q 287.93 112.65 287.87 110.28
  Z
  M 305.64 110.01
  L 305.77 108.51
  A 1.24 1.23 1.9 0 0 304.51 107.17
  L 302.07 107.23
  A 0.95 0.95 0.0 0 0 301.14 108.18
  L 301.10 133.62
  Q 301.10 135.02 302.50 135.00
  L 305.01 134.96
  Q 306.37 134.94 306.33 133.58
  Q 306.11 125.97 306.29 118.45
  C 306.48 110.86 317.18 108.22 317.41 117.36
  Q 317.63 125.86 317.44 133.80
  Q 317.41 134.92 318.52 134.93
  L 321.48 134.98
  Q 322.43 135.00 322.43 134.05
  Q 322.43 126.62 322.43 118.36
  C 322.43 111.12 332.99 108.33 333.47 116.15
  Q 333.98 124.58 333.69 133.74
  A 1.22 1.22 0.0 0 0 334.98 135.00
  L 337.58 134.86
  Q 338.66 134.81 338.64 133.73
  Q 338.53 125.86 338.67 117.46
  Q 338.73 114.20 337.55 111.19
  C 335.42 105.77 329.05 105.70 324.92 108.76
  C 323.85 109.56 323.22 110.68 322.30 111.62
  Q 321.78 112.16 321.51 111.45
  C 319.08 104.85 310.63 105.59 307.07 110.54
  Q 305.40 112.85 305.64 110.01
  Z
  M 357.05 132.74
  L 357.10 134.16
  A 0.78 0.78 0.0 0 0 357.90 134.91
  L 360.99 134.83
  A 0.75 0.74 89.6 0 0 361.72 134.08
  Q 361.70 124.01 361.56 114.15
  Q 361.48 108.74 356.57 107.34
  Q 350.13 105.52 344.17 109.41
  A 3.82 3.81 -15.8 0 0 342.45 112.48
  L 342.40 113.97
  Q 342.34 116.10 343.88 114.63
  C 346.47 112.18 349.09 111.25 352.56 111.39
  C 356.46 111.56 359.38 116.09 354.83 118.35
  C 351.13 120.20 341.89 121.51 341.38 126.76
  Q 340.64 134.43 347.87 135.24
  Q 352.97 135.81 356.04 132.38
  Q 357.00 131.30 357.05 132.74
  Z
  M 149.2110 108.2677
  A 0.30 0.30 0.0 0 0 148.9094 107.9692
  L 144.7294 107.9911
  A 0.30 0.30 0.0 0 0 144.4310 108.2927
  L 144.5690 134.6523
  A 0.30 0.30 0.0 0 0 144.8706 134.9508
  L 149.0506 134.9289
  A 0.30 0.30 0.0 0 0 149.3490 134.6273
  L 149.2110 108.2677
  Z"
/>
<path fill="#d5d5d6" d="
  M 151.66 63.41
  Q 151.56 63.53 151.42 63.60
  Q 151.23 63.69 151.18 63.49
  Q 151.02 62.95 150.50 62.84
  Q 150.03 62.74 150.01 62.26
  C 149.95 60.43 148.80 59.32 148.42 57.59
  Q 147.85 55.00 146.89 52.54
  C 146.02 50.30 145.38 45.72 149.52 46.67
  C 156.62 48.30 158.91 53.80 159.83 60.46
  Q 160.67 66.53 158.33 72.09
  Q 157.47 74.13 155.65 75.88
  Q 148.18 83.07 139.79 77.64
  A 0.69 0.68 38.2 0 1 139.66 76.60
  C 140.38 75.84 142.84 76.68 144.23 75.95
  Q 149.11 73.39 149.48 69.09
  Q 149.54 68.46 150.16 68.38
  Q 150.51 68.34 150.82 68.14
  A 1.17 1.13 -5.1 0 0 151.26 67.63
  Q 152.19 65.45 151.98 63.51
  A 0.18 0.18 0.0 0 0 151.66 63.41
  Z"
/>
<path fill="#96cbe1" d="
  M 173.30 83.42
  Q 166.20 80.09 163.43 73.66
  Q 162.25 70.92 162.47 66.10
  C 162.73 60.26 165.72 56.07 171.29 53.78
  Q 173.37 52.92 171.76 54.49
  Q 167.65 58.51 170.08 63.54
  Q 171.16 65.76 172.15 68.06
  C 173.13 70.31 175.20 72.08 177.58 72.74
  Q 181.95 73.96 186.92 77.61
  C 188.53 78.78 187.88 80.95 186.53 81.97
  Q 180.30 86.70 173.30 83.42
  Z"
/>
<path fill="#96cbe1" d="
  M 158.82 78.39
  L 158.56 78.89
  Q 158.34 79.33 158.77 79.58
  Q 160.64 80.66 161.03 82.54
  Q 161.28 83.72 161.68 84.84
  Q 162.43 86.91 160.29 88.04
  Q 158.27 89.11 156.81 90.59
  A 1.29 1.28 -62.5 0 1 155.69 90.95
  Q 150.05 89.93 149.96 82.80
  Q 150.09 81.80 151.77 81.71
  A 0.72 0.72 0.0 0 1 152.44 82.10
  L 153.11 83.41
  Q 153.39 83.96 154.00 84.09
  Q 155.21 84.35 156.38 83.70
  A 2.10 2.09 -26.2 0 0 157.29 81.06
  Q 156.97 80.27 157.13 79.48
  Q 157.23 78.99 157.70 78.81
  L 158.82 78.39
  Z"
/>
<path fill="#2faabd" d="
  M 158.82 78.39
  Q 170.95 79.51 172.71 91.46
  Q 172.94 93.06 171.82 91.89
  Q 171.14 91.18 170.47 90.49
  C 166.00 85.85 160.03 88.58 156.61 92.82
  Q 153.04 97.23 149.95 102.29
  Q 149.16 103.57 147.90 104.37
  A 1.91 1.91 0.0 0 1 145.41 103.99
  C 139.67 97.18 143.60 87.81 149.96 82.80
  Q 150.05 89.93 155.69 90.95
  A 1.29 1.28 -62.5 0 0 156.81 90.59
  Q 158.27 89.11 160.29 88.04
  Q 162.43 86.91 161.68 84.84
  Q 161.28 83.72 161.03 82.54
  Q 160.64 80.66 158.77 79.58
  Q 158.34 79.33 158.56 78.89
  L 158.82 78.39
  Z"
/>
<path fill="#909091" d="
  M 161.52 107.51
  L 169.55 107.42
  Q 170.44 107.41 170.38 108.30
  L 170.23 110.80
  Q 170.18 111.53 169.45 111.52
  L 161.24 111.50
  Q 160.64 111.50 160.66 112.10
  Q 160.87 118.37 160.71 125.31
  C 160.55 132.20 165.19 132.80 169.75 129.15
  A 0.48 0.48 0.0 0 1 170.52 129.43
  Q 171.40 133.76 167.08 134.86
  C 162.33 136.07 157.15 135.58 156.42 129.45
  Q 155.37 120.64 156.27 112.55
  A 0.97 0.96 2.6 0 0 155.29 111.48
  L 153.19 111.53
  Q 152.48 111.54 152.21 110.89
  Q 151.93 110.23 152.22 109.54
  Q 152.54 108.76 153.18 108.39
  Q 157.35 105.99 158.82 101.14
  A 1.08 1.08 0.0 0 1 160.86 101.05
  C 161.45 102.51 161.01 105.27 160.85 106.77
  Q 160.77 107.51 161.52 107.51
  Z"
/>
<path fill="#909091" d="
  M 177.42 111.29
  Q 177.39 113.15 178.39 111.58
  Q 181.24 107.12 185.88 106.82
  C 190.74 106.51 194.07 110.17 194.25 114.78
  Q 194.56 122.74 194.47 134.22
  Q 194.46 134.72 193.96 134.75
  L 190.65 134.91
  A 0.89 0.89 0.0 0 1 189.71 134.01
  Q 189.75 126.41 189.75 119.02
  C 189.75 116.56 189.46 112.98 186.86 111.86
  C 182.06 109.79 177.82 114.46 177.54 119.01
  Q 177.34 122.25 177.67 133.89
  Q 177.69 134.84 176.74 134.88
  L 173.49 135.02
  Q 172.68 135.05 172.68 134.24
  L 172.71 101.68
  Q 172.71 101.07 173.32 101.02
  L 176.52 100.77
  A 1.00 1.00 0.0 0 1 177.60 101.78
  L 177.42 111.29
  Z"
/>
<path fill="#909091" d="
  M 240.35 110.70
  C 244.67 103.64 255.49 106.14 255.81 114.74
  Q 256.08 122.02 255.96 133.70
  Q 255.94 135.09 254.55 135.13
  L 252.17 135.19
  Q 250.78 135.23 250.77 133.84
  Q 250.72 125.46 250.92 117.41
  C 251.10 110.61 243.44 109.85 240.48 114.76
  Q 238.94 117.31 239.03 120.64
  Q 239.21 127.67 239.21 133.95
  Q 239.21 135.21 237.95 135.19
  L 235.09 135.15
  Q 233.79 135.13 233.80 133.84
  L 233.80 101.99
  Q 233.80 100.77 235.02 100.73
  L 237.56 100.63
  Q 239.04 100.57 239.01 102.06
  L 238.83 110.25
  Q 238.77 113.29 240.35 110.70
  Z"
/>
<path fill="#909091" d="
  M 83.02 107.42
  L 67.82 107.54
  A 1.18 1.18 0.0 0 1 66.63 106.31
  L 66.75 103.55
  Q 66.80 102.40 67.95 102.41
  L 88.09 102.54
  A 0.92 0.92 0.0 0 1 89.00 103.45
  C 89.04 105.91 89.17 107.88 87.58 110.00
  Q 80.11 119.98 73.11 129.10
  A 0.63 0.62 -71.2 0 0 73.60 130.11
  L 88.00 130.12
  Q 89.12 130.12 89.12 131.25
  L 89.12 133.72
  Q 89.12 134.82 88.03 134.83
  L 68.01 135.07
  Q 67.03 135.09 66.82 134.13
  C 66.19 131.19 66.68 128.62 68.58 126.26
  Q 76.58 116.33 83.19 107.78
  A 0.22 0.22 0.0 0 0 83.02 107.42
  Z"
/>
<path fill="#909091" d="
  M 95.48 123.18
  Q 95.50 124.63 96.08 126.00
  Q 99.24 133.50 106.53 130.63
  C 108.58 129.82 109.90 127.90 111.48 126.45
  Q 111.82 126.15 111.97 126.58
  Q 113.53 130.91 109.75 133.17
  C 103.71 136.77 95.48 136.06 92.43 128.99
  C 88.56 120.03 91.74 104.95 104.82 106.90
  C 112.69 108.06 113.71 115.56 113.54 121.98
  A 0.55 0.54 -88.9 0 1 113.00 122.51
  L 96.18 122.48
  Q 95.48 122.47 95.48 123.18
  Z
  M 95.94 118.43
  L 109.58 118.62
  A 0.17 0.17 0.0 0 0 109.75 118.46
  L 109.75 118.33
  A 6.90 6.74 0.8 0 0 102.95 111.49
  L 102.77 111.49
  A 6.90 6.74 0.8 0 0 95.78 118.13
  L 95.77 118.26
  A 0.17 0.17 0.0 0 0 95.94 118.43
  Z"
/>
<path fill="#909091" d="
  M 122.35 112.03
  C 125.25 108.14 128.61 105.57 133.72 107.39
  C 137.90 108.89 138.89 113.36 138.85 117.41
  Q 138.76 126.30 139.03 133.81
  Q 139.07 134.93 137.95 134.95
  L 135.18 134.99
  A 1.13 1.12 -0.5 0 1 134.03 133.87
  Q 134.03 125.42 134.12 117.26
  C 134.16 113.94 132.08 110.91 128.36 111.49
  C 123.49 112.24 121.93 116.36 121.83 120.79
  Q 121.68 127.52 122.01 133.95
  A 0.92 0.92 0.0 0 1 121.06 134.92
  L 117.93 134.79
  Q 117.07 134.76 117.09 133.90
  Q 117.35 122.73 117.09 108.12
  Q 117.08 107.45 117.75 107.43
  L 121.23 107.29
  A 0.68 0.67 -89.6 0 1 121.93 108.01
  L 121.69 111.78
  Q 121.61 113.02 122.35 112.03
  Z"
/>
<path fill="#909091" d="
  M 210.76 131.71
  L 211.01 140.20
  Q 211.04 141.20 210.05 141.20
  L 207.24 141.20
  A 0.97 0.97 0.0 0 1 206.27 140.24
  L 206.18 108.55
  Q 206.18 107.28 207.45 107.24
  L 210.01 107.16
  Q 211.41 107.12 211.20 108.51
  L 210.68 111.98
  Q 210.54 112.90 211.25 112.30
  C 212.26 111.43 212.67 110.09 213.70 109.19
  C 218.51 104.96 225.90 106.09 228.35 112.56
  C 231.30 120.34 230.08 134.18 219.29 135.26
  C 215.71 135.62 213.51 133.95 211.35 131.48
  Q 210.73 130.78 210.76 131.71
  Z
  M 217.7487 131.5778
  A 10.09 7.21 91.2 0 0 225.1684 121.6410
  A 10.09 7.21 91.2 0 0 218.1713 111.4022
  A 10.09 7.21 91.2 0 0 210.7516 121.3390
  A 10.09 7.21 91.2 0 0 217.7487 131.5778
  Z"
/>
<path fill="#909091" d="
  M 273.41 133.01
  C 268.51 137.07 258.90 136.70 258.71 128.28
  C 258.57 121.94 265.66 120.29 270.62 119.00
  C 273.55 118.23 276.19 114.97 272.91 112.56
  C 269.52 110.07 264.19 112.01 261.65 114.74
  Q 260.44 116.03 260.03 114.32
  Q 259.75 113.19 260.00 111.96
  Q 260.41 109.96 262.15 108.90
  C 267.94 105.36 279.31 104.96 279.25 114.80
  Q 279.19 124.90 279.60 134.01
  Q 279.65 135.04 278.62 135.03
  L 275.39 135.01
  Q 274.74 135.01 274.56 134.39
  L 274.22 133.25
  Q 274.00 132.52 273.41 133.01
  Z
  M 266.48 124.35
  C 261.22 126.32 263.71 133.37 269.23 131.38
  C 273.36 129.89 274.69 126.20 274.61 122.07
  A 0.52 0.52 0.0 0 0 273.91 121.59
  Q 270.25 122.94 266.48 124.35
  Z"
/>
<path fill="#909091" d="
  M 287.87 110.28
  Q 287.93 112.65 288.98 110.52
  Q 290.85 106.71 294.98 106.66
  Q 300.59 106.59 299.32 112.09
  Q 298.99 113.54 297.77 112.69
  C 293.81 109.91 289.05 112.93 288.64 117.19
  Q 287.94 124.55 288.35 133.82
  A 1.09 1.08 88.2 0 1 287.29 134.96
  L 284.78 135.02
  Q 283.51 135.05 283.51 133.78
  L 283.48 108.22
  Q 283.48 107.17 284.53 107.17
  L 286.98 107.16
  Q 288.35 107.15 288.05 108.49
  Q 287.84 109.40 287.87 110.28
  Z"
/>
<path fill="#909091" d="
  M 305.64 110.01
  Q 305.40 112.85 307.07 110.54
  C 310.63 105.59 319.08 104.85 321.51 111.45
  Q 321.78 112.16 322.30 111.62
  C 323.22 110.68 323.85 109.56 324.92 108.76
  C 329.05 105.70 335.42 105.77 337.55 111.19
  Q 338.73 114.20 338.67 117.46
  Q 338.53 125.86 338.64 133.73
  Q 338.66 134.81 337.58 134.86
  L 334.98 135.00
  A 1.22 1.22 0.0 0 1 333.69 133.74
  Q 333.98 124.58 333.47 116.15
  C 332.99 108.33 322.43 111.12 322.43 118.36
  Q 322.43 126.62 322.43 134.05
  Q 322.43 135.00 321.48 134.98
  L 318.52 134.93
  Q 317.41 134.92 317.44 133.80
  Q 317.63 125.86 317.41 117.36
  C 317.18 108.22 306.48 110.86 306.29 118.45
  Q 306.11 125.97 306.33 133.58
  Q 306.37 134.94 305.01 134.96
  L 302.50 135.00
  Q 301.10 135.02 301.10 133.62
  L 301.14 108.18
  A 0.95 0.95 0.0 0 1 302.07 107.23
  L 304.51 107.17
  A 1.24 1.23 1.9 0 1 305.77 108.51
  L 305.64 110.01
  Z"
/>
<path fill="#909091" d="
  M 357.05 132.74
  Q 357.00 131.30 356.04 132.38
  Q 352.97 135.81 347.87 135.24
  Q 340.64 134.43 341.38 126.76
  C 341.89 121.51 351.13 120.20 354.83 118.35
  C 359.38 116.09 356.46 111.56 352.56 111.39
  C 349.09 111.25 346.47 112.18 343.88 114.63
  Q 342.34 116.10 342.40 113.97
  L 342.45 112.48
  A 3.82 3.81 -15.8 0 1 344.17 109.41
  Q 350.13 105.52 356.57 107.34
  Q 361.48 108.74 361.56 114.15
  Q 361.70 124.01 361.72 134.08
  A 0.75 0.74 89.6 0 1 360.99 134.83
  L 357.90 134.91
  A 0.78 0.78 0.0 0 1 357.10 134.16
  L 357.05 132.74
  Z
  M 349.60 131.94
  C 355.44 131.77 357.46 126.71 357.19 121.68
  A 0.51 0.51 0.0 0 0 356.48 121.24
  Q 353.29 122.63 350.12 123.75
  C 348.32 124.39 346.13 125.59 345.89 127.70
  C 345.67 129.77 347.35 132.00 349.60 131.94
  Z"
/>
<rect fill="#909091" x="-2.39" y="-13.48" transform="translate(146.89,121.46) rotate(-0.3)" width="4.78" height="26.96" rx="0.30"/>
<path fill="#ffffff" d="
  M 95.94 118.43
  A 0.17 0.17 0.0 0 1 95.77 118.26
  L 95.78 118.13
  A 6.90 6.74 0.8 0 1 102.77 111.49
  L 102.95 111.49
  A 6.90 6.74 0.8 0 1 109.75 118.33
  L 109.75 118.46
  A 0.17 0.17 0.0 0 1 109.58 118.62
  L 95.94 118.43
  Z"
/>
<ellipse fill="#ffffff" cx="0.00" cy="0.00" transform="translate(217.96,121.49) rotate(91.2)" rx="10.09" ry="7.21"/>
<path fill="#ffffff" d="
  M 357.19 121.68
  C 357.46 126.71 355.44 131.77 349.60 131.94
  C 347.35 132.00 345.67 129.77 345.89 127.70
  C 346.13 125.59 348.32 124.39 350.12 123.75
  Q 353.29 122.63 356.48 121.24
  A 0.51 0.51 0.0 0 1 357.19 121.68
  Z"
/>
<path fill="#ffffff" d="
  M 266.48 124.35
  Q 270.25 122.94 273.91 121.59
  A 0.52 0.52 0.0 0 1 274.61 122.07
  C 274.69 126.20 273.36 129.89 269.23 131.38
  C 263.71 133.37 261.22 126.32 266.48 124.35
  Z"
/>
</svg>
