<svg xmlns="http://www.w3.org/2000/svg" xmlns:xlink="http://www.w3.org/1999/xlink" width="500" zoomAndPan="magnify" viewBox="0 0 375 374.999991" height="500" preserveAspectRatio="xMidYMid meet" version="1.0"><defs><clipPath id="32fe04703a"><path d="M 112.5 119.34375 L 262.5 119.34375 L 262.5 147 L 112.5 147 Z M 112.5 119.34375 " clip-rule="nonzero"/></clipPath><clipPath id="3fea094820"><path d="M 112.5 173 L 262.5 173 L 262.5 202 L 112.5 202 Z M 112.5 173 " clip-rule="nonzero"/></clipPath><clipPath id="38fba5f6c8"><path d="M 112.5 228 L 262.5 228 L 262.5 255.84375 L 112.5 255.84375 Z M 112.5 228 " clip-rule="nonzero"/></clipPath></defs><g clip-path="url(#32fe04703a)"><path fill="#ffffff" d="M 126.160156 146.605469 L 248.839844 146.605469 C 249.734375 146.605469 250.621094 146.519531 251.5 146.34375 C 252.378906 146.167969 253.230469 145.910156 254.058594 145.570312 C 254.882812 145.226562 255.667969 144.804688 256.414062 144.308594 C 257.15625 143.8125 257.847656 143.246094 258.480469 142.613281 C 259.113281 141.980469 259.675781 141.292969 260.175781 140.546875 C 260.671875 139.804688 261.089844 139.019531 261.433594 138.191406 C 261.777344 137.363281 262.035156 136.511719 262.210938 135.632812 C 262.382812 134.757812 262.472656 133.871094 262.472656 132.976562 C 262.472656 132.078125 262.382812 131.195312 262.210938 130.316406 C 262.035156 129.4375 261.777344 128.585938 261.433594 127.757812 C 261.089844 126.929688 260.671875 126.144531 260.175781 125.402344 C 259.675781 124.65625 259.113281 123.96875 258.480469 123.335938 C 257.847656 122.703125 257.15625 122.136719 256.414062 121.640625 C 255.667969 121.144531 254.882812 120.722656 254.058594 120.382812 C 253.230469 120.039062 252.378906 119.78125 251.5 119.605469 C 250.621094 119.429688 249.734375 119.34375 248.839844 119.34375 L 126.160156 119.34375 C 125.265625 119.34375 124.378906 119.429688 123.5 119.605469 C 122.621094 119.78125 121.769531 120.039062 120.941406 120.382812 C 120.117188 120.722656 119.332031 121.144531 118.585938 121.640625 C 117.84375 122.136719 117.152344 122.703125 116.519531 123.335938 C 115.886719 123.96875 115.324219 124.65625 114.824219 125.402344 C 114.328125 126.144531 113.910156 126.929688 113.566406 127.757812 C 113.222656 128.585938 112.964844 129.4375 112.789062 130.316406 C 112.617188 131.195312 112.527344 132.078125 112.527344 132.976562 C 112.527344 133.871094 112.617188 134.757812 112.789062 135.632812 C 112.964844 136.511719 113.222656 137.363281 113.566406 138.191406 C 113.910156 139.019531 114.328125 139.804688 114.824219 140.546875 C 115.324219 141.292969 115.886719 141.980469 116.519531 142.613281 C 117.152344 143.246094 117.84375 143.8125 118.585938 144.308594 C 119.332031 144.804688 120.117188 145.226562 120.941406 145.570312 C 121.769531 145.910156 122.621094 146.167969 123.5 146.34375 C 124.378906 146.519531 125.265625 146.605469 126.160156 146.605469 Z M 126.160156 146.605469 " fill-opacity="1" fill-rule="nonzero"/></g><g clip-path="url(#3fea094820)"><path fill="#ffffff" d="M 248.839844 173.867188 L 126.160156 173.867188 C 125.265625 173.867188 124.378906 173.957031 123.5 174.128906 C 122.621094 174.304688 121.769531 174.5625 120.941406 174.90625 C 120.117188 175.25 119.332031 175.667969 118.585938 176.164062 C 117.84375 176.664062 117.152344 177.226562 116.519531 177.859375 C 115.886719 178.492188 115.324219 179.183594 114.824219 179.925781 C 114.328125 180.671875 113.910156 181.457031 113.566406 182.285156 C 113.222656 183.109375 112.964844 183.960938 112.789062 184.839844 C 112.617188 185.71875 112.527344 186.605469 112.527344 187.5 C 112.527344 188.394531 112.617188 189.28125 112.789062 190.160156 C 112.964844 191.039062 113.222656 191.890625 113.566406 192.714844 C 113.910156 193.542969 114.328125 194.328125 114.824219 195.074219 C 115.324219 195.816406 115.886719 196.503906 116.519531 197.140625 C 117.152344 197.773438 117.84375 198.335938 118.585938 198.832031 C 119.332031 199.332031 120.117188 199.75 120.941406 200.09375 C 121.769531 200.4375 122.621094 200.695312 123.5 200.871094 C 124.378906 201.042969 125.265625 201.132812 126.160156 201.132812 L 248.839844 201.132812 C 249.734375 201.132812 250.621094 201.042969 251.5 200.871094 C 252.378906 200.695312 253.230469 200.4375 254.058594 200.09375 C 254.882812 199.75 255.667969 199.332031 256.414062 198.832031 C 257.15625 198.335938 257.847656 197.773438 258.480469 197.140625 C 259.113281 196.503906 259.675781 195.816406 260.175781 195.074219 C 260.671875 194.328125 261.089844 193.542969 261.433594 192.714844 C 261.777344 191.890625 262.035156 191.039062 262.210938 190.160156 C 262.382812 189.28125 262.472656 188.394531 262.472656 187.5 C 262.472656 186.605469 262.382812 185.71875 262.210938 184.839844 C 262.035156 183.960938 261.777344 183.109375 261.433594 182.285156 C 261.089844 181.457031 260.671875 180.671875 260.175781 179.925781 C 259.675781 179.183594 259.113281 178.492188 258.480469 177.859375 C 257.847656 177.226562 257.15625 176.664062 256.414062 176.164062 C 255.667969 175.667969 254.882812 175.25 254.058594 174.90625 C 253.230469 174.5625 252.378906 174.304688 251.5 174.128906 C 250.621094 173.957031 249.734375 173.867188 248.839844 173.867188 Z M 248.839844 173.867188 " fill-opacity="1" fill-rule="nonzero"/></g><g clip-path="url(#38fba5f6c8)"><path fill="#ffffff" d="M 248.839844 228.394531 L 126.160156 228.394531 C 125.265625 228.394531 124.378906 228.480469 123.5 228.65625 C 122.621094 228.832031 121.769531 229.089844 120.941406 229.429688 C 120.117188 229.773438 119.332031 230.195312 118.585938 230.691406 C 117.84375 231.1875 117.152344 231.753906 116.519531 232.386719 C 115.886719 233.019531 115.324219 233.707031 114.824219 234.453125 C 114.328125 235.195312 113.910156 235.980469 113.566406 236.808594 C 113.222656 237.636719 112.964844 238.488281 112.789062 239.367188 C 112.617188 240.242188 112.527344 241.128906 112.527344 242.023438 C 112.527344 242.921875 112.617188 243.804688 112.789062 244.683594 C 112.964844 245.5625 113.222656 246.414062 113.566406 247.242188 C 113.910156 248.066406 114.328125 248.855469 114.824219 249.597656 C 115.324219 250.34375 115.886719 251.03125 116.519531 251.664062 C 117.152344 252.296875 117.84375 252.863281 118.585938 253.359375 C 119.332031 253.855469 120.117188 254.277344 120.941406 254.617188 C 121.769531 254.960938 122.621094 255.21875 123.5 255.394531 C 124.378906 255.570312 125.265625 255.65625 126.160156 255.65625 L 248.839844 255.65625 C 249.734375 255.65625 250.621094 255.570312 251.5 255.394531 C 252.378906 255.21875 253.230469 254.960938 254.058594 254.617188 C 254.882812 254.277344 255.667969 253.855469 256.414062 253.359375 C 257.15625 252.863281 257.847656 252.296875 258.480469 251.664062 C 259.113281 251.03125 259.675781 250.34375 260.175781 249.597656 C 260.671875 248.855469 261.089844 248.066406 261.433594 247.242188 C 261.777344 246.414062 262.035156 245.5625 262.210938 244.683594 C 262.382812 243.804688 262.472656 242.921875 262.472656 242.023438 C 262.472656 241.128906 262.382812 240.242188 262.210938 239.367188 C 262.035156 238.488281 261.777344 237.636719 261.433594 236.808594 C 261.089844 235.980469 260.671875 235.195312 260.175781 234.453125 C 259.675781 233.707031 259.113281 233.019531 258.480469 232.386719 C 257.847656 231.753906 257.15625 231.1875 256.414062 230.691406 C 255.667969 230.195312 254.882812 229.773438 254.058594 229.429688 C 253.230469 229.089844 252.378906 228.832031 251.5 228.65625 C 250.621094 228.480469 249.734375 228.394531 248.839844 228.394531 Z M 248.839844 228.394531 " fill-opacity="1" fill-rule="nonzero"/></g></svg>